<svg xmlns="http://www.w3.org/2000/svg" id="Layer_1" viewBox="0 0 108 90" width="108" height="90"><defs><style>.cls-1{fill:#fffbb9}</style></defs><path d="M22.87 70.34a.38.38 0 0 1-.39-.38V23a.39.39 0 0 1 .39-.39h62.26a.4.4 0 0 1 .39.39v47a.39.39 0 0 1-.39.38zm1.37-46.92a1 1 0 0 0-1 1v44.16a1 1 0 0 0 1 1h59.51a1 1 0 0 0 1-1V24.42a1 1 0 0 0-1-1zm6 42.57a.38.38 0 0 1-.36-.24.39.39 0 0 1 .08-.42l15.75-16.06a.39.39 0 0 1 .27-.12.38.38 0 0 1 .27.11l.19.18.39.36 1.11 1.13 1.47 1.49a7 7 0 0 0 9.41 0l2.07-2 1-1a.38.38 0 0 1 .21-.11h.06a.36.36 0 0 1 .28.12L78 65.33a.41.41 0 0 1 .07.42.38.38 0 0 1-.35.24zM46 50.49a1 1 0 0 0-.71.3L32.83 63.53a1 1 0 0 0 .71 1.69h40.91a1 1 0 0 0 .71-1.69L62.84 50.92a1 1 0 0 0-.7-.3 1 1 0 0 0-.7.29l-.15.15L59.37 53a7.49 7.49 0 0 1-5.27 2 7.37 7.37 0 0 1-5.23-2l-1.48-1.5-.67-.67a1 1 0 0 0-.71-.3zM27.2 62.88a.35.35 0 0 1-.14 0 .38.38 0 0 1-.24-.35v-32a.38.38 0 0 1 .24-.36.32.32 0 0 1 .14 0 .39.39 0 0 1 .28.11l15.74 15.87a.4.4 0 0 1 0 .54L27.48 62.77a.39.39 0 0 1-.28.11zm1.38-30a1 1 0 0 0-.37.08 1 1 0 0 0-.62.91v25.25a1 1 0 0 0 .62.92 1 1 0 0 0 1.08-.23l12.43-12.69a1 1 0 0 0 0-1.39L29.29 33.15a1 1 0 0 0-.71-.3zm52.2 30a.38.38 0 0 1-.28-.12l-15.6-16a.39.39 0 0 1 0-.55L80.51 31a.39.39 0 0 1 .27-.11h.15a.39.39 0 0 1 .23.36v31.24a.38.38 0 0 1-.24.36.32.32 0 0 1-.14.03zM79.4 33.53a.94.94 0 0 0-.69.28l-12.28 12a1 1 0 0 0 0 1.4L78.69 59.8a1 1 0 0 0 .71.3.94.94 0 0 0 .37-.07 1 1 0 0 0 .62-.92V34.52a1 1 0 0 0-.61-.92 1 1 0 0 0-.38-.07zM54.1 50.66a3.23 3.23 0 0 1-2.31-.93L32.66 30.37 30.36 28a2.13 2.13 0 0 1-.21-.26l-.15-.1a.41.41 0 0 1-.06-.42.37.37 0 0 1 .35-.22H78a.38.38 0 0 1 .29.64l-.18.2c-.11.12-.19.22-.29.31L58 48.16l-.58.59-1 1a3.29 3.29 0 0 1-2.32.91zM33.56 27.77a1 1 0 0 0-.71 1.69l.36.36q9.56 9.69 19.13 19.36a2.46 2.46 0 0 0 1.76.71 2.54 2.54 0 0 0 1.77-.7c.33-.32.66-.65 1-1l.58-.59 18.03-18.14a1 1 0 0 0-.71-1.69z" class="cls-1"/></svg>