<svg xmlns="http://www.w3.org/2000/svg" id="Layer_1" viewBox="0 0 443.66 211.39" width="443.66" height="211.39"><defs><style>.cls-1{fill:#3cffde}.cls-2,.cls-3{fill:#b1fff2}.cls-3{stroke:#b1fff2}.cls-3,.cls-6{stroke-miterlimit:10;stroke-width:.46px}.cls-4{fill:#fcb5ff}.cls-5,.cls-6{fill:#fff64f}.cls-6{stroke:#fffbb9}</style></defs><path d="M121.24 93.82h10.3q5.75 0 11.62.27a81.12 81.12 0 0 1 11.18 1.39 26 26 0 0 1 9 3.37 12.07 12.07 0 0 1 5 6.2q1.38 3.89-.5 9.85a30.66 30.66 0 0 1-5.84 10.47 67.93 67.93 0 0 1-8.46 8.42 125.81 125.81 0 0 1-11.3 8.41q-5.86 3.87-12.17 7.31-7.3 4-14.62 7.41t-14.83 6.42q-7.53 2.88-15 5.32T70.43 173q-3.89 1-7.92 1.77a33 33 0 0 1-8 .55 36.14 36.14 0 0 1-4-.44 10.31 10.31 0 0 1-3.65-1.33 6.94 6.94 0 0 1-2.55-2.6 8.1 8.1 0 0 1-.89-3.21 10.5 10.5 0 0 1 .39-3.49A33.68 33.68 0 0 1 45 160.8a35.68 35.68 0 0 1 6.09-9.3q3.89-4.32 7.75-8.19c.3-.3.72-.69 1.28-1.17s1.12-.95 1.71-1.44 1.11-.86 1.55-1.16.74-.4.89-.33.11.39-.11.72a4.67 4.67 0 0 0-.3.49 2.56 2.56 0 0 1-.27.45c-1.9 2.76-4 5.4-6 8.08-.29.37-.81 1.05-1.55 2.05-1.83 2.47-3.51 5.06-5.09 7.69a28.9 28.9 0 0 0-2.1 4.21 11.13 11.13 0 0 0-.83 3.6 2.27 2.27 0 0 0 1.16 2.27c2.17 1.4 5 1.06 7.42.77a65.4 65.4 0 0 0 10.35-2 189.57 189.57 0 0 0 18.74-6.23c1.77-.67 3.53-1.37 5.28-2.07q6-2.44 11-4.65 7.53-3.33 14.78-7t14.33-7.92q5.66-3.54 11.13-7.41a73.37 73.37 0 0 0 10-8.55l.17-.18q1.09-1.32 3.07-3.34a43.35 43.35 0 0 0 3.93-4.65 29.19 29.19 0 0 0 3.16-5.37 9.68 9.68 0 0 0 .83-5.59q-.45-2.55-3.82-3.88a29.5 29.5 0 0 0-7.26-1.7 82.18 82.18 0 0 0-8.29-.53h-5.16q-6.75.11-13.89.44c-7.15.34-14.3.8-21.45.9h-5.4a58 58 0 0 1-9.79-.89c-2.7-.51-4.49-1.4-5.37-2.65q-1.89-2.78 1.66-7.86T97.55 77a115.32 115.32 0 0 1 29.34-13.28c2.58-.67 5.11-1.2 7.58-1.61a41.17 41.17 0 0 1 7.8-.49c1 .07 2 .16 3 .27a17.54 17.54 0 0 1 3.1.61 9.83 9.83 0 0 1 2.77 1.33 6.64 6.64 0 0 1 2 2.32 4.9 4.9 0 0 1 .23 4 9.87 9.87 0 0 1-2.5 3.54 22.62 22.62 0 0 1-3.82 2.88q-2.1 1.27-3.54 2a10.43 10.43 0 0 1-1.6.67 11.6 11.6 0 0 1-1.28.33 42.16 42.16 0 0 0 6.42-6 12.48 12.48 0 0 0 2.55-4.15c.44-1.33-.11-2.25-1.66-2.77a16.18 16.18 0 0 0-7.42-.44c-1.33.14-2.65.33-4 .55a34.74 34.74 0 0 0-3.88.88 72.17 72.17 0 0 0-15 5.65c-4.8 2.44-9.49 4.13-14.06 6.93-2.36 1.55-8 5.17-10.33 6.94a27.46 27.46 0 0 0-2.46 2.07 3 3 0 0 0 1.77 5.24l1.19.11c5.65.47 14.57-.68 20.23-.75q4.28-.01 7.26-.01z" class="cls-1"/><path d="M56.24 174h-1.68a38.41 38.41 0 0 1-3.85-.43 8.91 8.91 0 0 1-3.19-1.16 5.59 5.59 0 0 1-2.06-2.08 6.75 6.75 0 0 1-.74-2.7 9 9 0 0 1 .34-3 31.19 31.19 0 0 1 1.1-3.26 34.28 34.28 0 0 1 5.84-9c2.26-2.52 4.55-5 6.83-7.26l-.91 1.2-1.38 1.84c-.33.41-.86 1.11-1.57 2.07-1.72 2.32-3.41 4.87-5.17 7.8a30.65 30.65 0 0 0-2.2 4.41 12.87 12.87 0 0 0-.92 4 3.59 3.59 0 0 0 1.81 3.44 8.71 8.71 0 0 0 4.82 1.21 27.13 27.13 0 0 0 3.37-.26 66.73 66.73 0 0 0 10.52-2 188.84 188.84 0 0 0 18.88-6.27c1.74-.67 3.52-1.37 5.3-2.08 4-1.63 7.74-3.2 11.06-4.67 5-2.22 10-4.59 14.84-7.06s9.7-5.16 14.41-8c3.77-2.37 7.53-4.87 11.17-7.45a74.08 74.08 0 0 0 10.22-8.7 3 3 0 0 0 .24-.26c.7-.83 1.72-1.93 3-3.26a46.86 46.86 0 0 0 4-4.78 31.48 31.48 0 0 0 3.3-5.61 11.05 11.05 0 0 0 .93-6.34c-.38-2.19-1.94-3.82-4.63-4.88a30.39 30.39 0 0 0-7.63-1.76 83.58 83.58 0 0 0-8.43-.54h-5.2c-4.5.07-9.19.22-13.93.44-1.82.08-3.63.18-5.45.27H119c-5.14.27-10.46.54-15.68.61h-5.35a57.84 57.84 0 0 1-9.58-.86c-2.34-.45-3.87-1.16-4.55-2.13-1.12-1.65.28-4.37 1.67-6.36 2.25-3.24 6.49-7 12.58-11a115 115 0 0 1 29-13.12c2.53-.65 5-1.18 7.46-1.58a39.59 39.59 0 0 1 6.36-.5h1.15c1 .07 2 .16 3 .27a16 16 0 0 1 2.87.56 8.51 8.51 0 0 1 2.39 1.15 5.32 5.32 0 0 1 1.62 1.83 3.57 3.57 0 0 1 .18 3 8.49 8.49 0 0 1-2.17 3.07 18.69 18.69 0 0 1-1.73 1.45 13.59 13.59 0 0 0 2.59-4.34c.67-2-.26-3.68-2.49-4.42a14 14 0 0 0-4.66-.73 27.28 27.28 0 0 0-3.32.23c-1.36.15-2.72.34-4.05.56a35 35 0 0 0-4 .91 74.25 74.25 0 0 0-15.31 5.75c-1.76.89-3.54 1.7-5.26 2.48a77.22 77.22 0 0 0-8.89 4.5l-1.32.86c-2.65 1.73-7.08 4.62-9.12 6.15A31.29 31.29 0 0 0 90 88.32a4.36 4.36 0 0 0 2.52 7.5l1.22.11c1 .08 2 .12 3.21.12 3 0 6.43-.24 9.75-.47 2.73-.19 5.3-.37 7.4-.4 2.85 0 5.2-.05 7.18-.05 3.14 0 6.61 0 10.31-.06h1.58c3.3 0 6.65.1 10 .29a78.73 78.73 0 0 1 11 1.36 24.79 24.79 0 0 1 8.52 3.19 10.83 10.83 0 0 1 4.51 5.54c.82 2.3.64 5.33-.52 9a29.58 29.58 0 0 1-5.68 10.08 66 66 0 0 1-8.31 8.25 123.74 123.74 0 0 1-11.18 8.33c-3.87 2.56-7.93 5-12.08 7.25-4.81 2.63-9.71 5.11-14.54 7.38s-9.81 4.42-14.76 6.39-10 3.68-14.93 5.29-10 3-15.12 4.29c-2.57.66-5.2 1.24-7.86 1.75a31.56 31.56 0 0 1-5.98.54zm94.65-2.69h-1.06c-2.73-.26-8.24-1.41-9.61-3.88a2.65 2.65 0 0 1 .11-2.59c1-2 16.58-14.82 44.47-35.57 19.74-14.69 46.64-34 57.48-40 18.22-10.27 49.06-24.4 57.77-26.2-5 3.09-20.56 10.61-32.35 16.31-10.77 5.21-20.94 10.14-25.43 12.67-5.13 2.9-29.14 19.07-53.58 36.36-13 9.16-24 17.18-31.83 23.19-14.49 11.08-14.84 12.65-15 13.4a1.37 1.37 0 0 0 .2 1.07c1.48 2.07 5.76 3.45 10.66 3.45a29.4 29.4 0 0 0 17.72-6.07c1.19-.9 2.06-1.51 2.69-1.92-.58.87-1.37 1.93-2.12 2.85-6.34 5.28-15.58 6.93-20.12 6.93z" class="cls-2"/><path d="M168.14 166.42a1.09 1.09 0 0 0 .2-1 .56.56 0 0 0 0-.12l.1-.15c.16-.28.31-.53 1.17-1.09 3-1.94 5.82-6.76 7.26-9.47a72.47 72.47 0 0 0 3.82-8.36 91.06 91.06 0 0 0 2.84-8.79c.79-3 1.52-5.95 2.16-8.87.7-3.09 1.3-6.24 1.79-9.36s.91-6.3 1.24-9.45c.26-1.84.46-3.78.6-5.73.06-.9.14-1.86.23-2.84a1 1 0 0 0-.78-1.06.78.78 0 0 0-.22 0 1 1 0 0 0-.93.66c-.14.37-.28.74-.41 1.11l-1.63 4.55c-.45 1.31-.92 2.61-1.39 3.89s-1 2.53-1.51 3.78c-.14.34-.29.72-.49 1.14a5 5 0 0 1-.65 1.09 2.43 2.43 0 0 1-.8.71 1.35 1.35 0 0 1-.66.17h-.26a1.43 1.43 0 0 1-1.06-.77 8.41 8.41 0 0 1-.68-1.66 16 16 0 0 1-.44-3 26.61 26.61 0 0 1 .05-3.21 40.74 40.74 0 0 1 1-6.55 44.32 44.32 0 0 1 2-6.22c.48-1.16 1-2.3 1.58-3.4a12.61 12.61 0 0 1 1.81-2.6c0 .09-.07.19-.1.29a17.06 17.06 0 0 0-.63 1.91c-.16.63-.31 1.29-.43 2a64.11 64.11 0 0 0-1.43 8.93c-.19 2.21-.38 4.46-.55 6.71a1 1 0 0 0 .73 1 1.26 1.26 0 0 0 .27 0 1 1 0 0 0 .89-.55l.09-.2c.38-.74.74-1.47 1.09-2.2l2.05-4.3c.67-1.41 1.32-2.83 1.93-4.22v-.12c0-.04.22-.64.49-1.34s.62-1.65 1-2.68.76-2.14 1.17-3.34.83-2.33 1.24-3.44.78-2.12 1.12-3.06l.77-2.11a.24.24 0 0 0 0-.08s0-.14.23-.61.29-.71.46-1.13.34-.77.53-1.14.33-.65.43-.86l.19-.27a5.2 5.2 0 0 0 0 .8v1.06a9.76 9.76 0 0 1-.06 1 .17.17 0 0 0 0 .07c0 .53-.11 1.59-.28 3.24s-.38 3.57-.65 5.8l-.85 7c-.29 2.44-.57 4.7-.84 6.8s-.49 3.82-.69 5.23c-.29 2-.29 2.19-.29 2.29-.78 6.08-1.89 12.23-3.28 18.25a85.65 85.65 0 0 1-6.01 17.45 76.69 76.69 0 0 1-4.42 8 40 40 0 0 1-7.16 8.29l-.32.25a5.4 5.4 0 0 0-.48.38 15.57 15.57 0 0 1-2.15 1.5z" class="cls-2"/><path d="M206.61 98.9a1.37 1.37 0 0 1-.28 0 1.4 1.4 0 0 1-1-.76 4.45 4.45 0 0 1-.49-1.51 23.4 23.4 0 0 1 0-6.26 37.85 37.85 0 0 1 1.28-5.82 42.29 42.29 0 0 1 1.88-4.96c.64-1.44 1.21-2.65 1.68-3.6s1.19-1.95 1.93-3c.22-.33.44-.66.65-1a18.19 18.19 0 0 1 1.67-2.31 21 21 0 0 1 2.9-2.74 10.78 10.78 0 0 1 3.25-1.74 1.14 1.14 0 0 0 .84-.91c.45-2.39.73-4.08 1-5.88.33-2.07.73-4.28 1.18-6.54.64-3.11 1.29-6.2 1.93-9.26s1.32-6.1 2-9.15c.48-2.16 1-4.33 1.55-6.46s1.18-4.23 1.9-6.27l.18-.58v.14A86.7 86.7 0 0 1 230 29l-1.23 8.85c-.46 3.09-1 6.22-1.5 9.32s-1.08 6.21-1.65 9.32c-.85 4.73-1.73 9.6-2.63 14.47-.69 3.73-1.48 7.53-2.35 11.28a1.18 1.18 0 0 0 .7 1.35 1.32 1.32 0 0 0 .44.08 1.17 1.17 0 0 0 1-.57c.11-.19.21-.36.31-.5v-.06c.75-1.35 1.63-2.79 2.62-4.29l-.09.16-.8 1.61c-.72 1.44-1.46 3.06-2.18 4.81s-1.4 3.37-2 4.87c-.34.75-.58 1.31-.75 1.73a6.71 6.71 0 0 1-.83 1.39 1.74 1.74 0 0 1-1.22.58 1.55 1.55 0 0 1-.54-.1 1.17 1.17 0 0 1-.61-.91 5.45 5.45 0 0 1-.13-1v-.27a13.4 13.4 0 0 1 .27-2.69c.07-.47.15-1 .21-1.49l.11-.8a1.15 1.15 0 0 0-1.16-1.32 1.16 1.16 0 0 0-1.06.69c-.55 1.22-1.14 2.51-1.78 3.83S211.68 92 211 93.26c-.56 1-1.1 1.9-1.59 2.86a8.5 8.5 0 0 1-.56.88l-.18.26a4.67 4.67 0 0 1-.42.53c-.1.11-.2.22-.31.36a2 2 0 0 1-.75.59 1.09 1.09 0 0 1-.58.16zm12.12-32.65a1.24 1.24 0 0 0-.59.16 10 10 0 0 0-1.93 1.53 18.6 18.6 0 0 0-2.3 2.89 29.26 29.26 0 0 0-1.78 3.17c-.5 1-.92 1.9-1.25 2.64a18 18 0 0 0-1 2.85c-.38 1.31-.75 2.8-1.11 4.42s-.69 3.4-.94 5.22a29.44 29.44 0 0 0-.28 3.28 1.15 1.15 0 0 0 .86 1.16 1 1 0 0 0 .3 0 1.15 1.15 0 0 0 1-.62c.75-1.4 1.54-2.86 2.36-4.33 1.15-2.06 2.26-4.26 3.32-6.54a64.18 64.18 0 0 0 2.8-7.25 46.38 46.38 0 0 0 1.65-7.24 1.18 1.18 0 0 0-1.16-1.34z" class="cls-3"/><path d="M198.26 171.83a.55.55 0 0 1-.55-.55V131.7a4.87 4.87 0 0 1 .59-.87H211c6.31.32 13 3.41 13 12.08a8.92 8.92 0 0 1-2 5.68 8.54 8.54 0 0 1-.63.72.79.79 0 0 0-.24.67.84.84 0 0 0 .38.61 9.76 9.76 0 0 1 4.47 8.73 11.47 11.47 0 0 1-2.76 7.59.57.57 0 0 1-.42.19.54.54 0 0 1-.42-.91 10.36 10.36 0 0 0 2.49-6.87 8.76 8.76 0 0 0-5.64-8.64h-.05a.52.52 0 0 1-.43-.51.56.56 0 0 1 .38-.55 1 1 0 0 0 .25-.13 7.69 7.69 0 0 0 3.46-6.57c0-9.88-9.14-10.65-11.94-11.08h-11.21a7.86 7.86 0 0 0-1 1.26V170a.83.83 0 0 0 .83.83h11.38a13.72 13.72 0 0 0 4.09-.6h.14a.5.5 0 0 1 .48.35.5.5 0 0 1-.33.63 14.64 14.64 0 0 1-4.38.64zm6.45-7.55v-10.89a.56.56 0 0 1 .55-.56h7.49c4.66 0 7.34 2.19 7.34 6s-2.68 6-7.34 6h-7.49a.55.55 0 0 1-.55-.55zm1-8.62V163a.83.83 0 0 0 .83.83h5.56c5 0 5.75-2.82 5.75-4.5s-.75-4.5-5.75-4.5h-5.56a.83.83 0 0 0-.83.83zm-1-7.38v-9.89a.56.56 0 0 1 .55-.56h5.92c4.19 0 6.59 2 6.59 5.5 0 3.65-2.22 5.5-6.59 5.5h-5.92a.55.55 0 0 1-.55-.55zm1-8.62V147a.83.83 0 0 0 .83.83h4.67c3.84 0 5.63-1.43 5.63-4.5 0-1.68-.73-4.5-5.63-4.5h-4.67a.83.83 0 0 0-.83.83zm44.99 32.17a.56.56 0 0 1-.47-.26l-9-14.35a.84.84 0 0 0-.7-.39h-1a.83.83 0 0 0-.83.83v13.62a.56.56 0 0 1-.56.55h-6.89a.55.55 0 0 1-.55-.55v-10.39a.53.53 0 0 1 .5-.56.54.54 0 0 1 .5.56V170a.83.83 0 0 0 .83.83h4.34a.83.83 0 0 0 .83-.83v-13.61a.56.56 0 0 1 .55-.56h3.37a.57.57 0 0 1 .46.25l9.53 14.38a.84.84 0 0 0 .69.37h5.89a.51.51 0 0 1 .5.5.5.5 0 0 1-.5.5zm3.93-6.08a.55.55 0 0 1-.47-.25L248 156a.53.53 0 0 1 0-.5.56.56 0 0 1 .38-.34c5.29-1.32 8.32-5.41 8.32-11.22 0-7-5-11.66-12.44-12.09h-11.5a4.22 4.22 0 0 0-1 1.26v20.5c.21.31 0 .56-.35.56a.73.73 0 0 1-.65-.56V131.7a2.52 2.52 0 0 1 .65-.87h12.89c8 .32 13.55 5.57 13.55 13.09 0 5.61-2.72 9.89-7.45 11.76a.8.8 0 0 0-.49.51.81.81 0 0 0 .09.71l5.14 8a.55.55 0 0 1-.16.77.64.64 0 0 1-.35.08zm-16.92-15.47v-11.89a.56.56 0 0 1 .55-.56h5.43c4.9 0 7.7 2.37 7.7 6.5s-2.8 6.5-7.7 6.5h-5.43a.55.55 0 0 1-.55-.55zm1-10.62V149a.83.83 0 0 0 .83.83h4.14c2.51 0 6.73-.71 6.73-5.5s-4.22-5.5-6.73-5.5h-4.14a.83.83 0 0 0-.83.83zm42.91 32.49a20 20 0 0 1-20.16-17.51.56.56 0 0 1 .11-.41.54.54 0 0 1 .36-.21h.07a.56.56 0 0 1 .54.48 18.67 18.67 0 0 0 19.08 16.5c11.17 0 19.27-8.3 19.27-19.73s-8.1-19.72-19.27-19.72a18.7 18.7 0 0 0-19 16.15.55.55 0 0 1-.55.47H262a.56.56 0 0 1-.46-.64 20 20 0 0 1 20.1-17.09c11.62 0 20.38 9 20.38 20.84s-8.78 20.87-20.4 20.87zm3.22-6.77a.55.55 0 0 1-.13-1.09c5.59-1.36 9.35-6.58 9.35-13 0-7.73-5.23-13.34-12.44-13.34s-12.45 5.61-12.45 13.34c0 6.31 3.52 11.36 9 12.88a.54.54 0 0 1 .33.26.52.52 0 0 1 .06.42.57.57 0 0 1-.54.41h-.15c-5.84-1.63-9.77-7.24-9.77-13.95 0-8.24 5.83-14.45 13.56-14.45s13.55 6.21 13.55 14.45c0 6.92-4.1 12.57-10.19 14.06zm35.44 6.77a16.8 16.8 0 0 1-1.75-.09.51.51 0 0 1-.37-.2.54.54 0 0 1-.13-.4.57.57 0 0 1 .56-.5h.05c.54 0 1.09.08 1.64.08 9.05 0 13.11-5.21 13.11-10.37 0-6.29-4.06-9.08-10.62-11.53l-.41-.15c-5.68-2.13-8.41-3.31-8.41-6.87 0-3 2.88-5.26 6.55-5.26a8.27 8.27 0 0 1 1.4.12.55.55 0 0 1 .46.63.55.55 0 0 1-.55.47h-.09a8.36 8.36 0 0 0-1.22-.1c-3.05 0-5.44 1.83-5.44 4.15 0 2.83 2.36 3.83 7.69 5.83l.41.15c5.74 2.15 11.34 4.88 11.34 12.57 0 6.85-5.72 11.47-14.22 11.47zM312 170a.55.55 0 0 1-.28-.07A18.75 18.75 0 0 1 307 166c-1.16-1.34-1.7-2.19-1.61-2.53a.57.57 0 0 1 .17-.28l5.05-4.26a.51.51 0 0 1 .35-.13h.1a.56.56 0 0 1 .39.28c.13.23 3.33 5.6 8.82 5.6 3.12 0 6.27-1.23 6.27-4s-1.78-3.83-6.79-5.59c-11.21-3.91-12.65-9-12.65-13 0-5.72 5-11.65 13.39-11.65a17.26 17.26 0 0 1 13.22 6.45.55.55 0 0 1-.06.72l-4.65 4.6a.55.55 0 0 1-.38.16.58.58 0 0 1-.4-.21 6.48 6.48 0 0 0-.82-.93.54.54 0 0 1-.15-.4.55.55 0 0 1 .16-.39.59.59 0 0 1 .39-.16.55.55 0 0 1 .37.14.82.82 0 0 0 1.13 0l2.68-2.65a.82.82 0 0 0 0-1.17 16.38 16.38 0 0 0-11.46-5c-7.68 0-12.27 5.35-12.27 10.53 0 6.84 6 9.86 11.89 11.92 3.88 1.35 7.55 2.63 7.55 6.63 0 3-3 5.09-7.39 5.09s-7.5-3.07-8.92-4.9a.81.81 0 0 0-.57-.32h-.09a.86.86 0 0 0-.53.19l-2.92 2.47a.83.83 0 0 0-.13 1.14 17.8 17.8 0 0 0 5.18 4.6.54.54 0 0 1 .26.33.55.55 0 0 1-.53.7zm41.61 2.15a16.61 16.61 0 0 1-1.74-.09.53.53 0 0 1-.38-.2.58.58 0 0 1-.12-.4.56.56 0 0 1 .55-.5h.08c.53 0 1.08.08 1.63.08 9.06 0 13.12-5.21 13.12-10.37 0-6.29-4.07-9.08-10.62-11.53l-.41-.15c-5.68-2.13-8.41-3.31-8.41-6.87 0-3 2.87-5.26 6.55-5.26a8.36 8.36 0 0 1 1.4.12.55.55 0 0 1 .46.63.57.57 0 0 1-.55.47h-.09a8.48 8.48 0 0 0-1.22-.1c-3 0-5.44 1.83-5.44 4.15 0 2.83 2.35 3.83 7.69 5.83l.41.15c5.73 2.15 11.34 4.88 11.34 12.57-.02 6.85-5.74 11.47-14.25 11.47zm-8.25-2.15a.5.5 0 0 1-.27-.07 18.57 18.57 0 0 1-4.74-3.93c-1.17-1.34-1.71-2.19-1.62-2.53a.53.53 0 0 1 .18-.28l5-4.26a.53.53 0 0 1 .36-.13h.09a.54.54 0 0 1 .39.28c.14.23 3.33 5.6 8.82 5.6 3.13 0 6.28-1.23 6.28-4s-1.78-3.83-6.8-5.59c-11.2-3.91-12.64-9-12.64-13 0-5.72 5-11.65 13.39-11.65a17.29 17.29 0 0 1 13.22 6.45.56.56 0 0 1-.06.72l-4.65 4.6a.57.57 0 0 1-.38.16h-.05a.61.61 0 0 1-.4-.21 6.89 6.89 0 0 0-.81-.93.59.59 0 0 1-.16-.4.52.52 0 0 1 .17-.39.55.55 0 0 1 .39-.16.54.54 0 0 1 .36.14.84.84 0 0 0 .55.21.82.82 0 0 0 .59-.24l2.68-2.65a.83.83 0 0 0 0-1.17 16.38 16.38 0 0 0-11.46-5c-7.69 0-12.28 5.35-12.28 10.53 0 6.84 6 9.86 11.9 11.92 3.88 1.35 7.54 2.63 7.54 6.63 0 3-3 5.09-7.39 5.09s-7.49-3.07-8.91-4.9a.83.83 0 0 0-.57-.32H344a.87.87 0 0 0-.54.19l-2.92 2.47a.84.84 0 0 0-.13 1.14 18 18 0 0 0 5.19 4.6.54.54 0 0 1 .26.33.52.52 0 0 1-.06.42.53.53 0 0 1-.44.33z" class="cls-4"/><path d="M96.21 148.92a1.57 1.57 0 0 0 1.5-1.62v-41a1.5 1.5 0 1 0-3 0v41a1.57 1.57 0 0 0 1.5 1.62z" class="cls-5"/><path d="M96 147.92c-.34 0-.62-.28-.27-.62v-41c-.35-.34-.07-.62.27-.62a.81.81 0 0 1 .73.62v41a.81.81 0 0 1-.73.62z" class="cls-6"/><path d="M154.69 180.83h-57v-9.91A1.8 1.8 0 0 0 96 169.3a1.21 1.21 0 0 0-1.27 1.62v11.25a1.25 1.25 0 0 0 1.27 1.66h58.71a1.68 1.68 0 0 0 1.62-1.66 1.28 1.28 0 0 0-1.64-1.34z" class="cls-5"/><path d="M96 182.83c-.34 0-.62-.32-.27-.66v-11.25c-.35-.34-.07-.62.27-.62a.81.81 0 0 1 .73.62v9.63c-.11.55.34 1 .89 1.28h57.09c.34-.28.62 0 .62.34a.69.69 0 0 1-.62.66z" class="cls-6"/><path d="M356 174.42a1.22 1.22 0 0 0-1.28 1.62v4.79H161.63a1.28 1.28 0 0 0-1.62 1.34 1.68 1.68 0 0 0 1.62 1.66H356a1.84 1.84 0 0 0 1.72-1.66V176a1.78 1.78 0 0 0-1.72-1.58z" class="cls-5"/><path d="M161.63 182.83a.69.69 0 0 1-.62-.66c0-.34.28-.62.62-.34h192.74a3.36 3.36 0 0 0 1.34-1.28V176c-.34-.34-.06-.62.28-.62a.79.79 0 0 1 .72.62v6.13a.89.89 0 0 1-.72.66z" class="cls-6"/><path d="M96 73.81a1.79 1.79 0 0 0 1.73-1.61V40.83h119.5c.89.47 1.62-.26 1.62-1.15a2 2 0 0 0-1.62-1.85H96c-.89.23-1.62 1-1.27 1.85V72.2A1.2 1.2 0 0 0 96 73.81z" class="cls-5"/><path d="M96 72.82c-.34 0-.62-.28-.27-.62V39.68c-.35-.34-.07-.62.27-.85h121.21a1.14 1.14 0 0 1 .62.85c0 .34-.28.62-.62.15H97.6c-.55.47-1 .92-.89 1.47v30.9a.81.81 0 0 1-.71.62z" class="cls-6"/><path d="M233.48 40.83h106.43a1.5 1.5 0 1 0 0-3H233.48a1.5 1.5 0 1 0 0 3z" class="cls-5"/><path d="M233.48 39.83c-.35.47-.62.19-.62-.15a1.12 1.12 0 0 1 .62-.85h106.43a1.12 1.12 0 0 1 .62.85c0 .34-.27.62-.62.15z" class="cls-6"/><path d="M356 37.83h-9.13a2 2 0 0 0-1.62 1.85c0 .89.72 1.62 1.62 1.15h7.85v84.5A1.22 1.22 0 0 0 356 127a1.77 1.77 0 0 0 1.72-1.62v-85.7a2.24 2.24 0 0 0-1.72-1.85z" class="cls-5"/><path d="M356 126c-.34 0-.62-.27-.28-.62v-84a6.13 6.13 0 0 0-1.34-1.47h-7.51c-.35.47-.62.19-.62-.15a1.12 1.12 0 0 1 .62-.85H356a1.62 1.62 0 0 1 .72.85v85.65a.78.78 0 0 1-.72.59z" class="cls-6"/></svg>