<svg xmlns="http://www.w3.org/2000/svg" id="Layer_1" viewBox="0 0 108 90" width="108" height="90"><defs><style>.cls-1{fill:#dc99ff}</style></defs><path d="M35.45 70.18a6.22 6.22 0 0 1-6.63-6.61V26.38a6.22 6.22 0 0 1 6.58-6.55h37.2a6.23 6.23 0 0 1 6.58 6.56v37.19c0 4-2.6 6.6-6.63 6.6h-37.1zm37.1-.91a5.35 5.35 0 0 0 5.72-5.69V26.39a5.32 5.32 0 0 0-5.67-5.66H35.41a5.33 5.33 0 0 0-5.68 5.65v37.19a5.36 5.36 0 0 0 5.72 5.7h37.1zm-35.07-4.72c-2 0-3-1-3-3V42.3c0-1.33.25-1.58 1.59-1.59h2.53a1 1 0 0 1 .84.32 1.05 1.05 0 0 1 .16.92c-1.05 6.07.68 10.84 5.28 14.59a13.75 13.75 0 0 0 8.87 3.18 15.75 15.75 0 0 0 2-.14 14.13 14.13 0 0 0 11.55-8.25A14.35 14.35 0 0 0 68.43 42c-.13-.67.08-.93.16-1a1 1 0 0 1 .91-.33h2.82a1.14 1.14 0 0 1 .92.32 1.16 1.16 0 0 1 .33.92v20.04c0 1.59-1.09 2.57-2.84 2.57H37.48zm25.73-.9h7.49c1.74 0 1.93-1.16 1.94-1.66v-19.2a1.13 1.13 0 0 0-.34-.83 1.15 1.15 0 0 0-.82-.34h-.84a1.16 1.16 0 0 0-.87.39 1.18 1.18 0 0 0-.29.93 14.87 14.87 0 0 1-1.38 8.8 15.19 15.19 0 0 1-12.2 8.75 18.28 18.28 0 0 1-2.19.14 14.56 14.56 0 0 1-9.4-3.39 15.12 15.12 0 0 1-5.77-14.32 1.19 1.19 0 0 0-.29-.92 1.16 1.16 0 0 0-.87-.39h-.86a1.16 1.16 0 0 0-1.16 1.17v18.76c0 1.51.59 2.1 2.12 2.11h25.73zM54 55a9.89 9.89 0 0 1-10-10 10.06 10.06 0 1 1 10 10zm0-19.12a9 9 0 0 0-9 9.13 8.89 8.89 0 0 0 9 9.08 9.11 9.11 0 0 0 0-18.21h-.08zm14.3.12h-2.79A2.44 2.44 0 0 1 63 33.48V28a2.53 2.53 0 0 1 2.65-2.57h5.2a2.56 2.56 0 0 1 2.69 2.71v5.2A2.49 2.49 0 0 1 71 36zm0-9.68h-2.63A1.61 1.61 0 0 0 63.92 28v5.42a1.52 1.52 0 0 0 1.61 1.62h5.42a1.6 1.6 0 0 0 1.68-1.75v-5.11a1.67 1.67 0 0 0-1.81-1.82z" class="cls-1"/></svg>