<svg xmlns="http://www.w3.org/2000/svg" id="Layer_1" viewBox="0 0 108 90" width="108" height="90"><defs><style>.cls-1{fill:#b1fff2}</style></defs><path d="M79.26 67.18h-9.94c-.7 0-.95-.25-.95-1V50a24.14 24.14 0 0 0-.21-3 5.34 5.34 0 0 0-1.4-3.1 3.78 3.78 0 0 0-2.32-1.14 7 7 0 0 0-.89-.06 5.07 5.07 0 0 0-2.43.58A5.67 5.67 0 0 0 59.2 45a6.13 6.13 0 0 0-1 3.83v17.55a.74.74 0 0 1-.2.62.73.73 0 0 1-.54.21H47.38a.9.9 0 0 1-.73-.21 1 1 0 0 1-.21-.73V34.82a.88.88 0 0 1 .23-.7.81.81 0 0 1 .63-.24h10c.76 0 .85.34.9.52a1.42 1.42 0 0 0 .91 1 1.31 1.31 0 0 0 .48.08 1.43 1.43 0 0 0 .84-.27 10.38 10.38 0 0 1 3.51-1.65 13.69 13.69 0 0 1 3.39-.42 14.56 14.56 0 0 1 2.69.25 11.24 11.24 0 0 1 7.31 4.46 13.32 13.32 0 0 1 2.06 4.3 21.65 21.65 0 0 1 .79 6.11v18a.88.88 0 0 1-.24.69.87.87 0 0 1-.68.24zm-15.73-25.6a9.57 9.57 0 0 1 1 .07 4.89 4.89 0 0 1 3 1.48 6.4 6.4 0 0 1 1.7 3.73 24.48 24.48 0 0 1 .25 3.14v14.6a1.42 1.42 0 0 0 .42 1 1.45 1.45 0 0 0 1 .42h6.71a1.47 1.47 0 0 0 1-.42 1.45 1.45 0 0 0 .42-1V48.25a20.27 20.27 0 0 0-.75-5.81 12.27 12.27 0 0 0-1.88-4 10 10 0 0 0-6.61-4 13.55 13.55 0 0 0-2.5-.24 13.05 13.05 0 0 0-3.11.39 9.41 9.41 0 0 0-5 3.24c-.23.28-.45.57-.67.87l-.34.45a.59.59 0 0 1-.45.22h-.19a.56.56 0 0 1-.44-.55v-2.38A1.44 1.44 0 0 0 55.7 35H49a1.43 1.43 0 0 0-1.43 1.46v28.15A1.43 1.43 0 0 0 49 66.05h6.7a1.43 1.43 0 0 0 1.43-1.43V48.86a7.26 7.26 0 0 1 1.17-4.48 6.67 6.67 0 0 1 2.29-2.08 6.12 6.12 0 0 1 2.94-.72zM30.78 67.17c-.69 0-.94-.25-.94-.94V34.87c0-.91.43-1 1-1h9.86c.7 0 1 .25 1 1V66.2c0 .72-.25 1-1 1h-9.92zM32.4 35a1.45 1.45 0 0 0-1.4 1.44v28.18a1.44 1.44 0 0 0 1.44 1.43h6.68a1.43 1.43 0 0 0 1.44-1.43V36.44a1.45 1.45 0 0 0-.42-1 1.43 1.43 0 0 0-1-.42zm3.53-4.39a6.66 6.66 0 0 1-4.8-1.61 5.9 5.9 0 0 1-1.87-5.26 5.77 5.77 0 0 1 1.52-3.3 6.25 6.25 0 0 1 3.61-1.89 9.94 9.94 0 0 1 1.51-.13 7 7 0 0 1 3.21.75 5.62 5.62 0 0 1 3.16 4.51 5.75 5.75 0 0 1-2.59 5.88 6.77 6.77 0 0 1-3.74 1.09zm0-11.11a7.62 7.62 0 0 0-1.32.12 5.13 5.13 0 0 0-3 1.55 4.51 4.51 0 0 0-1.21 2.66 4.84 4.84 0 0 0 1.51 4.31 5.57 5.57 0 0 0 4 1.36 5.8 5.8 0 0 0 3.13-.9 4.65 4.65 0 0 0 2.11-4.81 4.56 4.56 0 0 0-2.56-3.66 5.86 5.86 0 0 0-2.69-.63z" class="cls-1"/></svg>