<svg xmlns="http://www.w3.org/2000/svg" id="Layer_1" viewBox="0 0 252 61.2" width="252" height="61.2"><defs><style>.cls-1{fill:#b1fff2}</style></defs><path d="M12.68 40.74V20.46h6.5c3.71 0 6.3 2.49 6.3 6.05s-2.59 6-6.3 6H16.5a2.39 2.39 0 0 0-2.39 2.39v5.8zm3.82-19a2.39 2.39 0 0 0-2.39 2.38v4.85a2.39 2.39 0 0 0 2.39 2.39h2.19c3.22 0 5.3-1.89 5.3-4.81s-2.08-4.81-5.3-4.81zm28.19 19v-7.39A2.39 2.39 0 0 0 42.31 31h-7.42a2.4 2.4 0 0 0-2.39 2.39v7.39h-1.42V20.46h1.42v6.88a2.4 2.4 0 0 0 2.39 2.39h7.42a2.39 2.39 0 0 0 2.38-2.39v-6.88h1.43v20.28zm17.68.39c-5.95 0-10.26-4.43-10.26-10.53s4.31-10.53 10.26-10.53S72.64 24.5 72.64 30.6s-4.32 10.53-10.27 10.53zm0-19.82c-5 0-8.77 4-8.77 9.29s3.77 9.3 8.77 9.3 8.78-4 8.78-9.3-3.77-9.29-8.78-9.29zM82.3 40.74V24.08a2.39 2.39 0 0 0-2.39-2.38H76v-1.24h14v1.24h-3.89a2.39 2.39 0 0 0-2.38 2.38v16.66zm21.35.39c-6 0-10.27-4.43-10.27-10.53s4.32-10.53 10.27-10.53 10.27 4.43 10.27 10.53-4.32 10.53-10.27 10.53zm0-19.82c-5 0-8.77 4-8.77 9.29s3.77 9.3 8.77 9.3 8.78-4 8.78-9.3-3.77-9.29-8.78-9.29zm25.68 19.82A10.39 10.39 0 0 1 118.6 30.6a10.32 10.32 0 0 1 10.57-10.53 10.58 10.58 0 0 1 6.62 2.2l-.89.87a9.2 9.2 0 0 0-14.8 7.46 9.19 9.19 0 0 0 9.23 9.4 10.61 10.61 0 0 0 4.43-.83 2.4 2.4 0 0 0 1.39-2.17v-3a2.39 2.39 0 0 0-2.39-2.38H130v-1.21h6.53v8.52a11.83 11.83 0 0 1-7.2 2.2zm24.28-.39l-4.7-7.46a2.38 2.38 0 0 0-4.4 1.27v6.19h-1.43V20.46h6.24c3.77 0 6.3 2.36 6.3 5.85a5.38 5.38 0 0 1-3.05 5.25 2.46 2.46 0 0 0-1.32 1.52 2.36 2.36 0 0 0 .29 2l3.67 5.71zm-6.72-19a2.39 2.39 0 0 0-2.38 2.38v4.46a2.39 2.39 0 0 0 2.38 2.39h1.94c3.27 0 5.3-1.77 5.3-4.62s-2-4.61-5.3-4.61zm30.25 19l-1.49-3.86a2.4 2.4 0 0 0-2.23-1.53h-8a2.41 2.41 0 0 0-2.23 1.53l-1.49 3.86h-1.27l7.88-20.28h2.27l7.88 20.28zM169.4 25a2.38 2.38 0 0 0-2.23 1.53L165.44 31a2.38 2.38 0 0 0 2.23 3.24h3.47a2.38 2.38 0 0 0 2-1 2.41 2.41 0 0 0 .26-2.21l-1.74-4.51A2.37 2.37 0 0 0 169.4 25zm14.66 15.74V20.46h6.5c3.71 0 6.31 2.49 6.31 6.05s-2.6 6-6.31 6h-2.68a2.39 2.39 0 0 0-2.39 2.39v5.8zm3.82-19a2.39 2.39 0 0 0-2.39 2.38v4.85a2.39 2.39 0 0 0 2.39 2.39h2.19c3.22 0 5.3-1.89 5.3-4.81s-2.08-4.81-5.3-4.81zm28.2 19v-7.39a2.4 2.4 0 0 0-2.39-2.35h-7.42a2.39 2.39 0 0 0-2.38 2.39v7.39h-1.43V20.46h1.43v6.88a2.39 2.39 0 0 0 2.38 2.39h7.42a2.4 2.4 0 0 0 2.39-2.39v-6.88h1.42v20.28zm14.33 0v-7.43a2.41 2.41 0 0 0-.31-1.17l-6.58-11.68H225l4.2 7.68a2.38 2.38 0 0 0 4.19 0l4.19-7.68h1.19l-6.58 11.68a2.3 2.3 0 0 0-.31 1.17v7.43z" class="cls-1"/></svg>