<svg xmlns="http://www.w3.org/2000/svg" id="Layer_1" viewBox="0 0 252 61.42" width="252" height="61.42"><defs><style>.cls-1{fill:#dc99ff}</style></defs><path d="M45.83 42.41V22h6.49c3.71 0 6.3 2.48 6.3 6s-2.59 6-6.3 6H49.6a2.54 2.54 0 0 0-2.54 2.53v5.79zm3.77-19.35a2.54 2.54 0 0 0-2.54 2.53v4.93a2.54 2.54 0 0 0 2.54 2.53h2.23c3.33 0 5.49-2 5.49-5s-2.16-5-5.49-5zm23.93 19.75c-6 0-10.33-4.46-10.33-10.6s4.34-10.59 10.33-10.59 10.32 4.46 10.32 10.59-4.34 10.6-10.32 10.6zm0-20.15c-5.15 0-9 4.11-9 9.55s3.88 9.56 9 9.56 9-4.11 9-9.56-3.86-9.55-9-9.55zm27.27 19.75l-4.74-7.53a2.49 2.49 0 0 0-2.14-1.19 2.54 2.54 0 0 0-2.54 2.54v6.18h-1.23V22h6.23c3.77 0 6.3 2.34 6.3 5.84a5.36 5.36 0 0 1-3.06 5.24 2.53 2.53 0 0 0-1.07 3.67l3.62 5.64zm-6.88-19.35a2.54 2.54 0 0 0-2.54 2.53v4.53a2.54 2.54 0 0 0 2.54 2.53h2c3.38 0 5.49-1.83 5.49-4.79s-2.11-4.8-5.49-4.8zm19.88 19.35V25.59a2.54 2.54 0 0 0-2.54-2.53h-3.84V22h14v1h-3.84a2.54 2.54 0 0 0-2.58 2.59v16.82zm13.2 0V22h11v1h-7.21a2.53 2.53 0 0 0-2.53 2.53v3.37a2.53 2.53 0 0 0 2.53 2.53h6.55v1h-6.55a2.53 2.53 0 0 0-2.51 2.57v7.41zm26.45.4c-6 0-10.32-4.46-10.32-10.6s4.34-10.59 10.32-10.59 10.33 4.46 10.33 10.59-4.34 10.6-10.33 10.6zm0-20.15c-5.14 0-9 4.11-9 9.55s3.88 9.56 9 9.56 9-4.11 9-9.56-3.85-9.55-9-9.55zm16.63 19.75V22h1.23v16.84a2.54 2.54 0 0 0 2.54 2.53h7.31v1zm16.98-20.39h1.23v20.39h-1.23zm18.32 20.42c-5.78 0-10-4.3-10-10.23S199.6 22 205.38 22s10 4.3 10 10.22-4.23 10.22-10 10.22zm0-19.44c-5 0-8.71 4-8.71 9.21s3.74 9.22 8.71 9.22 8.71-4 8.71-9.22-3.75-9.21-8.71-9.21z" class="cls-1"/></svg>