<svg xmlns="http://www.w3.org/2000/svg" id="Layer_1" viewBox="0 0 65.94 65.98" width="65.94" height="65.98"><defs><style>.cls-1,.cls-2{fill:none}.cls-2{stroke:#262626;stroke-miterlimit:10;stroke-width:2px}.cls-3{fill:#00ffae}.cls-4{fill:url(#GRID)}.cls-5{fill:#262626}</style><pattern id="GRID" width="15.97" height="15.97" patternTransform="matrix(.69 0 0 .69 -8.48 -13.76)" patternUnits="userSpaceOnUse" viewBox="0 0 15.97 15.97"><path d="M0 0h15.97v15.97H0z" class="cls-1"/><path d="M7.98 0v15.97m7.99-7.99H0" class="cls-2"/></pattern></defs><path d="M39.18 33a6.66 6.66 0 0 1-11.65 4.4 6.68 6.68 0 0 1 5-11 7.07 7.07 0 0 1 3.72 1.15A6.47 6.47 0 0 1 39.18 33zm6.63-9.86v1.77a1.43 1.43 0 0 1-1.47 1.52h-3.78a1.35 1.35 0 0 1-1.39-1.18 1.09 1.09 0 0 1 0-.26v-3.77a1.43 1.43 0 0 1 1.53-1.47h3.59a.65.65 0 0 1 .2 0 1.43 1.43 0 0 1 1.36 1.55c-.03.62-.04 1.23-.04 1.84z" class="cls-3"/><path d="M45.81 30.87v13.9a1.46 1.46 0 0 1-1.66 1.47h-23c-1 0-1.58-.37-1.73-1.2a2.58 2.58 0 0 1-.06-.58V31.11c0-.75 0-.78.79-.78h1.77c.32 0 .45.1.39.49A10.26 10.26 0 0 0 25 40.25a12.92 12.92 0 0 0 1.08 1 9.92 9.92 0 0 0 7.8 2.18 10.5 10.5 0 0 0 9-12.54c-.08-.44.05-.56.44-.55h2c.32-.02.49.13.49.53z" class="cls-3"/><path d="M33 0a33 33 0 1 0 33 33A33 33 0 0 0 33 0zm16.71 45.88a4 4 0 0 1-4.29 4.26H19.69a4.12 4.12 0 0 1-3.54-1.68 4.47 4.47 0 0 1-.74-2.59V20.08a4 4 0 0 1 4.25-4.24h25.8a4.48 4.48 0 0 1 2.18.52 4 4 0 0 1 2.07 3.72z" class="cls-3"/><path d="M39.18 33a6.66 6.66 0 0 1-11.65 4.4 6.68 6.68 0 0 1 5-11 7.07 7.07 0 0 1 3.72 1.15A6.47 6.47 0 0 1 39.18 33zm6.63-9.86v1.77a1.43 1.43 0 0 1-1.47 1.52h-3.78a1.35 1.35 0 0 1-1.39-1.18 1.09 1.09 0 0 1 0-.26v-3.77a1.43 1.43 0 0 1 1.53-1.47h3.59a.65.65 0 0 1 .2 0 1.43 1.43 0 0 1 1.36 1.55c-.03.62-.04 1.23-.04 1.84z" class="cls-4"/><path d="M45.81 30.87v13.9a1.46 1.46 0 0 1-1.66 1.47h-23c-1 0-1.58-.37-1.73-1.2a2.58 2.58 0 0 1-.06-.58V31.11c0-.75 0-.78.79-.78h1.77c.32 0 .45.1.39.49A10.26 10.26 0 0 0 25 40.25a12.92 12.92 0 0 0 1.08 1 9.92 9.92 0 0 0 7.8 2.18 10.5 10.5 0 0 0 9-12.54c-.08-.44.05-.56.44-.55h2c.32-.02.49.13.49.53z" class="cls-4"/><path d="M33 0a33 33 0 1 0 33 33A33 33 0 0 0 33 0zm16.71 45.88a4 4 0 0 1-4.29 4.26H19.69a4.12 4.12 0 0 1-3.54-1.68 4.47 4.47 0 0 1-.74-2.59V20.08a4 4 0 0 1 4.25-4.24h25.8a4.48 4.48 0 0 1 2.18.52 4 4 0 0 1 2.07 3.72z" class="cls-4"/><path d="M44.13 14.67H18.34a4 4 0 0 0-4.26 4.24V44.7a4 4 0 0 0 2.07 3.76 4.47 4.47 0 0 1-.74-2.59V20.08a4 4 0 0 1 4.25-4.24h25.8a4.48 4.48 0 0 1 2.18.52 4.1 4.1 0 0 0-3.51-1.69zm1.13 15.66h-.77V43.6c0 .93-.64 1.47-1.66 1.47h-23a2.51 2.51 0 0 1-.4 0c.15.83.7 1.2 1.73 1.2h23a1.46 1.46 0 0 0 1.66-1.47V30.9c-.01-.43-.18-.58-.56-.57zm.54-9a1.43 1.43 0 0 0-1.36-1.55 2.2 2.2 0 0 1 0 .37v3.6A1.43 1.43 0 0 1 43 25.26h-3.84a1.35 1.35 0 0 0 1.39 1.18h3.78a1.43 1.43 0 0 0 1.47-1.52v-1.77c0-.59.02-1.23 0-1.83zm-9.53 6.17a6.64 6.64 0 0 1-5 10.94 6.75 6.75 0 0 1-3.69-1.08A6.66 6.66 0 0 0 39.18 33a6.47 6.47 0 0 0-2.91-5.5zm-14 3.32c.06-.39-.07-.49-.39-.49h-1a10.21 10.21 0 0 0 3.88 9.75c.08.06.16.13.24.18a10.26 10.26 0 0 1-2.74-9.44z" class="cls-5"/></svg>