<svg id="Layer_1" data-name="Layer 1" xmlns="http://www.w3.org/2000/svg" xmlns:xlink="http://www.w3.org/1999/xlink" viewBox="0 0 239.22 246.46"><defs><style>.cls-1,.cls-2{fill:none;}.cls-2{stroke:#262626;stroke-miterlimit:10;stroke-width:2px;}.cls-3{fill:#262626;}.cls-4{fill:url(#New_Pattern);}.cls-5{fill:#871cff;}.cls-6{fill:url(#GRID);}</style><pattern id="New_Pattern" data-name="New Pattern" width="143.91" height="139.86" patternTransform="translate(-286.28 18.75)" patternUnits="userSpaceOnUse" viewBox="0 0 143.91 139.86"><rect class="cls-1" width="143.91" height="139.86"/><path class="cls-3" d="M67.87-.87c0-5.75,3.79-11.54,8.22-13.45A4.47,4.47,0,0,1,82-11.77c.42,1.37.27,2.45-1.38,3C75.73-7,74.11-4.71,73.93.41c0,.94.26,2-.14,2.79a5.15,5.15,0,0,1-2.42,2.29c-.44.17-1.77-.86-2.09-1.61A36.4,36.4,0,0,1,67.87-.87Z"/><path class="cls-3" d="M126.85-9.09a7.74,7.74,0,0,1,7.55,4c.92,1.49,1.12,3.15-.5,4.37s-3.23.86-4.62-.5c-2.81-2.74-4.83-2.94-8.49-1.29a13.82,13.82,0,0,1-5.1,1.08,2.84,2.84,0,0,1-2.26-1.57,3.25,3.25,0,0,1,1.09-2.79,25.23,25.23,0,0,1,6.3-2.72A35.41,35.41,0,0,1,126.85-9.09Z"/><path class="cls-3" d="M-6.55,119.48c.18-.45.3-2,1.1-2.55a44,44,0,0,1,8-4.95,3.1,3.1,0,0,1,4.32,2.11,2.33,2.33,0,0,1-1.71,3.21,20.85,20.85,0,0,0-3.85,1.37,3,3,0,0,0-1.51,2,3.41,3.41,0,0,0,1.38,2.19A6.56,6.56,0,0,0,3.73,124c1.85.43,2.73,1.55,2.24,3.35a3.54,3.54,0,0,1-4.1,2.75C-1,129.76-6.53,123.14-6.55,119.48Z"/><path class="cls-3" d="M-5.8,33c-.55-.55-2.19-1.48-2.6-2.8-.68-2.18,1.26-2.78,3-3.28,1.54-.44,3-1.23,4.52-1.63.93-.24,2.36-.42,2.88.08A3.88,3.88,0,0,1,3,28.5C2.49,31-1.33,33.1-5.8,33Z"/><path class="cls-3" d="M40.46,84a5.27,5.27,0,0,1,2.79-5.41c5.32-2.78,6.78-7.67,7.4-13,.5-4.41,1.69-4.79,6.26-4.88a2.73,2.73,0,0,1,2.37,4.12C55.68,70,55.38,77.2,49.19,80.82c-2.13,1.25-2.57,3.47-1.34,5.64a11.85,11.85,0,0,0,2.8,3.28c2.23,1.81,3,3.61,2,5.17s-3.16,1.34-5.56-.26C42.7,91.69,40.51,88.18,40.46,84Z"/><path class="cls-3" d="M93.49,50.83c3.55-.08,7.59,3.09,8.26,6.6a35.76,35.76,0,0,1,.54,4.86c.11,2.11.19,4,2.8,4.86.76.26,1.42,2.36,1.22,3.44-.16.81-1.73,1.81-2.75,1.91-2.72.26-5.38-1.73-6.31-4.77-.67-2.18-.64-4.57-1.16-6.81a6.89,6.89,0,0,0-1.71-3.44c-.36-.33-2,.64-3,1.09-.78.35-1.53,1.15-2.27,1.13a4.41,4.41,0,0,1-3.07-1.07c-.57-.74-.78-2.65-.26-3.18C87.91,53.28,90.08,50.95,93.49,50.83Z"/><path class="cls-3" d="M125,17.41c-4.41,0-4.21.11-5.64,4.48a22.19,22.19,0,0,1-3.62,6.37c-1.15,1.5-2.94,1.37-4.31,0s-1-2.7,0-4.2a18.83,18.83,0,0,0,2.34-5c1.4-5.48,4-7.67,9.64-7.72,2.48,0,4.9.32,6.49-2.49.4-.7,2.8-.91,3.82-.42.75.36,1.28,2.4,1,3.45C133.65,15.66,130.43,17.36,125,17.41Z"/><path class="cls-3" d="M43,105.19c5.39.62,9,2.58,11.28,6.67.74,1.35,1.12,2.91,2,4.18a5.14,5.14,0,0,0,2.53,2c1.85.57,3.1,1.71,2.65,3.45a4.52,4.52,0,0,1-2.88,2.59c-2.82.72-5-.77-6.5-3.1a53,53,0,0,1-2.66-5.27c-1.62-3.32-4-4.25-7.57-3.56a4.13,4.13,0,0,1-3.4-1.44,3.39,3.39,0,0,1,.37-3.32A17.37,17.37,0,0,1,43,105.19Z"/><path class="cls-3" d="M33,23.5a2.4,2.4,0,0,1,2.59,2.77c-.18,2.44,1.09,3.5,3.23,3.81,2.66.38,3.91,1.87,4.62,4.44.8,2.88,2.2,5.58,3.26,8.39.54,1.45,1.69,3.11-.4,4.27-1.62.91-3.84-.23-4.74-2.31-.51-1.18-.95-2.4-1.44-3.59a14.7,14.7,0,0,0-7.59-8,9.12,9.12,0,0,1-3.88-3.49C26.92,26.75,29.13,23.54,33,23.5Z"/><path class="cls-3" d="M34.59,68.48c-.83,3.33-1.43,6.54-2.45,9.6a3.39,3.39,0,0,1-5,2c-2.1-1.24-1.67-2.94-.71-4.67,3.09-5.54,3.11-10.93-.71-16.18-1.08-1.49-2.1-3.18-.89-4.95a3.45,3.45,0,0,1,2.63-1.19,4.51,4.51,0,0,1,4.36,3.44C32.84,60.5,33.68,64.53,34.59,68.48Z"/><path class="cls-3" d="M-4.21,91.33a23.71,23.71,0,0,0,.74-3.75c.1-2.43.06-4.88-.07-7.31-.07-1.35-.67-2.69-.6-4a2.77,2.77,0,0,1,1.54-2,3,3,0,0,1,2.53.59c2.73,2.47,3.74,9,2.05,12.3C0,91,1,94,4.74,95.77q3.86,1.85,2.34,4.43c-1.1,1.86-3.08,2.12-5.36.56C-1.58,98.5-4.25,95.81-4.21,91.33Z"/><path class="cls-3" d="M88.73,7.37c1.37.13,2.73.37,4.1.37,2.45,0,4.82-.07,5.59-3.26a2.93,2.93,0,0,1,2.4-1.62A3.8,3.8,0,0,1,103.26,5c1.3,3.79-1.39,7.36-5.72,7.54-2.46.11-4.94-.37-7.42-.43s-4.41.53-5.69,2.79a2.85,2.85,0,0,1-1.49,1.36c-1.56.37-3.18.49-4.78.7.25-1.4.12-3,.81-4.15C81.14,9.24,83.79,6.17,88.73,7.37Z"/><path class="cls-3" d="M34.84,5.25c-1.33-.05-3.39-.65-3.85,0-1.19,1.57-1.62,3.7-2.45,5.56-.46,1-.89,2.32-1.74,2.9-1.95,1.33-4.46-.25-4.37-2.81.18-5.07,2.76-9.17,6.05-12.75.59-.64,2.69-.5,3.71,0,1.71.88,3.07,1.23,4.75.08a2.58,2.58,0,0,1,4,.94c.92,1.54,1,3.21-.83,4.21C38.45,4.22,36.7,4.87,35,5.62Z"/><path class="cls-3" d="M91.11,30.64c.65-3.76,2.32-5.57,4.85-4.59a4,4,0,0,1,2.19,2.21,46.86,46.86,0,0,1,1.11,6.8c.35,3,1,5.56,4.45,6.42,1.64.4,2.76,1.62,2.19,3.48s-2,2.2-3.72,2c-2.88-.43-5.47-1.74-6.66-4.32C93.75,38.75,92.55,34.64,91.11,30.64Z"/><path class="cls-3" d="M95.22,131a13.52,13.52,0,0,1,5.6-11.58c1.7-1.28,2.92-3.22,4.24-4.95,1.07-1.4,2.33-2.06,4-1.45a2.43,2.43,0,0,1,1.53,3.55,23.48,23.48,0,0,1-4.68,6.53c-2.74,2.38-4.83,4.7-4.66,8.61.09,2-1.26,3.17-3.31,3.14S95.13,133.47,95.22,131Z"/><path class="cls-3" d="M131.17,46.61a12.1,12.1,0,0,1-1.29,3.25c-2.45,3.09-5.06,6-7.65,9-1,1.17-2.16,2.6-3.89,1.48s-1.17-2.89-.39-4.18a29.81,29.81,0,0,1,4.2-5.47c3.72-3.77,4.07-5.69,1.42-10.19-.75-1.26-1.67-2.58,0-3.83a2.66,2.66,0,0,1,4.23.78c1.51,2.78,2.56,5.81,3.8,8.74Z"/><path class="cls-3" d="M5,8.71c.08-.4.22-1.16.4-1.9.65-2.73,1.33-5.45,2-8.18C7.72-3.15,8-5.3,10.14-5.49a8.75,8.75,0,0,1,4.62,1.42c1.52.86,1.53,2.29.45,3.74-1.34,1.78-2.5,3.7-3.9,5.43-1.76,2.18-1.52,4.22.07,6.3A25.12,25.12,0,0,1,14,14.91a2.84,2.84,0,0,1,0,2.53,2.78,2.78,0,0,1-2.45.36A9.75,9.75,0,0,1,5,8.71Z"/><path class="cls-3" d="M5.83,125.91c.08,3-3,5.23-4.87,3.88a32.84,32.84,0,0,1-6.81-6.48c-2.07-2.76-1.23-5.83,1.59-7.86A25.93,25.93,0,0,1,1,112.34a5.67,5.67,0,0,1,3.91,0,3.51,3.51,0,0,1,1.64,2.75c0,.76-1.11,1.74-2,2.23-1.08.63-2.49.72-3.58,1.35a3.15,3.15,0,0,0-1.57,2.06A3.22,3.22,0,0,0,.9,122.89c.88.62,2.11.73,3,1.3A10.88,10.88,0,0,1,5.83,125.91Z"/><path class="cls-3" d="M98.68,93.45a41.84,41.84,0,0,1-4.27-1.64A32.78,32.78,0,0,1,90,89.09a10,10,0,0,1-1.6-1.9c.85-.61,1.67-1.66,2.56-1.73a7.32,7.32,0,0,1,3.65.95A11.86,11.86,0,0,0,101.54,88c4.5-.49,7.71,2.1,10.37,5.24,2.2,2.6.14,6.85-3.27,7.11a2.32,2.32,0,0,1-1.56-.63,4.17,4.17,0,0,1-.83-1.57C104.37,93.11,104.37,93.11,98.68,93.45Z"/><path class="cls-3" d="M137.36,119.48c.18-.45.3-2,1.1-2.55a44,44,0,0,1,8-4.95,3.1,3.1,0,0,1,4.32,2.11A2.33,2.33,0,0,1,149,117.3a20.85,20.85,0,0,0-3.85,1.37,3,3,0,0,0-1.51,2,3.41,3.41,0,0,0,1.38,2.19,6.56,6.56,0,0,0,2.58,1.1c1.85.43,2.73,1.55,2.24,3.35a3.54,3.54,0,0,1-4.1,2.75C142.9,129.76,137.38,123.14,137.36,119.48Z"/><path class="cls-3" d="M67.87,139c0-5.75,3.79-11.54,8.22-13.45A4.47,4.47,0,0,1,82,128.09c.42,1.37.27,2.45-1.38,3-4.86,1.73-6.48,4-6.66,9.14,0,.94.26,2-.14,2.79a5.15,5.15,0,0,1-2.42,2.29c-.44.17-1.77-.86-2.09-1.61A36.4,36.4,0,0,1,67.87,139Z"/><path class="cls-3" d="M80.27,113.45a10.74,10.74,0,0,1-7.43-3.74c-1-1.17-2.68-1.76-3.86-2.82-.92-.83-2.22-2.07-2.12-3s1.55-2.21,2.65-2.56c2.74-.86,4.79.76,6.5,2.68,3.94,4.4,4.1,4.43,9.09,1.54a2.87,2.87,0,0,1,4.11.84c1.13,1.58.45,2.92-1,3.64C85.63,111.31,82.92,112.32,80.27,113.45Z"/><path class="cls-3" d="M8.93,40a6.92,6.92,0,0,0,6.28-1.87,4.53,4.53,0,0,1,1.35-.73c1.69-.73,3.46-1.15,4.46.87.9,1.83-.53,3.06-1.89,3.68-3.09,1.4-6.35,2.38-9.46,3.73a16.54,16.54,0,0,0-4.86,2.93c-.95.9-1.13,2.57-3,1.58S-.76,47.93-.14,46A8.62,8.62,0,0,1,8.93,40Z"/><path class="cls-3" d="M126.85,130.77a7.74,7.74,0,0,1,7.55,4c.92,1.49,1.12,3.15-.5,4.37s-3.23.86-4.62-.5c-2.81-2.74-4.83-2.94-8.49-1.29a13.82,13.82,0,0,1-5.1,1.08,2.84,2.84,0,0,1-2.26-1.57,3.25,3.25,0,0,1,1.09-2.79,25.23,25.23,0,0,1,6.3-2.72A35.41,35.41,0,0,1,126.85,130.77Z"/><path class="cls-3" d="M79.27,70.73a11.17,11.17,0,0,1,2.32.65c1.9.93,2,2.84.18,4-1.3.81-2.7,1.47-4.08,2.17A8.92,8.92,0,0,0,72.81,84a6.61,6.61,0,0,1-2.3,3.42c-1.39,1.1-3.33.1-3.76-1.65C65.41,80.39,73.22,70.66,79.27,70.73Z"/><path class="cls-3" d="M67,36.28a2.9,2.9,0,0,1,2.91,4c-.85,2.66,0,4,2.45,4.91,3.26,1.26,4.06,4.5,5,7.39.25.82-1,2.1-1.55,3.17a16.84,16.84,0,0,1-2.89-2c-1.94-2-3.55-4.34-5.64-6.13s-4.19-3.32-4.54-6.25S64.23,36.23,67,36.28Z"/><path class="cls-3" d="M56,32.57c-1.14-.72-2.61-1.15-2.92-2a3.31,3.31,0,0,1,1-3.07c4.2-2.16,5.85-6.07,7.58-10a3.78,3.78,0,0,1,1.9-2c1-.34,2.56-.51,3.26,0a3.34,3.34,0,0,1,.86,3.11,80.32,80.32,0,0,1-6.38,11.1C60.23,31.14,57.89,31.59,56,32.57Z"/><path class="cls-3" d="M11.25,72.85c-3,0-4.76-1.55-6.07-3.85-1.57-2.75-3-5.52-6.29-6.78a2.45,2.45,0,0,1-1.08-3.72,2.55,2.55,0,0,1,4-.86,25.09,25.09,0,0,1,4.83,4.88c2.13,3,4.16,5.69,8.41,5.23.59-.06,1.84.89,1.81,1.32a3.36,3.36,0,0,1-1.23,2.51A20.55,20.55,0,0,1,11.25,72.85Z"/><path class="cls-3" d="M130.28,85.17c-.13,2.63-1,3.88-2.92,3.51a8.37,8.37,0,0,1-3.9-1.67c-3.28-2.94-4.33-7.13-5.32-11.19-.22-.91.78-2.37,1.62-3.14.29-.27,1.93.6,2.69,1.25a12.89,12.89,0,0,1,2,2.64c1.24,1.8,2.47,3.61,3.69,5.43Z"/><path class="cls-3" d="M29.53,127.17c-5.89.08-10.41-4-10.32-9,0-1.09,1-2.17,1.48-3.25,1,.7,2.69,1.18,3,2.13,1,2.84,3,3.95,5.76,4.31a12.06,12.06,0,0,1,3.86,1.29,2.32,2.32,0,0,1,1.06,1.82c-.05.56-.81,1.26-1.42,1.53A29.94,29.94,0,0,1,29.53,127.17Z"/><path class="cls-3" d="M120,107a4.87,4.87,0,0,1,3.14-4.54,16.82,16.82,0,0,0,3.66-1.82c1.84-1.4,2.76-.33,2.72,1.19a6.4,6.4,0,0,1-1.7,4c-1.21,1.24-2.06,2.11-1.11,3.92.87,1.64.62,3.26-1.23,4.13s-3-.35-3.66-1.82S120.63,108.67,120,107Z"/><path class="cls-3" d="M27.92,99.86c-.71,1.51-1.22,4.14-2.18,4.32-2.5.47-2.08-2.31-2.64-3.82-.67-1.78-1.18-3.64-3.65-2.75-1.68.61-2.66.19-3.12-1.46s.34-2.82,1.88-3.42C23.06,90.82,27.56,94.21,27.92,99.86Z"/><path class="cls-3" d="M138.11,33c-.55-.55-2.19-1.48-2.6-2.8-.68-2.18,1.26-2.78,3-3.28,1.54-.44,3-1.23,4.52-1.63.93-.24,2.36-.42,2.88.08a3.88,3.88,0,0,1,1,3.08C146.4,31,142.58,33.1,138.11,33Z"/><path class="cls-3" d="M52.65.5a29.68,29.68,0,0,1,2.11-3.93A2.87,2.87,0,0,1,57.09-4.6a3,3,0,0,1,1.83,2.13,41.36,41.36,0,0,1-1.07,7.72c-.1.42-1.83.89-2.58.64C53.22,5.21,52.6,3.43,52.65.5Z"/><path class="cls-3" d="M139.71,91.33a23.71,23.71,0,0,0,.74-3.75c.1-2.43.06-4.88-.07-7.31-.07-1.35-.67-2.69-.6-4a2.77,2.77,0,0,1,1.54-2,3,3,0,0,1,2.53.59c2.73,2.47,3.74,9,2.05,12.3-2,3.83-1,6.82,2.75,8.63q3.86,1.85,2.34,4.43c-1.1,1.86-3.08,2.12-5.36.56C142.33,98.5,139.66,95.81,139.71,91.33Z"/><path class="cls-3" d="M149.74,125.91c.08,3-3,5.23-4.87,3.88a32.84,32.84,0,0,1-6.81-6.48c-2.07-2.76-1.23-5.83,1.59-7.86a25.93,25.93,0,0,1,5.3-3.12,5.67,5.67,0,0,1,3.91,0,3.51,3.51,0,0,1,1.64,2.75c0,.76-1.11,1.74-2,2.23-1.08.63-2.49.72-3.58,1.35a3.15,3.15,0,0,0-1.57,2.06,3.22,3.22,0,0,0,1.41,2.18c.88.62,2.11.73,3,1.3A10.88,10.88,0,0,1,149.74,125.91Z"/><path class="cls-3" d="M152.85,40a6.92,6.92,0,0,0,6.28-1.87,4.53,4.53,0,0,1,1.35-.73c1.69-.73,3.46-1.15,4.46.87.9,1.83-.53,3.06-1.89,3.68-3.09,1.4-6.35,2.38-9.46,3.73a16.54,16.54,0,0,0-4.86,2.93c-.95.9-1.13,2.57-3,1.58s-2.54-2.29-1.92-4.22A8.62,8.62,0,0,1,152.85,40Z"/><path class="cls-3" d="M155.17,72.85c-3,0-4.76-1.55-6.07-3.85-1.57-2.75-3-5.52-6.29-6.78a2.45,2.45,0,0,1-1.08-3.72,2.55,2.55,0,0,1,4-.86,25.09,25.09,0,0,1,4.83,4.88c2.13,3,4.16,5.69,8.41,5.23.59-.06,1.84.89,1.81,1.32a3.36,3.36,0,0,1-1.23,2.51A20.55,20.55,0,0,1,155.17,72.85Z"/><path class="cls-3" d="M34.84,145.11c-1.33-.05-3.39-.65-3.85,0-1.19,1.57-1.62,3.7-2.45,5.56-.46,1-.89,2.32-1.74,2.9-1.95,1.33-4.46-.25-4.37-2.81.18-5.07,2.76-9.17,6.05-12.75.59-.64,2.69-.5,3.71,0,1.71.88,3.07,1.23,4.75.08a2.58,2.58,0,0,1,4,.94c.92,1.54,1,3.21-.83,4.21-1.63.87-3.38,1.52-5.07,2.27Z"/><path class="cls-3" d="M5,148.57c.08-.4.22-1.16.4-1.9.65-2.73,1.33-5.45,2-8.18.41-1.78.71-3.93,2.83-4.12a8.75,8.75,0,0,1,4.62,1.42c1.52.86,1.53,2.29.45,3.74-1.34,1.78-2.5,3.7-3.9,5.43-1.76,2.18-1.52,4.22.07,6.3A25.12,25.12,0,0,1,14,154.76a2.84,2.84,0,0,1,0,2.53,2.78,2.78,0,0,1-2.45.36A9.75,9.75,0,0,1,5,148.57Z"/><path class="cls-3" d="M52.65,140.36a29.68,29.68,0,0,1,2.11-3.93,2.87,2.87,0,0,1,2.33-1.17,3,3,0,0,1,1.83,2.13,41.36,41.36,0,0,1-1.07,7.72c-.1.42-1.83.89-2.58.64C53.22,145.07,52.6,143.29,52.65,140.36Z"/></pattern><pattern id="GRID" data-name="GRID" width="15.97" height="15.97" patternTransform="translate(-72.17 -29.79)" patternUnits="userSpaceOnUse" viewBox="0 0 15.97 15.97"><rect class="cls-1" width="15.97" height="15.97"/><line class="cls-2" x1="7.98" x2="7.98" y2="15.97"/><line class="cls-2" x1="15.97" y1="7.98" y2="7.98"/></pattern></defs><title>left</title><polygon class="cls-4" points="104.34 0 0 0 0 245.83 165.56 246.46 51.25 162.69 104.34 0"/><polygon class="cls-5" points="104.34 0 20.7 165.42 165.56 246.46 104.34 0"/><circle class="cls-6" cx="165.56" cy="81.97" r="73.66"/></svg>