<svg xmlns="http://www.w3.org/2000/svg" id="Layer_1" viewBox="0 0 65.98 65.98" width="65.98" height="65.98"><defs><style>.cls-1{fill:none}.cls-2{fill:#262626}.cls-3{fill:#ff5950}.cls-4{fill:url(#New_Pattern)}</style><pattern id="New_Pattern" width="143.91" height="139.86" patternTransform="matrix(.69 0 0 .69 -283.49 -135.97)" patternUnits="userSpaceOnUse" viewBox="0 0 143.91 139.86"><path d="M0 0h143.91v139.86H0z" class="cls-1"/><path d="M67.87-.87c0-5.75 3.79-11.54 8.22-13.45A4.47 4.47 0 0 1 82-11.77c.42 1.37.27 2.45-1.38 3C75.73-7 74.11-4.71 73.93.41c0 .94.26 2-.14 2.79a5.15 5.15 0 0 1-2.42 2.29c-.44.17-1.77-.86-2.09-1.61a36.4 36.4 0 0 1-1.41-4.75zm58.98-8.22a7.74 7.74 0 0 1 7.55 4c.92 1.49 1.12 3.15-.5 4.37s-3.23.86-4.62-.5c-2.81-2.74-4.83-2.94-8.49-1.29a13.82 13.82 0 0 1-5.1 1.08A2.84 2.84 0 0 1 113.43-3a3.25 3.25 0 0 1 1.09-2.79 25.23 25.23 0 0 1 6.3-2.72 35.41 35.41 0 0 1 6.03-.58zM-6.55 119.48c.18-.45.3-2 1.1-2.55a44 44 0 0 1 8-4.95 3.1 3.1 0 0 1 4.32 2.11 2.33 2.33 0 0 1-1.71 3.21 20.85 20.85 0 0 0-3.85 1.37 3 3 0 0 0-1.51 2 3.41 3.41 0 0 0 1.38 2.19A6.56 6.56 0 0 0 3.73 124c1.85.43 2.73 1.55 2.24 3.35a3.54 3.54 0 0 1-4.1 2.75c-2.87-.34-8.4-6.96-8.42-10.62zM-5.8 33c-.55-.55-2.19-1.48-2.6-2.8-.68-2.18 1.26-2.78 3-3.28 1.54-.44 3-1.23 4.52-1.63.93-.24 2.36-.42 2.88.08a3.88 3.88 0 0 1 1 3.13C2.49 31-1.33 33.1-5.8 33zm46.26 51a5.27 5.27 0 0 1 2.79-5.41c5.32-2.78 6.78-7.67 7.4-13 .5-4.41 1.69-4.79 6.26-4.88a2.73 2.73 0 0 1 2.37 4.12c-3.6 5.17-3.9 12.37-10.09 15.99-2.13 1.25-2.57 3.47-1.34 5.64a11.85 11.85 0 0 0 2.8 3.28c2.23 1.81 3 3.61 2 5.17s-3.16 1.34-5.56-.26c-4.39-2.96-6.58-6.47-6.63-10.65zm53.03-33.17c3.55-.08 7.59 3.09 8.26 6.6a35.76 35.76 0 0 1 .54 4.86c.11 2.11.19 4 2.8 4.86.76.26 1.42 2.36 1.22 3.44-.16.81-1.73 1.81-2.75 1.91-2.72.26-5.38-1.73-6.31-4.77-.67-2.18-.64-4.57-1.16-6.81a6.89 6.89 0 0 0-1.71-3.44c-.36-.33-2 .64-3 1.09-.78.35-1.53 1.15-2.27 1.13a4.41 4.41 0 0 1-3.07-1.07c-.57-.74-.78-2.65-.26-3.18 2.13-2.17 4.3-4.5 7.71-4.62zM125 17.41c-4.41 0-4.21.11-5.64 4.48a22.19 22.19 0 0 1-3.62 6.37c-1.15 1.5-2.94 1.37-4.31 0s-1-2.7 0-4.2a18.83 18.83 0 0 0 2.34-5c1.4-5.48 4-7.67 9.64-7.72 2.48 0 4.9.32 6.49-2.49.4-.7 2.8-.91 3.82-.42.75.36 1.28 2.4 1 3.45-1.07 3.78-4.29 5.48-9.72 5.53zm-82 87.78c5.39.62 9 2.58 11.28 6.67.74 1.35 1.12 2.91 2 4.18a5.14 5.14 0 0 0 2.53 2c1.85.57 3.1 1.71 2.65 3.45a4.52 4.52 0 0 1-2.88 2.59c-2.82.72-5-.77-6.5-3.1a53 53 0 0 1-2.66-5.27c-1.62-3.32-4-4.25-7.57-3.56a4.13 4.13 0 0 1-3.4-1.44 3.39 3.39 0 0 1 .37-3.32 17.37 17.37 0 0 1 4.18-2.2zM33 23.5a2.4 2.4 0 0 1 2.59 2.77c-.18 2.44 1.09 3.5 3.23 3.81 2.66.38 3.91 1.87 4.62 4.44.8 2.88 2.2 5.58 3.26 8.39.54 1.45 1.69 3.11-.4 4.27-1.62.91-3.84-.23-4.74-2.31-.51-1.18-.95-2.4-1.44-3.59a14.7 14.7 0 0 0-7.59-8 9.12 9.12 0 0 1-3.88-3.49c-1.73-3.04.48-6.25 4.35-6.29zm1.59 44.98c-.83 3.33-1.43 6.54-2.45 9.6a3.39 3.39 0 0 1-5 2c-2.1-1.24-1.67-2.94-.71-4.67 3.09-5.54 3.11-10.93-.71-16.18-1.08-1.49-2.1-3.18-.89-4.95a3.45 3.45 0 0 1 2.63-1.19 4.51 4.51 0 0 1 4.36 3.44c1.02 3.97 1.86 8 2.77 11.95zm-38.8 22.85a23.71 23.71 0 0 0 .74-3.75c.1-2.43.06-4.88-.07-7.31-.07-1.35-.67-2.69-.6-4a2.77 2.77 0 0 1 1.54-2 3 3 0 0 1 2.53.59c2.73 2.47 3.74 9 2.05 12.3C0 91 1 94 4.74 95.77q3.86 1.85 2.34 4.43c-1.1 1.86-3.08 2.12-5.36.56-3.3-2.26-5.97-4.95-5.93-9.43zM88.73 7.37c1.37.13 2.73.37 4.1.37 2.45 0 4.82-.07 5.59-3.26a2.93 2.93 0 0 1 2.4-1.62A3.8 3.8 0 0 1 103.26 5c1.3 3.79-1.39 7.36-5.72 7.54-2.46.11-4.94-.37-7.42-.43s-4.41.53-5.69 2.79a2.85 2.85 0 0 1-1.49 1.36c-1.56.37-3.18.49-4.78.7.25-1.4.12-3 .81-4.15 2.17-3.57 4.82-6.64 9.76-5.44zM34.84 5.25c-1.33-.05-3.39-.65-3.85 0-1.19 1.57-1.62 3.7-2.45 5.56-.46 1-.89 2.32-1.74 2.9-1.95 1.33-4.46-.25-4.37-2.81.18-5.07 2.76-9.17 6.05-12.75.59-.64 2.69-.5 3.71 0 1.71.88 3.07 1.23 4.75.08a2.58 2.58 0 0 1 4 .94c.92 1.54 1 3.21-.83 4.21-1.66.84-3.41 1.49-5.11 2.24zm56.27 25.39c.65-3.76 2.32-5.57 4.85-4.59a4 4 0 0 1 2.19 2.21 46.86 46.86 0 0 1 1.11 6.8c.35 3 1 5.56 4.45 6.42 1.64.4 2.76 1.62 2.19 3.48s-2 2.2-3.72 2c-2.88-.43-5.47-1.74-6.66-4.32-1.77-3.89-2.97-8-4.41-12zM95.22 131a13.52 13.52 0 0 1 5.6-11.58c1.7-1.28 2.92-3.22 4.24-4.95 1.07-1.4 2.33-2.06 4-1.45a2.43 2.43 0 0 1 1.53 3.55 23.48 23.48 0 0 1-4.68 6.53c-2.74 2.38-4.83 4.7-4.66 8.61.09 2-1.26 3.17-3.31 3.14s-2.81-1.38-2.72-3.85zm35.95-84.39a12.1 12.1 0 0 1-1.29 3.25c-2.45 3.09-5.06 6-7.65 9-1 1.17-2.16 2.6-3.89 1.48s-1.17-2.89-.39-4.18a29.81 29.81 0 0 1 4.2-5.47c3.72-3.77 4.07-5.69 1.42-10.19-.75-1.26-1.67-2.58 0-3.83a2.66 2.66 0 0 1 4.23.78c1.51 2.78 2.56 5.81 3.8 8.74zM5 8.71c.08-.4.22-1.16.4-1.9.65-2.73 1.33-5.45 2-8.18.32-1.78.6-3.93 2.74-4.12a8.75 8.75 0 0 1 4.62 1.42c1.52.86 1.53 2.29.45 3.74-1.34 1.78-2.5 3.7-3.9 5.43-1.76 2.18-1.52 4.22.07 6.3A25.12 25.12 0 0 1 14 14.91a2.84 2.84 0 0 1 0 2.53 2.78 2.78 0 0 1-2.45.36A9.75 9.75 0 0 1 5 8.71z" class="cls-2"/><path d="M5.83 125.91c.08 3-3 5.23-4.87 3.88a32.84 32.84 0 0 1-6.81-6.48c-2.07-2.76-1.23-5.83 1.59-7.86A25.93 25.93 0 0 1 1 112.34a5.67 5.67 0 0 1 3.91 0 3.51 3.51 0 0 1 1.64 2.75c0 .76-1.11 1.74-2 2.23-1.08.63-2.49.72-3.58 1.35a3.15 3.15 0 0 0-1.57 2.06 3.22 3.22 0 0 0 1.5 2.16c.88.62 2.11.73 3 1.3a10.88 10.88 0 0 1 1.93 1.72zm92.85-32.46a41.84 41.84 0 0 1-4.27-1.64A32.78 32.78 0 0 1 90 89.09a10 10 0 0 1-1.6-1.9c.85-.61 1.67-1.66 2.56-1.73a7.32 7.32 0 0 1 3.65.95 11.86 11.86 0 0 0 6.93 1.59c4.5-.49 7.71 2.1 10.37 5.24 2.2 2.6.14 6.85-3.27 7.11a2.32 2.32 0 0 1-1.56-.63 4.17 4.17 0 0 1-.83-1.57c-1.88-5.04-1.88-5.04-7.57-4.7zm38.68 26.03c.18-.45.3-2 1.1-2.55a44 44 0 0 1 8-4.95 3.1 3.1 0 0 1 4.32 2.11 2.33 2.33 0 0 1-1.78 3.21 20.85 20.85 0 0 0-3.85 1.37 3 3 0 0 0-1.51 2 3.41 3.41 0 0 0 1.38 2.19 6.56 6.56 0 0 0 2.58 1.1c1.85.43 2.73 1.55 2.24 3.35a3.54 3.54 0 0 1-4.1 2.75c-2.84-.3-8.36-6.92-8.38-10.58zM67.87 139c0-5.75 3.79-11.54 8.22-13.45a4.47 4.47 0 0 1 5.91 2.54c.42 1.37.27 2.45-1.38 3-4.86 1.73-6.48 4-6.66 9.14 0 .94.26 2-.14 2.79a5.15 5.15 0 0 1-2.42 2.29c-.44.17-1.77-.86-2.09-1.61a36.4 36.4 0 0 1-1.44-4.7zm12.4-25.55a10.74 10.74 0 0 1-7.43-3.74c-1-1.17-2.68-1.76-3.86-2.82-.92-.83-2.22-2.07-2.12-3s1.55-2.21 2.65-2.56c2.74-.86 4.79.76 6.5 2.68 3.94 4.4 4.1 4.43 9.09 1.54a2.87 2.87 0 0 1 4.11.84c1.13 1.58.45 2.92-1 3.64-2.58 1.28-5.29 2.29-7.94 3.42zM8.93 40a6.92 6.92 0 0 0 6.28-1.87 4.53 4.53 0 0 1 1.35-.73c1.69-.73 3.46-1.15 4.46.87.9 1.83-.53 3.06-1.89 3.68-3.09 1.4-6.35 2.38-9.46 3.73a16.54 16.54 0 0 0-4.86 2.93c-.95.9-1.13 2.57-3 1.58S-.76 47.93-.14 46a8.62 8.62 0 0 1 9.07-6zm117.92 90.77a7.74 7.74 0 0 1 7.55 4c.92 1.49 1.12 3.15-.5 4.37s-3.23.86-4.62-.5c-2.81-2.74-4.83-2.94-8.49-1.29a13.82 13.82 0 0 1-5.1 1.08 2.84 2.84 0 0 1-2.26-1.57 3.25 3.25 0 0 1 1.09-2.79 25.23 25.23 0 0 1 6.3-2.72 35.41 35.41 0 0 1 6.03-.58zM79.27 70.73a11.17 11.17 0 0 1 2.32.65c1.9.93 2 2.84.18 4-1.3.81-2.7 1.47-4.08 2.17A8.92 8.92 0 0 0 72.81 84a6.61 6.61 0 0 1-2.3 3.42c-1.39 1.1-3.33.1-3.76-1.65-1.34-5.38 6.47-15.11 12.52-15.04zM67 36.28a2.9 2.9 0 0 1 2.91 4c-.85 2.66 0 4 2.45 4.91 3.26 1.26 4.06 4.5 5 7.39.25.82-1 2.1-1.55 3.17a16.84 16.84 0 0 1-2.89-2c-1.94-2-3.55-4.34-5.64-6.13s-4.19-3.32-4.54-6.25 1.49-5.14 4.26-5.09zm-11-3.71c-1.14-.72-2.61-1.15-2.92-2a3.31 3.31 0 0 1 1-3.07c4.2-2.16 5.85-6.07 7.58-10a3.78 3.78 0 0 1 1.9-2c1-.34 2.56-.51 3.26 0a3.34 3.34 0 0 1 .86 3.11 80.32 80.32 0 0 1-6.38 11.1c-1.07 1.43-3.41 1.88-5.3 2.86zM11.25 72.85c-3 0-4.76-1.55-6.07-3.85-1.57-2.75-3-5.52-6.29-6.78a2.45 2.45 0 0 1-1.08-3.72 2.55 2.55 0 0 1 4-.86 25.09 25.09 0 0 1 4.83 4.88c2.13 3 4.16 5.69 8.41 5.23.59-.06 1.84.89 1.81 1.32a3.36 3.36 0 0 1-1.23 2.51 20.55 20.55 0 0 1-4.38 1.27zm119.03 12.32c-.13 2.63-1 3.88-2.92 3.51a8.37 8.37 0 0 1-3.9-1.67c-3.28-2.94-4.33-7.13-5.32-11.19-.22-.91.78-2.37 1.62-3.14.29-.27 1.93.6 2.69 1.25a12.89 12.89 0 0 1 2 2.64c1.24 1.8 2.47 3.61 3.69 5.43zm-100.75 42c-5.89.08-10.41-4-10.32-9 0-1.09 1-2.17 1.48-3.25 1 .7 2.69 1.18 3 2.13 1 2.84 3 3.95 5.76 4.31a12.06 12.06 0 0 1 3.86 1.29 2.32 2.32 0 0 1 1.06 1.82c-.05.56-.81 1.26-1.42 1.53a29.94 29.94 0 0 1-3.42 1.17zM120 107a4.87 4.87 0 0 1 3.14-4.54 16.82 16.82 0 0 0 3.66-1.82c1.84-1.4 2.76-.33 2.72 1.19a6.4 6.4 0 0 1-1.7 4c-1.21 1.24-2.06 2.11-1.11 3.92.87 1.64.62 3.26-1.23 4.13s-3-.35-3.66-1.82-1.19-3.39-1.82-5.06zm-92.08-7.14c-.71 1.51-1.22 4.14-2.18 4.32-2.5.47-2.08-2.31-2.64-3.82-.67-1.78-1.18-3.64-3.65-2.75-1.68.61-2.66.19-3.12-1.46s.34-2.82 1.88-3.42c4.85-1.91 9.35 1.48 9.71 7.13zM138.11 33c-.55-.55-2.19-1.48-2.6-2.8-.68-2.18 1.26-2.78 3-3.28 1.54-.44 3-1.23 4.52-1.63.93-.24 2.36-.42 2.88.08a3.88 3.88 0 0 1 1 3.08c-.51 2.55-4.33 4.65-8.8 4.55zM52.65.5a29.68 29.68 0 0 1 2.11-3.93 2.87 2.87 0 0 1 2.33-1.17 3 3 0 0 1 1.83 2.13 41.36 41.36 0 0 1-1.07 7.72c-.1.42-1.83.89-2.58.64-2.05-.68-2.67-2.46-2.62-5.39zm87.06 90.83a23.71 23.71 0 0 0 .74-3.75c.1-2.43.06-4.88-.07-7.31-.07-1.35-.67-2.69-.6-4a2.77 2.77 0 0 1 1.54-2 3 3 0 0 1 2.53.59c2.73 2.47 3.74 9 2.05 12.3-2 3.83-1 6.82 2.75 8.63q3.86 1.85 2.34 4.43c-1.1 1.86-3.08 2.12-5.36.56-3.3-2.28-5.97-4.97-5.92-9.45z" class="cls-2"/><path d="M149.74 125.91c.08 3-3 5.23-4.87 3.88a32.84 32.84 0 0 1-6.81-6.48c-2.07-2.76-1.23-5.83 1.59-7.86a25.93 25.93 0 0 1 5.3-3.12 5.67 5.67 0 0 1 3.91 0 3.51 3.51 0 0 1 1.64 2.75c0 .76-1.11 1.74-2 2.23-1.08.63-2.49.72-3.58 1.35a3.15 3.15 0 0 0-1.57 2.06 3.22 3.22 0 0 0 1.41 2.18c.88.62 2.11.73 3 1.3a10.88 10.88 0 0 1 1.98 1.71zM152.85 40a6.92 6.92 0 0 0 6.28-1.87 4.53 4.53 0 0 1 1.35-.73c1.69-.73 3.46-1.15 4.46.87.9 1.83-.53 3.06-1.89 3.68-3.09 1.4-6.35 2.38-9.46 3.73a16.54 16.54 0 0 0-4.86 2.93c-.95.9-1.13 2.57-3 1.58s-2.54-2.29-1.92-4.22a8.62 8.62 0 0 1 9.04-5.97zm2.32 32.85c-3 0-4.76-1.55-6.07-3.85-1.57-2.75-3-5.52-6.29-6.78a2.45 2.45 0 0 1-1.08-3.72 2.55 2.55 0 0 1 4-.86 25.09 25.09 0 0 1 4.83 4.88c2.13 3 4.16 5.69 8.41 5.23.59-.06 1.84.89 1.81 1.32a3.36 3.36 0 0 1-1.23 2.51 20.55 20.55 0 0 1-4.38 1.27zM34.84 145.11c-1.33-.05-3.39-.65-3.85 0-1.19 1.57-1.62 3.7-2.45 5.56-.46 1-.89 2.32-1.74 2.9-1.95 1.33-4.46-.25-4.37-2.81.18-5.07 2.76-9.17 6.05-12.75.59-.64 2.69-.5 3.71 0 1.71.88 3.07 1.23 4.75.08a2.58 2.58 0 0 1 4 .94c.92 1.54 1 3.21-.83 4.21-1.63.87-3.38 1.52-5.07 2.27zM5 148.57c.08-.4.22-1.16.4-1.9.65-2.73 1.33-5.45 2-8.18.41-1.78.71-3.93 2.83-4.12a8.75 8.75 0 0 1 4.62 1.42c1.52.86 1.53 2.29.45 3.74-1.34 1.78-2.5 3.7-3.9 5.43-1.76 2.18-1.52 4.22.07 6.3a25.12 25.12 0 0 1 2.53 3.5 2.84 2.84 0 0 1 0 2.53 2.78 2.78 0 0 1-2.45.36A9.75 9.75 0 0 1 5 148.57zm47.65-8.21a29.68 29.68 0 0 1 2.11-3.93 2.87 2.87 0 0 1 2.33-1.17 3 3 0 0 1 1.83 2.13 41.36 41.36 0 0 1-1.07 7.72c-.1.42-1.83.89-2.58.64-2.05-.68-2.67-2.46-2.62-5.39z" class="cls-2"/></pattern></defs><path d="M33 0L0 33l33 33 33-33zm-7.3 44.85c0 .24 0 .24-.23.24h-5.6c-.21 0-.21 0-.21-.22v-17.7c0-.24 0-.24.24-.24h5.56c.23 0 .23 0 .23.22zm-1-21a3.5 3.5 0 0 1-1.94.57 3.44 3.44 0 0 1-2.49-.85 2.84 2.84 0 0 1-.55-.67 3.08 3.08 0 0 1-.41-2 2.9 2.9 0 0 1 .77-1.68 3.27 3.27 0 0 1 1.86-1 3.89 3.89 0 0 1 2.47.32A2.9 2.9 0 0 1 26 20.87a2.94 2.94 0 0 1-1.28 3.01zm22.55 21.24h-5.62c-.22 0-.22 0-.22-.23v-9.12a12.63 12.63 0 0 0-.13-1.74 3.32 3.32 0 0 0-.87-2 2.29 2.29 0 0 0-.74-.51 2.77 2.77 0 0 0-.76-.22 3.27 3.27 0 0 0-2.06.33 3.51 3.51 0 0 0-1.19 1.08 3.88 3.88 0 0 0-.6 2.34v9.71a1.2 1.2 0 0 0 0 .19c0 .09 0 .13-.13.13h-5.7c-.21 0-.21 0-.21-.22V27.15c0-.15 0-.21.2-.21h5.83a.76.76 0 0 1 0 .17v2.29c.19-.25.37-.51.58-.75a5.57 5.57 0 0 1 3-1.93 7.66 7.66 0 0 1 3.3-.1 6.2 6.2 0 0 1 2.55 1A5.93 5.93 0 0 1 45.9 29a7.15 7.15 0 0 1 1.1 2.36 11.93 11.93 0 0 1 .44 3.36v10.16c.01.12-.03.21-.19.21z" class="cls-3"/><path d="M33 0L0 33l33 33 33-33zm-7.3 44.85c0 .24 0 .24-.23.24h-5.6c-.21 0-.21 0-.21-.22v-17.7c0-.24 0-.24.24-.24h5.56c.23 0 .23 0 .23.22zm-1-21a3.5 3.5 0 0 1-1.94.57 3.44 3.44 0 0 1-2.49-.85 2.84 2.84 0 0 1-.55-.67 3.08 3.08 0 0 1-.41-2 2.9 2.9 0 0 1 .77-1.68 3.27 3.27 0 0 1 1.86-1 3.89 3.89 0 0 1 2.47.32A2.9 2.9 0 0 1 26 20.87a2.94 2.94 0 0 1-1.28 3.01zm22.55 21.24h-5.62c-.22 0-.22 0-.22-.23v-9.12a12.63 12.63 0 0 0-.13-1.74 3.32 3.32 0 0 0-.87-2 2.29 2.29 0 0 0-.74-.51 2.77 2.77 0 0 0-.76-.22 3.27 3.27 0 0 0-2.06.33 3.51 3.51 0 0 0-1.19 1.08 3.88 3.88 0 0 0-.6 2.34v9.71a1.2 1.2 0 0 0 0 .19c0 .09 0 .13-.13.13h-5.7c-.21 0-.21 0-.21-.22V27.15c0-.15 0-.21.2-.21h5.83a.76.76 0 0 1 0 .17v2.29c.19-.25.37-.51.58-.75a5.57 5.57 0 0 1 3-1.93 7.66 7.66 0 0 1 3.3-.1 6.2 6.2 0 0 1 2.55 1A5.93 5.93 0 0 1 45.9 29a7.15 7.15 0 0 1 1.1 2.36 11.93 11.93 0 0 1 .44 3.36v10.16c.01.12-.03.21-.19.21z" class="cls-4"/><path d="M33.89 26v.89h-4.66c-.17 0-.2.06-.2.21v16.85h-1c-.21 0-.21 0-.21-.22V25.98c0-.16 0-.22.2-.22h5.62c.25.06.25.06.25.24zm7.52 9.72v8.26h-1c-.22 0-.22 0-.22-.23v-9.14a14.52 14.52 0 0 0-.12-1.74 3.65 3.65 0 0 0-.44-1.34 2.29 2.29 0 0 1 .74.51 3.32 3.32 0 0 1 .91 1.96 12.63 12.63 0 0 1 .13 1.72zm3.11-8.05a6.2 6.2 0 0 0-2.55-1 7.66 7.66 0 0 0-3.3.1 5.57 5.57 0 0 0-3 1.93c-.21.24-.39.5-.58.75v-2.3a.76.76 0 0 0 0-.17 5.28 5.28 0 0 1 2.43-1.36 7.82 7.82 0 0 1 3.3-.1 6 6 0 0 1 3.7 2.15zM24.51 26v.89H19.9c-.24 0-.24 0-.24.24V44h-1c-.22 0-.22 0-.22-.22V26.06c0-.24 0-.24.24-.24h5.57c.26 0 .26 0 .26.18zm-.04-7.42a3.89 3.89 0 0 0-2.47-.34 3.27 3.27 0 0 0-1.86 1 2.9 2.9 0 0 0-.77 1.68 3.08 3.08 0 0 0 .41 2 2.87 2.87 0 0 1-.63-.44 3 3 0 0 1-1-2.7 2.84 2.84 0 0 1 .77-1.68 3.23 3.23 0 0 1 1.86-1 3.89 3.89 0 0 1 2.47.32 2.91 2.91 0 0 1 1.22 1.16z" class="cls-2"/></svg>