<svg id="Layer_1" data-name="Layer 1" xmlns="http://www.w3.org/2000/svg" viewBox="0 0 135.06 104.38"><defs><style>.cls-1{fill:none;}.cls-2{fill:#231f20;}</style></defs><title>logo</title><polyline class="cls-1" points="128.17 9.37 128.17 9.63 128.03 9.77"/><path class="cls-2" d="M19.92,35.54c.12,0,.14-.17.16-.26C19.94,35.34,19.82,35.33,19.92,35.54Zm3.89-5.23c.13,0,.21-.08.21-.17A.41.41,0,0,0,23.81,30.31Zm3.83-5.6s0,0,0,.06Zm.64-1.2V23l-1.49.27L24.33,24l-2.55,1.23-1.84,1.31L19.5,27v.44l-.53.18-.35-.44-.35.35-1.06,3.16-.52.44V29.22l-1,.7-.61,1-.36,1-.35,1.58.35-.35.09.35-.09.26-.35-.17v.35l-.26,2.9-.44,1.31h-.26l.08,1.85.06.25a3.08,3.08,0,0,1,.73-.65v0h0c.09-.07.15-.12.15-.17l.18.08a1.24,1.24,0,0,1,.64-1s0,.12.11.07a.76.76,0,0,1,.29-.7l0,0,.41-.52c.45.4.48-1.09,1.1-.81-.05-.21.23-.61.32-.83,0,0,0,0,.09,0-.07-.4.56-.48.72-.72s-.06-.19-.19-.2c.43-.1.45-.94.62-1,.19-.18.23.08.38.11.22-.33-.45-.3.08-.55,0,.07-.08.17,0,.16s.92.06.95-.18l-.16,0c.13-.38.94-.34.68-.65l-.11-.06v.19l-.35-.26.35-.35v.35c.52-.28.09-.23.66-.56l0,0c.16-.24.43-.2.3-.5l-.1,0A5.17,5.17,0,0,1,22,31s.09-.21.17-.2c-.18-.18.46-.7.58-.81-.16.24,0,.21.13.22,0-.26,0-.36.28-.44-.21-.23-.42-.48-.14-.83,0,.08-.06.18,0,.19s.09-.12.1-.16,0,.15.13.18c0-.42.34-.41.55-.81,0,.17.1.11.22.15-.24-.26.63-.26.18-.43.78-.47,1.48-1.64,1.92-1.7.16,0,.16-.31.26-.42l.1.11c.07-.5.14-.31.26-.87,0,.27.12.26.37.2l0-.46.23.1a.54.54,0,0,1,.28-.35c-.09-.28.27-.65.22-.82.34.1.21-.36.51-.24a.37.37,0,0,1,0-.1Zm-9.66,6.94-.35-.26.35-.35.18.35ZM19,29.31l-.35.35V28.17h.62Zm.53.53-.18-.09v-.62l.18-.35ZM23.89,26l-.44-.26.44-.36Zm.7.88-.17-.27.17-.35.36.35Zm6.24,33.39-.26.43.26.18.18-.26Zm0,0-.26.43.26.18.18-.26ZM19.92,35.54c.12,0,.14-.17.16-.26C19.94,35.34,19.82,35.33,19.92,35.54ZM23,38.27c.13,0,.14-.18.17-.26C23,38.07,22.9,38.06,23,38.27Zm.81-8c.13,0,.21-.08.21-.17A.41.41,0,0,0,23.81,30.31ZM26.9,33H27v0L27,33s0,0,0,0a.1.1,0,0,0,0-.1A.38.38,0,0,0,26.9,33Zm.74-8.33s0,0,0,.06Zm3.09,2.73s0,0,0,.06A.09.09,0,0,1,30.73,27.44Zm.1,32.8-.26.43.26.18.18-.26ZM19.92,35.54c.12,0,.14-.17.16-.26C19.94,35.34,19.82,35.33,19.92,35.54Zm3.89-5.23c.13,0,.21-.08.21-.17A.41.41,0,0,0,23.81,30.31Zm3.83-5.6s0,0,0,.06ZM19.92,35.54c.12,0,.14-.17.16-.26C19.94,35.34,19.82,35.33,19.92,35.54Zm3.89-5.23c.13,0,.21-.08.21-.17A.41.41,0,0,0,23.81,30.31Zm3.83-5.6s0,0,0,.06ZM19.92,35.54c.12,0,.14-.17.16-.26C19.94,35.34,19.82,35.33,19.92,35.54Zm3.89-5.23c.13,0,.21-.08.21-.17A.41.41,0,0,0,23.81,30.31Zm3.83-5.6s0,0,0,.06ZM34,22.6a1.51,1.51,0,0,0,.27-.32H33.12l-.53.35-.35.53-.09.53H31.8L31,23.27a.24.24,0,0,0,.06.09l-.52.48c.05-.08.19-.32,0-.32-.19.24-.13.09-.34.18a3.24,3.24,0,0,0,0-.53l-.4.11c.07.26.16.48.19.59-.22.16-.51-.22-.53-.32-.37.38.14.83-.27,1.19l.21-.09c0,.13-.43.41-.33.43-.15,0-.43-.11-.43-.25v.63c0-.08-.29-.29-.32-.35-.13.12.07.48.21.48a2.14,2.14,0,0,1-.7.15c-.05.1.3.25.39.22a.67.67,0,0,1-.33.39c.15-.41-.56-.64-.72-.88l.25,1.4a2.92,2.92,0,0,0-.29-.38c.2.28-.45,1.07-.81,1.42l0-.06c0-.12-.24,0-.35.18h0c-.38.08.1.64-.34.7.23-.21.17-.34.06-.41-.08.26-.57.62-.19.78-.17.07-.23.21-.37.07l-.24.62c0-.06-.06-.17-.2,0,.27-.22.22-.72.54-.69-.18-.16-.36-.15-.4-.41a3.55,3.55,0,0,0-.37,1.63l-.52.33.06.09-.27-.11c0,.1,0,.17,0,.17s-.05,0-.06-.1a.41.41,0,0,0,0,.16.74.74,0,0,1-.22-.45l.23,0c0-.18-.08-.34-.26-.28a.34.34,0,0,1,0,.1c0-.12-.06-.21-.13-.2l-.2.43a1.74,1.74,0,0,1,.3,0c-.05.33-.1.72.21.66l-.35.15a2.91,2.91,0,0,1-.23.9c-.09,0-.07-.2-.18-.18,0,.48-.85.42-.7.66-.14.26.1.25,0,.44,0,0-.06-.08-.09,0v.3c-.11,0,0-.24-.2-.11a1.62,1.62,0,0,1-.56.87c-.3.4.44.1.13.39a.94.94,0,0,0-.3-.08l.07.79h-.53l0-.37c-.13.18-.21.33-.35.2a.4.4,0,0,1-.23.33c-.12.33.51.16.66.16-.35.13-.42.37-.77.31l.14-.27c-.64.27-.12.68-.71.54.16-.14.23-.42,0-.42l-.11.32c-.07,0,.08-.16-.07-.11a3,3,0,0,0,0,.44v0l-.3.4s0-.08-.08,0l-.15.36c0-.13-.1-.09-.24,0-.37.3.17.66-.26.76,0,0,0-.06.06-.1l-.21.07c.37.38-.69.86-.32,1.24-.34.06-.11-.07-.07-.49l-.3.11c.06-.1.16-.15.2-.27-.41.13-.44.58-.47.82-.15.06-.22-.35-.42,0s.36.17.18.47h-.37c-.14.47-.5.59-.77.85a.21.21,0,0,0,0,.16c-.35.22-.35.8-.62,1,0-.09-.24,0-.31,0l-.2.43c0-.17-.06-.26-.14-.37-.09.13-.08.25-.14.35,0-.09,0-.18-.11-.16l0,.16.2.44.36.17.26-.08.09.79.35.88c.19-.38.94-.62,1.15-1.13a.15.15,0,0,0,0,.11c.24-.6,1-.89,1.06-1.07l.18.08a1.22,1.22,0,0,1,.64-1s0,.12.11.07a.75.75,0,0,1,.29-.7l0,.05.41-.52c.44.4.48-1.09,1.1-.81,0-.22.23-.62.31-.83a.15.15,0,0,0,.1,0c-.07-.4.56-.48.72-.72s-.07-.19-.2-.2c.43-.1.46-.94.63-1s.23.08.38.11c.22-.33-.45-.31.08-.55,0,.07-.08.17,0,.16s.92.06,1-.18l-.17,0c.13-.37,1-.33.68-.64l-.16-.1c.61-.31.13-.25.72-.59v0c.16-.24.44-.2.31-.5l-.1,0a6.29,6.29,0,0,1,.5-.54s.09-.21.17-.2c-.18-.18.46-.7.57-.81-.15.24,0,.21.14.21,0-.25,0-.35.28-.43-.21-.23-.43-.48-.14-.84,0,.09-.06.19,0,.2s.1-.12.11-.16,0,.15.13.18c0-.43.33-.41.55-.81,0,.16.1.11.22.15-.24-.26.63-.26.18-.43.78-.47,1.47-1.64,1.92-1.7.15,0,.16-.31.26-.43l.1.12c.07-.5.14-.31.26-.87,0,.27.12.26.37.2l0-.47.23.11a.54.54,0,0,1,.28-.35c-.1-.28.27-.65.21-.82.35.1.21-.36.52-.24a.58.58,0,0,1,0-.22c-.15,0-.29-.12-.14-.18,0,0,0,0,0,0l.18.08a1.9,1.9,0,0,1,.2-.33.38.38,0,0,1-.16,0l.18-.07,0,0,0,0a.3.3,0,0,0,.2-.23c.52-.16.44-1,1-1.19-.06,0-.11.09-.09.14.29-.35.79-.51.87-.82l-.14-.1a3.55,3.55,0,0,1,.47-.73ZM19.5,39.32l-.18-.26.18-.35.35.35Zm1.32-1.23-.18-.35.18-.35.26.35ZM29.6,25.53h-.44v-.18h.44Zm2.55-.61-.26-.36.26-.35.18.35Zm-1.58-1.85h0a.47.47,0,0,0,.16.33l.09-.23Zm-2.93,1.64s0,0,0,.06Zm-3.83,5.6c.13,0,.21-.08.21-.17A.41.41,0,0,0,23.81,30.31Zm-3.89,5.23c.12,0,.14-.17.16-.26C19.94,35.34,19.82,35.33,19.92,35.54Zm7.72-10.83s0,0,0,.06Zm-3.83,5.6c.13,0,.21-.08.21-.17A.41.41,0,0,0,23.81,30.31Zm-3.89,5.23c.12,0,.14-.17.16-.26C19.94,35.34,19.82,35.33,19.92,35.54Zm7.72-10.83s0,0,0,.06Zm-3.83,5.6c.13,0,.21-.08.21-.17A.41.41,0,0,0,23.81,30.31Zm-3.89,5.23c.12,0,.14-.17.16-.26C19.94,35.34,19.82,35.33,19.92,35.54Zm10.91,24.7-.26.43.26.18.18-.26ZM23,38.27c.13,0,.14-.18.17-.26C23,38.07,22.9,38.06,23,38.27ZM26.9,33H27v0L27,33s0,0,0,0a.1.1,0,0,0,0-.1A.38.38,0,0,0,26.9,33Zm3.83-5.6s0,0,0,.06A.09.09,0,0,1,30.73,27.44Zm.1,32.8-.26.43.26.18.18-.26Zm0,0-.26.43.26.18.18-.26ZM23,38.27c.13,0,.14-.18.17-.26C23,38.07,22.9,38.06,23,38.27ZM26.9,33H27v0L27,33s0,0,0,0a.1.1,0,0,0,0-.1A.38.38,0,0,0,26.9,33Zm3.83-5.6s0,0,0,.06A.09.09,0,0,1,30.73,27.44Zm.1,32.8-.26.43.26.18.18-.26Zm0,0-.26.43.26.18.18-.26ZM23,38.27c.13,0,.14-.18.17-.26C23,38.07,22.9,38.06,23,38.27ZM26.9,33H27v0L27,33s0,0,0,0a.1.1,0,0,0,0-.1A.38.38,0,0,0,26.9,33Zm3.83-5.6s0,0,0,.06A.09.09,0,0,1,30.73,27.44Zm.1,32.8-.26.43.26.18.18-.26Zm0,0-.26.43.26.18.18-.26ZM23,38.27c.13,0,.14-.18.17-.26C23,38.07,22.9,38.06,23,38.27ZM26.9,33H27v0L27,33s0,0,0,0a.1.1,0,0,0,0-.1A.38.38,0,0,0,26.9,33Zm3.83-5.6s0,0,0,.06A.09.09,0,0,1,30.73,27.44Zm.1,32.8-.26.43.26.18.18-.26Zm0,0-.26.43.26.18.18-.26Zm0,0-.26.43.26.18.18-.26Zm0,0-.26.43.26.18.18-.26Zm0,0-.26.43.26.18.18-.26Zm0,0-.26.43.26.18.18-.26Zm0,0-.26.43.26.18.18-.26Zm0,0-.26.43.26.18.18-.26Zm0,0-.26.43.26.18.18-.26Zm0,0-.26.43.26.18.18-.26Zm0,0-.26.43.26.18.18-.26Zm0,0-.26.43.26.18.18-.26Zm0,0-.26.43.26.18.18-.26Zm0,0-.26.43.26.18.18-.26Zm0,0-.26.43.26.18.18-.26Zm0,0-.26.43.26.18.18-.26Zm0,0-.26.43.26.18.18-.26Zm.44,6.14s0,0,0,0l.06,0Zm-.44-6.14-.26.43.26.18.18-.26Zm16-11.87-.52-2-.44-.88-.44-.7-.62-.7-.35-.26v2.81l.26.44-.35.44-.17.79-.09,1.14v1.49L44,52.24v2.2h-.26l-.35-.88v-6l-.18-.88-.09-1,.35-2.29-.17-1-.7-.7-.53-.18-.26,1,.08.7h-.44l-2.1-2.46-.88-.79-1.76-1.76L34.79,36.6l-1-.53L32,35.28H31l-.79.18.26-.35-.61-.71-.71-1-.26-.79.17-.44.53-.35,2.81-.27.44-.17L33.2,31l-.08-.53h.61v.62l1.06,1.67.79.87,3.07,2.46,1.85.88h.7l-.09-.52-.35-.36h.62l.35.18.44.79.35.09.61-.35-.44-.44.18-.71.53-.52.79-.44,1.4-1.32.27-1.14.08-1.76-.44-.17-.35-.44.27-.62V27.9l-.09-.44h-.88v-.7l-.17-1.14-.18-.53-.44-.26-.53.09-.35,1.4-.26.35-.27-.26V26l.27-.44-.44-1-.62-.71-.79-.26-1.14-.09-.7.09.09-.44-.8-.44-2.29-.25c0,.24.06.5.2.53-.19.23-.3.16-.42.4.46-.14-.08,0,.09.24-.15.22-.16,0-.28,0s0,.19,0,.24c-.25,0-.18-.58-.48-.6a3.73,3.73,0,0,0-.82.27,2.32,2.32,0,0,0,1.15.88c.11.12-.29.08-.37.16-.41.08-.2.51-.45.65l0-.25c-.08,0-.29.35-.26.46-.07,0-.2-.46-.36-.43a.9.9,0,0,0-.1,1.17l.3-.75c.18.12-.2.55,0,.7l-.52.48c.05-.08.18-.32,0-.32-.19.23-.13.09-.34.18a8.7,8.7,0,0,0-.19-1.79L33,25h-.16a2.89,2.89,0,0,0,.26,1.59c-.22.17-.51-.21-.53-.32-.38.39.14.84-.27,1.2l.21-.09c-.05.13-.43.41-.33.43-.15,0-.43-.11-.43-.25v.64c0-.09-.3-.3-.33-.36-.12.12.08.48.22.48a2.14,2.14,0,0,1-.7.15c-.06.1.3.25.39.22a.64.64,0,0,1-.34.39c.16-.41-.55-.64-.71-.88l.24,1.4a4.17,4.17,0,0,0-.28-.38c.2.28-.45,1.07-.81,1.42l0-.06c0-.12-.22,0-.34.17-.41.09.09.66-.35.72.22-.21.16-.34.05-.42-.07.27-.56.63-.19.79-.16.07-.22.21-.36.07l-.24.62c0-.06-.06-.17-.2,0,.27-.23.22-.72.53-.69-.17-.16-.35-.15-.4-.41A3.53,3.53,0,0,0,27.57,33l-.25.16.17.53.09,2-.35-.26-.26-1-.16-1a.15.15,0,0,1-.05-.1.41.41,0,0,0-.05.16.74.74,0,0,1-.22-.45l.22,0c0-.18-.07-.34-.25-.28,0,0,0,.06,0,.1,0-.12-.06-.21-.13-.2l-.2.43a1.74,1.74,0,0,1,.3,0c0,.33-.1.72.21.66l-.35.15a3.23,3.23,0,0,1-.23.9c-.09,0-.07-.2-.18-.18,0,.48-.85.42-.7.66-.14.26.1.25,0,.44,0,0-.05-.08-.09-.05V36c-.11,0,0-.24-.2-.12a1.72,1.72,0,0,1-.5.82v2l-.18.88L24,42.75l-.09.44v-5.6l-.12-.13c-.14.17-.22.34-.36.21a.4.4,0,0,1-.23.33c-.13.33.51.16.65.16-.34.12-.41.36-.76.31l.14-.27c-.64.26-.13.68-.71.54.15-.14.22-.42,0-.42l-.11.32c-.07,0,.08-.17-.07-.11a2.07,2.07,0,0,0,0,.44v0L22,39.4c.07-.08,0-.16-.06-.08l-.14.36c0-.13-.11-.09-.24,0-.37.3.17.65-.26.76,0,0,0-.06.06-.1l-.21.07c.37.38-.69.86-.32,1.24-.34.06-.11-.07-.07-.49l-.3.11c.06-.1.15-.15.2-.27-.42.13-.44.58-.47.82-.15.06-.22-.35-.42,0s.36.18.17.48h-.37c-.13.47-.49.59-.76.85a.32.32,0,0,0,0,.16c-.35.22-.34.8-.61,1,0-.09-.24,0-.31,0l-.2.43c0-.17-.06-.26-.14-.37-.1.13-.08.25-.14.35,0-.09,0-.18-.11-.16l-.18.59s.1,0,.14-.08-.22.4-.45.46c0,0,0-.14-.07-.19.25,0,.2-.18.17-.33-.24.31-.09,0-.3.11s-.1.44,0,.47a2.66,2.66,0,0,0-.23.18l.22.35.79.88.79.79.88.61.88.18h.88v-.79l.26.35.35.88.7.61,1.15.53h.44l.17-1V48l.53,2,.17.88.53.62.79.26,1.32-.26,1.14,2.81.44,1.23.09,1-.26.71-.88.08H24.59l-.43,1.23-.44.18-.88-1.76-.62-1-.35-.36-.53-.17-.52.09V55h.35l-.35-4v-.53L20.2,51l.26-.88L20,49.6l-1-.17-2.46.26-2.29.53-.61.26-.18-.7-.44-.44H13l-.12,0a.21.21,0,0,0,0,.23c-.29.08-.24.38-.45.47,0,0,0-.07.06-.11a.72.72,0,0,1-.49.26l-.17.37-.06.14-.17.37-1,2.63-.88,2.73-.53,2.19L11,61.47l1.93,2.28.7.44.88.44.79.26,1.06.09,1.14-.09,1.14-.35-.35,1.06-.09.26.09.53,1.41.19.52.07.53.26,1,.09h4.21V63.4h1.32l-.61.7.35.26-.35.27-.18-.27-.09.27.18.88.05.9,0,.59H28.2l.81,0c.13-.17.27-.31.46-.26-.05-.14.28-.26.35-.41l.12.06a.8.8,0,0,0,.27-.36c.47-.14.52-.59.78-.85l0,0,.17-.33c0,.15,0-.11.08-.17a.49.49,0,0,1,.33-.29l.16-.17c-.1.25.15.11.27.19v-.19c.09,0,0,.15.12.09s.2-.34.15-.51a.22.22,0,0,0-.14,0,.19.19,0,0,0,0-.07c.15-.12.06-.11,0-.14.31,0,.28-.2.58-.14-.37,0,.32-.36,0-.45.28,0,.08-.07.3,0-.2.12-.18.43-.22.63l.21,0c.07.14,0,.19-.13.23s-.15,0-.18.09a.18.18,0,0,1,.15-.1l-.15-.09c-.23.13-.24.38-.28.58.16-.08,0,.23.14.23l.07-.11c.09,0,.05.14.05.23-.38.22-.79.87-1,.88a.31.31,0,0,0,.17-.27l-.19.09c.1-.13.31-.1.42-.32-.12-.06-.14-.3-.39-.28-.44.2,0,.49-.38.86,0,.07-.09-.22-.22,0a.89.89,0,0,0,0,.86l.09,0c0-.17.12-.37.27-.3a1,1,0,0,1-.07.2l.63-.29,1.85-1.4.79-.7,1.84-2.29.35-.17V63.4l.18.53.44.08,1.41-.61.7-.88L40.23,60l.53-.61.7.7.44.79.09-.44.7-.44-.35-.35-.17-.44.35-1.32.52-1,.62-.44.09.88v1.58L45,57.78l.52-.71.8-1.93.52-2.2L47,50.66ZM44,33.53l-.17-.36.17-.26.35.53Zm.44-5.36v.44H44Zm-.7,3,.17.44-.17.27-.27-.36Zm-.62.71.88.61-.44.09L43,32.38l-.27-.52Zm-.61-4.4v.71l-.44-.71Zm-.62-2.11v.18h-.44ZM40.5,35.46l.17.26-.17.35-.27-.26ZM39.27,23.69l.17.26-.17.26-.35-.26Zm-.62,2.54.18-.26.44.35-.18.44-.44.09Zm0,1v.7l-.35-.35Zm-.44,7.64.35.27-.35.35Zm-1.93-1.75-.18-.27v.09l-.44-.35.44-.35v.61l.18-.35.26.35Zm-.18-6.42.18,1.15-.18,1-.52-.17V26.67Zm-.52-2,.35.27-.35.43L35.4,25Zm-2.11,4.57h-.35l.35-.44Zm-.35-1.32.26.35-.26.36-.18-.36Zm-2.29,2.38-.35.61-.26-.61ZM21.17,47.06l-.35-.44h.35Zm.26-1.76-.17-.18.17-.35.35.35Zm5.19,5v-.44l.43.61Zm.43-5.8v-.44l.18-.26Zm.18-6.42-.18-.52v-.62l.36.09.08.53ZM12.21,60v.62l-.44-.27Zm0,1.93v-.43h.17ZM14.93,51v.44l-.18-.26Zm-.79,3.69v.7L13.79,55Zm.17,6.77.36.35-.36.35-.17-.35Zm0,1.93v-.18h.62Zm.62-1.23v.44h-.18v-.44Zm-.18-.88V58.65l.53.88v1Zm.18,3.34-.18-.27.18-.35.35.62Zm0-.79.09-.18.35-.26Zm0-5.89-.18-.35.18-.09.44.09Zm0-.88-.18-.35.18-1L15.37,57Zm-.18-2.55.18-.35.35.27-.35.26Zm.36-1.93-.53-.17-.27-.18,1.06.26Zm.52.35-.17-.35.17-.35.27.35Zm2-.7.18.35-.18.35-.17-.35Zm0,12.12-.26.27V62.78l.26,1.06Zm-.26-2.46L17,61.47l.44-.62h.26Zm.09-3.33.17-.36.18.71h-.18Zm.44,4.21-.18-.26.18-.35.17.35Zm0-8.61-.18-.26.18-.35.17.52Zm7.82,7.3v.7l-.36-.35Zm-1.32-1.85v.62L24.07,60Zm-.53.35v.7l-.44-.35Zm.18,1.85-.18.35v-.7Zm-2.2,4v.61l-.35-.26Zm-1-9.75.26.61h-.26Zm.61,1.4v.09l-.61-.18Zm-.79-5.8v.71l-.35-.36ZM19.5,66l-.18-.35,0-.08.14-.27.35.35Zm5.27-.26-.34.87H24l-.06-.06-.29-.29-.27-.44.07-.26.2-.8.35-1h.44l.09,1,.24.81Zm1.58-6.41.27-.71.43.36-.17.52-.53.09Zm-.44,1.93.44-.44v-.61h.7v.43l-.61.62Zm1.14,1.32-.35-.35.35-.36.09.36Zm.53-3h-.35l.35-.26Zm.27,4.22-.18-.27.18-.35.35.18ZM31,53.47l-.18.26-.26-.26.26-.35Zm0,1.23-.18.26-.26-.26.26-.26Zm-.7-18.36.17-.27.09,1.06-.09.44-.17-.35Zm.17,4.3.26.35-.26.27L30.31,41Zm-.88,5.1.35.44-.08.7-.27.44Zm-.35-.88.35-.35.18.26-.18.35ZM30,51.45l-.44.26V51h.27Zm-.44-9.93.35.26-.35.71-.44-.35Zm-.17,7.38-.27-.53.18-.44.53-.17v2.11H29.6Zm.17,5.8V53.12l.27-.7.35,1.75-.09.35Zm.62,2L30,56.46l.27-.35.17.35Zm.61,7.82-.26-.35.26-.35.18.35Zm.27-1.76-.27-.17h.27ZM31,60.85h-.53v-.18l.35-.7.35.44Zm.79-20-.18-.27.18-.35.26.35Zm.61,1.67-.17-.27.17-.35.36.27Zm0-1v-.7l.44.7Zm4.31-2.2V40l-.44-.35Zm0,5.45v.35h-.44v-.61l.26.35-.26.26Zm-.18-1.67-.26.35-.18-.35.18-.35Zm-.44-1.23v.62l-.44-.27ZM32.94,37.3l.18-.35.26.35-.26.27Zm.53,24-.27-.35.27-.27.17.27Zm0-3.87-.27-.35.27-.35.17.35Zm.26-15.9-.44-.35-.17-.53.26-.35,1,.18v.35l-.62-.18Zm.35,11.6-.26-.35.26-.35.18.7Zm.27,1.05v.53l-.18-.26Zm0,9.84-.18-.26-.09.09-.26-.27.26-.35.18.35.09-.17.35.26Zm0-12.3-.18-.26.18-.26.35.26ZM35,47.32v.44h-.17Zm0,3.16v-.61l.35.35Zm.62-3.42V46l.79.18.35.26-.44.44-.18.44ZM36.72,60h-.44l.44-.35Zm0-5.89.17-.35.36.35-.36.36Zm.61,5.28L37,59l.35-.36Zm0-1.94L37,57.07l.35-.35ZM37.51,60v-.61l.35.26Zm.7.27v-.62l.35.35Zm0-2.2L38,57.69l.17-.27.35.18Zm1.94-3.6L40,54.08l.18-.35.26.35Zm0-5.19L40,48.9l.18-.35.26.35Zm.08-6.15.27-.35.17.35-.17.35Zm.53,15.55-.18-.26.18-.35.35.53Zm0-14.58-.18-.26.18-.36.35.36Zm.53,10,.17-.35.36.35-.36.36Zm.61,4.13-.35-.26.35-.35Zm0-5.27-.17-.44.17-.26Zm0-4.57-.35-.26.35-.35Zm-.26-3.07-.44.7v-.88l.44-.35-.18-.7L42,44l.09.35Zm.44,9.4v-.53l.35.35Zm.61-.26-.17-.36.17-.35.35.35Zm-11.86,5.8-.26.43.26.18.18-.26Zm0,0-.26.43.26.18.18-.26Zm.91,4.1s0,.09-.07.14.09,0,.11-.08S31.77,64.35,31.74,64.34Zm-.19.21,0,0,0,0S31.55,64.56,31.55,64.55Zm-.72-4.31-.26.43.26.18.18-.26Zm0,0-.26.43.26.18.18-.26Zm0,0-.26.43.26.18.18-.26Zm0,0-.26.43.26.18.18-.26Zm0,0-.26.43.26.18.18-.26Zm0,0-.26.43.26.18.18-.26Zm0,0-.26.43.26.18.18-.26Zm0,0-.26.43.26.18.18-.26Zm0,0-.26.43.26.18.18-.26Zm0,0-.26.43.26.18.18-.26Zm0,0-.26.43.26.18.18-.26ZM12.66,49.41a.58.58,0,0,1,0,.14l.1-.15ZM30.83,60.24l-.26.43.26.18.18-.26Zm0,0-.26.43.26.18.18-.26Zm0,0-.26.43.26.18.18-.26Zm0,0-.26.43.26.18.18-.26Zm-.1-32.8s0,0,0,.06A.09.09,0,0,1,30.73,27.44ZM26.9,33H27v0L27,33s0,0,0,0a.1.1,0,0,0,0-.1A.38.38,0,0,0,26.9,33ZM23,38.27c.13,0,.14-.18.17-.26C23,38.07,22.9,38.06,23,38.27Zm7.83,22-.26.43.26.18.18-.26Zm0,0-.26.43.26.18.18-.26Zm-.1-32.8s0,0,0,.06A.09.09,0,0,1,30.73,27.44ZM26.9,33H27v0L27,33s0,0,0,0a.1.1,0,0,0,0-.1A.38.38,0,0,0,26.9,33ZM23,38.27c.13,0,.14-.18.17-.26C23,38.07,22.9,38.06,23,38.27Zm7.83,22-.26.43.26.18.18-.26Zm0,0-.26.43.26.18.18-.26Zm-.1-32.8s0,0,0,.06A.09.09,0,0,1,30.73,27.44ZM26.9,33H27v0L27,33s0,0,0,0a.1.1,0,0,0,0-.1A.38.38,0,0,0,26.9,33ZM23,38.27c.13,0,.14-.18.17-.26C23,38.07,22.9,38.06,23,38.27Zm7.83,22-.26.43.26.18.18-.26Zm0,0-.26.43.26.18.18-.26Zm-.1-32.8s0,0,0,.06A.09.09,0,0,1,30.73,27.44ZM26.9,33H27v0L27,33s0,0,0,0a.1.1,0,0,0,0-.1A.38.38,0,0,0,26.9,33ZM23,38.27c.13,0,.14-.18.17-.26C23,38.07,22.9,38.06,23,38.27Zm7.83,22-.26.43.26.18.18-.26Zm0,0-.26.43.26.18.18-.26Zm-.1-32.8s0,0,0,.06A.09.09,0,0,1,30.73,27.44ZM26.9,33H27v0L27,33s0,0,0,0a.1.1,0,0,0,0-.1A.38.38,0,0,0,26.9,33ZM23,38.27c.13,0,.14-.18.17-.26C23,38.07,22.9,38.06,23,38.27Zm7.83,22-.26.43.26.18.18-.26Zm0,0-.26.43.26.18.18-.26ZM27.64,24.71s0,0,0,.06Zm-3.83,5.6c.13,0,.21-.08.21-.17A.41.41,0,0,0,23.81,30.31Zm-3.89,5.23c.12,0,.14-.17.16-.26C19.94,35.34,19.82,35.33,19.92,35.54Zm10.91,24.7-.26.43.26.18.18-.26Z"/><path class="cls-2" d="M86.53,30.89l-.26.35-.09-.35-.62,1.67-.26,1.67.09.7L84,38.27l-2.11,4.48-1.67,3.78-.26,1.05h-.26v-.53l.26-1-.26-.88h-.44l-.26.62h.26l.09.7-.09,1.14-.35,1-.44.88-1.14,1.67L77,52l-.26,1V54h-.18l-.35.53-.7,2.2-2,3.78h-.26v-.7l-.18.09-.44.7L72,61.81l-.88,2.55-.35.61V64l.44-1h-.44v-2.2l-.53.35-.35.62-.18.88-.26,3.43-.26,1.14-.35,1.05-.53,1.05-.79.62-1.23.53.62.88-.7.7-1,1.84-.53.7-.26-.26-.53-1,.18-.88-1.05.79.18-.09.18.18-.09,1.05L63.07,76l-.7,1.93-1.76,2.28L59,81.84l-1.67,1.41-1,.62-1.85.79-1,.09h-5.1V84.3h-.7V84l-1.41-.26-2.81-.18-1-.18-1.05-.35-1.05-.53-1.14-.88-.88-1.23-.26-1.14.09-1.05.44-1.05.53-1,.7-.7L41,74.64h.26l.53-.7L43,73.58l1,.09.35.7.35-.44.79-.62.88-.35,1.05-.26h1.14v2.72l.18-.26.62-1,1.67-1.67,4.22-3.69L56,67.61l.09-.61V65.41l.09-1.05-1.67-8.52-.18-1.32-.7-3.34-.09-1-.17-.88v-.7l-.09-.44.09-.35h.79V45.56l.44-.26-.35-1.05-.26.09-.26,1.84-.35,1h-.53l-4.22-9.49-.53-.88-.7-.7-1.49-1.14.26-.44v-.88l-.09.17-.62.35-1.05.35-2.55.35-1.41.09H38.74l.35-.18.09-.44V33.17l-.44-1.93-.53.88-.35.79-.7-.62L37,31.5l.09-.79.44-.88L38.3,29l1.84-1.76,2.28-1.49,4-2.28,1.14.09,2.72-1.05,1.14.09.18-.61.79.26.26.35.26-.35.88-.62L55,21.4h1l.61.44v1h.88V21.31L59,21.13l1.05.18.62.7v1.23l.88-.18.44-.88,1.58,1.58.62.88.35.88.26.79.18.88v1l-.26,1.14.26.44v2.11l.35.44.35-.26.18-.44L66,30.36l.35-1.05.09.18,1.67,5.45L69,38.79,69,40.29l-.26.35.44.26.44.88.53,1.93.44.88V44.5l.09-.35,2.55-5,1.49-3.6.44-1.23L75.55,33l.35-2.28-.09-1-.18-1-.35-.88-.62-.79-.7-.35v-2l.35.35.09.61v.79h.7L75,25.7l.26-1.41.62-1,.88-.88.88-.62,1-.26.79.09.44.35.09.79.44.18.26-.18.26-1.14v-.88h3.25l.18.53.53-.35,1.23.26v.26h.35l.44.26.61,1-.18.79.88-.26-.09,1.93-.26,1.14-1.67,4.57.09-.35Zm-48-.53.18-.62-.18.18Zm.18-1.05.35-.44-.35-.18Zm0,48.59.35.09-.35-.7Zm1.14,2,.09.35.35-.35L40,79.56ZM41.29,29.3l.44.44V28.69Zm.09,1.41.35.26.18-.09-.18-.53Zm.18,1,.18.53v-1Zm.53,49.55.35.35v-.7Zm.35.88.18.26.35-.26-.35-.35Zm.26-2.2.35.35.09-.35L43,79.56Zm1-4,.26-.53V74.9l-.26-.53-.44.26Zm-.35-50.43.35.26.18-.26-.18-.35Zm.44,55.09.18.26.26-.26-.26-.35ZM44,77.36l.26.26h.18L44.27,77Zm.35.88.18.35.35-.35-.35-.35Zm.18-1.67H45v-.26Zm.09-.88L45,76l.18-.26L45,75.34Zm1.32-42.61.09-.18V31.59l-.35-1.05h-.44v.35L45.41,32l.26.88Zm0-4,.26-.79.7-1-.7-.79h-.26v.26l-.26,1.32v.61ZM47,81.93l.18.35.26-.35-.26-.35Zm.62-5,.35-.79L47.79,76,47.17,76l-.09.62.09,1.32.26,1.32.35,1.05.44.18-.61-.88-.26-.79v-1Zm.88-48.5L49.1,28l-.62-2.81-.26.26v1.67Zm-.18,52.37.18.26.35-.26-.35-.35Zm.62-2.55.18.35.26-.35-.26-.35ZM49.1,29.3l.26-.26-.26-.35Zm0,53,.44-1,.26-1.14-.09-1-.18,1-.44.7Zm.09-3.34.26.26.18-.26-.18-.35Zm.53-51.22.44-.44h-.7Zm-.18-2.55.18.35v-.79Zm.18,1.58.44-.09-.44-.62Zm.88,12.3.18.09v-.53ZM50.77,41l.17.35L51.3,41l-.35-.35Zm.17,38.22.35-.26-.35-.35ZM51,30.71l.44.26v-.61Zm0,10.72.44.26v-.62Zm.44-12.74h1.05l.53-.26.35-.44H52.18Zm0,46.65.35-.44-.18-1.14h-.18Zm0,4.57.18.35.35-.35-.35-.35Zm.18-3.6.35-.18-.35-.35Zm.7-52.1.35.26v-.62Zm0,.88.35.44v-.79Zm1.05-1.23.35-.7-.18-1h-.17l-.09.61-.44.7Zm0,8.79.17.26.35-.44-.35-.18Zm.17,4.13h.62l1.05-.53.26-.7-.18-.44-.44-.44.44.88H54.9L54,35.37Zm0,6.85h.62l-.09-.79.35-.18.44.26.62.7.35-.35L55.52,43l1.05-1.23-.35-1.32L56,40.29l-.44,1-.53.88L54.64,42v-.62H53.59Zm.09-13.35.35.09v-.44Zm.35,12-.35-.09.35-.44ZM53.67,84l.35.26v-.62ZM54,32.29l.18.18v-.62ZM54.64,31l.62-.44v-.44l-.35-.35h-.26Zm.09,2.37.18.61.18-.53-.18-.53Zm0,15.2.18.26.35-.26-.35-.26Zm.18-9.4.35-.44.09-.79-.44.18ZM55,53.64l.35.35.09-.09-.09-.61Zm0,25,.35.35.09-.35-.09-.35Zm.35-53.86.18.35.26-.35-.26-.35Zm0,45.6.18.35.26-.35-.26-.35Zm.18-20.73.35-.18.44-.79.09-1V46.61l-.53-2-.35.44Zm.09-16.87.26.26.18-.26-.18-.35Zm.26,45.51.26-.7-.26.26ZM56,51.8l.18.26.35-.26-.35-.35Zm0,24.42.18.35.35-.35L56.13,76Zm.18-19.68.7.26.62.44.35-.44v-.53l-.35-1.05Zm.09-2.9.35.35.18-.35-.18-.35Zm.44-28.55.18.35.26-.35-.26-.35Zm0,57.64.18.26.26-.26-.26-.35Zm.18-24.86h.35l-.35-.35Zm0,16.17,1.05-.88.53-.7.09-.79-.09-1.76.09-1.23h-.62l-.18.88-.09.88v1.14l-.18,1.14-.62.35Zm0,1.76h.35v-.44h-.35Zm0,6,.62-.18-.18-.88-.09-1h-.35Zm.53-25.92-.18.35-.26-.35.26-.35Zm-.44,5.62.26.26.18-.26-.18-.35Zm0,5,.26.26.18-.26-.18-.35Zm.35-32.95.18.44.35-.44-.35-.44Zm.88,10.1.35-.35V39.14l-.09-.62-.09-3.69-.18-.62-.35.09-.35.79-.18,1.23.18,2.11v2.9l.35.35.09.53V43Zm-.62,21.44.35.35.18-.35-.18-.35Zm.35-1,.26-.35h-.26ZM58,47.49l.18.35.26-.35-.26-.35Zm.18,14.67.18-.53-.18-.53Zm.35,11.6.26-.7h-.35l-.26.26Zm-.26-21.17.26.35.18-.35-.18-.35Zm0,25,.26.26h.09V78l.18.35L59,78l-.26-.35-.09.18-.18-.53ZM58.68,64l-.18.35.44.09.44-.26v-.44h-.26Zm.44-32.33.26-.44v-.88h-.26Zm.7,21.88-.44-1.49-.26.18Zm-.35,1,.35.26.18-.26-.18-.26Zm0,25.39.35.35.18-.35-.18-.35Zm.79-32.07.44-.26-.88-.7v.7Zm-.35-23.46.18.35.26-.35L60.09,24Zm0,.7.18.35.26-.35-.26-.35Zm0,25.39.18.35.26-.35-.26-.35ZM60.44,28,61,26.84l.18-.79-.7.44ZM60.7,38.7V37.39h-.26v.53ZM60.44,43h.35l.44-.35.26-1-.18-.44-.88-.18Zm1,15.46v-1l-.62.09-.35.44.7-.18Zm-.88-33.39.18.35.35-.35-.35-.35Zm.88-.62v-.62h-.7Zm-.7,4.83.44-.26v-.35l-.44-.26Zm.09-3.78.35.26.18-.26-.18-.35Zm0,1.93.35.26h.18l-.18-.62Zm0,5.8.35.35.18-.53-.18-.18Zm.62,16.43v-.18h-.26Zm.26,4.57H62v-1l-.88.26Zm-.26-2.2.35.18v-.7Zm.09-2,.26.26.18-.26-.18-.35Zm0,.61.26.35.18-.35-.18-.35Zm0,24.34.26.35.18-.35-.18-.35Zm1.58-3.6.44-.26-.7-.7L62,70.07l-.26.44ZM62,58l.26-.35L62,56.8Zm0,9.31.35-.62H62ZM62,68h.61v-.44h-.26Zm0,9.31.26-.18.09-.53H62Zm.09-35.06.26.35.18-.35L62.37,42Zm0,12.74.26.26.18-.26-.18-.35Zm0,10.1.26.35.18-.35-.18-.35Zm.09-19.5.18.26.18-.26-.18-.35Zm.26,29.17.18.35.35-.35-.35-.35Zm.18-11.25.88-.62h-.88ZM62.72,44l.35.35.35-.53-.35-.18Zm.44-11.77.35.09v-.44Zm0,38,.35.17V70Zm.35-1.93.18.35.35-.35L63.69,68Zm.62-9.58L65,58,64,57.59l-.35.26.09.62Zm0-17.66.26-.7h.35L65,40l-.61-1.93.35-.18.35-.88-.09-1,.18.44.44.88.44-.35v-1L65.71,35,65.62,34l-.35-.44-.44.09-.44.61.26.26-.26.88H65l-.61.44-.7.79v.88l.44.44ZM63.69,36l.35-.26-.35-.35Zm.44,20.91.62-.09.26-.61-.09-.44-.79-.53.26-.44-.26-.18-.44,1v1Zm-.35,5.18.35.35.18-.35-.18-.35Zm0,1.14.35.26.18-.26-.18-.35Zm0,6.59.35.26.18-.26-.18-.35Zm1-18.28.53-.79.09-1.93L64.13,49l-.26.35.79,2-.26.09Zm-.53,1.05.18.35.26-.35-.26-.35Zm.44,3.69-.26.26-.18-.26.18-.35Zm-.44,12.21.18.35.26-.35-.26-.35ZM64.39,54l.35-.44h-.35Zm0,12.21.18-.88.18-.62h-.35Zm.7-9,.26.35.18-.26-.18-.44ZM65.45,39l.18.18L66,39l-.35-.35Zm.88,10.54V49h-.26Zm.09-4-.09,1,.53-.62.18-1-.09-1.05-.18.7Zm0,1.32.35.26v-.62Zm0,14.32.35.26v-.62Zm.53,5h.62L68,62.43h-.44l-.62,1.05Zm0,3.25.44-.62h-.44ZM67,45.91l.35.35v-.7Zm.35,13.27.18.44.26-.26V59l-.26-.26Zm0,3,.61-.44h-.44Zm.18,6,.26-.18-.26-.44Zm.09-22,.35.35v-.7Zm.53.7.35-.26-.35-.35Zm1,2.2.18.44,1.49-1,.09-.35-.09-.61h-.53l-.35.35.09.44-.53.09-.18.35Zm.18,4.83.18.35.35-.26-.35-.44Zm.18-2.46h.62l.7-.62.09-.88-.26-.26-1.14,1.14Zm0-1.14.35-.26-.35-.35Zm.09,1.49.44.26v-.62Zm0,9,.44.35v-.62Zm.62-.62.26-2,.18-3.51-.53.26-.26.79.18.53Zm.26-6.94-.26.35.35-.09.26-.53Zm.35-7.64.44-.35h-.44Zm0,5.8.44.18V51Zm0,.88.44-.18h-.44ZM72,53.55l.35-.26L72,52.94Zm0,4.92.88-.18.35-.44-.09-.35h-.44v-.26l-.26.26Zm.09-4.83.35.35.18-.35-.18-.35Zm.35,1.14.44.09.53-.79v-.53l-.7.44Zm.26-6.5.44-.44h-.44Zm.7,4.66v-.7l-.7.53Zm-.61-1.58.35.18.17-.18L73.18,51Zm0,7.47.35.35.17-.44-.17-.26Zm.44-14.15.17.35.26-.44-.26-.26Zm.26,2.81.26.35.09-.35-.09-.35Zm0,7,.26.26.09-.26-.09-.26Zm1.23,1.32h.35v-.35ZM75.29,40h.44v-.7Zm.09,9.31.35.35.18-.35L75.73,49Zm.44-4,.18.26.35-.26L76,45Zm0,5.89.18.26.35-.26L76,50.83Zm.26-11.07.35.26v-.53Zm0,1.58.35.26.18-.26-.18-.35Zm0,.53.35.35.18-.35L76.43,42Zm.35,3.6h.26v-.26h-.26Zm.26,1.32.53-.62h-.79v.35ZM76.52,26.4l.18.35H77l-.26-.7Zm0,21.79.18.35v-.7Zm.18-3.87L77,43.27h-.26Zm1.85-13.79.35-.26-.35-.35Zm.53,4,.18.35.35-.35-.35-.35Zm.35,8.26.26.44.26-1.14v-3l.44-1.05-.26-.26.09-.44h-1v4.92Zm3.51-4.92L83,36.86l.09-.79-.18-.44-.53-.09.18,1-.35.88Zm.18-5.27-.18-1-.35.18-.18.44.18,1.05.53,1.32Zm-.7,7.2h.53l-.09-.61.26-.35.35-.26-.26-.44-.79.44Zm.09-9,.44.35v-.7Zm.62-7.29.35.26v-.62Zm1.67.88H85v-.26L84.78,24Zm1.32,5.27.18-.7-.18.26Zm.44-3.08-.26.44.62-.62.44.26v-1h-.44l-.26.26Z"/><path class="cls-2" d="M129.63,11.56l.13.7.08.18v.88l.36.09.17-.62.13-1.6A1.39,1.39,0,0,1,129.63,11.56Zm.65-3.69-.17-1.23-.44-.88-.35-.17-.18.79.15,2.19a1.47,1.47,0,0,1,1.09.26Zm-8.7,5.8v.53h.53v-.53Zm-.52-1.93-.18.35.18.35.26-.35Zm.52,1.93v.53h.53v-.53Zm-.52-1.93-.18.35.18.35.26-.35Zm-12.3,28.55V41l.44-.7Zm0-1.05-.18.35.18.35.26-.35Zm-2.64,21.7v.53l.26-.18V61.2Zm0,0v.53l.26-.18V61.2Zm-10-4.31-.09.18.26.17V56.9Zm0,0-.09.18.26.17V56.9Zm12.65-16.34V41l.44-.7Zm0-1.05-.18.35.18.35.26-.35ZM94.17,33.09l.09.08.09-.26Zm0,0,.09.08.09-.26Zm-11.6-1.85.36-.35V30.8Zm11.6,1.85.09.08.09-.26Zm1.94,23.54-.09.18.26.17V56.9Zm10,4.31v.53l.26-.18V61.2Zm2.64-21.7-.18.35.18.35.26-.35Zm0,1.05V41l.44-.7Zm12.3-28.55-.18.35.18.35.26-.35Zm.52,1.93v.53h.53v-.53Zm0,0v.53h.53v-.53Zm-.52-1.93-.18.35.18.35.26-.35Zm-14.94,49.2v.53l.26-.18V61.2Zm2.64-20.65V41l.44-.7Zm0-1.05-.18.35.18.35.26-.35ZM96.11,56.63l-.09.18.26.17V56.9ZM94.17,33.09l.09.08.09-.26Zm0,0,.09.08.09-.26Zm1.94,23.54-.09.18.26.17V56.9Zm10,4.31v.53l.26-.18V61.2Zm2.64-21.7-.18.35.18.35.26-.35Zm0,1.05V41l.44-.7Zm12.3-28.55-.18.35.18.35.26-.35Zm.52,1.93v.53h.53v-.53Zm0,0v.53h.53v-.53Zm-.52-1.93-.18.35.18.35.26-.35Zm-14.94,49.2v.53l.26-.18V61.2Zm2.64-20.65V41l.44-.7Zm0-1.05-.18.35.18.35.26-.35ZM96.11,56.63l-.09.18.26.17V56.9ZM94.17,33.09l.09.08.09-.26Zm0,0,.09.08.09-.26Zm1.94,23.54-.09.18.26.17V56.9Zm10,4.31v.53l.26-.18V61.2Zm2.64-21.7-.18.35.18.35.26-.35Zm0,1.05V41l.44-.7Zm12.3-28.55-.18.35.18.35.26-.35Zm.52,1.93v.53h.53v-.53Zm0,0v.53h.53v-.53Zm-.52-1.93-.18.35.18.35.26-.35Zm-14.94,49.2v.53l.26-.18V61.2Zm2.64-20.65V41l.44-.7Zm0-1.05-.18.35.18.35.26-.35ZM96.11,56.63l-.09.18.26.17V56.9ZM94.17,33.09l.09.08.09-.26Zm0,0,.09.08.09-.26Zm1.94,23.54-.09.18.26.17V56.9Zm10,4.31v.53l.26-.18V61.2Zm2.64-21.7-.18.35.18.35.26-.35Zm0,1.05V41l.44-.7Zm12.3-28.55-.18.35.18.35.26-.35Zm.52,1.93v.53h.53v-.53Zm0,0v.53h.53v-.53Zm-.52-1.93-.18.35.18.35.26-.35Zm-14.94,49.2v.53l.26-.18V61.2Zm2.64-20.65V41l.44-.7Zm0-1.05-.18.35.18.35.26-.35ZM96.11,56.63l-.09.18.26.17V56.9ZM94.17,33.09l.09.08.09-.26Zm0,0,.09.08.09-.26Zm1.94,23.54-.09.18.26.17V56.9Zm10,4.31v.53l.26-.18V61.2Zm2.64-21.7-.18.35.18.35.26-.35Zm0,1.05V41l.44-.7Zm12.3-28.55-.18.35.18.35.26-.35Zm.52,1.93v.53h.53v-.53Zm0,0v.53h.53v-.53Zm-.52-1.93-.18.35.18.35.26-.35Zm-14.94,49.2v.53l.26-.18V61.2Zm2.64-20.65V41l.44-.7Zm0-1.05-.18.35.18.35.26-.35ZM96.11,56.63l-.09.18.26.17V56.9ZM94.17,33.09l.09.08.09-.26Zm0,0,.09.08.09-.26Zm1.94,23.54-.09.18.26.17V56.9Zm10,4.31v.53l.26-.18V61.2Zm2.64-21.7-.18.35.18.35.26-.35Zm0,1.05V41l.44-.7Zm12.3-28.55-.18.35.18.35.26-.35Zm.52,1.93v.53h.53v-.53Zm0,0v.53h.53v-.53Zm-.52-1.93-.18.35.18.35.26-.35Zm-14.94,49.2v.53l.26-.18V61.2Zm2.64-20.65V41l.44-.7Zm0-1.05-.18.35.18.35.26-.35ZM96.11,56.63l-.09.18.26.17V56.9ZM94.17,33.09l.09.08.09-.26Zm0,0,.09.08.09-.26Zm1.94,23.54-.09.18.26.17V56.9Zm10,4.31v.53l.26-.18V61.2Zm2.64-21.7-.18.35.18.35.26-.35Zm0,1.05V41l.44-.7Zm12.3-28.55-.18.35.18.35.26-.35Zm.52,1.93v.53h.53v-.53Zm0,0v.53h.53v-.53Zm-.52-1.93-.18.35.18.35.26-.35Zm-14.94,49.2v.53l.26-.18V61.2Zm2.64-20.65V41l.44-.7Zm0-1.05-.18.35.18.35.26-.35ZM96.11,56.63l-.09.18.26.17V56.9ZM94.17,33.09l.09.08.09-.26Zm0,0,.09.08.09-.26Zm1.94,23.54-.09.18.26.17V56.9Zm10,4.31v.53l.26-.18V61.2Zm2.64-21.7-.18.35.18.35.26-.35Zm0,1.05V41l.44-.7Zm12.3-28.55-.18.35.18.35.26-.35Zm.52,1.93v.53h.53v-.53ZM108.76,40.29V41l.44-.7Zm0-1.05-.18.35.18.35.26-.35ZM96.11,56.63l-.09.18.26.17V56.9ZM94.17,33.09l.09.08.09-.26Zm27.41-19.42v.53h.53v-.53Zm-.52-1.93-.18.35.18.35.26-.35Zm-14.94,49.2v.53l.26-.18V61.2Zm-12-27.85.09.08.09-.26Zm1.94,23.54-.09.18.26.17V56.9Zm10,4.31v.53l.26-.18V61.2Zm2.64-21.7-.18.35.18.35.26-.35Zm0,1.05V41l.44-.7Zm12.3-28.55-.18.35.18.35.26-.35Zm.52,1.93v.53h.53v-.53ZM108.76,40.29V41l.44-.7Zm0-1.05-.18.35.18.35.26-.35ZM96.11,56.63l-.09.18.26.17V56.9ZM94.17,33.09l.09.08.09-.26Zm27.41-19.42v.53h.53v-.53Zm-.52-1.93-.18.35.18.35.26-.35Zm-14.94,49.2v.53l.26-.18V61.2Zm-12-27.85.09.08.09-.26Zm1.94,23.54-.09.18.26.17V56.9Zm10,4.31v.53l.26-.18V61.2Zm2.64-21.7-.18.35.18.35.26-.35Zm0,1.05V41l.44-.7Zm12.3-28.55-.18.35.18.35.26-.35Zm.52,1.93v.53h.53v-.53ZM108.76,40.29V41l.44-.7Zm0-1.05-.18.35.18.35.26-.35ZM96.11,56.63l-.09.18.26.17V56.9ZM94.17,33.09l.09.08.09-.26Zm27.41-19.42v.53h.53v-.53Zm-.52-1.93-.18.35.18.35.26-.35Zm-14.94,49.2v.53l.26-.18V61.2Zm-12-27.85.09.08.09-.26Zm1.94,23.54-.09.18.26.17V56.9Zm10,4.31v.53l.26-.18V61.2Zm2.64-21.7-.18.35.18.35.26-.35Zm0,1.05V41l.44-.7Zm12.3-28.55-.18.35.18.35.26-.35Zm.52,1.93v.53h.53v-.53ZM108.76,40.29V41l.44-.7Zm0-1.05-.18.35.18.35.26-.35ZM96.11,56.63l-.09.18.26.17V56.9ZM94.17,33.09l.09.08.09-.26Zm27.41-19.42v.53h.53v-.53Zm-.52-1.93-.18.35.18.35.26-.35Zm-14.94,49.2v.53l.26-.18V61.2Zm-12-27.85.09.08.09-.26Zm1.94,23.54-.09.18.26.17V56.9Zm10,4.31v.53l.26-.18V61.2Zm2.64-21.7-.18.35.18.35.26-.35Zm0,1.05V41l.44-.7Zm12.3-28.55-.18.35.18.35.26-.35Zm.52,1.93v.53h.53v-.53ZM108.76,40.29V41l.44-.7Zm0-1.05-.18.35.18.35.26-.35ZM96.11,56.63l-.09.18.26.17V56.9ZM94.17,33.09l.09.08.09-.26Zm27.41-19.42v.53h.53v-.53Zm-.52-1.93-.18.35.18.35.26-.35Zm-14.94,49.2v.53l.26-.18V61.2Zm-12-27.85.09.08.09-.26Zm1.94,23.54-.09.18.26.17V56.9Zm10,4.31v.53l.26-.18V61.2Zm2.64-21.7-.18.35.18.35.26-.35Zm0,1.05V41l.44-.7Zm12.3-28.55-.18.35.18.35.26-.35Zm.52,1.93v.53h.53v-.53ZM108.76,40.29V41l.44-.7Zm0-1.05-.18.35.18.35.26-.35ZM96.11,56.63l-.09.18.26.17V56.9ZM94.17,33.09l.09.08.09-.26Zm27.41-19.42v.53h.53v-.53Zm-.52-1.93-.18.35.18.35.26-.35Zm-14.94,49.2v.53l.26-.18V61.2Zm-12-27.85.09.08.09-.26Zm1.94,23.54-.09.18.26.17V56.9Zm10,4.31v.53l.26-.18V61.2Zm2.64-21.7-.18.35.18.35.26-.35Zm0,1.05V41l.44-.7Zm12.3-28.55-.18.35.18.35.26-.35Zm.52,1.93v.53h.53v-.53ZM108.76,40.29V41l.44-.7Zm0-1.05-.18.35.18.35.26-.35ZM96.11,56.63l-.09.18.26.17V56.9ZM94.17,33.09l.09.08.09-.26Zm27.41-19.42v.53h.53v-.53Zm-.52-1.93-.18.35.18.35.26-.35Zm-14.94,49.2v.53l.26-.18V61.2Zm-12-27.85.09.08.09-.26Zm1.94,23.54-.09.18.26.17V56.9Zm10,4.31v.53l.26-.18V61.2Zm2.64-21.7-.18.35.18.35.26-.35Zm0,1.05V41l.44-.7Zm12.3-28.55-.18.35.18.35.26-.35Zm.52,1.93v.53h.53v-.53ZM108.76,40.29V41l.44-.7Zm0-1.05-.18.35.18.35.26-.35ZM96.11,56.63l-.09.18.26.17V56.9ZM94.17,33.09l.09.08.09-.26Zm27.41-19.42v.53h.53v-.53Zm-.52-1.93-.18.35.18.35.26-.35Zm-14.94,49.2v.53l.26-.18V61.2Zm-12-27.85.09.08.09-.26Zm1.94,23.54-.09.18.26.17V56.9Zm10,4.31v.53l.26-.18V61.2Zm2.64-21.7-.18.35.18.35.26-.35Zm0,1.05V41l.44-.7Zm12.3-28.55-.18.35.18.35.26-.35Zm.52,1.93v.53h.53v-.53ZM108.76,40.29V41l.44-.7Zm0-1.05-.18.35.18.35.26-.35ZM96.11,56.63l-.09.18.26.17V56.9ZM94.17,33.09l.09.08.09-.26Zm27.41-19.42v.53h.53v-.53Zm-.52-1.93-.18.35.18.35.26-.35Zm-14.94,49.2v.53l.26-.18V61.2Zm-12-27.85.09.08.09-.26Zm1.94,23.54-.09.18.26.17V56.9Zm10,4.31v.53l.26-.18V61.2Zm2.64-21.7-.18.35.18.35.26-.35Zm0,1.05V41l.44-.7Zm12.3-28.55-.18.35.18.35.26-.35Zm.52,1.93v.53h.53v-.53ZM108.76,40.29V41l.44-.7Zm0-1.05-.18.35.18.35.26-.35ZM96.11,56.63l-.09.18.26.17V56.9ZM94.17,33.09l.09.08.09-.26Zm27.41-19.42v.53h.53v-.53Zm-.52-1.93-.18.35.18.35.26-.35Zm-14.94,49.2v.53l.26-.18V61.2Zm-12-27.85.09.08.09-.26Zm1.94,23.54-.09.18.26.17V56.9Zm10,4.31v.53l.26-.18V61.2Zm2.64-21.7-.18.35.18.35.26-.35Zm0,1.05V41l.44-.7Zm12.3-28.55-.18.35.18.35.26-.35Zm.52,1.93v.53h.53v-.53ZM108.76,40.29V41l.44-.7Zm0-1.05-.18.35.18.35.26-.35ZM96.11,56.63l-.09.18.26.17V56.9ZM94.17,33.09l.09.08.09-.26Zm27.41-19.42v.53h.53v-.53Zm-.52-1.93-.18.35.18.35.26-.35Zm-14.94,49.2v.53l.26-.18V61.2Zm-12-27.85.09.08.09-.26Zm1.94,23.54-.09.18.26.17V56.9Zm10,4.31v.53l.26-.18V61.2Zm2.64-21.7-.18.35.18.35.26-.35Zm0,1.05V41l.44-.7Zm12.3-28.55-.18.35.18.35.26-.35Zm.52,1.93v.53h.53v-.53ZM108.76,40.29V41l.44-.7Zm0-1.05-.18.35.18.35.26-.35ZM96.11,56.63l-.09.18.26.17V56.9ZM94.17,33.09l.09.08.09-.26Zm27.41-19.42v.53h.53v-.53Zm-.52-1.93-.18.35.18.35.26-.35Zm-14.94,49.2v.53l.26-.18V61.2Zm-12-27.85.09.08.09-.26Zm1.94,23.54-.09.18.26.17V56.9Zm10,4.31v.53l.26-.18V61.2Zm2.64-21.7-.18.35.18.35.26-.35Zm0,1.05V41l.44-.7Zm12.3-28.55-.18.35.18.35.26-.35Zm.52,1.93v.53h.53v-.53ZM108.76,40.29V41l.44-.7Zm0-1.05-.18.35.18.35.26-.35ZM96.11,56.63l-.09.18.26.17V56.9ZM94.17,33.09l.09.08.09-.26Zm27.41-19.42v.53h.53v-.53Zm-.52-1.93-.18.35.18.35.26-.35Zm-14.94,49.2v.53l.26-.18V61.2Zm-12-27.85.09.08.09-.26Zm1.94,23.54-.09.18.26.17V56.9Zm10,4.31v.53l.26-.18V61.2Zm2.64-21.7-.18.35.18.35.26-.35Zm0,1.05V41l.44-.7Zm12.3-28.55-.18.35.18.35.26-.35Zm.52,1.93v.53h.53v-.53ZM108.76,40.29V41l.44-.7Zm0-1.05-.18.35.18.35.26-.35ZM96.11,56.63l-.09.18.26.17V56.9ZM94.17,33.09l.09.08.09-.26Zm27.41-19.42v.53h.53v-.53Zm-.52-1.93-.18.35.18.35.26-.35Zm-14.94,49.2v.53l.26-.18V61.2Zm-12-27.85.09.08.09-.26Zm1.94,23.54-.09.18.26.17V56.9Zm10,4.31v.53l.26-.18V61.2Zm2.64-21.7-.18.35.18.35.26-.35Zm0,1.05V41l.44-.7Zm12.3-28.55-.18.35.18.35.26-.35Zm.52,1.93v.53h.53v-.53ZM108.76,40.29V41l.44-.7Zm0-1.05-.18.35.18.35.26-.35ZM96.11,56.63l-.09.18.26.17V56.9ZM94.17,33.09l.09.08.09-.26Zm27.41-19.42v.53h.53v-.53Zm-.52-1.93-.18.35.18.35.26-.35Zm-14.94,49.2v.53l.26-.18V61.2Zm-12-27.85.09.08.09-.26Zm1.94,23.54-.09.18.26.17V56.9Zm10,4.31v.53l.26-.18V61.2Zm2.64-21.7-.18.35.18.35.26-.35Zm0,1.05V41l.44-.7Zm12.3-28.55-.18.35.18.35.26-.35Zm.52,1.93v.53h.53v-.53ZM108.76,40.29V41l.44-.7Zm0-1.05-.18.35.18.35.26-.35ZM96.11,56.63l-.09.18.26.17V56.9ZM94.17,33.09l.09.08.09-.26Zm27.41-19.42v.53h.53v-.53Zm-.52-1.93-.18.35.18.35.26-.35Zm-14.94,49.2v.53l.26-.18V61.2Zm-12-27.85.09.08.09-.26Zm1.94,23.54-.09.18.26.17V56.9Zm10,4.31v.53l.26-.18V61.2Zm2.64-21.7-.18.35.18.35.26-.35Zm0,1.05V41l.44-.7Zm12.3-28.55-.18.35.18.35.26-.35Zm.52,1.93v.53h.53v-.53ZM108.76,40.29V41l.44-.7Zm0-1.05-.18.35.18.35.26-.35ZM96.11,56.63l-.09.18.26.17V56.9ZM94.17,33.09l.09.08.09-.26Zm27.41-19.42v.53h.53v-.53Zm-.52-1.93-.18.35.18.35.26-.35Zm-14.94,49.2v.53l.26-.18V61.2Zm-12-27.85.09.08.09-.26Zm1.94,23.54-.09.18.26.17V56.9Zm10,4.31v.53l.26-.18V61.2Zm2.64-21.7-.18.35.18.35.26-.35Zm0,1.05V41l.44-.7Zm12.3-28.55-.18.35.18.35.26-.35Zm.52,1.93v.53h.53v-.53ZM108.76,40.29V41l.44-.7Zm0-1.05-.18.35.18.35.26-.35ZM96.11,56.63l-.09.18.26.17V56.9ZM94.17,33.09l.09.08.09-.26Zm27.41-19.42v.53h.53v-.53Zm-.52-1.93-.18.35.18.35.26-.35Zm-14.94,49.2v.53l.26-.18V61.2Zm-12-27.85.09.08.09-.26Zm1.94,23.54-.09.18.26.17V56.9Zm10,4.31v.53l.26-.18V61.2Zm2.64-21.7-.18.35.18.35.26-.35Zm0,1.05V41l.44-.7Zm12.3-28.55-.18.35.18.35.26-.35Zm.52,1.93v.53h.53v-.53ZM108.76,40.29V41l.44-.7Zm0-1.05-.18.35.18.35.26-.35ZM96.11,56.63l-.09.18.26.17V56.9ZM94.17,33.09l.09.08.09-.26Zm27.41-19.42v.53h.53v-.53Zm-.52-1.93-.18.35.18.35.26-.35Zm-14.94,49.2v.53l.26-.18V61.2Zm-12-27.85.09.08.09-.26Zm1.94,23.54-.09.18.26.17V56.9Zm10,4.31v.53l.26-.18V61.2Zm2.64-21.7-.18.35.18.35.26-.35Zm0,1.05V41l.44-.7Zm12.3-28.55-.18.35.18.35.26-.35Zm.52,1.93v.53h.53v-.53ZM108.76,40.29V41l.44-.7Zm0-1.05-.18.35.18.35.26-.35ZM96.11,56.63l-.09.18.26.17V56.9ZM94.17,33.09l.09.08.09-.26Zm27.41-19.42v.53h.53v-.53Zm-.52-1.93-.18.35.18.35.26-.35Zm-14.94,49.2v.53l.26-.18V61.2Zm-12-27.85.09.08.09-.26Zm1.94,23.54-.09.18.26.17V56.9Zm10,4.31v.53l.26-.18V61.2Zm2.64-21.7-.18.35.18.35.26-.35Zm0,1.05V41l.44-.7Zm12.3-28.55-.18.35.18.35.26-.35Zm.52,1.93v.53h.53v-.53ZM108.76,40.29V41l.44-.7Zm0-1.05-.18.35.18.35.26-.35ZM96.11,56.63l-.09.18.26.17V56.9ZM94.17,33.09l.09.08.09-.26Zm27.41-19.42v.53h.53v-.53Zm-.52-1.93-.18.35.18.35.26-.35Zm-14.94,49.2v.53l.26-.18V61.2Zm-12-27.85.09.08.09-.26Zm1.94,23.54-.09.18.26.17V56.9Zm10,4.31v.53l.26-.18V61.2Zm2.64-21.7-.18.35.18.35.26-.35Zm0,1.05V41l.44-.7Zm12.3-28.55-.18.35.18.35.26-.35Zm.52,1.93v.53h.53v-.53ZM108.76,40.29V41l.44-.7Zm0-1.05-.18.35.18.35.26-.35ZM96.11,56.63l-.09.18.26.17V56.9ZM94.17,33.09l.09.08.09-.26Zm27.41-19.42v.53h.53v-.53Zm-.52-1.93-.18.35.18.35.26-.35Zm-14.94,49.2v.53l.26-.18V61.2Zm-12-27.85.09.08.09-.26Zm1.94,23.54-.09.18.26.17V56.9Zm10,4.31v.53l.26-.18V61.2Zm2.64-21.7-.18.35.18.35.26-.35Zm0,1.05V41l.44-.7Zm12.3-28.55-.18.35.18.35.26-.35Zm.52,1.93v.53h.53v-.53ZM108.76,40.29V41l.44-.7Zm0-1.05-.18.35.18.35.26-.35ZM96.11,56.63l-.09.18.26.17V56.9ZM94.17,33.09l.09.08.09-.26Zm27.41-19.42v.53h.53v-.53Zm-.52-1.93-.18.35.18.35.26-.35Zm-14.94,49.2v.53l.26-.18V61.2Zm-12-27.85.09.08.09-.26Zm1.94,23.54-.09.18.26.17V56.9Zm10,4.31v.53l.26-.18V61.2Zm2.64-21.7-.18.35.18.35.26-.35Zm0,1.05V41l.44-.7Zm12.3-28.55-.18.35.18.35.26-.35Zm.52,1.93v.53h.53v-.53ZM108.76,40.29V41l.44-.7Zm0-1.05-.18.35.18.35.26-.35ZM96.11,56.63l-.09.18.26.17V56.9ZM94.17,33.09l.09.08.09-.26Zm27.41-19.42v.53h.53v-.53Zm-.52-1.93-.18.35.18.35.26-.35Zm-14.94,49.2v.53l.26-.18V61.2Zm-12-27.85.09.08.09-.26Zm1.94,23.54-.09.18.26.17V56.9Zm10,4.31v.53l.26-.18V61.2Zm2.64-21.7-.18.35.18.35.26-.35Zm0,1.05V41l.44-.7Zm12.3-28.55-.18.35.18.35.26-.35Zm.52,1.93v.53h.53v-.53ZM108.76,40.29V41l.44-.7Zm0-1.05-.18.35.18.35.26-.35ZM96.11,56.63l-.09.18.26.17V56.9ZM94.17,33.09l.09.08.09-.26Zm27.41-19.42v.53h.53v-.53Zm-.52-1.93-.18.35.18.35.26-.35Zm-14.94,49.2v.53l.26-.18V61.2Zm-12-27.85.09.08.09-.26Zm1.94,23.54-.09.18.26.17V56.9Zm10,4.31v.53l.26-.18V61.2Zm2.64-21.7-.18.35.18.35.26-.35Zm0,1.05V41l.44-.7Zm12.3-28.55-.18.35.18.35.26-.35Zm.52,1.93v.53h.53v-.53ZM108.76,40.29V41l.44-.7Zm0-1.05-.18.35.18.35.26-.35ZM96.11,56.63l-.09.18.26.17V56.9ZM94.17,33.09l.09.08.09-.26Zm27.41-19.42v.53h.53v-.53Zm-.52-1.93-.18.35.18.35.26-.35Zm-14.94,49.2v.53l.26-.18V61.2Zm-12-27.85.09.08.09-.26Zm1.94,23.54-.09.18.26.17V56.9Zm10,4.31v.53l.26-.18V61.2Zm2.64-21.7-.18.35.18.35.26-.35Zm0,1.05V41l.44-.7Zm12.3-28.55-.18.35.18.35.26-.35Zm.52,1.93v.53h.53v-.53ZM108.76,40.29V41l.44-.7Zm0-1.05-.18.35.18.35.26-.35ZM96.11,56.63l-.09.18.26.17V56.9ZM94.17,33.09l.09.08.09-.26Zm27.41-19.42v.53h.53v-.53Zm-.52-1.93-.18.35.18.35.26-.35Zm-14.94,49.2v.53l.26-.18V61.2Zm-12-27.85.09.08.09-.26Zm1.94,23.54-.09.18.26.17V56.9Zm10,4.31v.53l.26-.18V61.2Zm2.64-21.7-.18.35.18.35.26-.35Zm0,1.05V41l.44-.7Zm12.3-28.55-.18.35.18.35.26-.35Zm.52,1.93v.53h.53v-.53ZM108.76,40.29V41l.44-.7Zm0-1.05-.18.35.18.35.26-.35ZM96.11,56.63l-.09.18.26.17V56.9ZM94.17,33.09l.09.08.09-.26Zm27.41-19.42v.53h.53v-.53Zm-.52-1.93-.18.35.18.35.26-.35Zm-14.94,49.2v.53l.26-.18V61.2Zm-12-27.85.09.08.09-.26Zm1.94,23.54-.09.18.26.17V56.9Zm10,4.31v.53l.26-.18V61.2Zm2.64-21.7-.18.35.18.35.26-.35Zm0,1.05V41l.44-.7Zm12.3-28.55-.18.35.18.35.26-.35Zm.52,1.93v.53h.53v-.53ZM108.76,40.29V41l.44-.7Zm0-1.05-.18.35.18.35.26-.35ZM96.11,56.63l-.09.18.26.17V56.9ZM94.17,33.09l.09.08.09-.26Zm27.41-19.42v.53h.53v-.53Zm-.52-1.93-.18.35.18.35.26-.35Zm-14.94,49.2v.53l.26-.18V61.2Zm-12-27.85.09.08.09-.26Zm1.94,23.54-.09.18.26.17V56.9Zm10,4.31v.53l.26-.18V61.2Zm2.64-21.7-.18.35.18.35.26-.35Zm0,1.05V41l.44-.7Zm12.3-28.55-.18.35.18.35.26-.35Zm.52,1.93v.53h.53v-.53ZM108.76,40.29V41l.44-.7Zm0-1.05-.18.35.18.35.26-.35ZM96.11,56.63l-.09.18.26.17V56.9ZM94.17,33.09l.09.08.09-.26Zm27.41-19.42v.53h.53v-.53Zm-.52-1.93-.18.35.18.35.26-.35Zm-14.94,49.2v.53l.26-.18V61.2Zm-12-27.85.09.08.09-.26Zm1.94,23.54-.09.18.26.17V56.9Zm10,4.31v.53l.26-.18V61.2Zm2.64-21.7-.18.35.18.35.26-.35Zm0,1.05V41l.44-.7Zm12.3-28.55-.18.35.18.35.26-.35Zm.52,1.93v.53h.53v-.53ZM108.76,40.29V41l.44-.7Zm0-1.05-.18.35.18.35.26-.35ZM96.11,56.63l-.09.18.26.17V56.9ZM94.17,33.09l.09.08.09-.26Zm27.41-19.42v.53h.53v-.53Zm-.52-1.93-.18.35.18.35.26-.35Zm-14.94,49.2v.53l.26-.18V61.2Zm-12-27.85.09.08.09-.26Zm1.94,23.54-.09.18.26.17V56.9Zm10,4.31v.53l.26-.18V61.2Zm2.64-21.7-.18.35.18.35.26-.35Zm0,1.05V41l.44-.7Zm12.3-28.55-.18.35.18.35.26-.35Zm.52,1.93v.53h.53v-.53ZM108.76,40.29V41l.44-.7Zm0-1.05-.18.35.18.35.26-.35ZM96.11,56.63l-.09.18.26.17V56.9ZM94.17,33.09l.09.08.09-.26Zm27.41-19.42v.53h.53v-.53Zm-.52-1.93-.18.35.18.35.26-.35Zm-14.94,49.2v.53l.26-.18V61.2Zm-12-27.85.09.08.09-.26Zm1.94,23.54-.09.18.26.17V56.9Zm10,4.31v.53l.26-.18V61.2Zm2.64-21.7-.18.35.18.35.26-.35Zm0,1.05V41l.44-.7Zm12.3-28.55-.18.35.18.35.26-.35Zm.52,1.93v.53h.53v-.53ZM108.76,40.29V41l.44-.7Zm0-1.05-.18.35.18.35.26-.35ZM96.11,56.63l-.09.18.26.17V56.9ZM94.17,33.09l.09.08.09-.26Zm27.41-19.42v.53h.53v-.53Zm-.52-1.93-.18.35.18.35.26-.35Zm-14.94,49.2v.53l.26-.18V61.2Zm-12-27.85.09.08.09-.26Zm1.94,23.54-.09.18.26.17V56.9Zm10,4.31v.53l.26-.18V61.2Zm2.64-21.7-.18.35.18.35.26-.35Zm0,1.05V41l.44-.7Zm12.3-28.55-.18.35.18.35.26-.35Zm.52,1.93v.53h.53v-.53ZM108.76,40.29V41l.44-.7Zm0-1.05-.18.35.18.35.26-.35ZM96.11,56.63l-.09.18.26.17V56.9ZM94.17,33.09l.09.08.09-.26Zm27.41-19.42v.53h.53v-.53Zm-.52-1.93-.18.35.18.35.26-.35Zm-14.94,49.2v.53l.26-.18V61.2Zm-12-27.85.09.08.09-.26Zm1.94,23.54-.09.18.26.17V56.9Zm10,4.31v.53l.26-.18V61.2Zm2.64-21.7-.18.35.18.35.26-.35Zm0,1.05V41l.44-.7Zm12.3-28.55-.18.35.18.35.26-.35Zm.52,1.93v.53h.53v-.53ZM108.76,40.29V41l.44-.7Zm0-1.05-.18.35.18.35.26-.35ZM96.11,56.63l-.09.18.26.17V56.9ZM94.17,33.09l.09.08.09-.26Zm27.41-19.42v.53h.53v-.53Zm-.52-1.93-.18.35.18.35.26-.35Zm-14.94,49.2v.53l.26-.18V61.2Zm-12-27.85.09.08.09-.26Zm1.94,23.54-.09.18.26.17V56.9Zm10,4.31v.53l.26-.18V61.2Zm2.64-21.7-.18.35.18.35.26-.35Zm0,1.05V41l.44-.7Zm12.3-28.55-.18.35.18.35.26-.35Zm.52,1.93v.53h.53v-.53ZM108.76,40.29V41l.44-.7Zm0-1.05-.18.35.18.35.26-.35ZM96.11,56.63l-.09.18.26.17V56.9ZM94.17,33.09l.09.08.09-.26Zm27.41-19.42v.53h.53v-.53Zm-.52-1.93-.18.35.18.35.26-.35Zm-14.94,49.2v.53l.26-.18V61.2Zm-12-27.85.09.08.09-.26Zm1.94,23.54-.09.18.26.17V56.9Zm10,4.31v.53l.26-.18V61.2Zm2.64-21.7-.18.35.18.35.26-.35Zm0,1.05V41l.44-.7Zm12.3-28.55-.18.35.18.35.26-.35Zm.52,1.93v.53h.53v-.53ZM108.76,40.29V41l.44-.7Zm0-1.05-.18.35.18.35.26-.35ZM96.11,56.63l-.09.18.26.17V56.9ZM94.17,33.09l.09.08.09-.26Zm27.41-19.42v.53h.53v-.53Zm-.52-1.93-.18.35.18.35.26-.35Zm-14.94,49.2v.53l.26-.18V61.2Zm-12-27.85.09.08.09-.26Zm1.94,23.54-.09.18.26.17V56.9Zm10,4.31v.53l.26-.18V61.2Zm2.64-21.7-.18.35.18.35.26-.35Zm0,1.05V41l.44-.7Zm12.3-28.55-.18.35.18.35.26-.35Zm.52,1.93v.53h.53v-.53ZM108.76,40.29V41l.44-.7Zm.26-.7-.26-.35-.18.35.18.35Zm-12.91,17-.09.18.26.17V56.9ZM94.17,33.09l.09.08.09-.26Zm27.41-19.42v.53h.53v-.53Zm-.7-1.58.18.35.26-.35-.26-.35ZM106.12,60.94v.53l.26-.18V61.2Zm24.24-6.6-.08-2.54,0-.13-.15-.84-.27-.35-.26.18-.35,1.23-.62-.53-.08-.44h-1.67l-.62,1.85-.26.44h-.44l.09-1.06.35-.79-1.76-.7-.26-2-.06-1.43,0-.59.14-2.37.12-1.94.79-5.18.12-.43a1.23,1.23,0,0,1-.22-.18,1.51,1.51,0,0,1,0-2.14,1.44,1.44,0,0,1,.95-.43l.21-.34.17-.87.09-1.15-.09-1.23v-.69a1.48,1.48,0,0,1-1.33-.41,1.5,1.5,0,0,1,0-2.13,1.49,1.49,0,0,1,1.3-.42l0-.13.53.09.53.44,1.23-4.39.77-3.93a1.46,1.46,0,0,1-.77-.41,1.5,1.5,0,0,1,0-2.12l-.52-2.5-.17-2.2.08-.26.62-.09,0-.07h0a1.36,1.36,0,0,1-.42-.91l-.2-.24.21-.21.14-.14V7.34l-.08-1.23-.18-1-.44-.53h-1.05l-1.06-.09h-5.09l-2,.18-.88.17L116.31,5l-2.9.62-1,.35-.35.35-4.48,1-1.23.36-.71.52-.26.27.26,1.14-.08.61-.71.35-1.05-.17h-1l-.26.44v.79l.26,2.72.44,1,.62.35.88-.79V12.79L105,13l.35,1,.88,1.58.53.35.26,0h0a.79.79,0,0,1,.25-.11V14.28l.88-.08v1.66a1.33,1.33,0,0,1,.68.38,1.45,1.45,0,0,1,.33.5h1.28l-.44.36L108.93,20l-.61,2.47-.28.62a1.48,1.48,0,0,1,.78.41,1.51,1.51,0,1,1-2.2.07l-.15-.23-.52.09v-.7l-.62.09-.44-.35h-4.3l.17,1-.09,1.14-.35.53-.61-.44V22.46l-1.32-.09-1.06.17-.87.27-2.2,1.14-1,.44.18-.62-.88-.08L91.45,24l-1.06.44-1.67,1.23,1.06.26.35.35.09.44-.62.88-.7.79-.18.09V27l-1.05-.35-.7.09-.62.44-.44.79-.26,1.14-.18,1.15-.08,1.4v1.41l.44,5.44-.09.27-.27.44L85,38.53l-.17-1-.44,1.84-.18,1.32.27.88.35.26-.79.35-.18.71-.35-1.76L83.45,40,83.54,39l.26-1,.62-.71h-.79l-.09-.87.35-.62L85,34.4l.35-1-.09-1.14-.61-1.23v-1l-.18-1-1.32,1.5-.17.26.17.53-.17.08-.36-.26-.17.18-1.41,2V34l-.44.79L78.18,38l-.35,1v.88l.09.35.53.26V45l-.36.09-.26-.26-.35-1L77.3,42.4V41.26l-.44.79-.35.88-.61,3.16v3.16l.09,1-.09.88-.53.79-.09,1.32.09,2.37.35,2,.27,1,.7,1.75.88,1.5,1.58,2.37,2,2.63L81.7,66l.52-.26v.62l.53.52,1.14-.09.35-.26.18-.17.44,1h1.58v-.79l.18-1.23.52-1,.27-.26v3.25h1.05L90.13,67v-.79l.09-.44v.7l.26.35.53.09h.53l.61-.7V63.57h.44l.79,1.67.44-.17v.52l.26.18,1.32-.61.88-.53.44-.44-.18-.35.18-.27.26.18-.26.44,2.11-2,.53-.35.08.52.44.18,1.06-.62.13-.48.13-.48H104v4.92l.18,1.05.35.18,1-.18.53-.52.44,1h1.49l2.63-.37,1.15-.16,3.43-.7.53-.35-.18-.35.79-.27.35-.26-.26-.53.53.09.17.44-.26.53,1.05-.18.79-.7,0,0,.24-.39.52.53h.79l.8-.44.47-.35.49-.36,1.69-1.83h0l.23-.26,1.19-1.52.4-.51.87-1.4.8.09.26.35-.35.79v.44l.88-1.06.44-.87.05-.26s0,0,0,0l.12-.61-.11-1.18s0,0,0,0l-.06-.57.08-1,.62-1.58.26.38h0l.35.49-.09.36h0l-.35,1.48v.52l.36.18.44-.35.17-1.06ZM106.12,12.79l-.35-.09-.26-.26h.61ZM75.81,53.47l.18-.26.17,1L76,53.91Zm.7,1.67v.61l-.44-.26Zm1.32,5.18-.44-.08-.17-.36-.44-.17-.09-.44h.53l-.71-.88.44-.88.35-.35.35.88.18,1.14Zm5.1-14.67v.7h-.44l-.27-.7Zm-.44,2,.35.7h-.35L82.31,48Zm-.27,0V47h.27Zm0-4,.18.7h-.18L82,44.07Zm-.44,8.17-.17.26.17.35-.17.36-.35-.36.35-.35-.35-.26.35-.35Zm-.17,1.32v.7h-.44Zm-.09-6.68-.35.26L81,46.53l.18-.35Zm-.88-.7.35-.36.09.71H81ZM81,34.76l.09.61H81l-.35-.26Zm-.61,4.48h.17v.7l-.17-.53Zm-.7,9.4.26,1-.26-.35Zm-.44,5.27.35.61h-.35l-.18-.26Zm0,3.43L79.06,57l.18-.35.35.35Zm.44-.71-.36-.26.36-.35-.18-.62.18-.26V56l.17.79Zm.26-4-.18-.35.18-.35.35.61Zm.44-9.66.26-.18.27,1.06L80.73,45l-.35-.08.17-.71Zm.79,17.39L81,59.71l-.44-.44h.62Zm0-4.48.17-.44.27-.26h.26Zm1.76,9.23h-.44l-.27-.62-.35-1.58h1.06l.17,1.76Zm.7-7.73h.26v1h-.26Zm.26,3,.18.35-.18.27-.17-.27Zm0-25.56.27.26-.36.35h-.61Zm.18,28.9-.35.18-.53-.09.44-.18.26-.44-.26-.87H84l.18,1Zm.09-4-.27-.44h.27ZM84,54.52l.18-.35.17.71Zm.44,5.8-.18-.26.18-.35.35.35Zm0-2.37-.18-.35.18-.26.35.26Zm.7-4-.7-.44-.26-.26.35-.18-.79-1.84.08-.36,1.32-.17Zm5-23.11v.7l-.44-.35Zm-.53,9.49L90,40.2l.36.35.35,1.15-.09.52-.35.27-.62-.62ZM89.43,29v.7L89,29.31Zm0,9-.53.61-.18-.35Zm-2-8.35.26-.7v.88l-.26.35Zm-.53,12.83v1.32l-.35-1Zm-.53,3.34-.17.35-.35-.35.35-.36Zm-.61-4,.35.35-.35.27-.18-.27Zm0,8.79-.18-.35.18-.35.35.35Zm.7,1.23-.18-.27.18-.26.35.26Zm-.26-3V46.35l.7-.7-.09,2Zm.88-.79-.18-.35.18-.35.26.26Zm.08,12.74.27-.26.17.7-.17-.09Zm.27,1.67v-.26h.26Zm0-31.72.26-.44.44,2v.44l-.35-.44-.09-.26Zm.7,17.84-.35-.27.35-.26ZM88.29,33l.35.35-.35.35-.18-.35Zm.43,7.38.18.17h-.61Zm0,8.26-.35-.27.35-.26Zm.8-6,.61.88.53-.44L90.22,45h-.09v-.79l-1.41-1.75Zm-.62,8,.62-.79.7-.62.44.09.09.53-.18.44-1.67,1Zm.53.88v.61L89,51.89Zm.17,12.65v-.44l.62.26Zm0-1.32v-.61l.35.35Zm.62.26h-.09v-.26h.09Zm.35-4.83-.35.27.35,1.4-.35,1.41v.44h-.09v-.88l-.18-.7L89.6,57.6l.35-.88.27-.26.35.79Zm-1.14-2.46.17-.44,1.06-.7Zm1.58-2-.35.35-.53-1H89.6l.09.35-.26.35-.18-1.14.18-.53.79-.7.44.26.44,1Zm26.18,5.27-.13-.26,0-.09.17-.35.35.35-.22.22Zm.62-4.83-.18.26-.35-.26.35-.35,0,0Zm-1.32,3.52-.18-.44h-.7l.62-.71,1-.61Zm.61.61-.17.18-.35-.27.35-.35Zm-1.83-4.58.34-.34.18.35-.18.35-.3-.3Zm-.1.36.35.35-.35.18-.18-.18Zm1.41,1.58.35-.35.17.35-.17.27Zm.44-7.11.17-.27.35.27-.35.26Zm.17,2.72.13.36a0,0,0,0,1,0,0l.12.33.09,1.15-.35.26Zm-1.58-2,.18.35-.18.27-.35-.27Zm-.35-1,.35-.26.18.26-.18.27Zm2.37,7v-.7l.44-.09.35-.53.18-1V46.7l.26-.52V43.45l.09,1.06.09,3.78v.17l.12,2.06.05.84v1.23l.27,2.55h-.62v-.62h-.53v.36Zm.26.62v.35l-.26.09ZM116.4,41.08l.79-.53.09,1.06.17.7-.26,1.41h-.26l-.44-.44-.18-.35-.17-1Zm-.44-.44.35-.35V41Zm1.23-.61-.26-.09v0a1.5,1.5,0,0,1-1.51-.37,1.52,1.52,0,0,1,0-2.14,1.44,1.44,0,0,1,.84-.42l-.39-.73.53-.09.44.18.52.89h0l.09.15.18,1.41-.15.81,0,.15ZM106,53.91l.26-.09.35.35-.44.35Zm.17,1.23.35.35-.35.35-.17-.35.15-.31Zm.35,6.15-.35.26v-.08l-.09.08h-.52l.61-1,.44-.27-.18.88Zm-1-2.72H106v.52Zm.61,1.75v-.61l.35.17Zm-.61-3.86.26.35-.26.35-.18-.35Zm.08,8.08.36-.35v.61Zm1-1.41v.44l-.61-.44ZM106.82,51l.44-.35v.61Zm.44,1.14v.71l-.44-.36Zm-.44-1.84.44-.35v.35ZM110.51,42l.18-.35.35.17-.35.35Zm-.17,5.71-.35.35-.18-.35.18-.35v-.62l.14.14.21.21-.35.27Zm-.53,11.51-.44.35.09-.26Zm-.57-.55h0l0,0h0l-.4-.16.44-.62.61.44Zm-.66,1.6v.35h-.35ZM109.2,46l.17-.35.35.7h-.35Zm-.44,7.47v-.61l.26.35Zm1-4.48-.35.35L109.2,49l.17-.35Zm-1.14-.62v1l-.53.09-.43-.35-.18-.44Zm-.44,2.29.35.35-.35.35L108,51Zm.62,7.12-.18-.62-.09-.7.27-.44.61.44Zm.44-3.26v0l.16-1,.09.61-.24.4Zm.17-1.66.44-.71.62,1.06-.44.26-.35-.26Zm-1.93-8.62-.18-.35.18-.35.35.35Zm0,.18-.7,1v-1Zm0,7.12.35.35-.35.26Zm1.32,9.4.61.53-.42.24-.19.11Zm-.18,3.86v.27l-.35.09Zm.18.71h.61l-.61.26Zm0-1.76,1,.35.09.35Zm1.67-9.23H110v.88l-.18.44-.44-.7.09-.53.25-.21s0,0,0,0l.17-.13.19,0s0,0,0,0l.33-.06Zm0-3.16-.36-.35.36-.35.17.35ZM110,48.64v-.27l.61-1,.53-.62.44-.09.35.27-1.49,1.76ZM111.92,33l-.18.44-.35-.44Zm-.09-.53.09-.35.35.35-.35.35Zm2.1,8.56a1.51,1.51,0,0,1-2.14,2.13,1.36,1.36,0,0,1-.21-.28l-.19,0v-.44l0,0a1.47,1.47,0,0,1,.37-1.49A1.51,1.51,0,0,1,113.93,41Zm-2.1-.74.09-.35.35.35-.35.26Zm1.85,18.28-.35-.27-.17-.22-.1-.13.18-.26.44.09Zm-1.94,1.75.36.09.17.35-.35.44-.18-.26Zm.18-15.9v-.18l.44.18Zm.79,11.6v1.14l-.09.62h-.26l-.36-2.4h0l-.08-.49v-.71l.61.71,0,.25Zm-1-2.55.09.26-.09.44-.26-.35Zm1.32.7v.53l-.35-.18Zm-.44,4.92.62.62h-.62Zm-.88-14.85-.26-.35.26-.35.09.35Zm.09,1.06-.09.35-.26-.35.26-.27Zm-.44-6.5v-.53l.27.35Zm.09-2.2.26-.35h-.35v-.18l.35.18.09.35-.09.35Zm-.09-4.48h-.26V31.5h.26Zm.44,31,.14-.47h0l0-.13.35-.26V64.8h-.44l-.18-.61Zm.88-23.81-.7.36-.27-.44V38.8l.44.09.35-.36.71-2.1.26-.09.44.35.09.53.35.35Zm1.49-16.51.09-1.23.62-.44-.27-1,1,.44.26.44-.08,1.14-.26,1a1.3,1.3,0,0,1,.54.34,1.51,1.51,0,1,1-2.13,0,1.6,1.6,0,0,1,.33-.25Zm2.73-2.9.26-.44h.44l-.35.44-1,.26Zm-.62-.44v-.62h.18Zm3.39.4a1.51,1.51,0,0,1,0,2.14,1.49,1.49,0,0,1-1.54.36v.79l-.27-.44v-.47a1.26,1.26,0,0,1-.33-.24,1.47,1.47,0,0,1-.41-1.35h0l-.13-.13.17-.35.09.09a1.47,1.47,0,0,1,.28-.39A1.51,1.51,0,0,1,119.7,19.87Zm-.84-3.65H119v.52Zm2,6.24-.09-1.85.27-.44.26.44.35,1.14.18,1.14-.06.25a1.49,1.49,0,0,1,1.54.36,1.51,1.51,0,1,1-2.28.18Zm.7-3v-.62l.36.35Zm1.75,13.42a1.45,1.45,0,0,1-1.22.42v.13h-.7l.33-.21a1.45,1.45,0,0,1-.55-.34,1.51,1.51,0,0,1,2.14-2.14,1.27,1.27,0,0,1,.26.36l0,0v.06A1.49,1.49,0,0,1,123.33,32.89ZM119,45v-.61l.35.35Zm2.47-4.66-.1-2v-.79h.17V35l1.32-.7-.61,1,1-.61.09.44-.88.7-.26.35.35,1,.07.35.19.88-.49,2-.21.87-.26.27h-.36l-.07-1.32Zm1.39-6.67.44-.7-.09.79Zm-.79,9.23v.44l-.88.44-.17-.27.52-.61Zm-.53,1.58.27-.62.44-.17v1.93h0l-.67-.17Zm2-8.88-.18-.26.18-.35.35.35Zm-2.55-4.83v-1h.35Zm-.18-3.86.18-.36.26,1.06.09,1.49-.53-.17-.17-1Zm0,7.82v.61l-.44-.26Zm-.53-4v-.61l.36.35ZM121.19,41a1.51,1.51,0,1,1-2.14,0A1.51,1.51,0,0,1,121.19,41Zm-3.62-4.51a1.5,1.5,0,0,1,0-2.1l-.17-.63.35-1,.61-.7h1.15V33.7h-.62V34a1.44,1.44,0,0,1,.85.42.89.89,0,0,1,.15.19l.32-.25V35l-.13-.1a1.5,1.5,0,0,1-1.72,2v0h-.17l0-.07A1.27,1.27,0,0,1,117.57,36.52Zm.59-6.16.26-.44.44-.08.18,1-.62-.09Zm1.32,7.56-.36.09-.26-.44V37.3h.79Zm.17.35v1.14H119V38.8l.44-.18Zm-1.32,0,.36.26-.36.27Zm1.85-10.63-.2-.12a1.5,1.5,0,0,1-.28,1.74l-.09.08,0,.06-.17.44v-.4a1.48,1.48,0,0,1-1.32.18v0l0-.05a1.33,1.33,0,0,1-.56-.35.24.24,0,0,1-.06-.08l-.32,0,.21-.08a1.51,1.51,0,0,1,.17-1.93h0l-.3-.17-.35-.36.17-.79.27-.35.44-.09.17.18.14,1.25a1.45,1.45,0,0,1,1.53.3v-.5l.35.27-.33.25,0,0,.15.17.33-.27Zm-3.43-6.24.18-.26.17.26-.17.44Zm-.44,6.24v.18l-.7-.18ZM114.64,27l-.35.88-.35.44V27Zm-1-4.92-.35-.35.35-.35.17.35Zm-.35,13.62.35-.35.17.35-.17.35Zm.61-2.83a1.51,1.51,0,1,1,2.14,0A1.52,1.52,0,0,1,113.94,32.89ZM121.41,47l.88-.62v.44l-.88.62Zm.88.44.44-.44v1.14l-.44.79Zm.17,3,.44.26-.17.53-.44.35v-.62l-.18-.26Zm.27,5.44v.62l-.18-.44Zm1.4-2.37H124l-.35-.26.35-.35Zm-1.84,0,0,0,.41-.24-.19.68-.08.28h-.35Zm0,1.67.35.26-.35.44-.18-.35Zm0,2,.44.88v.61l-.44.44-.18-.7v-.61ZM124,29.84H122.9V28.52l.79-.7.35-.18Zm.18-4.13-.09-.27.09-.35.26.35Zm1.14-16.17.18-.35.35.35-.35.26.35.36-.35.35-.18-.35.18-.36ZM127,12.62a1.5,1.5,0,0,1,0,2.13,1.47,1.47,0,0,1-1,.43v.25l-.25-.26a1.45,1.45,0,0,1-.82-.34l-.07.07-.16-.31,0,0a1.48,1.48,0,0,1,.16-1.93A1.5,1.5,0,0,1,127,12.62Zm.26,5.44-.35.53v-.44Zm-2.64-1.32v.18h-.35Zm1.58,7.65v-.62l.35.18ZM127,22a1.45,1.45,0,0,1-.91.42l.54.73-.61.61-.09-.35-.35-.26-1,.26.27-1.05.11-.25h0a.41.41,0,0,1-.13-.1A1.51,1.51,0,1,1,127,22Zm.51-6.58h.35l-.35.17Zm-.26,1.93v-.44h.26Zm-2.4-12A1.52,1.52,0,0,1,126.45,5l.14-.15.15.3a1.68,1.68,0,0,1,.21.18,1.51,1.51,0,1,1-2.14,0ZM124.22,16H124l.18-.44ZM124,14.72l.09.35-.09.36-.35-.36ZM123.61,13v-.53L124,13Zm-6-7.61a1.51,1.51,0,1,1,0,2.14A1.51,1.51,0,0,1,117.56,5.36Zm0,7.25a1.51,1.51,0,0,1,2.14,0,1.36,1.36,0,0,1,.39.71V13l.26-3.07.47.52a1.5,1.5,0,0,1,2.38-1.61l.58-.58.26-.44-.17,1-.26.52h0a.93.93,0,0,1,.13.35l.33-.34.09.44L124,10l-.32-.24a1.5,1.5,0,0,1-2.05,1.71l.18.2,1,1.84.27,1.06v1.32l0,.18h0l.21.18A1.49,1.49,0,0,1,123.6,18l.18.33.26,1-.17,1.06-.26.35-.71-.09-.26-.88-.07-1a1.5,1.5,0,0,1-1.51-2.38V16l.23.12a1.43,1.43,0,0,1,1-.35l0-.21.44-.7-.44-.18v-.44l-.79.71-1.06.88-.26.17-.09-1V14a1.32,1.32,0,0,1-.39.71,1.51,1.51,0,1,1-2.14-2.14Zm4.11,2.64.44-.35v.7Zm-5.36-8.43h.18v1l-.18.26Zm-3.07,3,.25.26A1.51,1.51,0,0,1,113.93,9a1.16,1.16,0,0,1,.25-.2l.2-.3.26-.62V8.6a1.48,1.48,0,0,1,1.43.39,1.19,1.19,0,0,1,.26.37h.16l.44.44-.35.27L116,12.18h-.35v-.75a1.34,1.34,0,0,1-.71.12v.19l.17,1.05.35.26,1.06-.26-.44.79-.44.09-.35.53.17,1,.71.88.35.18-.35.11a1.5,1.5,0,0,1-2.05,2.18l-.15.08v-.21a1.36,1.36,0,0,1-.38-.69l-.5.2.35-1,.36-2,.35-3.08.12-.46a1.18,1.18,0,0,1-.31-.24,1.48,1.48,0,0,1-.42-.88l-.27.27-.18-.35Zm-.18,6.94H112l-.27-.17-.35-.35.09-.27.35-.26h.53l.53.26Zm-.79.53-.35.26-.09-.26.09-.35ZM109,9l-.26.35L108.58,9l.18-.35Zm.18,1.85v.52l-.44-.08-.18-.18v-1l.18-.36Zm-.62-3.34v.61l-.35-.26ZM108,13.67l-.44-.26-.27-.44-.08-.44.26-.44.53.09-.44.43.61.88Zm.17-.7v-.53l.35.26Zm.62,0,.26.35-.26.35-.18-.35Zm.44,2.63-.44-.35.44-.35Zm-.09-1.05-.35-.27.35-.08.26.08Zm.09-6.42V7.26h.61Zm1.11,6.62a1.51,1.51,0,0,1,0-2.14,1.47,1.47,0,0,1,1.08-.44v-4h.53l.09,1v3.22a1.36,1.36,0,0,1,.43.29,1.51,1.51,0,0,1,0,2.14l-.11.08h0l0,.06h-.11A1.49,1.49,0,0,1,110.31,14.75Zm0,5.12A1.51,1.51,0,1,1,112.45,22a1.21,1.21,0,0,1-.43.29h0v.16l-.27.26v-.33a1.48,1.48,0,0,1-1.43-.39A1.5,1.5,0,0,1,110.31,19.87Zm0,7.25a1.51,1.51,0,1,1,0,2.14A1.51,1.51,0,0,1,110.31,27.12Zm-.5,4.38v.62l-.35-.26Zm-.44,2.82.35.35-.35.35-.17-.35Zm-.61-4.66v.53l-.18-.35Zm-2.2-1.84.18-.27.52.09-.7.7Zm-1.84-1.94h.17v.53h-.17Zm-.44-3.16v.7l-.18-.26Zm-1.76,3.69.26.35.18-.18.26.27-.26.26-.44-.17V27l-.18-.26ZM100,27l.26.36-.26.26-.17-.26Zm-.26,6.42.17.35-.17.26-.27-.26Zm-.62-1.32.18.26-.18.44-.35-.35Zm-.7-1.76.18.44-.18.27-.26-.36Zm.26,1.14-.26.62L98,31.77Zm-.88,6.07.18.35-.18.35-.35-.35Zm-1.05-1.94-.61.62v-.18l-.36-.87.36-1.5Zm-.61,6.24h.35l-.18,1.94-.17.43Zm-.18-3.51.18-.35.26.79-.26-.18Zm-.09-5.54.18.27-.18.35-.35-.35Zm-1.49-8.34.44.61h-.44L94,24.83l-.18-.44Zm.44,2.63h-.27l-.44-.53.27-.43.44-.27-.27.35Zm0,1.41-.27-.18v-.52Zm-1,.61L94,29l-.18.88-.26-.36Zm-1.23-2.55.18.8-.18-.27-.35-.26Zm-.44,1.06h.44v.88l-.44-.18ZM92,55.14,91.62,55,92,54.7Zm0-25.83.17-.35.35.35-.35.35Zm.61.35V31.5l-.44.27V30.36Zm0,32.86v-1l.26.53ZM92.68,60l-.53-.09v-.61l.44-.18.26.62Zm-.09-7.11-.35-.36.35-.35.18.35Zm.26,0,.36.35-.36.26-.17-.26Zm.44,10.71-.35-.35.35-.35.09.35Zm0-8.87-.7-.18.35-.26.53-.09Zm.18-5.1-.26.27-.62.09V49.6l.88-.26Zm.09-15.11-1,.62L92.15,35v-.7l1-.62h1Zm.7-1.32v.09L93.82,33l.26-.35.44-.27-.17.53.17-.09.18.27-.18.35Zm.53,26.54-.18-.27.18-.35.26.62Zm0-19.77-.18-.35.18-.35.26.35Zm0-6.24-.18-.35.18-.35.26.35Zm.61,7.56v.61h-.26Zm-.17,10,.17-.35.35.44-.35.18Zm.61,1.32.18.62h-.18l-.35-.27Zm.27,3.69.35-.26-.18.88.09.08-.26.36L95.93,57l.09-.17-.18-.18Zm.08-1.76.27-.35.17.35-.17.18Zm-.26,3.61.18-.35.26.52-.26.09Zm.53,5.62-.27-.26.27-.36.17.36Zm0-.88v-.35h.26Zm.61-1.93v-.35l.26.26Zm1.58-1.67.44-.88v-.61l-.16.22-.28.39-.35-.26v0l-.09-.94.53-1.23.35.09.18-.27-.18-.26.13-.13.14-.13h.17l.18.35v1.23l-.07.59-.28,2.31L99,59.62ZM100,61.2l-.53.09-.35-.35.35-.27.53.09Zm1.85-5.36-.18-.35.18-.35.35.35.17-.09V56l-.44-.27Zm.7-2.37-.7-.61.26-.53.44-.18Zm-.41,1,.23.23h-.52v-.53Zm-.47,5.85v-.44l.18.44Zm.81-8.78-.81.79-1.13.91-1.15.93-.71-.7L98,52.59l-.79-.53-.53.09v-.88l-1.05-3.42v-1l.44-.7.26-1v-.26l-.26.08-.18-.26.18-.35.26.53,2.28-8.7-.08-.44.79-.44-.27-.44v-.61H100l2.37-2.2.18-.44-.35-1.58.17-.44,1,1.84.7.09,1.32-.35.44-.35.18-.53.7.79.79.53.7.7.27-1.14.35-.44.26.27v1l-.18,1.23.36,1.06-.53.26-.35-.35-.18-.79v.88l-.79,3.51L107.18,39v.88l.26.7L108,41l.17-1V38h.44v.79l.44.09.62.87.35,1.15v.35l-1.41,1.23V41.7h-.44v.79l-.17.44-.71-.44h-.52l-.53,1.93-.09,1.23-.27,2.21a1.44,1.44,0,0,1,.83.42,1.51,1.51,0,0,1,.34,1.61l.07.07-.16.12a1.35,1.35,0,0,1-.25.34,1.47,1.47,0,0,1-1.19.43l-.16,1.74v.27h.79v.35l-.44-.09-.42,2,0,.09-.52.17V52.15l-.44-.26.44-.27.17-.79,0-.16h0l-.15-1v-.35l-.53.51Zm1.83.61.35.35-.35.36-.18-.36Zm2.12,13-.28-.07v-.62l.33.66,0,.05Zm.67-.94-.33.25-.18-.35.18-.35.34.43h0Zm.37,2.8-.18-.26.18-.35.35.17Zm3.25-7.29-.12-.18-.06-.09h0l.17-.34.35.35Zm0-10.37-.18-.35.18-.35L111,49Zm4,2.81-.17-.26.17-.35.27.35Zm.78-7.5a1.51,1.51,0,1,1,2.14,2.14,1.06,1.06,0,0,1-.3.22l-.07.4-.13-.29a1.51,1.51,0,0,1-1.64-2.47Zm.89,19.8L116,64.1l.35-.35Zm.53-2.19-.09,1.31h-.44V60.94l.18-.35v.61l.7-.26-.26.44.14.24.12.2Zm1.05-.71-.18-.43-.08-.18.16.06.1,0Zm0-1.23V58.57l.09-.88.18-1.06h.35l.12.16.41.55.08.39.18.84-.18,1.23-.26.44-.44.17-.42-.07Zm1.5,1.23-.35.27V61.2Zm-.53-.61v.61l-.44-.26Zm2.81-11,.44-.36v.62Zm.44,10.28.18-.36.35.36-.35.35Zm5.36-5.72.27.18-.25.41,0,0,0,0-.15-.23ZM126,55.84l.61-2.63.27,1,0,1,0,1-.08,1-.62-.18-.26-.35Zm-3.87-42.17h-.53v.53h.53Zm-.79-1.58-.26-.35-.18.35.18.35ZM108.76,41l.44-.7h-.44Zm.26-1.4-.26-.35-.18.35.18.35Zm-2.9,21.88.26-.18V61.2l-.26-.26ZM96,56.81l.26.17V56.9l-.17-.27ZM94.17,33.09l.09.08.09-.26Zm12,27.85v.53l.26-.18V61.2Zm14.94-49.2-.18.35.18.35.26-.35Zm.52,1.93v.53h.53v-.53ZM94.17,33.09l.09.08.09-.26Zm1.94,23.54-.09.18.26.17V56.9Zm12.65-17.39-.18.35.18.35.26-.35Zm0,1.05V41l.44-.7Zm12.82-26.62v.53h.53v-.53Zm-.52-1.93-.18.35.18.35.26-.35Zm-12.3,28.55V41l.44-.7Zm0-1.05-.18.35.18.35.26-.35Zm-2.64,21.7v.53l.26-.18V61.2Zm-10-4.31-.09.18.26.17V56.9ZM94.17,33.09l.09.08.09-.26Zm12,27.85v.53l.26-.18V61.2Zm14.94-49.2-.18.35.18.35.26-.35Zm.52,1.93v.53h.53v-.53ZM94.17,33.09l.09.08.09-.26Zm1.94,23.54-.09.18.26.17V56.9Zm12.65-17.39-.18.35.18.35.26-.35Zm0,1.05V41l.44-.7Zm12.82-26.62v.53h.53v-.53Zm-.52-1.93-.18.35.18.35.26-.35Zm-12.3,28.55V41l.44-.7Zm0-1.05-.18.35.18.35.26-.35Zm-2.64,21.7v.53l.26-.18V61.2Zm-10-4.31-.09.18.26.17V56.9ZM94.17,33.09l.09.08.09-.26Zm12,27.85v.53l.26-.18V61.2Zm14.94-49.2-.18.35.18.35.26-.35Zm.52,1.93v.53h.53v-.53ZM94.17,33.09l.09.08.09-.26Zm1.94,23.54-.09.18.26.17V56.9Zm12.65-17.39-.18.35.18.35.26-.35Zm0,1.05V41l.44-.7Zm12.82-26.62v.53h.53v-.53Zm-.52-1.93-.18.35.18.35.26-.35Zm-12.3,28.55V41l.44-.7Zm0-1.05-.18.35.18.35.26-.35Zm-2.64,21.7v.53l.26-.18V61.2Zm-10-4.31-.09.18.26.17V56.9ZM94.17,33.09l.09.08.09-.26Zm12,27.85v.53l.26-.18V61.2Zm14.94-49.2-.18.35.18.35.26-.35Zm.52,1.93v.53h.53v-.53ZM94.17,33.09l.09.08.09-.26Zm1.94,23.54-.09.18.26.17V56.9Zm12.65-17.39-.18.35.18.35.26-.35Zm0,1.05V41l.44-.7Zm12.82-26.62v.53h.53v-.53Zm-.52-1.93-.18.35.18.35.26-.35Zm-12.3,28.55V41l.44-.7Zm0-1.05-.18.35.18.35.26-.35Zm-2.64,21.7v.53l.26-.18V61.2Zm-10-4.31-.09.18.26.17V56.9ZM94.17,33.09l.09.08.09-.26Zm12,27.85v.53l.26-.18V61.2Zm14.94-49.2-.18.35.18.35.26-.35Zm.52,1.93v.53h.53v-.53ZM94.17,33.09l.09.08.09-.26Zm1.94,23.54-.09.18.26.17V56.9Zm12.65-17.39-.18.35.18.35.26-.35Zm0,1.05V41l.44-.7Zm12.82-26.62v.53h.53v-.53Zm-.52-1.93-.18.35.18.35.26-.35Zm-12.3,28.55V41l.44-.7Zm0-1.05-.18.35.18.35.26-.35Zm-2.64,21.7v.53l.26-.18V61.2Zm-10-4.31-.09.18.26.17V56.9ZM94.17,33.09l.09.08.09-.26Zm12,27.85v.53l.26-.18V61.2Zm14.94-49.2-.18.35.18.35.26-.35Zm.52,1.93v.53h.53v-.53ZM94.17,33.09l.09.08.09-.26Zm1.94,23.54-.09.18.26.17V56.9Zm12.65-17.39-.18.35.18.35.26-.35Zm0,1.05V41l.44-.7Zm12.82-26.62v.53h.53v-.53Zm-.52-1.93-.18.35.18.35.26-.35Zm-12.3,28.55V41l.44-.7Zm0-1.05-.18.35.18.35.26-.35Zm-2.64,21.7v.53l.26-.18V61.2Zm-10-4.31-.09.18.26.17V56.9ZM94.17,33.09l.09.08.09-.26Zm12,27.85v.53l.26-.18V61.2Zm14.94-49.2-.18.35.18.35.26-.35Zm.52,1.93v.53h.53v-.53ZM94.17,33.09l.09.08.09-.26Zm1.94,23.54-.09.18.26.17V56.9Zm12.65-17.39-.18.35.18.35.26-.35Zm0,1.05V41l.44-.7Zm12.82-26.62v.53h.53v-.53Zm-.52-1.93-.18.35.18.35.26-.35Zm-12.3,28.55V41l.44-.7Zm0-1.05-.18.35.18.35.26-.35Zm-2.64,21.7v.53l.26-.18V61.2Zm-10-4.31-.09.18.26.17V56.9ZM94.17,33.09l.09.08.09-.26Zm12,27.85v.53l.26-.18V61.2Zm14.94-49.2-.18.35.18.35.26-.35Zm.52,1.93v.53h.53v-.53ZM94.17,33.09l.09.08.09-.26Zm1.94,23.54-.09.18.26.17V56.9Zm12.65-17.39-.18.35.18.35.26-.35Zm0,1.05V41l.44-.7Zm12.82-26.62v.53h.53v-.53Zm-.52-1.93-.18.35.18.35.26-.35Zm-12.3,28.55V41l.44-.7Zm0-1.05-.18.35.18.35.26-.35Zm-2.64,21.7v.53l.26-.18V61.2Zm-10-4.31-.09.18.26.17V56.9ZM94.17,33.09l.09.08.09-.26Zm12,27.85v.53l.26-.18V61.2Zm14.94-49.2-.18.35.18.35.26-.35Zm.52,1.93v.53h.53v-.53ZM94.17,33.09l.09.08.09-.26Zm1.94,23.54-.09.18.26.17V56.9Zm12.65-17.39-.18.35.18.35.26-.35Zm0,1.05V41l.44-.7Zm12.82-26.62v.53h.53v-.53Zm-.52-1.93-.18.35.18.35.26-.35Zm-12.3,28.55V41l.44-.7Zm0-1.05-.18.35.18.35.26-.35Zm-2.64,21.7v.53l.26-.18V61.2Zm-10-4.31-.09.18.26.17V56.9ZM94.17,33.09l.09.08.09-.26Zm12,27.85v.53l.26-.18V61.2Zm14.94-49.2-.18.35.18.35.26-.35Zm.52,1.93v.53h.53v-.53ZM94.17,33.09l.09.08.09-.26Zm1.94,23.54-.09.18.26.17V56.9Zm12.65-17.39-.18.35.18.35.26-.35Zm0,1.05V41l.44-.7Zm12.82-26.62v.53h.53v-.53Zm-.52-1.93-.18.35.18.35.26-.35Zm-12.3,28.55V41l.44-.7Zm0-1.05-.18.35.18.35.26-.35Zm-2.64,21.7v.53l.26-.18V61.2Zm-10-4.31-.09.18.26.17V56.9ZM94.17,33.09l.09.08.09-.26Zm12,27.85v.53l.26-.18V61.2Zm14.94-49.2-.18.35.18.35.26-.35Zm.52,1.93v.53h.53v-.53ZM94.17,33.09l.09.08.09-.26Zm1.94,23.54-.09.18.26.17V56.9Zm12.65-17.39-.18.35.18.35.26-.35Zm0,1.05V41l.44-.7Zm12.82-26.62v.53h.53v-.53Zm-.52-1.93-.18.35.18.35.26-.35Zm-12.3,28.55V41l.44-.7Zm0-1.05-.18.35.18.35.26-.35Zm-2.64,21.7v.53l.26-.18V61.2Zm-10-4.31-.09.18.26.17V56.9ZM94.17,33.09l.09.08.09-.26Zm12,27.85v.53l.26-.18V61.2Zm14.94-49.2-.18.35.18.35.26-.35Zm.52,1.93v.53h.53v-.53ZM94.17,33.09l.09.08.09-.26Zm1.94,23.54-.09.18.26.17V56.9Zm12.65-17.39-.18.35.18.35.26-.35Zm0,1.05V41l.44-.7Zm12.82-26.62v.53h.53v-.53Zm-.52-1.93-.18.35.18.35.26-.35Zm-12.3,28.55V41l.44-.7Zm0-1.05-.18.35.18.35.26-.35Zm-2.64,21.7v.53l.26-.18V61.2Zm-10-4.31-.09.18.26.17V56.9ZM94.17,33.09l.09.08.09-.26Zm12,27.85v.53l.26-.18V61.2Zm14.94-49.2-.18.35.18.35.26-.35Zm.52,1.93v.53h.53v-.53ZM94.17,33.09l.09.08.09-.26Zm1.94,23.54-.09.18.26.17V56.9Zm12.65-17.39-.18.35.18.35.26-.35Zm0,1.05V41l.44-.7Zm12.82-26.62v.53h.53v-.53Zm-.52-1.93-.18.35.18.35.26-.35Zm-12.3,28.55V41l.44-.7Zm0-1.05-.18.35.18.35.26-.35Zm-2.64,21.7v.53l.26-.18V61.2Zm-10-4.31-.09.18.26.17V56.9ZM94.17,33.09l.09.08.09-.26Zm12,27.85v.53l.26-.18V61.2Zm14.94-49.2-.18.35.18.35.26-.35Zm.52,1.93v.53h.53v-.53ZM94.17,33.09l.09.08.09-.26Zm1.94,23.54-.09.18.26.17V56.9Zm12.65-17.39-.18.35.18.35.26-.35Zm0,1.05V41l.44-.7Zm12.82-26.62v.53h.53v-.53Zm-.52-1.93-.18.35.18.35.26-.35Zm-12.3,28.55V41l.44-.7Zm0-1.05-.18.35.18.35.26-.35Zm-2.64,21.7v.53l.26-.18V61.2Zm-10-4.31-.09.18.26.17V56.9ZM94.17,33.09l.09.08.09-.26Zm12,27.85v.53l.26-.18V61.2Zm14.94-49.2-.18.35.18.35.26-.35Zm.52,1.93v.53h.53v-.53ZM94.17,33.09l.09.08.09-.26Zm1.94,23.54-.09.18.26.17V56.9Zm12.65-17.39-.18.35.18.35.26-.35Zm0,1.05V41l.44-.7Zm12.82-26.62v.53h.53v-.53Zm-.52-1.93-.18.35.18.35.26-.35Zm-12.3,28.55V41l.44-.7Zm0-1.05-.18.35.18.35.26-.35Zm-2.64,21.7v.53l.26-.18V61.2Zm-10-4.31-.09.18.26.17V56.9ZM94.17,33.09l.09.08.09-.26Zm12,27.85v.53l.26-.18V61.2Zm14.94-49.2-.18.35.18.35.26-.35Zm.52,1.93v.53h.53v-.53ZM94.17,33.09l.09.08.09-.26Zm1.94,23.54-.09.18.26.17V56.9Zm12.65-17.39-.18.35.18.35.26-.35Zm0,1.05V41l.44-.7Zm12.82-26.62v.53h.53v-.53Zm-.52-1.93-.18.35.18.35.26-.35Zm-12.3,28.55V41l.44-.7Zm0-1.05-.18.35.18.35.26-.35Zm-2.64,21.7v.53l.26-.18V61.2Zm-10-4.31-.09.18.26.17V56.9ZM94.17,33.09l.09.08.09-.26Zm12,27.85v.53l.26-.18V61.2Zm14.94-49.2-.18.35.18.35.26-.35Zm.52,1.93v.53h.53v-.53ZM94.17,33.09l.09.08.09-.26Zm1.94,23.54-.09.18.26.17V56.9Zm12.65-17.39-.18.35.18.35.26-.35Zm0,1.05V41l.44-.7Zm12.82-26.62v.53h.53v-.53Zm-.52-1.93-.18.35.18.35.26-.35Zm-12.3,28.55V41l.44-.7Zm0-1.05-.18.35.18.35.26-.35Zm-2.64,21.7v.53l.26-.18V61.2Zm-10-4.31-.09.18.26.17V56.9ZM94.17,33.09l.09.08.09-.26Zm12,27.85v.53l.26-.18V61.2Zm14.94-49.2-.18.35.18.35.26-.35Zm.52,1.93v.53h.53v-.53ZM94.17,33.09l.09.08.09-.26Zm1.94,23.54-.09.18.26.17V56.9Zm12.65-17.39-.18.35.18.35.26-.35Zm0,1.05V41l.44-.7Zm12.82-26.62v.53h.53v-.53Zm-.52-1.93-.18.35.18.35.26-.35Zm-12.3,28.55V41l.44-.7Zm0-1.05-.18.35.18.35.26-.35Zm-2.64,21.7v.53l.26-.18V61.2Zm-10-4.31-.09.18.26.17V56.9ZM94.17,33.09l.09.08.09-.26Zm12,27.85v.53l.26-.18V61.2Zm14.94-49.2-.18.35.18.35.26-.35Zm.52,1.93v.53h.53v-.53ZM94.17,33.09l.09.08.09-.26Zm1.94,23.54-.09.18.26.17V56.9Zm12.65-17.39-.18.35.18.35.26-.35Zm0,1.05V41l.44-.7Zm12.82-26.62v.53h.53v-.53Zm-.52-1.93-.18.35.18.35.26-.35Zm-12.3,28.55V41l.44-.7Zm0-1.05-.18.35.18.35.26-.35Zm-2.64,21.7v.53l.26-.18V61.2Zm-10-4.31-.09.18.26.17V56.9ZM94.17,33.09l.09.08.09-.26Zm12,27.85v.53l.26-.18V61.2Zm14.94-49.2-.18.35.18.35.26-.35Zm.52,1.93v.53h.53v-.53ZM94.17,33.09l.09.08.09-.26Zm1.94,23.54-.09.18.26.17V56.9Zm12.65-17.39-.18.35.18.35.26-.35Zm0,1.05V41l.44-.7Zm12.82-26.62v.53h.53v-.53Zm-.52-1.93-.18.35.18.35.26-.35Zm-12.3,28.55V41l.44-.7Zm0-1.05-.18.35.18.35.26-.35Zm-2.64,21.7v.53l.26-.18V61.2Zm-10-4.31-.09.18.26.17V56.9ZM94.17,33.09l.09.08.09-.26Zm12,27.85v.53l.26-.18V61.2Zm14.94-49.2-.18.35.18.35.26-.35Zm.52,1.93v.53h.53v-.53ZM94.17,33.09l.09.08.09-.26Zm1.94,23.54-.09.18.26.17V56.9Zm12.65-17.39-.18.35.18.35.26-.35Zm0,1.05V41l.44-.7Zm12.82-26.62v.53h.53v-.53Zm-.52-1.93-.18.35.18.35.26-.35Zm-12.3,28.55V41l.44-.7Zm0-1.05-.18.35.18.35.26-.35Zm-2.64,21.7v.53l.26-.18V61.2Zm-10-4.31-.09.18.26.17V56.9ZM94.17,33.09l.09.08.09-.26Zm12,27.85v.53l.26-.18V61.2Zm14.94-49.2-.18.35.18.35.26-.35Zm.52,1.93v.53h.53v-.53ZM94.17,33.09l.09.08.09-.26Zm1.94,23.54-.09.18.26.17V56.9Zm12.65-17.39-.18.35.18.35.26-.35Zm0,1.05V41l.44-.7Zm12.82-26.62v.53h.53v-.53Zm-.52-1.93-.18.35.18.35.26-.35Zm-12.3,28.55V41l.44-.7Zm0-1.05-.18.35.18.35.26-.35Zm-2.64,21.7v.53l.26-.18V61.2Zm-10-4.31-.09.18.26.17V56.9ZM94.17,33.09l.09.08.09-.26Zm12,27.85v.53l.26-.18V61.2Zm14.94-49.2-.18.35.18.35.26-.35Zm.52,1.93v.53h.53v-.53ZM94.17,33.09l.09.08.09-.26Zm1.94,23.54-.09.18.26.17V56.9Zm12.65-17.39-.18.35.18.35.26-.35Zm0,1.05V41l.44-.7Zm12.82-26.62v.53h.53v-.53Zm-.52-1.93-.18.35.18.35.26-.35Zm-12.3,28.55V41l.44-.7Zm0-1.05-.18.35.18.35.26-.35Zm-2.64,21.7v.53l.26-.18V61.2Zm-10-4.31-.09.18.26.17V56.9ZM94.17,33.09l.09.08.09-.26Zm12,27.85v.53l.26-.18V61.2Zm14.94-49.2-.18.35.18.35.26-.35Zm.52,1.93v.53h.53v-.53ZM94.17,33.09l.09.08.09-.26Zm1.94,23.54-.09.18.26.17V56.9Zm12.65-17.39-.18.35.18.35.26-.35Zm0,1.05V41l.44-.7Zm12.82-26.62v.53h.53v-.53Zm-.52-1.93-.18.35.18.35.26-.35Zm-12.3,28.55V41l.44-.7Zm0-1.05-.18.35.18.35.26-.35Zm-2.64,21.7v.53l.26-.18V61.2Zm-10-4.31-.09.18.26.17V56.9ZM94.17,33.09l.09.08.09-.26Zm12,27.85v.53l.26-.18V61.2Zm14.94-49.2-.18.35.18.35.26-.35Zm.52,1.93v.53h.53v-.53ZM94.17,33.09l.09.08.09-.26Zm1.94,23.54-.09.18.26.17V56.9Zm12.65-17.39-.18.35.18.35.26-.35Zm0,1.05V41l.44-.7Zm12.82-26.62v.53h.53v-.53Zm-.52-1.93-.18.35.18.35.26-.35Zm-12.3,28.55V41l.44-.7Zm0-1.05-.18.35.18.35.26-.35Zm-2.64,21.7v.53l.26-.18V61.2Zm-10-4.31-.09.18.26.17V56.9ZM94.17,33.09l.09.08.09-.26Zm12,27.85v.53l.26-.18V61.2Zm14.94-49.2-.18.35.18.35.26-.35Zm.52,1.93v.53h.53v-.53ZM94.17,33.09l.09.08.09-.26Zm1.94,23.54-.09.18.26.17V56.9Zm12.65-17.39-.18.35.18.35.26-.35Zm0,1.05V41l.44-.7Zm12.82-26.62v.53h.53v-.53Zm-.52-1.93-.18.35.18.35.26-.35Zm-12.3,28.55V41l.44-.7Zm0-1.05-.18.35.18.35.26-.35Zm-2.64,21.7v.53l.26-.18V61.2Zm-10-4.31-.09.18.26.17V56.9ZM94.17,33.09l.09.08.09-.26Zm12,27.85v.53l.26-.18V61.2Zm14.94-49.2-.18.35.18.35.26-.35Zm.52,1.93v.53h.53v-.53ZM94.17,33.09l.09.08.09-.26Zm1.94,23.54-.09.18.26.17V56.9Zm12.65-17.39-.18.35.18.35.26-.35Zm0,1.05V41l.44-.7Zm12.82-26.62v.53h.53v-.53Zm-.52-1.93-.18.35.18.35.26-.35Zm-12.3,28.55V41l.44-.7Zm0-1.05-.18.35.18.35.26-.35Zm-2.64,21.7v.53l.26-.18V61.2Zm-10-4.31-.09.18.26.17V56.9ZM94.17,33.09l.09.08.09-.26Zm12,27.85v.53l.26-.18V61.2Zm14.94-49.2-.18.35.18.35.26-.35Zm.52,1.93v.53h.53v-.53ZM94.17,33.09l.09.08.09-.26Zm1.94,23.54-.09.18.26.17V56.9Zm12.65-17.39-.18.35.18.35.26-.35Zm0,1.05V41l.44-.7Zm12.82-26.62v.53h.53v-.53Zm-.52-1.93-.18.35.18.35.26-.35Zm-12.3,28.55V41l.44-.7Zm0-1.05-.18.35.18.35.26-.35Zm-2.64,21.7v.53l.26-.18V61.2Zm-10-4.31-.09.18.26.17V56.9ZM94.17,33.09l.09.08.09-.26Zm12,27.85v.53l.26-.18V61.2Zm14.94-49.2-.18.35.18.35.26-.35Zm.52,1.93v.53h.53v-.53ZM94.17,33.09l.09.08.09-.26Zm1.94,23.54-.09.18.26.17V56.9Zm12.65-17.39-.18.35.18.35.26-.35Zm0,1.05V41l.44-.7Zm12.82-26.62v.53h.53v-.53Zm-.52-1.93-.18.35.18.35.26-.35Zm-12.3,28.55V41l.44-.7Zm0-1.05-.18.35.18.35.26-.35Zm-2.64,21.7v.53l.26-.18V61.2Zm-10-4.31-.09.18.26.17V56.9ZM94.17,33.09l.09.08.09-.26Zm12,27.85v.53l.26-.18V61.2Zm14.94-49.2-.18.35.18.35.26-.35Zm.52,1.93v.53h.53v-.53ZM94.17,33.09l.09.08.09-.26Zm1.94,23.54-.09.18.26.17V56.9Zm12.65-17.39-.18.35.18.35.26-.35Zm0,1.05V41l.44-.7Zm12.82-26.62v.53h.53v-.53Zm-.52-1.93-.18.35.18.35.26-.35Zm-12.3,28.55V41l.44-.7Zm0-1.05-.18.35.18.35.26-.35Zm-2.64,21.7v.53l.26-.18V61.2Zm-10-4.31-.09.18.26.17V56.9ZM94.17,33.09l.09.08.09-.26Zm12,27.85v.53l.26-.18V61.2Zm14.94-49.2-.18.35.18.35.26-.35Zm.52,1.93v.53h.53v-.53ZM94.17,33.09l.09.08.09-.26Zm1.94,23.54-.09.18.26.17V56.9Zm12.65-17.39-.18.35.18.35.26-.35Zm0,1.05V41l.44-.7Zm12.82-26.62v.53h.53v-.53Zm-.52-1.93-.18.35.18.35.26-.35Zm-12.3,28.55V41l.44-.7Zm0-1.05-.18.35.18.35.26-.35Zm-2.64,21.7v.53l.26-.18V61.2Zm-10-4.31-.09.18.26.17V56.9ZM94.17,33.09l.09.08.09-.26Zm12,27.85v.53l.26-.18V61.2Zm14.94-49.2-.18.35.18.35.26-.35Zm.52,1.93v.53h.53v-.53ZM94.17,33.09l.09.08.09-.26Zm1.94,23.54-.09.18.26.17V56.9Zm12.65-17.39-.18.35.18.35.26-.35Zm0,1.05V41l.44-.7Zm12.82-26.62v.53h.53v-.53Zm-.52-1.93-.18.35.18.35.26-.35Zm-12.3,28.55V41l.44-.7Zm0-1.05-.18.35.18.35.26-.35Zm-2.64,21.7v.53l.26-.18V61.2Zm-10-4.31-.09.18.26.17V56.9ZM94.17,33.09l.09.08.09-.26Zm12,27.85v.53l.26-.18V61.2Zm14.94-49.2-.18.35.18.35.26-.35Zm.52,1.93v.53h.53v-.53ZM94.17,33.09l.09.08.09-.26Zm1.94,23.54-.09.18.26.17V56.9Zm12.65-17.39-.18.35.18.35.26-.35Zm0,1.05V41l.44-.7Zm12.82-26.62v.53h.53v-.53Zm-.52-1.93-.18.35.18.35.26-.35Zm-12.3,28.55V41l.44-.7Zm0-1.05-.18.35.18.35.26-.35Zm-2.64,21.7v.53l.26-.18V61.2Zm-10-4.31-.09.18.26.17V56.9ZM94.17,33.09l.09.08.09-.26Zm12,27.85v.53l.26-.18V61.2Zm14.94-49.2-.18.35.18.35.26-.35Zm.52,1.93v.53h.53v-.53ZM94.17,33.09l.09.08.09-.26Zm1.94,23.54-.09.18.26.17V56.9Zm12.65-17.39-.18.35.18.35.26-.35Zm0,1.05V41l.44-.7Zm12.82-26.62v.53h.53v-.53Zm-.52-1.93-.18.35.18.35.26-.35Zm-12.3,28.55V41l.44-.7Zm0-1.05-.18.35.18.35.26-.35Zm-2.64,21.7v.53l.26-.18V61.2Zm-10-4.31-.09.18.26.17V56.9ZM94.17,33.09l.09.08.09-.26Zm12,27.85v.53l.26-.18V61.2Zm14.94-49.2-.18.35.18.35.26-.35Zm.52,1.93v.53h.53v-.53ZM94.17,33.09l.09.08.09-.26Zm1.94,23.54-.09.18.26.17V56.9Zm12.65-17.39-.18.35.18.35.26-.35Zm0,1.05V41l.44-.7Zm12.82-26.62v.53h.53v-.53Zm-.52-1.93-.18.35.18.35.26-.35Zm-12.3,28.55V41l.44-.7Zm0-1.05-.18.35.18.35.26-.35Zm-2.64,21.7v.53l.26-.18V61.2Zm-10-4.31-.09.18.26.17V56.9ZM94.17,33.09l.09.08.09-.26Zm12,27.85v.53l.26-.18V61.2Zm14.94-49.2-.18.35.18.35.26-.35Zm.52,1.93v.53h.53v-.53ZM94.17,33.09l.09.08.09-.26Zm1.94,23.54-.09.18.26.17V56.9Zm12.65-17.39-.18.35.18.35.26-.35Zm0,1.05V41l.44-.7Zm12.82-26.62v.53h.53v-.53Zm-.52-1.93-.18.35.18.35.26-.35Zm-12.3,28.55V41l.44-.7Zm0-1.05-.18.35.18.35.26-.35Zm-2.64,21.7v.53l.26-.18V61.2Zm-10-4.31-.09.18.26.17V56.9ZM94.17,33.09l.09.08.09-.26Zm12,27.85v.53l.26-.18V61.2Zm14.94-49.2-.18.35.18.35.26-.35Zm.52,1.93v.53h.53v-.53ZM94.17,33.09l.09.08.09-.26Zm1.94,23.54-.09.18.26.17V56.9Zm12.65-17.39-.18.35.18.35.26-.35Zm0,1.05V41l.44-.7Zm12.82-26.62v.53h.53v-.53Zm-.52-1.93-.18.35.18.35.26-.35Zm-12.3,28.55V41l.44-.7Zm0-1.05-.18.35.18.35.26-.35Zm-2.64,21.7v.53l.26-.18V61.2Zm-10-4.31-.09.18.26.17V56.9ZM94.17,33.09l.09.08.09-.26Zm12,27.85v.53l.26-.18V61.2Zm14.94-49.2-.18.35.18.35.26-.35Zm.52,1.93v.53h.53v-.53ZM94.17,33.09l.09.08.09-.26Zm1.94,23.54-.09.18.26.17V56.9Zm12.65-17.39-.18.35.18.35.26-.35Zm0,1.05V41l.44-.7Zm12.82-26.62v.53h.53v-.53Zm-.52-1.93-.18.35.18.35.26-.35Zm-12.3,28.55V41l.44-.7Zm0-1.05-.18.35.18.35.26-.35Zm-2.64,21.7v.53l.26-.18V61.2Zm-10-4.31-.09.18.26.17V56.9ZM94.17,33.09l.09.08.09-.26Zm0,0,.09.08.09-.26Zm1.94,23.54-.09.18.26.17V56.9Zm12.65-17.39-.18.35.18.35.26-.35Zm0,1.05V41l.44-.7Zm-2.64,20.65v.53l.26-.18V61.2Zm14.94-49.2-.18.35.18.35.26-.35Zm.52,1.93v.53h.53v-.53Zm0,0v.53h.53v-.53Zm-.52-1.93-.18.35.18.35.26-.35Zm-12.3,28.55V41l.44-.7Zm0-1.05-.18.35.18.35.26-.35Zm-2.64,21.7v.53l.26-.18V61.2Zm-10-4.31-.09.18.26.17V56.9ZM94.17,33.09l.09.08.09-.26Zm0,0,.09.08.09-.26Zm1.94,23.54-.09.18.26.17V56.9Zm12.65-17.39-.18.35.18.35.26-.35Zm0,1.05V41l.44-.7Zm-2.64,20.65v.53l.26-.18V61.2Zm14.94-49.2-.18.35.18.35.26-.35Zm.52,1.93v.53h.53v-.53Zm0,0v.53h.53v-.53Zm-.52-1.93-.18.35.18.35.26-.35Zm-12.3,28.55V41l.44-.7Zm0-1.05-.18.35.18.35.26-.35Zm-2.64,21.7v.53l.26-.18V61.2Zm-10-4.31-.09.18.26.17V56.9ZM94.17,33.09l.09.08.09-.26Zm0,0,.09.08.09-.26Zm1.94,23.54-.09.18.26.17V56.9Zm12.65-17.39-.18.35.18.35.26-.35Zm0,1.05V41l.44-.7Zm-2.64,20.65v.53l.26-.18V61.2Zm14.94-49.2-.18.35.18.35.26-.35Zm.52,1.93v.53h.53v-.53Zm0,0v.53h.53v-.53Zm-.52-1.93-.18.35.18.35.26-.35Zm-12.3,28.55V41l.44-.7Zm0-1.05-.18.35.18.35.26-.35Zm-2.64,21.7v.53l.26-.18V61.2Zm-10-4.31-.09.18.26.17V56.9ZM94.17,33.09l.09.08.09-.26Zm0,0,.09.08.09-.26Zm1.94,23.54-.09.18.26.17V56.9Zm12.65-17.39-.18.35.18.35.26-.35Zm0,1.05V41l.44-.7Zm-2.64,20.65v.53l.26-.18V61.2Zm14.94-49.2-.18.35.18.35.26-.35Zm.52,1.93v.53h.53v-.53Zm0,0v.53h.53v-.53Zm-.52-1.93-.18.35.18.35.26-.35Zm-12.3,28.55V41l.44-.7Zm0-1.05-.18.35.18.35.26-.35Zm-2.64,21.7v.53l.26-.18V61.2Zm-10-4.31-.09.18.26.17V56.9ZM94.17,33.09l.09.08.09-.26Zm0,0,.09.08.09-.26Zm1.94,23.54-.09.18.26.17V56.9Zm12.65-17.39-.18.35.18.35.26-.35Zm0,1.05V41l.44-.7Zm-2.64,20.65v.53l.26-.18V61.2Zm14.94-49.2-.18.35.18.35.26-.35Zm.52,1.93v.53h.53v-.53Zm0,0v.53h.53v-.53Zm-.52-1.93-.18.35.18.35.26-.35Zm-12.3,28.55V41l.44-.7Zm0-1.05-.18.35.18.35.26-.35Zm-2.64,21.7v.53l.26-.18V61.2Zm-10-4.31-.09.18.26.17V56.9ZM94.17,33.09l.09.08.09-.26Zm0,0,.09.08.09-.26Zm1.94,23.54-.09.18.26.17V56.9Zm12.65-17.39-.18.35.18.35.26-.35Zm0,1.05V41l.44-.7Zm-2.64,20.65v.53l.26-.18V61.2Zm14.94-49.2-.18.35.18.35.26-.35Zm.52,1.93v.53h.53v-.53Zm0,0v.53h.53v-.53Zm-.52-1.93-.18.35.18.35.26-.35Zm-12.3,28.55V41l.44-.7Zm0-1.05-.18.35.18.35.26-.35Zm-2.64,21.7v.53l.26-.18V61.2Zm-10-4.31-.09.18.26.17V56.9ZM94.17,33.09l.09.08.09-.26Zm0,0,.09.08.09-.26Zm1.94,23.54-.09.18.26.17V56.9Zm12.65-17.39-.18.35.18.35.26-.35Zm0,1.05V41l.44-.7Zm-2.64,20.65v.53l.26-.18V61.2Zm14.94-49.2-.18.35.18.35.26-.35Zm.52,1.93v.53h.53v-.53Zm0,0v.53h.53v-.53Zm-.52-1.93-.18.35.18.35.26-.35Zm-12.3,28.55V41l.44-.7Zm0-1.05-.18.35.18.35.26-.35Zm-2.64,21.7v.53l.26-.18V61.2Zm-10-4.31-.09.18.26.17V56.9ZM94.17,33.09l.09.08.09-.26Z"/><path class="cls-2" d="M16.21,84.84v6.68H22V84.84Zm3,5.71h-2V89.33h2ZM16.07,72.49v6.78h2.78c.08-.18.18-.33.4-.22,0-.17.15-.45.19-.61a.16.16,0,0,0,.08,0c-.09-.31.4-.33.51-.5s-.07-.15-.17-.17c.33-.05.29-.68.42-.69s.19.07.31.11c.14-.24-.37-.27,0-.41,0,0,0,.12,0,.11s.72.11.73-.07H21.2c.08-.28.71-.19.49-.44l-.13-.09c.28-.12.24-.16.27-.23v-3.6Zm3,5.81H17V77h2Zm2.73-.35c-.09.12-.14.24-.26.14,0,.15-.09.21-.16.23h0c-.11,0-.2,0-.11.18s.09-.07.1-.14c0,.16.34.12.49.12V78Zm-.47.72.09-.19c-.48.15-.05.5-.51.36.11-.1.14-.31,0-.32l-.06.23c-.06,0,0-.11-.06-.08a1.81,1.81,0,0,0,0,.33h0l-.2.26s0,0-.07,0v0h1.36v-.76C21.6,78.58,21.55,78.73,21.3,78.67Zm-5.09,6.17v6.68H22V84.84Zm3,5.71h-2V89.33h2ZM16.07,72.49v6.78h2.78c.08-.18.18-.33.4-.22,0-.17.15-.45.19-.61a.16.16,0,0,0,.08,0c-.09-.31.4-.33.51-.5s-.07-.15-.17-.17c.33-.05.29-.68.42-.69s.19.07.31.11c.14-.24-.37-.27,0-.41,0,0,0,.12,0,.11s.72.11.73-.07H21.2c.08-.28.71-.19.49-.44l-.13-.09c.28-.12.24-.16.27-.23v-3.6Zm3,5.81H17V77h2Zm2.73-.35c-.09.12-.14.24-.26.14,0,.15-.09.21-.16.23h0c-.11,0-.2,0-.11.18s.09-.07.1-.14c0,.16.34.12.49.12V78Zm-.47.72.09-.19c-.48.15-.05.5-.51.36.11-.1.14-.31,0-.32l-.06.23c-.06,0,0-.11-.06-.08a1.81,1.81,0,0,0,0,.33h0l-.2.26s0,0-.07,0v0h1.36v-.76C21.6,78.58,21.55,78.73,21.3,78.67Zm-5.23-6.18v6.78h2.78c.08-.18.18-.33.4-.22,0-.17.15-.45.19-.61a.16.16,0,0,0,.08,0c-.09-.31.4-.33.51-.5s-.07-.15-.17-.17c.33-.05.29-.68.42-.69s.19.07.31.11c.14-.24-.37-.27,0-.41,0,0,0,.12,0,.11s.72.11.73-.07H21.2c.08-.28.71-.19.49-.44l-.13-.09c.28-.12.24-.16.27-.23v-3.6Zm3,5.81H17V77h2Zm2.73-.35c-.09.12-.14.24-.26.14,0,.15-.09.21-.16.23h0c-.11,0-.2,0-.11.18s.09-.07.1-.14c0,.16.34.12.49.12V78Zm-.47.72.09-.19c-.48.15-.05.5-.51.36.11-.1.14-.31,0-.32l-.06.23c-.06,0,0-.11-.06-.08a1.81,1.81,0,0,0,0,.33h0l-.2.26s0,0-.07,0v0h1.36v-.76C21.6,78.58,21.55,78.73,21.3,78.67Zm-5.09,6.17v6.68H22V84.84Zm3,5.71h-2V89.33h2Zm8.4-7.72.24-.43A4.59,4.59,0,0,0,29,79.08V70.73a3.38,3.38,0,0,0-.05-.64l-.3.26c0-.05.13-.23,0-.24-.13.16-.09.06-.25.11a6.39,6.39,0,0,0-.27-1.37l-.08.28-.12,0c-.11.35.23,1,.31,1.23a.2.2,0,0,1-.23,0c0,.14,0,.28,0,.43v8.35c0,2.24-1.27,3.41-3,3.51,1.85.2,3.12,1.9,3.12,4.15v7.08a4,4,0,0,1-4.15,4H9.92V91.22c-.31,0-.57.63-.89.57.1.27.28-.27.36,0a.4.4,0,0,0-.23.1l.15.06a5.75,5.75,0,0,0-1.06.92v0c-.18.11-.23.21-.18.36-.08,0,0-.15-.12-.13.07.52-.67.32-.6.66a.48.48,0,0,0-.21-.12v8.76H22.07a4.84,4.84,0,0,0,4.39-2.54l1.32-2.49a5.07,5.07,0,0,0,1.37-3.51V86.74A5.41,5.41,0,0,0,27.59,82.83Zm1.17-13.65a.66.66,0,0,0,0,.86l.11-.35A2.72,2.72,0,0,0,28.76,69.18ZM28,68.65a2.12,2.12,0,0,1,.42-.32,5,5,0,0,0-1-1.33,4.45,4.45,0,0,0-.78-.59,4.33,4.33,0,0,0-.67-.36,5.73,5.73,0,0,0-2.18-.45H8.94V66L7.13,69.41V92.34c.91-.5,1.26-1.52,2.09-2.06,0-.07-.05-.08-.1-.09.27,0,0-.21.09-.31l.4,0c0-.14-.11-.13-.15-.18a2.13,2.13,0,0,1,.46-.44V66.58h14a2.93,2.93,0,0,1,.51,0,4,4,0,0,1,1.18.36,4.17,4.17,0,0,1,2,2c.08-.21.15-.42.4-.47C28,68.57,28,68.61,28,68.65ZM16.07,72.49v6.78h2.78c.08-.18.18-.33.4-.22,0-.17.15-.45.19-.61a.16.16,0,0,0,.08,0c-.09-.31.4-.33.51-.5s-.07-.15-.17-.17c.33-.05.29-.68.42-.69s.19.07.31.11c.14-.24-.37-.27,0-.41,0,0,0,.12,0,.11s.72.11.73-.07H21.2c.08-.28.71-.19.49-.44l-.13-.09c.28-.12.24-.16.27-.23v-3.6Zm3,5.81H17V77h2Zm-2.83,6.54v6.68H22V84.84Zm3,5.71h-2V89.33h2ZM16.07,72.49v6.78h2.78c.08-.18.18-.33.4-.22,0-.17.15-.45.19-.61a.16.16,0,0,0,.08,0c-.09-.31.4-.33.51-.5s-.07-.15-.17-.17c.33-.05.29-.68.42-.69s.19.07.31.11c.14-.24-.37-.27,0-.41,0,0,0,.12,0,.11s.72.11.73-.07H21.2c.08-.28.71-.19.49-.44l-.13-.09c.28-.12.24-.16.27-.23v-3.6Zm3,5.81H17V77h2Zm2.73-.35c-.09.12-.14.24-.26.14,0,.15-.09.21-.16.23h0c-.11,0-.2,0-.11.18s.09-.07.1-.14c0,.16.34.12.49.12V78Zm-.47.72.09-.19c-.48.15-.05.5-.51.36.11-.1.14-.31,0-.32l-.06.23c-.06,0,0-.11-.06-.08a1.81,1.81,0,0,0,0,.33h0l-.2.26s0,0-.07,0v0h1.36v-.76C21.6,78.58,21.55,78.73,21.3,78.67Z"/><path class="cls-2" d="M53,98.84l-1.86,3.51H43.3V90.45h-2v8.4h-.24l-1.86,3.51h-8V69.41L33.05,66V65.6H47.84A5.44,5.44,0,0,1,53.11,71v8.69a5.07,5.07,0,0,1-1.17,3.42l-.29.54a7.27,7.27,0,0,1,1.61,5v10.2Zm-.73-1V88.64c0-2.64-.83-5-3.08-5.12,1.71-.1,2.93-1.51,2.93-3.81V71a4.46,4.46,0,0,0-4.3-4.44H34V97.86h6.3V86h5.76V97.86ZM45.94,80.19H40.18v-8h5.76Zm-4.78-3.47v2.49h2V76.73Z"/><path class="cls-2" d="M70.1,102.36H60a4.68,4.68,0,0,1-4.83-4.88V74.39a5.12,5.12,0,0,1,.54-2.29l1.42-2.69a5.22,5.22,0,0,1,5.13-3.81h9.47A5.16,5.16,0,0,1,77,70.72V93.81a5.16,5.16,0,0,1-1.32,3.56l-1.22,2.2h0l0,0v0l-.15.34A4.71,4.71,0,0,1,70.1,102.36Zm6-31.63a4.21,4.21,0,0,0-4.3-4.15H62.29A4.21,4.21,0,0,0,58,70.72V93.81a3.88,3.88,0,0,0,4,4.05H72.05a3.88,3.88,0,0,0,4-4.05Zm-6.2,20.65H64.19V72.48h5.66ZM65.17,77V90.4h1.9V77Z"/><path class="cls-2" d="M101.19,93.72a4.67,4.67,0,0,1-.68,2.29l-.59,1-1.37,2.64A5.24,5.24,0,0,1,94,102.36H84.15a5.07,5.07,0,0,1-5.17-5V91.62l1.76-3.32A4.29,4.29,0,0,1,79,85V74.29a5.24,5.24,0,0,1,.59-2.39l1.32-2.54A5.09,5.09,0,0,1,86.1,65.6h10a4.93,4.93,0,0,1,5.13,5v5.86h-.24l-1.56,2.93a4.8,4.8,0,0,1,1.81,3.86Zm-1-10.45a4,4,0,0,0-4.15-4.05h-8V72.29h6.1v3.22h6.05V70.63a4,4,0,0,0-4.15-4.05h-10a4,4,0,0,0-4.34,4.05V81.32c0,1.9,2,3.61,4.34,3.61h8.05v7.22H88V88.79h-6.2v4.93a4.25,4.25,0,0,0,4.34,4.15h9.81a4.21,4.21,0,0,0,4.3-4.15ZM88.64,76.48v2h2.44v-2Zm.15,12.35v2.59h2.44V88.83Z"/><path class="cls-2" d="M125.54,93.72a4.67,4.67,0,0,1-.68,2.29l-.59,1-1.37,2.64a5.24,5.24,0,0,1-4.59,2.68h-9.81a5.07,5.07,0,0,1-5.17-5V91.62l1.76-3.32A4.29,4.29,0,0,1,103.33,85V74.29a5.24,5.24,0,0,1,.59-2.39l1.32-2.54a5.09,5.09,0,0,1,5.22-3.76h10a4.93,4.93,0,0,1,5.13,5v5.86h-.24l-1.56,2.93a4.8,4.8,0,0,1,1.81,3.86Zm-1-10.45a4,4,0,0,0-4.15-4.05h-8V72.29h6.1v3.22h6.05V70.63a4,4,0,0,0-4.15-4.05h-10a4,4,0,0,0-4.34,4.05V81.32c0,1.9,2,3.61,4.34,3.61h8.05v7.22h-6.2V88.79h-6.2v4.93a4.25,4.25,0,0,0,4.34,4.15h9.81a4.21,4.21,0,0,0,4.3-4.15ZM113,76.48v2h2.44v-2Zm.15,12.35v2.59h2.44V88.83Z"/><path class="cls-1" d="M117.28,20.26a1.06,1.06,0,0,0-.13.39h0"/><path class="cls-1" d="M24.42,37v.14l.07,0C24.65,37,24.53,37,24.42,37ZM11.82,50.59l-.06.14a.28.28,0,0,1,.13,0C11.87,50.65,11.85,50.6,11.82,50.59ZM29,30.9a.35.35,0,0,1,.05-.13C29,30.82,29,30.84,29,30.9ZM13.12,49.38l0,0h0"/></svg>