<svg xmlns="http://www.w3.org/2000/svg" id="Layer_1" viewBox="0 0 68.52 68.52" width="68.52" height="68.52"><defs><style>.cls-1{fill:none}.cls-2{fill:#262626}.cls-3{fill:#871cff}.cls-4{fill:url(#DOT)}</style><pattern id="DOT" width="22.09" height="22.09" patternTransform="matrix(.69 0 0 .69 -15 -14.27)" patternUnits="userSpaceOnUse" viewBox="0 0 22.09 22.09"><path d="M0 0h22.09v22.09H0z" class="cls-1"/><circle cx="11.05" cy="11.05" r="6.05" class="cls-2"/></pattern></defs><path d="M19.94 22.88v19.61l9.64-9.85zM21.85 21a3 3 0 0 0 .19.23q6.08 6.15 12.15 12.3l1 1a1.82 1.82 0 0 0 2.5 0c.33-.32.64-.65 1-1l12.12-12.25c.09-.08.16-.17.28-.3zm19.5 13.65l-.17.17-1.7 1.68a4.51 4.51 0 0 1-6.1 0l-.66-.67-.92-.93-.35-.33-.15.15L23.19 43l-1.38 1.4H50.9zM51 25l-7.79 7.7 7.84 8 1.72 1.76V23.34zm0 0l-7.79 7.7 7.84 8 1.72 1.76V23.34zm-9.7 9.61l-.17.17-1.7 1.68a4.51 4.51 0 0 1-6.1 0l-.66-.67-.92-.93-.35-.33-.15.15L23.19 43l-1.38 1.4H50.9zM21.85 21a3 3 0 0 0 .19.23q6.08 6.15 12.15 12.3l1 1a1.82 1.82 0 0 0 2.5 0c.33-.32.64-.65 1-1l12.12-12.25c.09-.08.16-.17.28-.3zm-1.91 1.9v19.59l9.64-9.85zm0 0v19.59l9.64-9.85zm1.91-1.9a3 3 0 0 0 .19.23q6.08 6.15 12.15 12.3l1 1a1.82 1.82 0 0 0 2.5 0c.33-.32.64-.65 1-1l12.12-12.25c.09-.08.16-.17.28-.3zm19.5 13.65l-.17.17-1.7 1.68a4.51 4.51 0 0 1-6.1 0l-.66-.67-.92-.93-.35-.33-.15.15L23.19 43l-1.38 1.4H50.9zM51 25l-7.79 7.7 7.84 8 1.72 1.76V23.34zm0 0l-7.79 7.7 7.84 8 1.72 1.76V23.34zm-9.7 9.61l-.17.17-1.7 1.68a4.51 4.51 0 0 1-6.1 0l-.66-.67-.92-.93-.35-.33-.15.15L23.19 43l-1.38 1.4H50.9zM21.85 21a3 3 0 0 0 .19.23q6.08 6.15 12.15 12.3l1 1a1.82 1.82 0 0 0 2.5 0c.33-.32.64-.65 1-1l12.12-12.25c.09-.08.16-.17.28-.3zm-1.91 1.9v19.59l9.64-9.85zm0 0v19.59l9.64-9.85zm1.91-1.9a3 3 0 0 0 .19.23q6.08 6.15 12.15 12.3l1 1a1.82 1.82 0 0 0 2.5 0c.33-.32.64-.65 1-1l12.12-12.25c.09-.08.16-.17.28-.3zm19.5 13.65l-.17.17-1.7 1.68a4.51 4.51 0 0 1-6.1 0l-.66-.67-.92-.93-.35-.33-.15.15L23.19 43l-1.38 1.4H50.9zM51 25l-7.79 7.7 7.84 8 1.72 1.76V23.34zm0 0l-7.79 7.7 7.84 8 1.72 1.76V23.34zm-9.82 9.8l-1.7 1.68a4.51 4.51 0 0 1-6.1 0l-.66-.67-.92-.93-.35-.33-.15.15-8.11 8.3-1.38 1.4H50.9l-9.55-9.77zm-7-1.29l1 1a1.82 1.82 0 0 0 2.5 0c.33-.32.64-.65 1-1l12.13-12.23c.09-.08.16-.17.28-.3H21.85a3 3 0 0 0 .19.23q6.07 6.15 12.15 12.3zM19.94 22.88v19.61l9.64-9.85zM61.81 6.71L19.46 0 0 38.2l30.32 30.32L68.52 49zm-6.37 40.35H17.28V18.31h38.16zM43.21 32.7l7.84 8 1.72 1.76V23.34L51 25zm-2 2.1l-1.7 1.68a4.51 4.51 0 0 1-6.1 0l-.66-.67-.92-.93-.35-.33-.15.15-8.14 8.3-1.38 1.4H50.9l-9.55-9.77zm-7-1.29l1 1a1.82 1.82 0 0 0 2.5 0c.33-.32.64-.65 1-1l12.1-12.23c.09-.08.16-.17.28-.3H21.85a3 3 0 0 0 .19.23q6.07 6.15 12.15 12.3zM19.94 22.88v19.61l9.64-9.85zm0 0v19.61l9.64-9.85zM21.85 21a3 3 0 0 0 .19.23q6.08 6.15 12.15 12.3l1 1a1.82 1.82 0 0 0 2.5 0c.33-.32.64-.65 1-1l12.12-12.25c.09-.08.16-.17.28-.3zm19.5 13.65l-.17.17-1.7 1.68a4.51 4.51 0 0 1-6.1 0l-.66-.67-.92-.93-.35-.33-.15.15L23.19 43l-1.38 1.4H50.9zM51 25l-7.79 7.7 7.84 8 1.72 1.76V23.34zm0 0l-7.79 7.7 7.84 8 1.72 1.76V23.34zm-9.7 9.61l-.17.17-1.7 1.68a4.51 4.51 0 0 1-6.1 0l-.66-.67-.92-.93-.35-.33-.15.15L23.19 43l-1.38 1.4H50.9zM21.85 21a3 3 0 0 0 .19.23q6.08 6.15 12.15 12.3l1 1a1.82 1.82 0 0 0 2.5 0c.33-.32.64-.65 1-1l12.12-12.25c.09-.08.16-.17.28-.3zm-1.91 1.9v19.59l9.64-9.85zm0 0v19.59l9.64-9.85zm1.91-1.9a3 3 0 0 0 .19.23q6.08 6.15 12.15 12.3l1 1a1.82 1.82 0 0 0 2.5 0c.33-.32.64-.65 1-1l12.12-12.25c.09-.08.16-.17.28-.3zm19.5 13.65l-.17.17-1.7 1.68a4.51 4.51 0 0 1-6.1 0l-.66-.67-.92-.93-.35-.33-.15.15L23.19 43l-1.38 1.4H50.9zM51 25l-7.79 7.7 7.84 8 1.72 1.76V23.34zm0 0l-7.79 7.7 7.84 8 1.72 1.76V23.34zm-9.7 9.61l-.17.17-1.7 1.68a4.51 4.51 0 0 1-6.1 0l-.66-.67-.92-.93-.35-.33-.15.15L23.19 43l-1.38 1.4H50.9zM21.85 21a3 3 0 0 0 .19.23q6.08 6.15 12.15 12.3l1 1a1.82 1.82 0 0 0 2.5 0c.33-.32.64-.65 1-1l12.12-12.25c.09-.08.16-.17.28-.3zm-1.91 1.9v19.59l9.64-9.85zm0 0v19.59l9.64-9.85zm1.91-1.9a3 3 0 0 0 .19.23q6.08 6.15 12.15 12.3l1 1a1.82 1.82 0 0 0 2.5 0c.33-.32.64-.65 1-1l12.12-12.25c.09-.08.16-.17.28-.3zm19.5 13.65l-.17.17-1.7 1.68a4.51 4.51 0 0 1-6.1 0l-.66-.67-.92-.93-.35-.33-.15.15L23.19 43l-1.38 1.4H50.9zM51 25l-7.79 7.7 7.84 8 1.72 1.76V23.34zm0 0l-7.79 7.7 7.84 8 1.72 1.76V23.34zm-9.7 9.61l-.17.17-1.7 1.68a4.51 4.51 0 0 1-6.1 0l-.66-.67-.92-.93-.35-.33-.15.15L23.19 43l-1.38 1.4H50.9zM21.85 21a3 3 0 0 0 .19.23q6.08 6.15 12.15 12.3l1 1a1.82 1.82 0 0 0 2.5 0c.33-.32.64-.65 1-1l12.12-12.25c.09-.08.16-.17.28-.3zm-1.91 1.9v19.59l9.64-9.85z" class="cls-3"/><path d="M19.94 22.88v19.61l9.64-9.85zM21.85 21a3 3 0 0 0 .19.23q6.08 6.15 12.15 12.3l1 1a1.82 1.82 0 0 0 2.5 0c.33-.32.64-.65 1-1l12.12-12.25c.09-.08.16-.17.28-.3zm19.5 13.65l-.17.17-1.7 1.68a4.51 4.51 0 0 1-6.1 0l-.66-.67-.92-.93-.35-.33-.15.15L23.19 43l-1.38 1.4H50.9zM51 25l-7.79 7.7 7.84 8 1.72 1.76V23.34zm0 0l-7.79 7.7 7.84 8 1.72 1.76V23.34zm-9.7 9.61l-.17.17-1.7 1.68a4.51 4.51 0 0 1-6.1 0l-.66-.67-.92-.93-.35-.33-.15.15L23.19 43l-1.38 1.4H50.9zM21.85 21a3 3 0 0 0 .19.23q6.08 6.15 12.15 12.3l1 1a1.82 1.82 0 0 0 2.5 0c.33-.32.64-.65 1-1l12.12-12.25c.09-.08.16-.17.28-.3zm-1.91 1.9v19.59l9.64-9.85zm0 0v19.59l9.64-9.85zm1.91-1.9a3 3 0 0 0 .19.23q6.08 6.15 12.15 12.3l1 1a1.82 1.82 0 0 0 2.5 0c.33-.32.64-.65 1-1l12.12-12.25c.09-.08.16-.17.28-.3zm19.5 13.65l-.17.17-1.7 1.68a4.51 4.51 0 0 1-6.1 0l-.66-.67-.92-.93-.35-.33-.15.15L23.19 43l-1.38 1.4H50.9zM51 25l-7.79 7.7 7.84 8 1.72 1.76V23.34zm0 0l-7.79 7.7 7.84 8 1.72 1.76V23.34zm-9.7 9.61l-.17.17-1.7 1.68a4.51 4.51 0 0 1-6.1 0l-.66-.67-.92-.93-.35-.33-.15.15L23.19 43l-1.38 1.4H50.9zM21.85 21a3 3 0 0 0 .19.23q6.08 6.15 12.15 12.3l1 1a1.82 1.82 0 0 0 2.5 0c.33-.32.64-.65 1-1l12.12-12.25c.09-.08.16-.17.28-.3zm-1.91 1.9v19.59l9.64-9.85zm0 0v19.59l9.64-9.85zm1.91-1.9a3 3 0 0 0 .19.23q6.08 6.15 12.15 12.3l1 1a1.82 1.82 0 0 0 2.5 0c.33-.32.64-.65 1-1l12.12-12.25c.09-.08.16-.17.28-.3zm19.5 13.65l-.17.17-1.7 1.68a4.51 4.51 0 0 1-6.1 0l-.66-.67-.92-.93-.35-.33-.15.15L23.19 43l-1.38 1.4H50.9zM51 25l-7.79 7.7 7.84 8 1.72 1.76V23.34zm0 0l-7.79 7.7 7.84 8 1.72 1.76V23.34zm-9.82 9.8l-1.7 1.68a4.51 4.51 0 0 1-6.1 0l-.66-.67-.92-.93-.35-.33-.15.15-8.11 8.3-1.38 1.4H50.9l-9.55-9.77zm-7-1.29l1 1a1.82 1.82 0 0 0 2.5 0c.33-.32.64-.65 1-1l12.13-12.23c.09-.08.16-.17.28-.3H21.85a3 3 0 0 0 .19.23q6.07 6.15 12.15 12.3zM19.94 22.88v19.61l9.64-9.85zM61.81 6.71L19.46 0 0 38.2l30.32 30.32L68.52 49zm-6.37 40.35H17.28V18.31h38.16zM43.21 32.7l7.84 8 1.72 1.76V23.34L51 25zm-2 2.1l-1.7 1.68a4.51 4.51 0 0 1-6.1 0l-.66-.67-.92-.93-.35-.33-.15.15-8.14 8.3-1.38 1.4H50.9l-9.55-9.77zm-7-1.29l1 1a1.82 1.82 0 0 0 2.5 0c.33-.32.64-.65 1-1l12.1-12.23c.09-.08.16-.17.28-.3H21.85a3 3 0 0 0 .19.23q6.07 6.15 12.15 12.3zM19.94 22.88v19.61l9.64-9.85zm0 0v19.61l9.64-9.85zM21.85 21a3 3 0 0 0 .19.23q6.08 6.15 12.15 12.3l1 1a1.82 1.82 0 0 0 2.5 0c.33-.32.64-.65 1-1l12.12-12.25c.09-.08.16-.17.28-.3zm19.5 13.65l-.17.17-1.7 1.68a4.51 4.51 0 0 1-6.1 0l-.66-.67-.92-.93-.35-.33-.15.15L23.19 43l-1.38 1.4H50.9zM51 25l-7.79 7.7 7.84 8 1.72 1.76V23.34zm0 0l-7.79 7.7 7.84 8 1.72 1.76V23.34zm-9.7 9.61l-.17.17-1.7 1.68a4.51 4.51 0 0 1-6.1 0l-.66-.67-.92-.93-.35-.33-.15.15L23.19 43l-1.38 1.4H50.9zM21.85 21a3 3 0 0 0 .19.23q6.08 6.15 12.15 12.3l1 1a1.82 1.82 0 0 0 2.5 0c.33-.32.64-.65 1-1l12.12-12.25c.09-.08.16-.17.28-.3zm-1.91 1.9v19.59l9.64-9.85zm0 0v19.59l9.64-9.85zm1.91-1.9a3 3 0 0 0 .19.23q6.08 6.15 12.15 12.3l1 1a1.82 1.82 0 0 0 2.5 0c.33-.32.64-.65 1-1l12.12-12.25c.09-.08.16-.17.28-.3zm19.5 13.65l-.17.17-1.7 1.68a4.51 4.51 0 0 1-6.1 0l-.66-.67-.92-.93-.35-.33-.15.15L23.19 43l-1.38 1.4H50.9zM51 25l-7.79 7.7 7.84 8 1.72 1.76V23.34zm0 0l-7.79 7.7 7.84 8 1.72 1.76V23.34zm-9.7 9.61l-.17.17-1.7 1.68a4.51 4.51 0 0 1-6.1 0l-.66-.67-.92-.93-.35-.33-.15.15L23.19 43l-1.38 1.4H50.9zM21.85 21a3 3 0 0 0 .19.23q6.08 6.15 12.15 12.3l1 1a1.82 1.82 0 0 0 2.5 0c.33-.32.64-.65 1-1l12.12-12.25c.09-.08.16-.17.28-.3zm-1.91 1.9v19.59l9.64-9.85zm0 0v19.59l9.64-9.85zm1.91-1.9a3 3 0 0 0 .19.23q6.08 6.15 12.15 12.3l1 1a1.82 1.82 0 0 0 2.5 0c.33-.32.64-.65 1-1l12.12-12.25c.09-.08.16-.17.28-.3zm19.5 13.65l-.17.17-1.7 1.68a4.51 4.51 0 0 1-6.1 0l-.66-.67-.92-.93-.35-.33-.15.15L23.19 43l-1.38 1.4H50.9zM51 25l-7.79 7.7 7.84 8 1.72 1.76V23.34zm0 0l-7.79 7.7 7.84 8 1.72 1.76V23.34zm-9.7 9.61l-.17.17-1.7 1.68a4.51 4.51 0 0 1-6.1 0l-.66-.67-.92-.93-.35-.33-.15.15L23.19 43l-1.38 1.4H50.9zM21.85 21a3 3 0 0 0 .19.23q6.08 6.15 12.15 12.3l1 1a1.82 1.82 0 0 0 2.5 0c.33-.32.64-.65 1-1l12.12-12.25c.09-.08.16-.17.28-.3zm-1.91 1.9v19.59l9.64-9.85z" class="cls-4"/><path d="M15.56 16.9v28.75h1.72V18.31h36.44V16.9zM51 25v15.73l1.72 1.76V23.34zm-3-4L36.91 32.13c-.32.32-.63.65-1 1a1.76 1.76 0 0 1-1.76.41l1 1a1.82 1.82 0 0 0 2.5 0c.33-.32.64-.65 1-1l12.16-12.26c.09-.08.16-.17.28-.3zm-6.65 13.63l-.17.17 8 8.19h-26l-1.37 1.41H50.9zm-9.55.25l-.35-.33-.15.15.36.37a3.68 3.68 0 0 0 1.06.74zm-11.86-12v.33c2.66 2.69 5.29 5.34 7.92 8l-7.92 8.09v3.17l9.64-9.85z" class="cls-2"/></svg>