<svg id="Layer_1" data-name="Layer 1" xmlns="http://www.w3.org/2000/svg" xmlns:xlink="http://www.w3.org/1999/xlink" viewBox="0 0 461.39 341.65"><defs><style>.cls-1{fill:none;}.cls-2{fill:#262626;}.cls-3{fill:url(#New_Pattern);}.cls-4{fill:#f2ff56;}.cls-5{fill:#00ffae;}.cls-6{fill:#231f20;}</style><pattern id="New_Pattern" data-name="New Pattern" width="143.91" height="139.86" patternTransform="translate(-206.26 39.34)" patternUnits="userSpaceOnUse" viewBox="0 0 143.91 139.86"><rect class="cls-1" width="143.91" height="139.86"/><path class="cls-2" d="M67.87-.87c0-5.75,3.79-11.54,8.22-13.45A4.47,4.47,0,0,1,82-11.77c.42,1.37.27,2.45-1.38,3C75.73-7,74.11-4.71,73.93.41c0,.94.26,2-.14,2.79a5.15,5.15,0,0,1-2.42,2.29c-.44.17-1.77-.86-2.09-1.61A36.4,36.4,0,0,1,67.87-.87Z"/><path class="cls-2" d="M126.85-9.09a7.74,7.74,0,0,1,7.55,4c.92,1.49,1.12,3.15-.5,4.37s-3.23.86-4.62-.5c-2.81-2.74-4.83-2.94-8.49-1.29a13.82,13.82,0,0,1-5.1,1.08,2.84,2.84,0,0,1-2.26-1.57,3.25,3.25,0,0,1,1.09-2.79,25.23,25.23,0,0,1,6.3-2.72A35.41,35.41,0,0,1,126.85-9.09Z"/><path class="cls-2" d="M-6.55,119.48c.18-.45.3-2,1.1-2.55a44,44,0,0,1,8-4.95,3.1,3.1,0,0,1,4.32,2.11,2.33,2.33,0,0,1-1.71,3.21,20.85,20.85,0,0,0-3.85,1.37,3,3,0,0,0-1.51,2,3.41,3.41,0,0,0,1.38,2.19A6.56,6.56,0,0,0,3.73,124c1.85.43,2.73,1.55,2.24,3.35a3.54,3.54,0,0,1-4.1,2.75C-1,129.76-6.53,123.14-6.55,119.48Z"/><path class="cls-2" d="M-5.8,33c-.55-.55-2.19-1.48-2.6-2.8-.68-2.18,1.26-2.78,3-3.28,1.54-.44,3-1.23,4.52-1.63.93-.24,2.36-.42,2.88.08A3.88,3.88,0,0,1,3,28.5C2.49,31-1.33,33.1-5.8,33Z"/><path class="cls-2" d="M40.46,84a5.27,5.27,0,0,1,2.79-5.41c5.32-2.78,6.78-7.67,7.4-13,.5-4.41,1.69-4.79,6.26-4.88a2.73,2.73,0,0,1,2.37,4.12C55.68,70,55.38,77.2,49.19,80.82c-2.13,1.25-2.57,3.47-1.34,5.64a11.85,11.85,0,0,0,2.8,3.28c2.23,1.81,3,3.61,2,5.17s-3.16,1.34-5.56-.26C42.7,91.69,40.51,88.18,40.46,84Z"/><path class="cls-2" d="M93.49,50.83c3.55-.08,7.59,3.09,8.26,6.6a35.76,35.76,0,0,1,.54,4.86c.11,2.11.19,4,2.8,4.86.76.26,1.42,2.36,1.22,3.44-.16.81-1.73,1.81-2.75,1.91-2.72.26-5.38-1.73-6.31-4.77-.67-2.18-.64-4.57-1.16-6.81a6.89,6.89,0,0,0-1.71-3.44c-.36-.33-2,.64-3,1.09-.78.35-1.53,1.15-2.27,1.13a4.41,4.41,0,0,1-3.07-1.07c-.57-.74-.78-2.65-.26-3.18C87.91,53.28,90.08,50.95,93.49,50.83Z"/><path class="cls-2" d="M125,17.41c-4.41,0-4.21.11-5.64,4.48a22.19,22.19,0,0,1-3.62,6.37c-1.15,1.5-2.94,1.37-4.31,0s-1-2.7,0-4.2a18.83,18.83,0,0,0,2.34-5c1.4-5.48,4-7.67,9.64-7.72,2.48,0,4.9.32,6.49-2.49.4-.7,2.8-.91,3.82-.42.75.36,1.28,2.4,1,3.45C133.65,15.66,130.43,17.36,125,17.41Z"/><path class="cls-2" d="M43,105.19c5.39.62,9,2.58,11.28,6.67.74,1.35,1.12,2.91,2,4.18a5.14,5.14,0,0,0,2.53,2c1.85.57,3.1,1.71,2.65,3.45a4.52,4.52,0,0,1-2.88,2.59c-2.82.72-5-.77-6.5-3.1a53,53,0,0,1-2.66-5.27c-1.62-3.32-4-4.25-7.57-3.56a4.13,4.13,0,0,1-3.4-1.44,3.39,3.39,0,0,1,.37-3.32A17.37,17.37,0,0,1,43,105.19Z"/><path class="cls-2" d="M33,23.5a2.4,2.4,0,0,1,2.59,2.77c-.18,2.44,1.09,3.5,3.23,3.81,2.66.38,3.91,1.87,4.62,4.44.8,2.88,2.2,5.58,3.26,8.39.54,1.45,1.69,3.11-.4,4.27-1.62.91-3.84-.23-4.74-2.31-.51-1.18-.95-2.4-1.44-3.59a14.7,14.7,0,0,0-7.59-8,9.12,9.12,0,0,1-3.88-3.49C26.92,26.75,29.13,23.54,33,23.5Z"/><path class="cls-2" d="M34.59,68.48c-.83,3.33-1.43,6.54-2.45,9.6a3.39,3.39,0,0,1-5,2c-2.1-1.24-1.67-2.94-.71-4.67,3.09-5.54,3.11-10.93-.71-16.18-1.08-1.49-2.1-3.18-.89-4.95a3.45,3.45,0,0,1,2.63-1.19,4.51,4.51,0,0,1,4.36,3.44C32.84,60.5,33.68,64.53,34.59,68.48Z"/><path class="cls-2" d="M-4.21,91.33a23.71,23.71,0,0,0,.74-3.75c.1-2.43.06-4.88-.07-7.31-.07-1.35-.67-2.69-.6-4a2.77,2.77,0,0,1,1.54-2,3,3,0,0,1,2.53.59c2.73,2.47,3.74,9,2.05,12.3C0,91,1,94,4.74,95.77q3.86,1.85,2.34,4.43c-1.1,1.86-3.08,2.12-5.36.56C-1.58,98.5-4.25,95.81-4.21,91.33Z"/><path class="cls-2" d="M88.73,7.37c1.37.13,2.73.37,4.1.37,2.45,0,4.82-.07,5.59-3.26a2.93,2.93,0,0,1,2.4-1.62A3.8,3.8,0,0,1,103.26,5c1.3,3.79-1.39,7.36-5.72,7.54-2.46.11-4.94-.37-7.42-.43s-4.41.53-5.69,2.79a2.85,2.85,0,0,1-1.49,1.36c-1.56.37-3.18.49-4.78.7.25-1.4.12-3,.81-4.15C81.14,9.24,83.79,6.17,88.73,7.37Z"/><path class="cls-2" d="M34.84,5.25c-1.33-.05-3.39-.65-3.85,0-1.19,1.57-1.62,3.7-2.45,5.56-.46,1-.89,2.32-1.74,2.9-1.95,1.33-4.46-.25-4.37-2.81.18-5.07,2.76-9.17,6.05-12.75.59-.64,2.69-.5,3.71,0,1.71.88,3.07,1.23,4.75.08a2.58,2.58,0,0,1,4,.94c.92,1.54,1,3.21-.83,4.21C38.45,4.22,36.7,4.87,35,5.62Z"/><path class="cls-2" d="M91.11,30.64c.65-3.76,2.32-5.57,4.85-4.59a4,4,0,0,1,2.19,2.21,46.86,46.86,0,0,1,1.11,6.8c.35,3,1,5.56,4.45,6.42,1.64.4,2.76,1.62,2.19,3.48s-2,2.2-3.72,2c-2.88-.43-5.47-1.74-6.66-4.32C93.75,38.75,92.55,34.64,91.11,30.64Z"/><path class="cls-2" d="M95.22,131a13.52,13.52,0,0,1,5.6-11.58c1.7-1.28,2.92-3.22,4.24-4.95,1.07-1.4,2.33-2.06,4-1.45a2.43,2.43,0,0,1,1.53,3.55,23.48,23.48,0,0,1-4.68,6.53c-2.74,2.38-4.83,4.7-4.66,8.61.09,2-1.26,3.17-3.31,3.14S95.13,133.47,95.22,131Z"/><path class="cls-2" d="M131.17,46.61a12.1,12.1,0,0,1-1.29,3.25c-2.45,3.09-5.06,6-7.65,9-1,1.17-2.16,2.6-3.89,1.48s-1.17-2.89-.39-4.18a29.81,29.81,0,0,1,4.2-5.47c3.72-3.77,4.07-5.69,1.42-10.19-.75-1.26-1.67-2.58,0-3.83a2.66,2.66,0,0,1,4.23.78c1.51,2.78,2.56,5.81,3.8,8.74Z"/><path class="cls-2" d="M5,8.71c.08-.4.22-1.16.4-1.9.65-2.73,1.33-5.45,2-8.18C7.72-3.15,8-5.3,10.14-5.49a8.75,8.75,0,0,1,4.62,1.42c1.52.86,1.53,2.29.45,3.74-1.34,1.78-2.5,3.7-3.9,5.43-1.76,2.18-1.52,4.22.07,6.3A25.12,25.12,0,0,1,14,14.91a2.84,2.84,0,0,1,0,2.53,2.78,2.78,0,0,1-2.45.36A9.75,9.75,0,0,1,5,8.71Z"/><path class="cls-2" d="M5.83,125.91c.08,3-3,5.23-4.87,3.88a32.84,32.84,0,0,1-6.81-6.48c-2.07-2.76-1.23-5.83,1.59-7.86A25.93,25.93,0,0,1,1,112.34a5.67,5.67,0,0,1,3.91,0,3.51,3.51,0,0,1,1.64,2.75c0,.76-1.11,1.74-2,2.23-1.08.63-2.49.72-3.58,1.35a3.15,3.15,0,0,0-1.57,2.06A3.22,3.22,0,0,0,.9,122.89c.88.62,2.11.73,3,1.3A10.88,10.88,0,0,1,5.83,125.91Z"/><path class="cls-2" d="M98.68,93.45a41.84,41.84,0,0,1-4.27-1.64A32.78,32.78,0,0,1,90,89.09a10,10,0,0,1-1.6-1.9c.85-.61,1.67-1.66,2.56-1.73a7.32,7.32,0,0,1,3.65.95A11.86,11.86,0,0,0,101.54,88c4.5-.49,7.71,2.1,10.37,5.24,2.2,2.6.14,6.85-3.27,7.11a2.32,2.32,0,0,1-1.56-.63,4.17,4.17,0,0,1-.83-1.57C104.37,93.11,104.37,93.11,98.68,93.45Z"/><path class="cls-2" d="M137.36,119.48c.18-.45.3-2,1.1-2.55a44,44,0,0,1,8-4.95,3.1,3.1,0,0,1,4.32,2.11A2.33,2.33,0,0,1,149,117.3a20.85,20.85,0,0,0-3.85,1.37,3,3,0,0,0-1.51,2,3.41,3.41,0,0,0,1.38,2.19,6.56,6.56,0,0,0,2.58,1.1c1.85.43,2.73,1.55,2.24,3.35a3.54,3.54,0,0,1-4.1,2.75C142.9,129.76,137.38,123.14,137.36,119.48Z"/><path class="cls-2" d="M67.87,139c0-5.75,3.79-11.54,8.22-13.45A4.47,4.47,0,0,1,82,128.09c.42,1.37.27,2.45-1.38,3-4.86,1.73-6.48,4-6.66,9.14,0,.94.26,2-.14,2.79a5.15,5.15,0,0,1-2.42,2.29c-.44.17-1.77-.86-2.09-1.61A36.4,36.4,0,0,1,67.87,139Z"/><path class="cls-2" d="M80.27,113.45a10.74,10.74,0,0,1-7.43-3.74c-1-1.17-2.68-1.76-3.86-2.82-.92-.83-2.22-2.07-2.12-3s1.55-2.21,2.65-2.56c2.74-.86,4.79.76,6.5,2.68,3.94,4.4,4.1,4.43,9.09,1.54a2.87,2.87,0,0,1,4.11.84c1.13,1.58.45,2.92-1,3.64C85.63,111.31,82.92,112.32,80.27,113.45Z"/><path class="cls-2" d="M8.93,40a6.92,6.92,0,0,0,6.28-1.87,4.53,4.53,0,0,1,1.35-.73c1.69-.73,3.46-1.15,4.46.87.9,1.83-.53,3.06-1.89,3.68-3.09,1.4-6.35,2.38-9.46,3.73a16.54,16.54,0,0,0-4.86,2.93c-.95.9-1.13,2.57-3,1.58S-.76,47.93-.14,46A8.62,8.62,0,0,1,8.93,40Z"/><path class="cls-2" d="M126.85,130.77a7.74,7.74,0,0,1,7.55,4c.92,1.49,1.12,3.15-.5,4.37s-3.23.86-4.62-.5c-2.81-2.74-4.83-2.94-8.49-1.29a13.82,13.82,0,0,1-5.1,1.08,2.84,2.84,0,0,1-2.26-1.57,3.25,3.25,0,0,1,1.09-2.79,25.23,25.23,0,0,1,6.3-2.72A35.41,35.41,0,0,1,126.85,130.77Z"/><path class="cls-2" d="M79.27,70.73a11.17,11.17,0,0,1,2.32.65c1.9.93,2,2.84.18,4-1.3.81-2.7,1.47-4.08,2.17A8.92,8.92,0,0,0,72.81,84a6.61,6.61,0,0,1-2.3,3.42c-1.39,1.1-3.33.1-3.76-1.65C65.41,80.39,73.22,70.66,79.27,70.73Z"/><path class="cls-2" d="M67,36.28a2.9,2.9,0,0,1,2.91,4c-.85,2.66,0,4,2.45,4.91,3.26,1.26,4.06,4.5,5,7.39.25.82-1,2.1-1.55,3.17a16.84,16.84,0,0,1-2.89-2c-1.94-2-3.55-4.34-5.64-6.13s-4.19-3.32-4.54-6.25S64.23,36.23,67,36.28Z"/><path class="cls-2" d="M56,32.57c-1.14-.72-2.61-1.15-2.92-2a3.31,3.31,0,0,1,1-3.07c4.2-2.16,5.85-6.07,7.58-10a3.78,3.78,0,0,1,1.9-2c1-.34,2.56-.51,3.26,0a3.34,3.34,0,0,1,.86,3.11,80.32,80.32,0,0,1-6.38,11.1C60.23,31.14,57.89,31.59,56,32.57Z"/><path class="cls-2" d="M11.25,72.85c-3,0-4.76-1.55-6.07-3.85-1.57-2.75-3-5.52-6.29-6.78a2.45,2.45,0,0,1-1.08-3.72,2.55,2.55,0,0,1,4-.86,25.09,25.09,0,0,1,4.83,4.88c2.13,3,4.16,5.69,8.41,5.23.59-.06,1.84.89,1.81,1.32a3.36,3.36,0,0,1-1.23,2.51A20.55,20.55,0,0,1,11.25,72.85Z"/><path class="cls-2" d="M130.28,85.17c-.13,2.63-1,3.88-2.92,3.51a8.37,8.37,0,0,1-3.9-1.67c-3.28-2.94-4.33-7.13-5.32-11.19-.22-.91.78-2.37,1.62-3.14.29-.27,1.93.6,2.69,1.25a12.89,12.89,0,0,1,2,2.64c1.24,1.8,2.47,3.61,3.69,5.43Z"/><path class="cls-2" d="M29.53,127.17c-5.89.08-10.41-4-10.32-9,0-1.09,1-2.17,1.48-3.25,1,.7,2.69,1.18,3,2.13,1,2.84,3,3.95,5.76,4.31a12.06,12.06,0,0,1,3.86,1.29,2.32,2.32,0,0,1,1.06,1.82c-.05.56-.81,1.26-1.42,1.53A29.94,29.94,0,0,1,29.53,127.17Z"/><path class="cls-2" d="M120,107a4.87,4.87,0,0,1,3.14-4.54,16.82,16.82,0,0,0,3.66-1.82c1.84-1.4,2.76-.33,2.72,1.19a6.4,6.4,0,0,1-1.7,4c-1.21,1.24-2.06,2.11-1.11,3.92.87,1.64.62,3.26-1.23,4.13s-3-.35-3.66-1.82S120.63,108.67,120,107Z"/><path class="cls-2" d="M27.92,99.86c-.71,1.51-1.22,4.14-2.18,4.32-2.5.47-2.08-2.31-2.64-3.82-.67-1.78-1.18-3.64-3.65-2.75-1.68.61-2.66.19-3.12-1.46s.34-2.82,1.88-3.42C23.06,90.82,27.56,94.21,27.92,99.86Z"/><path class="cls-2" d="M138.11,33c-.55-.55-2.19-1.48-2.6-2.8-.68-2.18,1.26-2.78,3-3.28,1.54-.44,3-1.23,4.52-1.63.93-.24,2.36-.42,2.88.08a3.88,3.88,0,0,1,1,3.08C146.4,31,142.58,33.1,138.11,33Z"/><path class="cls-2" d="M52.65.5a29.68,29.68,0,0,1,2.11-3.93A2.87,2.87,0,0,1,57.09-4.6a3,3,0,0,1,1.83,2.13,41.36,41.36,0,0,1-1.07,7.72c-.1.42-1.83.89-2.58.64C53.22,5.21,52.6,3.43,52.65.5Z"/><path class="cls-2" d="M139.71,91.33a23.71,23.71,0,0,0,.74-3.75c.1-2.43.06-4.88-.07-7.31-.07-1.35-.67-2.69-.6-4a2.77,2.77,0,0,1,1.54-2,3,3,0,0,1,2.53.59c2.73,2.47,3.74,9,2.05,12.3-2,3.83-1,6.82,2.75,8.63q3.86,1.85,2.34,4.43c-1.1,1.86-3.08,2.12-5.36.56C142.33,98.5,139.66,95.81,139.71,91.33Z"/><path class="cls-2" d="M149.74,125.91c.08,3-3,5.23-4.87,3.88a32.84,32.84,0,0,1-6.81-6.48c-2.07-2.76-1.23-5.83,1.59-7.86a25.93,25.93,0,0,1,5.3-3.12,5.67,5.67,0,0,1,3.91,0,3.51,3.51,0,0,1,1.64,2.75c0,.76-1.11,1.74-2,2.23-1.08.63-2.49.72-3.58,1.35a3.15,3.15,0,0,0-1.57,2.06,3.22,3.22,0,0,0,1.41,2.18c.88.62,2.11.73,3,1.3A10.88,10.88,0,0,1,149.74,125.91Z"/><path class="cls-2" d="M152.85,40a6.92,6.92,0,0,0,6.28-1.87,4.53,4.53,0,0,1,1.35-.73c1.69-.73,3.46-1.15,4.46.87.9,1.83-.53,3.06-1.89,3.68-3.09,1.4-6.35,2.38-9.46,3.73a16.54,16.54,0,0,0-4.86,2.93c-.95.9-1.13,2.57-3,1.58s-2.54-2.29-1.92-4.22A8.62,8.62,0,0,1,152.85,40Z"/><path class="cls-2" d="M155.17,72.85c-3,0-4.76-1.55-6.07-3.85-1.57-2.75-3-5.52-6.29-6.78a2.45,2.45,0,0,1-1.08-3.72,2.55,2.55,0,0,1,4-.86,25.09,25.09,0,0,1,4.83,4.88c2.13,3,4.16,5.69,8.41,5.23.59-.06,1.84.89,1.81,1.32a3.36,3.36,0,0,1-1.23,2.51A20.55,20.55,0,0,1,155.17,72.85Z"/><path class="cls-2" d="M34.84,145.11c-1.33-.05-3.39-.65-3.85,0-1.19,1.57-1.62,3.7-2.45,5.56-.46,1-.89,2.32-1.74,2.9-1.95,1.33-4.46-.25-4.37-2.81.18-5.07,2.76-9.17,6.05-12.75.59-.64,2.69-.5,3.71,0,1.71.88,3.07,1.23,4.75.08a2.58,2.58,0,0,1,4,.94c.92,1.54,1,3.21-.83,4.21-1.63.87-3.38,1.52-5.07,2.27Z"/><path class="cls-2" d="M5,148.57c.08-.4.22-1.16.4-1.9.65-2.73,1.33-5.45,2-8.18.41-1.78.71-3.93,2.83-4.12a8.75,8.75,0,0,1,4.62,1.42c1.52.86,1.53,2.29.45,3.74-1.34,1.78-2.5,3.7-3.9,5.43-1.76,2.18-1.52,4.22.07,6.3A25.12,25.12,0,0,1,14,154.76a2.84,2.84,0,0,1,0,2.53,2.78,2.78,0,0,1-2.45.36A9.75,9.75,0,0,1,5,148.57Z"/><path class="cls-2" d="M52.65,140.36a29.68,29.68,0,0,1,2.11-3.93,2.87,2.87,0,0,1,2.33-1.17,3,3,0,0,1,1.83,2.13,41.36,41.36,0,0,1-1.07,7.72c-.1.42-1.83.89-2.58.64C53.22,145.07,52.6,143.29,52.65,140.36Z"/></pattern></defs><title>mid</title><polyline class="cls-3" points="310.96 1.11 410.35 227.08 149.86 341.65 35.28 81.16 217.28 1.11"/><polyline class="cls-4" points="278.49 1.11 374.29 218.92 113.8 333.5 -0.78 73 165.2 0"/><polygon class="cls-5" points="459.82 109.37 275.31 172.36 422.11 300.65 459.82 109.37"/><polyline class="cls-1" points="353.95 44.87 353.95 45.5 353.61 45.84"/><path class="cls-6" d="M89.82,108.72c.29.07.34-.41.39-.63C89.87,108.23,89.57,108.21,89.82,108.72ZM99.31,96c.32-.07.51-.2.51-.41A1,1,0,0,0,99.31,96Zm9.35-13.66c-.07.12,0,.07.07.15Zm1.56-2.93V78.08l-3.64.66-6,1.93-6.22,3-4.49,3.2-1.07,1.07V89l-1.29.44-.85-1.07-.85.85-2.59,7.71L81.94,98V93.3L79.57,95l-1.49,2.37-.88,2.37-.85,3.86.85-.85.22.85-.22.63-.85-.41v.85l-.63,7.08-1.07,3.2H74l.2,4.51.15.61a7.5,7.5,0,0,1,1.78-1.59v-.1l.12,0c.22-.17.37-.29.37-.41l.44.2a3,3,0,0,1,1.56-2.51c0,.07,0,.29.27.17a1.84,1.84,0,0,1,.71-1.71l.1.12,1-1.27c1.1,1,1.17-2.66,2.68-2-.12-.51.56-1.49.78-2,0,0,.1,0,.22,0-.17-1,1.37-1.17,1.76-1.76.15-.44-.15-.46-.46-.49,1-.24,1.1-2.29,1.51-2.37.46-.44.56.2.93.27.54-.81-1.1-.73.2-1.34,0,.17-.2.41,0,.39.41-.29,2.24.15,2.32-.44l-.39.07c.32-.93,2.29-.83,1.66-1.59l-.27-.15v.46l-.85-.63.85-.85v.85c1.27-.68.22-.56,1.61-1.37l0,.07c.39-.59,1-.49.73-1.22l-.24.12a12.61,12.61,0,0,1,1.22-1.34c0-.12.22-.51.41-.49-.44-.44,1.12-1.71,1.42-2-.39.59,0,.51.32.54-.1-.63,0-.88.68-1.07-.51-.56-1-1.17-.34-2,0,.2-.15.44,0,.46s.22-.29.24-.39c.2,0,0,.37.32.44,0-1,.83-1,1.34-2,0,.41.24.27.54.37-.59-.63,1.54-.63.44-1,1.9-1.15,3.61-4,4.68-4.15.39,0,.39-.76.63-1l.24.27c.17-1.22.34-.76.63-2.12,0,.66.29.63.9.49l0-1.12.56.24a1.32,1.32,0,0,1,.68-.85c-.22-.68.66-1.59.54-2,.83.24.51-.88,1.24-.59a.91.91,0,0,1,0-.24ZM86.65,96.3l-.85-.63.85-.85.44.85Zm.85-2.78-.85.85V90.74h1.51Zm1.29,1.29-.44-.22V93.08l.44-.85ZM99.5,85.37l-1.07-.63,1.07-.88Zm1.71,2.15-.41-.66.41-.85.88.85ZM116.44,169l-.63,1,.63.44.44-.63Zm0,0-.63,1,.63.44.44-.63ZM89.82,108.72c.29.07.34-.41.39-.63C89.87,108.23,89.57,108.21,89.82,108.72Zm7.52,6.66c.32.07.34-.44.41-.63C97.41,114.9,97.09,114.87,97.33,115.38Zm2-19.42c.32-.07.51-.2.51-.41A1,1,0,0,0,99.31,96Zm7.54,6.66a.31.31,0,0,1,.15,0l0-.07.17,0s0,0,0,0a.25.25,0,0,0,.12-.24A.93.93,0,0,0,106.85,102.62Zm1.81-20.33c-.07.12,0,.07.07.15ZM116.19,89c-.1.12,0,.07.07.15A.21.21,0,0,1,116.19,89Zm.24,80-.63,1,.63.44.44-.63ZM89.82,108.72c.29.07.34-.41.39-.63C89.87,108.23,89.57,108.21,89.82,108.72ZM99.31,96c.32-.07.51-.2.51-.41A1,1,0,0,0,99.31,96Zm9.35-13.66c-.07.12,0,.07.07.15ZM89.82,108.72c.29.07.34-.41.39-.63C89.87,108.23,89.57,108.21,89.82,108.72ZM99.31,96c.32-.07.51-.2.51-.41A1,1,0,0,0,99.31,96Zm9.35-13.66c-.07.12,0,.07.07.15ZM89.82,108.72c.29.07.34-.41.39-.63C89.87,108.23,89.57,108.21,89.82,108.72ZM99.31,96c.32-.07.51-.2.51-.41A1,1,0,0,0,99.31,96Zm9.35-13.66c-.07.12,0,.07.07.15Zm15.49-5.15a3.68,3.68,0,0,0,.66-.78H122l-1.29.85-.85,1.29-.22,1.29h-.85l-2-1a.58.58,0,0,0,.15.22l-1.27,1.17c.12-.2.46-.78,0-.78-.46.59-.32.22-.83.44a7.9,7.9,0,0,0,0-1.29l-1,.27c.17.63.39,1.17.46,1.44-.54.39-1.24-.54-1.29-.78-.9.93.34,2-.66,2.9l.51-.22c-.12.32-1,1-.81,1-.37,0-1-.27-1-.61l0,1.54c0-.2-.71-.71-.78-.85-.32.29.17,1.17.51,1.17a5.23,5.23,0,0,1-1.71.37c-.12.24.73.61,1,.54a1.63,1.63,0,0,1-.81,1c.37-1-1.37-1.56-1.76-2.15l.61,3.42a7.12,7.12,0,0,0-.71-.93c.49.68-1.1,2.61-2,3.46l.12-.15c0-.29-.59,0-.85.44l0,0c-.93.2.24,1.56-.83,1.71.56-.51.42-.83.15-1-.2.63-1.39,1.51-.46,1.9-.41.17-.56.51-.9.17L102,94.72c0-.15-.15-.41-.49-.12.66-.54.54-1.76,1.32-1.68-.44-.39-.88-.37-1-1-.88,1.42-.73,2.76-.9,4l-1.27.81.15.22-.66-.27c0,.24,0,.41,0,.41s-.12-.12-.15-.24a1,1,0,0,0-.12.39,1.81,1.81,0,0,1-.54-1.1l.56,0c-.07-.44-.2-.83-.63-.68a.83.83,0,0,1,0,.24c-.07-.29-.15-.51-.32-.49l-.49,1a4.24,4.24,0,0,1,.73-.07c-.12.81-.24,1.76.51,1.61l-.85.37a7.1,7.1,0,0,1-.56,2.2c-.22-.1-.17-.49-.44-.44,0,1.17-2.07,1-1.71,1.61-.34.63.24.61.1,1.07,0-.07-.15-.2-.22-.12v.73c-.27,0,.07-.59-.49-.27A3.94,3.94,0,0,1,93.11,105c-.73,1,1.07.24.32,1a2.3,2.3,0,0,0-.73-.2l.17,1.93H91.57l.07-.9c-.32.44-.51.81-.85.49a1,1,0,0,1-.56.81c-.29.81,1.24.39,1.61.39-.85.32-1,.9-1.88.76l.34-.66c-1.56.66-.29,1.66-1.73,1.32.39-.34.56-1,.1-1l-.27.78c-.17,0,.2-.39-.17-.27a7.42,7.42,0,0,0-.07,1.07l0,0-.73,1c0-.12-.07-.2-.2-.07l-.37.88c.07-.32-.24-.22-.59,0-.9.73.41,1.61-.63,1.85.1-.1,0-.15.15-.24l-.51.17c.9.93-1.68,2.1-.78,3-.83.15-.27-.17-.17-1.2l-.73.27c.15-.24.39-.37.49-.66-1,.32-1.07,1.42-1.15,2-.37.15-.54-.85-1,0-.76,1.2.88.41.44,1.15h-.9c-.34,1.15-1.22,1.44-1.88,2.07a.52.52,0,0,0-.07.39c-.85.54-.85,2-1.51,2.34,0-.22-.59,0-.76,0l-.49,1c.1-.41-.15-.63-.34-.9-.22.32-.19.61-.34.85,0-.22,0-.44-.27-.39l-.12.39.49,1.07.88.41.63-.2.22,1.93.85,2.15c.46-.93,2.29-1.51,2.81-2.76a.37.37,0,0,0,0,.27c.59-1.46,2.56-2.17,2.59-2.61l.44.2a3,3,0,0,1,1.56-2.51c0,.07,0,.29.27.17a1.83,1.83,0,0,1,.71-1.71l.1.12,1-1.27c1.07,1,1.17-2.66,2.68-2-.12-.54.56-1.51.76-2a.36.36,0,0,0,.24,0c-.17-1,1.37-1.17,1.76-1.76.15-.46-.17-.46-.49-.49,1-.24,1.12-2.29,1.54-2.37.46-.44.56.2.93.27.54-.81-1.1-.76.2-1.34,0,.17-.2.41,0,.39.41-.29,2.24.15,2.32-.44l-.42,0c.32-.9,2.32-.81,1.66-1.56l-.39-.24c1.49-.76.32-.61,1.76-1.44l0,.07c.39-.59,1.07-.49.76-1.22l-.24.1a15.36,15.36,0,0,1,1.22-1.32c0-.12.22-.51.41-.49-.44-.44,1.12-1.71,1.39-2-.37.59,0,.51.34.51-.1-.61,0-.85.68-1-.51-.56-1-1.17-.34-2,0,.22-.15.46,0,.49s.24-.29.27-.39,0,.37.32.44c0-1,.81-1,1.34-2,0,.39.24.27.54.37-.59-.63,1.54-.63.44-1,1.9-1.15,3.59-4,4.68-4.15.37,0,.39-.76.63-1l.24.29c.17-1.22.34-.76.63-2.12,0,.66.29.63.9.49l0-1.15.56.27a1.32,1.32,0,0,1,.68-.85c-.24-.68.66-1.59.51-2,.85.24.51-.88,1.27-.59a1.42,1.42,0,0,1,.07-.54c-.37-.1-.71-.29-.34-.44,0,0,0,0,0-.07l.44.2a4.64,4.64,0,0,1,.49-.81.92.92,0,0,1-.39.12,3.24,3.24,0,0,1,.44-.17l.1-.07s0,0,0,.07a.73.73,0,0,0,.49-.56c1.27-.39,1.07-2.49,2.51-2.9-.15.07-.27.22-.22.34.71-.85,1.93-1.24,2.12-2l-.34-.24a8.65,8.65,0,0,1,1.15-1.78Zm-35.36,40.8-.44-.63.44-.85.85.85Zm3.22-3-.44-.85.44-.85.63.85ZM113.44,84.3h-1.07v-.44h1.07Zm6.22-1.49-.63-.88.63-.85.44.85ZM115.8,78.3l-.07,0a1.15,1.15,0,0,0,.39.81l.22-.56Zm-7.15,4c-.07.12,0,.07.07.15ZM99.31,96c.32-.07.51-.2.51-.41A1,1,0,0,0,99.31,96Zm-9.49,12.76c.29.07.34-.41.39-.63C89.87,108.23,89.57,108.21,89.82,108.72ZM108.65,82.3c-.07.12,0,.07.07.15ZM99.31,96c.32-.07.51-.2.51-.41A1,1,0,0,0,99.31,96Zm-9.49,12.76c.29.07.34-.41.39-.63C89.87,108.23,89.57,108.21,89.82,108.72ZM108.65,82.3c-.07.12,0,.07.07.15ZM99.31,96c.32-.07.51-.2.51-.41A1,1,0,0,0,99.31,96Zm-9.49,12.76c.29.07.34-.41.39-.63C89.87,108.23,89.57,108.21,89.82,108.72ZM116.44,169l-.63,1,.63.44.44-.63ZM97.33,115.38c.32.07.34-.44.41-.63C97.41,114.9,97.09,114.87,97.33,115.38Zm9.52-12.76a.31.31,0,0,1,.15,0l0-.07.17,0s0,0,0,0a.25.25,0,0,0,.12-.24A.93.93,0,0,0,106.85,102.62ZM116.19,89c-.1.12,0,.07.07.15A.21.21,0,0,1,116.19,89Zm.24,80-.63,1,.63.44.44-.63Zm0,0-.63,1,.63.44.44-.63ZM97.33,115.38c.32.07.34-.44.41-.63C97.41,114.9,97.09,114.87,97.33,115.38Zm9.52-12.76a.31.31,0,0,1,.15,0l0-.07.17,0s0,0,0,0a.25.25,0,0,0,.12-.24A.93.93,0,0,0,106.85,102.62ZM116.19,89c-.1.12,0,.07.07.15A.21.21,0,0,1,116.19,89Zm.24,80-.63,1,.63.44.44-.63Zm0,0-.63,1,.63.44.44-.63ZM97.33,115.38c.32.07.34-.44.41-.63C97.41,114.9,97.09,114.87,97.33,115.38Zm9.52-12.76a.31.31,0,0,1,.15,0l0-.07.17,0s0,0,0,0a.25.25,0,0,0,.12-.24A.93.93,0,0,0,106.85,102.62ZM116.19,89c-.1.12,0,.07.07.15A.21.21,0,0,1,116.19,89Zm.24,80-.63,1,.63.44.44-.63Zm0,0-.63,1,.63.44.44-.63ZM97.33,115.38c.32.07.34-.44.41-.63C97.41,114.9,97.09,114.87,97.33,115.38Zm9.52-12.76a.31.31,0,0,1,.15,0l0-.07.17,0s0,0,0,0a.25.25,0,0,0,.12-.24A.93.93,0,0,0,106.85,102.62ZM116.19,89c-.1.12,0,.07.07.15A.21.21,0,0,1,116.19,89Zm.24,80-.63,1,.63.44.44-.63Zm0,0-.63,1,.63.44.44-.63Zm0,0-.63,1,.63.44.44-.63Zm0,0-.63,1,.63.44.44-.63Zm0,0-.63,1,.63.44.44-.63Zm0,0-.63,1,.63.44.44-.63Zm0,0-.63,1,.63.44.44-.63Zm0,0-.63,1,.63.44.44-.63Zm0,0-.63,1,.63.44.44-.63Zm0,0-.63,1,.63.44.44-.63Zm0,0-.63,1,.63.44.44-.63Zm0,0-.63,1,.63.44.44-.63Zm0,0-.63,1,.63.44.44-.63Zm0,0-.63,1,.63.44.44-.63Zm0,0-.63,1,.63.44.44-.63Zm0,0-.63,1,.63.44.44-.63Zm0,0-.63,1,.63.44.44-.63Zm1.07,15s0,0,0,.07l.15-.07Zm-1.07-15-.63,1,.63.44.44-.63Zm39-29-1.27-4.93L153.11,133,152,131.24l-1.51-1.71-.85-.63v6.86l.63,1.07-.85,1.07-.41,1.93-.22,2.78v3.64l-.22,3.22v5.37H148l-.85-2.15V138.1l-.44-2.15-.22-2.34.85-5.59-.41-2.56-1.71-1.71-1.29-.44-.63,2.37.19,1.71h-1.07l-5.12-6-2.15-1.93-4.29-4.29-4.71-3.86L123.73,110l-4.51-1.93h-2.34l-1.93.44.63-.85-1.49-1.73-1.73-2.34-.63-1.93.42-1.07,1.29-.85,6.86-.66,1.07-.41.85-1.07L122,96.3h1.49v1.51l2.59,4.07L128,104l7.49,6,4.51,2.15h1.71l-.22-1.27-.85-.88h1.51l.85.44,1.07,1.93.85.22,1.49-.85-1.07-1.07.44-1.73,1.29-1.27L149,106.6l3.42-3.22.66-2.78.2-4.29-1.07-.41-.85-1.07L152,93.3V90.08L151.82,89h-2.15V87.3l-.41-2.78-.44-1.29-1.07-.63-1.29.22-.85,3.42-.63.85-.66-.63V85.37L145,84.3l-1.07-2.56L142.38,80l-1.93-.63-2.78-.22-1.71.22.22-1.07-2-1.07-5.59-.61c0,.59.15,1.22.49,1.29-.46.56-.73.39-1,1,1.12-.34-.2.07.22.59-.37.54-.39,0-.68.1,0,.12,0,.46.07.59-.61,0-.44-1.42-1.17-1.46a9.11,9.11,0,0,0-2,.66,5.65,5.65,0,0,0,2.81,2.15c.27.29-.71.2-.9.39-1,.2-.49,1.24-1.1,1.59l.07-.61c-.2,0-.71.85-.63,1.12-.17-.12-.49-1.12-.88-1-.9.85-.78,2.49-.24,2.85l.73-1.83c.44.29-.49,1.34,0,1.71l-1.27,1.17c.12-.2.44-.78,0-.78-.46.56-.32.22-.83.44a21.22,21.22,0,0,0-.46-4.37l-.32.9-.39,0c-.44,1.15.41,3.29.63,3.88-.54.41-1.24-.51-1.29-.78-.93,1,.34,2-.66,2.93l.51-.22c-.12.32-1,1-.81,1-.37,0-1-.27-1-.61l0,1.56c0-.22-.73-.73-.81-.88-.29.29.2,1.17.54,1.17a5.22,5.22,0,0,1-1.71.37c-.15.24.73.61,1,.54a1.57,1.57,0,0,1-.83,1c.39-1-1.34-1.56-1.73-2.15l.59,3.42a10.17,10.17,0,0,0-.68-.93c.49.68-1.1,2.61-2,3.46l.1-.15c0-.29-.54,0-.83.41-1,.22.22,1.61-.85,1.76.54-.51.39-.83.12-1-.17.66-1.37,1.54-.46,1.93-.39.17-.54.51-.88.17l-.59,1.51c0-.15-.15-.41-.49-.12.66-.56.54-1.76,1.29-1.68-.42-.39-.85-.37-1-1-.88,1.42-.71,2.76-.88,4l-.61.39.41,1.29.22,4.93-.85-.63-.63-2.37-.39-2.44a.37.37,0,0,1-.12-.24,1,1,0,0,0-.12.39,1.8,1.8,0,0,1-.54-1.1,4.38,4.38,0,0,1,.54,0c0-.44-.17-.83-.61-.68,0,.07,0,.15,0,.24-.07-.29-.15-.51-.32-.49l-.49,1a4.23,4.23,0,0,1,.73-.07c-.12.81-.24,1.76.51,1.61l-.85.37a7.88,7.88,0,0,1-.56,2.2c-.22-.12-.17-.49-.44-.44,0,1.17-2.07,1-1.71,1.61-.34.63.24.61.07,1.07,0-.07-.12-.2-.22-.12l0,.73c-.27,0,.07-.59-.49-.29a4.19,4.19,0,0,1-1.22,2v5l-.44,2.15-.63,7.71-.22,1.07V113.72l-.29-.32c-.34.41-.54.83-.88.51a1,1,0,0,1-.56.81c-.32.81,1.24.39,1.59.39-.83.29-1,.88-1.85.76l.34-.66c-1.56.63-.32,1.66-1.73,1.32.37-.34.54-1,.1-1l-.27.78c-.17,0,.2-.41-.17-.27a5.06,5.06,0,0,0-.07,1.07l0,0-.81,1.1c.17-.2,0-.39-.15-.2l-.34.88c.07-.32-.27-.22-.59,0-.9.73.41,1.59-.63,1.85.1-.1,0-.15.15-.24l-.51.17c.9.93-1.68,2.1-.78,3-.83.15-.27-.17-.17-1.2l-.73.27c.15-.24.37-.37.49-.66-1,.32-1.07,1.42-1.15,2-.37.15-.54-.85-1,0-.76,1.22.88.44.41,1.17h-.9c-.32,1.15-1.2,1.44-1.85,2.07a.78.78,0,0,0-.1.39c-.85.54-.83,2-1.49,2.34,0-.22-.59,0-.76,0l-.49,1c.1-.41-.15-.63-.34-.9-.24.32-.2.61-.34.85,0-.22,0-.44-.27-.39l-.44,1.44c.12,0,.24-.12.34-.2-.22.24-.54,1-1.1,1.12-.07-.12-.07-.34-.17-.46.61,0,.49-.44.41-.81-.59.76-.22.12-.73.27-.44.51-.24,1.07.12,1.15a6.5,6.5,0,0,0-.56.44l.54.85,1.93,2.15,1.93,1.93L87.72,140l2.15.44H92v-1.93l.63.85.85,2.15L95.21,143,98,144.32h1.07l.41-2.56v-2.59l1.29,4.93.41,2.15,1.29,1.51,1.93.63,3.22-.63,2.78,6.86,1.07,3,.22,2.56-.63,1.73-2.15.2h-7.73l-1,3-1.07.44-2.15-4.29-1.51-2.34-.85-.88-1.29-.41-1.27.22v-1.73h.85L92,146.47v-1.29l-1.51,1.29.63-2.15-1-1.29-2.37-.41-6,.63-5.59,1.29-1.49.63-.44-1.71-1.07-1.07-.12,0-.29,0a.52.52,0,0,0-.1.56c-.71.2-.59.93-1.1,1.15.1-.1,0-.17.15-.27a1.77,1.77,0,0,1-1.2.63l-.41.9-.15.34-.41.9-2.56,6.42-2.15,6.66-1.29,5.34L68,172l4.71,5.56,1.71,1.07,2.15,1.07,1.93.63,2.59.22,2.78-.22,2.78-.85-.85,2.59-.22.63.22,1.29,3.44.46,1.27.17,1.29.63,2.37.22h10.27V176.7h3.22l-1.49,1.71.85.63-.85.66-.44-.66-.22.66.44,2.15.12,2.2.1,1.44H110l2-.12c.32-.41.66-.76,1.12-.63-.12-.34.68-.63.85-1l.29.15a2,2,0,0,0,.66-.88c1.15-.34,1.27-1.44,1.9-2.07l.07,0,.41-.81c0,.37,0-.27.2-.41a1.19,1.19,0,0,1,.81-.71l.39-.41c-.24.61.37.27.66.46l0-.46c.22,0,0,.37.29.22,0-.32.49-.83.37-1.24a.54.54,0,0,0-.34,0,.45.45,0,0,0,0-.17c.37-.29.15-.27,0-.34.76,0,.68-.49,1.42-.34-.9-.1.78-.88,0-1.1.68.07.2-.17.73,0-.49.29-.44,1-.54,1.54l.51-.1c.17.34,0,.46-.32.56s-.37.12-.44.22a.43.43,0,0,1,.37-.24l-.37-.22c-.56.32-.59.93-.68,1.42.39-.2-.1.56.34.56l.17-.27c.22,0,.12.34.12.56-.93.54-1.93,2.12-2.46,2.15a.76.76,0,0,0,.41-.66l-.46.22c.24-.32.76-.24,1-.78-.29-.15-.34-.73-1-.68-1.07.49,0,1.2-.93,2.1,0,.17-.22-.54-.54.1a2.17,2.17,0,0,0,.1,2.1l.22-.1c.1-.41.29-.9.66-.73a2.34,2.34,0,0,1-.17.49l1.54-.71L124,179.7l1.93-1.71,4.49-5.59.85-.41v4.71l.44,1.29,1.07.2,3.44-1.49,1.71-2.15,1.49-6.22,1.29-1.49,1.71,1.71,1.07,1.93.22-1.07,1.71-1.07-.85-.85-.41-1.07.85-3.22,1.27-2.34,1.51-1.07.22,2.15v3.86l3-2.78,1.27-1.73,2-4.71,1.27-5.37.44-5.56Zm-6.86-36.21-.41-.88.41-.63.85,1.29Zm1.07-13.08v1.07H148.6ZM148,98l.41,1.07-.41.66-.66-.88Zm-1.51,1.73,2.15,1.49-1.07.22L146,101l-.66-1.27ZM145,89v1.73L143.89,89Zm-1.51-5.15v.44h-1.07ZM140,108.53l.41.63L140,110l-.66-.63Zm-3-28.72.41.63-.41.63-.85-.63ZM135.52,86l.44-.63,1.07.85-.44,1.07-1.07.22Zm0,2.37v1.71l-.85-.85ZM134.45,107l.85.66-.85.85Zm-4.71-4.27-.44-.66v.22l-1.07-.85,1.07-.85v1.49l.44-.85.63.85Zm-.44-15.66.44,2.81-.44,2.34L128,91.81V87.08ZM128,82.15l.85.66-.85,1-.44-.85ZM122.88,93.3H122l.85-1.07ZM122,90.08l.63.85-.63.88-.44-.88Zm-5.59,5.81-.85,1.49-.63-1.49ZM92.87,136.83,92,135.76h.85Zm.63-4.29-.41-.44.41-.85.85.85Zm12.66,12.22v-1.07l1,1.49Zm1-14.15v-1.07l.44-.63Zm.44-15.66-.44-1.27v-1.51l.88.22.2,1.29ZM71,168.33v1.51l-1.07-.66ZM71,173v-1h.41Zm6.64-26.57v1.07l-.44-.63Zm-1.93,9v1.71l-.85-.85ZM76.13,172l.88.85-.88.85-.41-.85Zm0,4.71v-.44h1.51Zm1.51-3v1.07H77.2V173.7Zm-.44-2.15v-6.44l1.29,2.15v2.37Zm.44,8.15L77.2,179l.44-.85.85,1.51Zm0-1.93.22-.44.85-.63Zm0-14.37-.44-.85.44-.22,1.07.22Zm0-2.15-.44-.85.44-2.56,1.07,3.2ZM77.2,155l.44-.85.85.66-.85.63Zm.88-4.71-1.29-.41-.66-.44,2.59.63Zm1.27.85-.41-.85.41-.85.66.85Zm4.93-1.71.44.85-.44.85-.41-.85Zm0,29.57-.63.66v-4.51l.63,2.59Zm-.63-6-1.07-1,1.07-1.51h.63Zm.22-8.13.41-.88.44,1.73h-.44Zm1.07,10.27-.44-.63.44-.85.41.85Zm0-21-.44-.63.44-.85.41,1.27ZM104,172v1.71l-.88-.85Zm-3.22-4.51V169l-.85-.66Zm-1.29.85V170l-1.07-.85Zm.44,4.51-.44.85V172Zm-5.37,9.86v1.49l-.85-.63ZM92,158.91l.63,1.49H92Zm1.49,3.42v.22L92,162.11Zm-1.93-14.15v1.73l-.85-.88Zm-2.78,34.94-.44-.85.1-.2.34-.66.85.85Zm12.86-.63-.83,2.12,0,0H99.72l-.15-.15-.71-.71-.66-1.07.17-.63.49-2,.85-2.34h1.07l.22,2.56.59,2Zm3.86-15.64.66-1.73,1,.88-.41,1.27-1.29.22Zm-1.07,4.71,1.07-1.07V169h1.71v1l-1.49,1.51Zm2.78,3.22-.85-.85.85-.88.22.88Zm1.29-7.3h-.85l.85-.63Zm.66,10.3-.44-.66.44-.85.85.44Zm7.71-25.3-.44.63-.63-.63.63-.85Zm0,3-.44.63-.63-.63.63-.63Zm-1.71-44.8.41-.66.22,2.59-.22,1.07-.41-.85Zm.41,10.49.63.85-.63.66-.41-.66Zm-2.15,12.44.85,1.07-.2,1.71-.66,1.07Zm-.85-2.15.85-.85.44.63-.44.85Zm1.93,16.08-1.07.63v-1.71h.66Zm-1.07-24.23.85.63-.85,1.73-1.07-.85Zm-.41,18-.66-1.29.44-1.07,1.29-.41v5.15h-.66Zm.41,14.15v-3.86l.66-1.71.85,4.27-.22.85Zm1.51,4.93-.66-.63.66-.85.41.85Zm1.49,19.08-.63-.85.63-.85.44.85Zm.66-4.29-.66-.41h.66Zm-.22-4.71h-1.29V170l.85-1.71.85,1.07Zm1.93-48.87-.44-.66.44-.85.63.85Zm1.49,4.07-.41-.66.41-.85.88.66Zm0-2.37v-1.71l1.07,1.71Zm10.52-5.37v1.73l-1.07-.85Zm0,13.3v.85h-1.07v-1.49l.63.85-.63.63Zm-.44-4.07-.63.85-.44-.85.44-.85Zm-1.07-3v1.51l-1.07-.66ZM121.59,113l.44-.85.63.85-.63.66Zm1.29,58.54-.66-.85.66-.66.41.66Zm0-9.44-.66-.85.66-.85.41.85Zm.63-38.8-1.07-.85-.41-1.29.63-.85,2.37.44v.85l-1.51-.44Zm.85,28.3-.63-.85.63-.85.44,1.71Zm.66,2.56v1.29l-.44-.63Zm0,24-.44-.63-.22.22-.63-.66.63-.85.44.85.22-.41.85.63Zm0-30-.44-.63.44-.63.85.63Zm1.49-10.71v1.07h-.41Zm0,7.71v-1.49l.85.85Zm1.51-8.34v-2.59l1.93.44.85.63-1.07,1.07-.44,1.07Zm2.78,31.5h-1.07l1.07-.85Zm0-14.37.41-.85.88.85-.88.88Zm1.49,12.88-.85-.85.85-.88Zm0-4.73-.85-.85.85-.85Zm.44,6.22v-1.49l.85.63Zm1.71.66v-1.51l.85.85Zm0-5.37-.41-.85.41-.66.85.44Zm4.73-8.78-.44-.88.44-.85.63.85Zm0-12.66-.44-.85.44-.85.63.85Zm.2-15,.66-.85.41.85L140,128Zm1.29,37.94-.44-.63.44-.85.85,1.29Zm0-35.58-.44-.63.44-.88.85.88ZM142,154l.41-.85.88.85-.88.88ZM143.45,164l-.85-.63.85-.85Zm0-12.86L143,150.1l.41-.63Zm0-11.15-.85-.63.85-.85Zm-.63-7.49-1.07,1.71V132.1l1.07-.85-.44-1.71,1.29-.22.22.85Zm1.07,22.94v-1.29l.85.85Zm1.49-.63L145,154l.41-.85.85.85ZM116.44,169l-.63,1,.63.44.44-.63Zm0,0-.63,1,.63.44.44-.63Zm2.22,10c0,.1,0,.22-.17.34.1,0,.22,0,.27-.2S118.73,179,118.66,179Zm-.46.51-.07.07s0,0,.1,0S118.2,179.53,118.2,179.51ZM116.44,169l-.63,1,.63.44.44-.63Zm0,0-.63,1,.63.44.44-.63Zm0,0-.63,1,.63.44.44-.63Zm0,0-.63,1,.63.44.44-.63Zm0,0-.63,1,.63.44.44-.63Zm0,0-.63,1,.63.44.44-.63Zm0,0-.63,1,.63.44.44-.63Zm0,0-.63,1,.63.44.44-.63Zm0,0-.63,1,.63.44.44-.63Zm0,0-.63,1,.63.44.44-.63Zm0,0-.63,1,.63.44.44-.63ZM72.1,142.57a1.41,1.41,0,0,1-.12.34l.24-.37ZM116.44,169l-.63,1,.63.44.44-.63Zm0,0-.63,1,.63.44.44-.63Zm0,0-.63,1,.63.44.44-.63Zm0,0-.63,1,.63.44.44-.63Zm-.24-80c-.1.12,0,.07.07.15A.21.21,0,0,1,116.19,89Zm-9.35,13.66a.31.31,0,0,1,.15,0l0-.07.17,0s0,0,0,0a.25.25,0,0,0,.12-.24A.93.93,0,0,0,106.85,102.62Zm-9.52,12.76c.32.07.34-.44.41-.63C97.41,114.9,97.09,114.87,97.33,115.38ZM116.44,169l-.63,1,.63.44.44-.63Zm0,0-.63,1,.63.44.44-.63Zm-.24-80c-.1.12,0,.07.07.15A.21.21,0,0,1,116.19,89Zm-9.35,13.66a.31.31,0,0,1,.15,0l0-.07.17,0s0,0,0,0a.25.25,0,0,0,.12-.24A.93.93,0,0,0,106.85,102.62Zm-9.52,12.76c.32.07.34-.44.41-.63C97.41,114.9,97.09,114.87,97.33,115.38ZM116.44,169l-.63,1,.63.44.44-.63Zm0,0-.63,1,.63.44.44-.63Zm-.24-80c-.1.12,0,.07.07.15A.21.21,0,0,1,116.19,89Zm-9.35,13.66a.31.31,0,0,1,.15,0l0-.07.17,0s0,0,0,0a.25.25,0,0,0,.12-.24A.93.93,0,0,0,106.85,102.62Zm-9.52,12.76c.32.07.34-.44.41-.63C97.41,114.9,97.09,114.87,97.33,115.38ZM116.44,169l-.63,1,.63.44.44-.63Zm0,0-.63,1,.63.44.44-.63Zm-.24-80c-.1.12,0,.07.07.15A.21.21,0,0,1,116.19,89Zm-9.35,13.66a.31.31,0,0,1,.15,0l0-.07.17,0s0,0,0,0a.25.25,0,0,0,.12-.24A.93.93,0,0,0,106.85,102.62Zm-9.52,12.76c.32.07.34-.44.41-.63C97.41,114.9,97.09,114.87,97.33,115.38ZM116.44,169l-.63,1,.63.44.44-.63Zm0,0-.63,1,.63.44.44-.63Zm-.24-80c-.1.12,0,.07.07.15A.21.21,0,0,1,116.19,89Zm-9.35,13.66a.31.31,0,0,1,.15,0l0-.07.17,0s0,0,0,0a.25.25,0,0,0,.12-.24A.93.93,0,0,0,106.85,102.62Zm-9.52,12.76c.32.07.34-.44.41-.63C97.41,114.9,97.09,114.87,97.33,115.38ZM116.44,169l-.63,1,.63.44.44-.63Zm0,0-.63,1,.63.44.44-.63ZM108.65,82.3c-.07.12,0,.07.07.15ZM99.31,96c.32-.07.51-.2.51-.41A1,1,0,0,0,99.31,96Zm-9.49,12.76c.29.07.34-.41.39-.63C89.87,108.23,89.57,108.21,89.82,108.72ZM116.44,169l-.63,1,.63.44.44-.63Z"/><path class="cls-6" d="M252.35,97.38l-.64.86-.21-.86-1.5,4.07-.64,4.07.21,1.72-3.43,8.15L241,126.32l-4.07,9.22-.64,2.57h-.64v-1.29l.64-2.36-.64-2.14h-1.07l-.64,1.5h.64l.21,1.72-.21,2.79-.86,2.36-1.07,2.14-2.79,4.07-.86,1.93-.64,2.36v2.57h-.43l-.86,1.29-1.71,5.36-4.93,9.22h-.64v-1.72l-.43.21-1.07,1.72-1.29,3-2.14,6.22-.86,1.5V178.2l1.07-2.36H214v-5.36l-1.28.86-.86,1.5L211.4,175l-.64,8.36-.64,2.79-.86,2.57L208,191.27l-1.93,1.5-3,1.28,1.5,2.14-1.72,1.72-2.36,4.5-1.28,1.72-.64-.64-1.29-2.36.43-2.14-2.57,1.93.43-.21.43.43-.21,2.57-.64,3.64-1.72,4.72-4.29,5.57-3.86,4.07-4.07,3.43-2.36,1.5-4.5,1.93-2.36.21H159.52v-1.07h-1.71v-.64l-3.43-.64-6.86-.43-2.36-.43-2.57-.86L140,223.43l-2.79-2.14-2.14-3-.64-2.79.21-2.57,1.07-2.57L137,208l1.71-1.71,2.57-2.14h.64l1.29-1.72,2.79-.86,2.36.21.86,1.72.86-1.07,1.93-1.5,2.14-.86,2.57-.64h2.79v6.65l.43-.64,1.5-2.36,4.07-4.07,10.29-9,2.14-3,.21-1.5v-3.86l.21-2.57-4.07-20.79-.43-3.22-1.72-8.15-.21-2.36-.43-2.14v-1.72l-.21-1.07.21-.86h1.93v-5.57l1.07-.64-.86-2.57-.64.21-.64,4.5-.86,2.36h-1.29L160,113.88l-1.29-2.14L157,110l-3.65-2.79.64-1.07V104l-.21.43-1.5.86-2.57.86-6.22.86-3.43.21h-4.29l.86-.43.21-1.07V103l-1.07-4.72-1.29,2.14-.86,1.93-1.72-1.5-.43-1.93.21-1.93,1.07-2.14,1.93-1.93,4.5-4.29,5.57-3.65,9.86-5.57,2.79.21L164,77l2.79.21.43-1.5,1.93.64.64.86.64-.86,2.14-1.5,2.79-.64h2.36l1.5,1.07v2.36h2.14V74l3.86-.43,2.57.43,1.5,1.72v3l2.14-.43,1.07-2.14L196.4,80l1.5,2.14.86,2.14.64,1.93.43,2.14v2.36l-.64,2.79.64,1.07v5.14l.86,1.07.86-.64.43-1.07.21-3,.86-2.57.21.43,4.07,13.29,2.14,9.43.21,3.64-.64.86,1.07.64,1.07,2.14,1.29,4.72,1.07,2.14v-.21l.21-.86L220,117.53l3.64-8.79,1.07-3,.86-3.21.86-5.57-.21-2.36-.43-2.36-.86-2.14-1.5-1.93-1.72-.86V82.37l.86.86.21,1.5v1.93h1.72l-.21-1.93.64-3.43,1.5-2.36,2.14-2.14,2.14-1.5,2.36-.64,1.93.21,1.07.86.21,1.93,1.07.43.64-.43.64-2.79V72.72h7.93L247,74l1.28-.86,3,.64v.64h.86l1.07.64,1.5,2.36-.43,1.93,2.14-.64-.21,4.72-.64,2.79-4.07,11.15.21-.86ZM135.3,96.09l.43-1.5-.43.43Zm.43-2.57.86-1.07-.86-.43Zm0,118.55.86.21-.86-1.72Zm2.79,4.93.21.86.86-.86-.86-.86Zm3.43-123.48L143,94.59V92Zm.21,3.43.86.64.43-.21L143,96.09Zm.43,2.36.43,1.29V98.23Zm1.29,120.91.86.86v-1.71Zm.86,2.14.43.64.86-.64-.86-.86Zm.64-5.36.86.86.21-.86-.21-.86Zm2.36-9.65.64-1.28v-1.29l-.64-1.29-1.07.64ZM146.88,84.3l.86.64.43-.64-.43-.86Zm1.07,134.42.43.64.64-.64-.64-.86Zm.64-7.93.64.64h.43l-.43-1.5Zm.86,2.14.43.86.86-.86-.86-.86Zm.43-4.07H151v-.64Zm.21-2.14.86.64.43-.64-.43-.86Zm3.21-104,.21-.43V99.09l-.86-2.57h-1.07v.86l.43,2.79.64,2.14Zm0-9.86.64-1.93,1.72-2.36L154,86.66h-.64v.64l-.64,3.22V92Zm2.57,129.06.43.86.64-.86-.64-.86Zm1.5-12.22.86-1.93-.43-.21-1.5-.21-.21,1.5.21,3.22.64,3.21.86,2.57,1.07.43-1.5-2.14-.64-1.93v-2.36Zm2.14-118.34L161,90.3l-1.5-6.86-.64.64v4.07Zm-.43,127.77.43.64.86-.64-.86-.86Zm1.5-6.22.43.86.64-.86-.64-.86ZM161,93.52l.64-.64L161,92Zm0,129.27,1.07-2.36.64-2.79-.21-2.36-.43,2.36L161,219.36Zm.21-8.15.64.64.43-.64-.43-.86Zm1.29-125,1.07-1.07h-1.72Zm-.43-6.22.43.86V82.37Zm.43,3.86,1.07-.21-1.07-1.5Zm2.14,30,.43.21v-1.29Zm.43,4.72.43.86.86-.86-.86-.86Zm.43,93.25.86-.64-.86-.86Zm.21-118.34,1.07.64v-1.5Zm0,26.15,1.07.64v-1.5ZM166.81,92h2.57l1.29-.64.86-1.07h-3Zm0,113.84.86-1.07-.43-2.79h-.43Zm0,11.15.43.86.86-.86-.86-.86Zm.43-8.79.86-.43-.86-.86ZM169,81.08l.86.64v-1.5Zm0,2.14.86,1.07V82.37Zm2.57-3,.86-1.72L172,76.15h-.43l-.21,1.5-1.07,1.72Zm0,21.44.43.64.86-1.07-.86-.43Zm.43,10.07h1.5l2.57-1.28.64-1.72-.43-1.07-1.07-1.07,1.07,2.14h-1.07l-2.14-.43Zm0,16.72h1.5l-.21-1.93.86-.43,1.07.64,1.5,1.72.86-.86-.86-.64,2.57-3-.86-3.22-.64-.43-1.07,2.36-1.29,2.14-.86-.43v-1.5H172Zm.21-32.58.86.21V95Zm.86,29.37-.86-.21L173,124Zm-.86,101.83.86.64v-1.5ZM173,100.81l.43.43v-1.5Zm1.5-3.22,1.5-1.07V95.45l-.86-.86h-.64Zm.21,5.79.43,1.5.43-1.28-.43-1.29Zm0,37.09.43.64.86-.64-.86-.64Zm.43-22.94.86-1.07.21-1.93-1.07.43Zm.21,35.37.86.86.21-.21-.21-1.5Zm0,61.1.86.86.21-.86-.21-.86Zm.86-131.41.43.86.64-.86-.64-.86Zm0,111.26.43.86.64-.86-.64-.86Zm.43-50.59.86-.43,1.07-1.93.21-2.36v-2.79l-1.29-4.93-.86,1.07Zm.21-41.16.64.64.43-.64-.43-.86Zm.64,111,.64-1.72-.64.64Zm.21-64.74.43.64.86-.64-.86-.86Zm0,59.6.43.86L179,208l-.86-.64Zm.43-48,1.71.64,1.5,1.07.86-1.07v-1.29l-.86-2.57Zm.21-7.07.86.86.43-.86-.43-.86Zm1.07-69.67.43.86.64-.86-.64-.86Zm0,140.63.43.64.64-.64-.64-.86Zm.43-60.67h.86l-.86-.86Zm0,39.45,2.57-2.14,1.29-1.71.21-1.93-.21-4.29.21-3h-1.5L182,191.7l-.21,2.14v2.79l-.43,2.79-1.5.86Zm0,4.29h.86v-1.07h-.86Zm0,14.58,1.5-.43-.43-2.14-.21-2.36h-.86Zm1.29-63.24-.43.86-.64-.86.64-.86ZM180.1,172l.64.64.43-.64-.43-.86Zm0,12.22.64.64.43-.64-.43-.86Zm.86-80.39.43,1.07.86-1.07-.86-1.07Zm2.14,24.65.86-.86V117.53l-.21-1.5-.21-9-.43-1.5-.86.21-.86,1.93-.43,3,.43,5.14v7.07l.86.86.21,1.28V127Zm-1.5,52.31.86.86.43-.86-.43-.86Zm.86-2.36.64-.86h-.64Zm.21-40.52.43.86.64-.86-.64-.86Zm.43,35.8.43-1.28-.43-1.29ZM184,202l.64-1.71h-.86l-.64.64Zm-.64-51.66.64.86.43-.86-.43-.86Zm0,61.1.64.64h.21v.21l.43.86.64-.86-.64-.86-.21.43-.43-1.29Zm1.07-33.23-.43.86,1.07.21,1.07-.64v-1.07h-.64Zm1.07-78.89.64-1.07V96.09h-.64Zm1.71,53.38L186.11,149l-.64.43Zm-.86,2.36.86.64.43-.64-.43-.64Zm0,62,.86.86.43-.86-.43-.86Zm1.93-78.25,1.07-.64-2.14-1.72v1.72Zm-.86-57.24.43.86.64-.86-.64-.86Zm0,1.72.43.86.64-.86-.64-.86Zm0,62,.43.86.64-.86-.64-.86Zm1.29-54.88L190,87.51l.43-1.93-1.72,1.07Zm.64,26.15v-3.22h-.64v1.29Zm-.64,10.5h.86l1.07-.86.64-2.36-.43-1.07-2.14-.43ZM191,164.69v-2.36l-1.5.21-.86,1.07,1.72-.43Zm-2.14-81.46.43.86.86-.86-.86-.86Zm2.14-1.5v-1.5h-1.72Zm-1.72,11.79,1.07-.64V92l-1.07-.64Zm.21-9.22.86.64.43-.64-.43-.86Zm0,4.72.86.64h.43l-.43-1.5Zm0,14.15.86.86.43-1.29-.43-.43Zm1.5,40.09v-.43h-.64Zm.64,11.15h.86V152l-2.14.64ZM191,149l.86.43v-1.72Zm.21-4.93.64.64.43-.64-.43-.86Zm0,1.5.64.86.43-.86-.43-.86Zm0,59.38.64.86.43-.86-.43-.86Zm3.86-8.79,1.07-.64-1.72-1.72-1.93-.86-.64,1.07Zm-2.57-32.58.64-.86-.64-2.14Zm0,22.72.86-1.5h-.86Zm0,1.5H194v-1.07h-.64Zm0,22.72.64-.43.21-1.29h-.86Zm.21-85.54.64.86.43-.86-.43-.64Zm0,31.09.64.64.43-.64-.43-.86Zm0,24.65.64.86.43-.86-.43-.86Zm.21-47.59.43.64.43-.64-.43-.86Zm.64,71.17.43.86.86-.86-.86-.86Zm.43-27.44,2.14-1.5H194Zm.21-47.59.86.86.86-1.29-.86-.43Zm1.07-28.73.86.21V99.73Zm0,92.83.86.43v-1.07Zm.86-4.72.43.86.86-.86-.86-.86Zm1.5-23.37,2.14-1.72-2.57-1.07-.86.64.21,1.5Zm0-43.09.64-1.72h.86l.64-.86-1.5-4.72.86-.43.86-2.14-.21-2.36.43,1.07,1.07,2.14,1.07-.86V110l-.86-2.57-.21-2.57-.86-1.07-1.07.21-1.07,1.5.64.64-.64,2.14h1.5l-1.5,1.07-1.72,1.93v2.14l1.07,1.07Zm-1.07-12.43.86-.64-.86-.86Zm1.07,51,1.5-.21.64-1.5-.21-1.07-1.93-1.29.64-1.07-.64-.43-1.07,2.36V160Zm-.86,12.65.86.86.43-.86-.43-.86Zm0,2.79.86.64.43-.64-.43-.86Zm0,16.08.86.64.43-.64-.43-.86Zm2.36-44.59,1.28-1.93.21-4.72-3,.43-.64.86,1.93,4.93-.64.21Zm-1.29,2.57.43.86.64-.86-.64-.86Zm1.07,9-.64.64-.43-.64.43-.86Zm-1.07,29.8.43.86.64-.86-.64-.86Zm.43-35.37.86-1.07h-.86Zm0,29.8.43-2.14.43-1.5h-.86ZM200,161.48l.64.86.43-.64-.43-1.07Zm.86-44.38.43.43.86-.43-.86-.86ZM203,142.82v-1.29h-.64Zm.21-9.65-.21,2.36,1.29-1.5.43-2.36-.21-2.57-.43,1.72Zm0,3.22.86.64v-1.5Zm0,34.94.86.64v-1.5Zm1.29,12.22H206l1.07-9.22H206l-1.5,2.57Zm0,7.93,1.07-1.5h-1.07Zm.21-57.45.86.86v-1.72Zm.86,32.37.43,1.07.64-.64V166l-.64-.64Zm0,7.29,1.5-1.07H206Zm.43,14.58.64-.43-.64-1.07Zm.21-53.59.86.86v-1.72Zm1.28,1.72.86-.64-.86-.86Zm2.36,5.36.43,1.07,3.64-2.36.21-.86-.21-1.5h-1.28l-.86.86L212,140l-1.29.21-.43.86Zm.43,11.79.43.86.86-.64-.86-1.07Zm.43-6h1.5L214,146l.21-2.14-.64-.64L210.76,146Zm0-2.79.86-.64-.86-.86Zm.21,3.64L212,149v-1.5Zm0,21.87,1.07.86v-1.5Zm1.5-1.5.64-4.93.43-8.58-1.28.64-.64,1.93.43,1.29Zm.64-16.93-.64.86.86-.21.64-1.28Zm.86-18.65,1.07-.86H214Zm0,14.15,1.07.43v-1.29Zm0,2.14L215,149H214Zm3,3.21.86-.64-.86-.86Zm0,12,2.14-.43.86-1.07-.21-.86h-1.07v-.64l-.64.64Zm.21-11.79.86.86.43-.86-.43-.86Zm.86,2.79,1.07.21,1.28-1.93v-1.29l-1.71,1.07Zm.64-15.86,1.07-1.07h-1.07Zm1.71,11.36v-1.72l-1.71,1.29Zm-1.5-3.86.86.43.43-.43-.43-.86Zm0,18.22.86.86.43-1.07-.43-.64ZM220,131l.43.86.64-1.07-.64-.64Zm.64,6.86.64.86.21-.86-.21-.86Zm0,17.15.64.64.21-.64-.21-.64Zm3,3.22h.86v-.86Zm1.29-38.59H226V118Zm.21,22.72.86.86.43-.86-.43-.86Zm1.07-9.86.43.64.86-.64-.86-.64Zm0,14.36.43.64.86-.64-.86-.86Zm.64-27,.86.64v-1.29Zm0,3.86.86.64.43-.64-.43-.86Zm0,1.28.86.86.43-.86-.43-.64Zm.86,8.79h.64v-.64h-.64Zm.64,3.22,1.29-1.5H227.7v.86Zm-.43-50.59.43.86H229l-.64-1.72Zm0,53.17.43.86v-1.72Zm.43-9.43.64-2.57h-.64Zm4.5-33.66.86-.64-.86-.86Zm1.28,9.86.43.86.86-.86-.86-.86Zm.86,20.15.64,1.07.64-2.79v-7.29l1.07-2.57-.64-.64.21-1.07h-2.36v12Zm8.58-12,.21-2.57L244,110l-.43-1.07-1.29-.21.43,2.36-.86,2.14Zm.43-12.86-.43-2.36-.86.43-.43,1.07.43,2.57,1.29,3.21Zm-1.72,17.58h1.29l-.21-1.5.64-.86.86-.64-.64-1.07-1.93,1.07Zm.21-21.86,1.07.86V96.52ZM244,79.58l.86.64v-1.5Zm4.07,2.14h.43v-.64l-.43-.43Zm3.22,12.86.43-1.72-.43.64Zm1.07-7.5-.64,1.07,1.5-1.5,1.07.64V84.94h-1.07l-.64.64Z"/><path class="cls-6" d="M357.51,50.21l.32,1.71.2.44v2.15l.88.22.41-1.51.32-3.9A3.39,3.39,0,0,1,357.51,50.21Zm1.59-9-.41-3-1.07-2.15-.85-.41-.44,1.93.37,5.34a3.59,3.59,0,0,1,2.66.63ZM337.87,55.36v1.29h1.29V55.36Zm-1.27-4.71-.44.85.44.85.63-.85Zm1.27,4.71v1.29h1.29V55.36Zm-1.27-4.71-.44.85.44.85.63-.85Zm-30,69.66V122l1.07-1.71Zm0-2.56-.44.85.44.85.63-.85Zm-6.44,52.95V172l.63-.44v-.22Zm0,0V172l.63-.44v-.22Zm-24.42-10.52-.22.44.63.41v-.2Zm0,0-.22.44.63.41v-.2Zm30.87-39.87V122l1.07-1.71Zm0-2.56-.44.85.44.85.63-.85Zm-35.6-15,.22.2.22-.63Zm0,0,.22.2.22-.63Zm-28.3-4.51.88-.85v-.22Zm28.3,4.51.22.2.22-.63Zm4.73,57.44-.22.44.63.41v-.2Zm24.42,10.52V172l.63-.44v-.22Zm6.44-52.95-.44.85.44.85.63-.85Zm0,2.56V122l1.07-1.71Zm30-69.66-.44.85.44.85.63-.85Zm1.27,4.71v1.29h1.29V55.36Zm0,0v1.29h1.29V55.36Zm-1.27-4.71-.44.85.44.85.63-.85Zm-36.45,120V172l.63-.44v-.22Zm6.44-50.39V122l1.07-1.71Zm0-2.56-.44.85.44.85.63-.85Zm-30.87,42.43-.22.44.63.41v-.2ZM271,102.74l.22.2.22-.63Zm0,0,.22.2.22-.63Zm4.73,57.44-.22.44.63.41v-.2Zm24.42,10.52V172l.63-.44v-.22Zm6.44-52.95-.44.85.44.85.63-.85Zm0,2.56V122l1.07-1.71Zm30-69.66-.44.85.44.85.63-.85Zm1.27,4.71v1.29h1.29V55.36Zm0,0v1.29h1.29V55.36Zm-1.27-4.71-.44.85.44.85.63-.85Zm-36.45,120V172l.63-.44v-.22Zm6.44-50.39V122l1.07-1.71Zm0-2.56-.44.85.44.85.63-.85Zm-30.87,42.43-.22.44.63.41v-.2ZM271,102.74l.22.2.22-.63Zm0,0,.22.2.22-.63Zm4.73,57.44-.22.44.63.41v-.2Zm24.42,10.52V172l.63-.44v-.22Zm6.44-52.95-.44.85.44.85.63-.85Zm0,2.56V122l1.07-1.71Zm30-69.66-.44.85.44.85.63-.85Zm1.27,4.71v1.29h1.29V55.36Zm0,0v1.29h1.29V55.36Zm-1.27-4.71-.44.85.44.85.63-.85Zm-36.45,120V172l.63-.44v-.22Zm6.44-50.39V122l1.07-1.71Zm0-2.56-.44.85.44.85.63-.85Zm-30.87,42.43-.22.44.63.41v-.2ZM271,102.74l.22.2.22-.63Zm0,0,.22.2.22-.63Zm4.73,57.44-.22.44.63.41v-.2Zm24.42,10.52V172l.63-.44v-.22Zm6.44-52.95-.44.85.44.85.63-.85Zm0,2.56V122l1.07-1.71Zm30-69.66-.44.85.44.85.63-.85Zm1.27,4.71v1.29h1.29V55.36Zm0,0v1.29h1.29V55.36Zm-1.27-4.71-.44.85.44.85.63-.85Zm-36.45,120V172l.63-.44v-.22Zm6.44-50.39V122l1.07-1.71Zm0-2.56-.44.85.44.85.63-.85Zm-30.87,42.43-.22.44.63.41v-.2ZM271,102.74l.22.2.22-.63Zm0,0,.22.2.22-.63Zm4.73,57.44-.22.44.63.41v-.2Zm24.42,10.52V172l.63-.44v-.22Zm6.44-52.95-.44.85.44.85.63-.85Zm0,2.56V122l1.07-1.71Zm30-69.66-.44.85.44.85.63-.85Zm1.27,4.71v1.29h1.29V55.36Zm0,0v1.29h1.29V55.36Zm-1.27-4.71-.44.85.44.85.63-.85Zm-36.45,120V172l.63-.44v-.22Zm6.44-50.39V122l1.07-1.71Zm0-2.56-.44.85.44.85.63-.85Zm-30.87,42.43-.22.44.63.41v-.2ZM271,102.74l.22.2.22-.63Zm0,0,.22.2.22-.63Zm4.73,57.44-.22.44.63.41v-.2Zm24.42,10.52V172l.63-.44v-.22Zm6.44-52.95-.44.85.44.85.63-.85Zm0,2.56V122l1.07-1.71Zm30-69.66-.44.85.44.85.63-.85Zm1.27,4.71v1.29h1.29V55.36Zm0,0v1.29h1.29V55.36Zm-1.27-4.71-.44.85.44.85.63-.85Zm-36.45,120V172l.63-.44v-.22Zm6.44-50.39V122l1.07-1.71Zm0-2.56-.44.85.44.85.63-.85Zm-30.87,42.43-.22.44.63.41v-.2ZM271,102.74l.22.2.22-.63Zm0,0,.22.2.22-.63Zm4.73,57.44-.22.44.63.41v-.2Zm24.42,10.52V172l.63-.44v-.22Zm6.44-52.95-.44.85.44.85.63-.85Zm0,2.56V122l1.07-1.71Zm30-69.66-.44.85.44.85.63-.85Zm1.27,4.71v1.29h1.29V55.36Zm0,0v1.29h1.29V55.36Zm-1.27-4.71-.44.85.44.85.63-.85Zm-36.45,120V172l.63-.44v-.22Zm6.44-50.39V122l1.07-1.71Zm0-2.56-.44.85.44.85.63-.85Zm-30.87,42.43-.22.44.63.41v-.2ZM271,102.74l.22.2.22-.63Zm0,0,.22.2.22-.63Zm4.73,57.44-.22.44.63.41v-.2Zm24.42,10.52V172l.63-.44v-.22Zm6.44-52.95-.44.85.44.85.63-.85Zm0,2.56V122l1.07-1.71Zm30-69.66-.44.85.44.85.63-.85Zm1.27,4.71v1.29h1.29V55.36Zm-31.28,65V122l1.07-1.71Zm0-2.56-.44.85.44.85.63-.85Zm-30.87,42.43-.22.44.63.41v-.2ZM271,102.74l.22.2.22-.63Zm66.88-47.38v1.29h1.29V55.36Zm-1.27-4.71-.44.85.44.85.63-.85Zm-36.45,120V172l.63-.44v-.22Zm-29.16-68,.22.2.22-.63Zm4.73,57.44-.22.44.63.41v-.2Zm24.42,10.52V172l.63-.44v-.22Zm6.44-52.95-.44.85.44.85.63-.85Zm0,2.56V122l1.07-1.71Zm30-69.66-.44.85.44.85.63-.85Zm1.27,4.71v1.29h1.29V55.36Zm-31.28,65V122l1.07-1.71Zm0-2.56-.44.85.44.85.63-.85Zm-30.87,42.43-.22.44.63.41v-.2ZM271,102.74l.22.2.22-.63Zm66.88-47.38v1.29h1.29V55.36Zm-1.27-4.71-.44.85.44.85.63-.85Zm-36.45,120V172l.63-.44v-.22Zm-29.16-68,.22.2.22-.63Zm4.73,57.44-.22.44.63.41v-.2Zm24.42,10.52V172l.63-.44v-.22Zm6.44-52.95-.44.85.44.85.63-.85Zm0,2.56V122l1.07-1.71Zm30-69.66-.44.85.44.85.63-.85Zm1.27,4.71v1.29h1.29V55.36Zm-31.28,65V122l1.07-1.71Zm0-2.56-.44.85.44.85.63-.85Zm-30.87,42.43-.22.44.63.41v-.2ZM271,102.74l.22.2.22-.63Zm66.88-47.38v1.29h1.29V55.36Zm-1.27-4.71-.44.85.44.85.63-.85Zm-36.45,120V172l.63-.44v-.22Zm-29.16-68,.22.2.22-.63Zm4.73,57.44-.22.44.63.41v-.2Zm24.42,10.52V172l.63-.44v-.22Zm6.44-52.95-.44.85.44.85.63-.85Zm0,2.56V122l1.07-1.71Zm30-69.66-.44.85.44.85.63-.85Zm1.27,4.71v1.29h1.29V55.36Zm-31.28,65V122l1.07-1.71Zm0-2.56-.44.85.44.85.63-.85Zm-30.87,42.43-.22.44.63.41v-.2ZM271,102.74l.22.2.22-.63Zm66.88-47.38v1.29h1.29V55.36Zm-1.27-4.71-.44.85.44.85.63-.85Zm-36.45,120V172l.63-.44v-.22Zm-29.16-68,.22.2.22-.63Zm4.73,57.44-.22.44.63.41v-.2Zm24.42,10.52V172l.63-.44v-.22Zm6.44-52.95-.44.85.44.85.63-.85Zm0,2.56V122l1.07-1.71Zm30-69.66-.44.85.44.85.63-.85Zm1.27,4.71v1.29h1.29V55.36Zm-31.28,65V122l1.07-1.71Zm0-2.56-.44.85.44.85.63-.85Zm-30.87,42.43-.22.44.63.41v-.2ZM271,102.74l.22.2.22-.63Zm66.88-47.38v1.29h1.29V55.36Zm-1.27-4.71-.44.85.44.85.63-.85Zm-36.45,120V172l.63-.44v-.22Zm-29.16-68,.22.2.22-.63Zm4.73,57.44-.22.44.63.41v-.2Zm24.42,10.52V172l.63-.44v-.22Zm6.44-52.95-.44.85.44.85.63-.85Zm0,2.56V122l1.07-1.71Zm30-69.66-.44.85.44.85.63-.85Zm1.27,4.71v1.29h1.29V55.36Zm-31.28,65V122l1.07-1.71Zm0-2.56-.44.85.44.85.63-.85Zm-30.87,42.43-.22.44.63.41v-.2ZM271,102.74l.22.2.22-.63Zm66.88-47.38v1.29h1.29V55.36Zm-1.27-4.71-.44.85.44.85.63-.85Zm-36.45,120V172l.63-.44v-.22Zm-29.16-68,.22.2.22-.63Zm4.73,57.44-.22.44.63.41v-.2Zm24.42,10.52V172l.63-.44v-.22Zm6.44-52.95-.44.85.44.85.63-.85Zm0,2.56V122l1.07-1.71Zm30-69.66-.44.85.44.85.63-.85Zm1.27,4.71v1.29h1.29V55.36Zm-31.28,65V122l1.07-1.71Zm0-2.56-.44.85.44.85.63-.85Zm-30.87,42.43-.22.44.63.41v-.2ZM271,102.74l.22.2.22-.63Zm66.88-47.38v1.29h1.29V55.36Zm-1.27-4.71-.44.85.44.85.63-.85Zm-36.45,120V172l.63-.44v-.22Zm-29.16-68,.22.2.22-.63Zm4.73,57.44-.22.44.63.41v-.2Zm24.42,10.52V172l.63-.44v-.22Zm6.44-52.95-.44.85.44.85.63-.85Zm0,2.56V122l1.07-1.71Zm30-69.66-.44.85.44.85.63-.85Zm1.27,4.71v1.29h1.29V55.36Zm-31.28,65V122l1.07-1.71Zm0-2.56-.44.85.44.85.63-.85Zm-30.87,42.43-.22.44.63.41v-.2ZM271,102.74l.22.2.22-.63Zm66.88-47.38v1.29h1.29V55.36Zm-1.27-4.71-.44.85.44.85.63-.85Zm-36.45,120V172l.63-.44v-.22Zm-29.16-68,.22.2.22-.63Zm4.73,57.44-.22.44.63.41v-.2Zm24.42,10.52V172l.63-.44v-.22Zm6.44-52.95-.44.85.44.85.63-.85Zm0,2.56V122l1.07-1.71Zm30-69.66-.44.85.44.85.63-.85Zm1.27,4.71v1.29h1.29V55.36Zm-31.28,65V122l1.07-1.71Zm0-2.56-.44.85.44.85.63-.85Zm-30.87,42.43-.22.44.63.41v-.2ZM271,102.74l.22.2.22-.63Zm66.88-47.38v1.29h1.29V55.36Zm-1.27-4.71-.44.85.44.85.63-.85Zm-36.45,120V172l.63-.44v-.22Zm-29.16-68,.22.2.22-.63Zm4.73,57.44-.22.44.63.41v-.2Zm24.42,10.52V172l.63-.44v-.22Zm6.44-52.95-.44.85.44.85.63-.85Zm0,2.56V122l1.07-1.71Zm30-69.66-.44.85.44.85.63-.85Zm1.27,4.71v1.29h1.29V55.36Zm-31.28,65V122l1.07-1.71Zm0-2.56-.44.85.44.85.63-.85Zm-30.87,42.43-.22.44.63.41v-.2ZM271,102.74l.22.2.22-.63Zm66.88-47.38v1.29h1.29V55.36Zm-1.27-4.71-.44.85.44.85.63-.85Zm-36.45,120V172l.63-.44v-.22Zm-29.16-68,.22.2.22-.63Zm4.73,57.44-.22.44.63.41v-.2Zm24.42,10.52V172l.63-.44v-.22Zm6.44-52.95-.44.85.44.85.63-.85Zm0,2.56V122l1.07-1.71Zm30-69.66-.44.85.44.85.63-.85Zm1.27,4.71v1.29h1.29V55.36Zm-31.28,65V122l1.07-1.71Zm0-2.56-.44.85.44.85.63-.85Zm-30.87,42.43-.22.44.63.41v-.2ZM271,102.74l.22.2.22-.63Zm66.88-47.38v1.29h1.29V55.36Zm-1.27-4.71-.44.85.44.85.63-.85Zm-36.45,120V172l.63-.44v-.22Zm-29.16-68,.22.2.22-.63Zm4.73,57.44-.22.44.63.41v-.2Zm24.42,10.52V172l.63-.44v-.22Zm6.44-52.95-.44.85.44.85.63-.85Zm0,2.56V122l1.07-1.71Zm30-69.66-.44.85.44.85.63-.85Zm1.27,4.71v1.29h1.29V55.36Zm-31.28,65V122l1.07-1.71Zm0-2.56-.44.85.44.85.63-.85Zm-30.87,42.43-.22.44.63.41v-.2ZM271,102.74l.22.2.22-.63Zm66.88-47.38v1.29h1.29V55.36Zm-1.27-4.71-.44.85.44.85.63-.85Zm-36.45,120V172l.63-.44v-.22Zm-29.16-68,.22.2.22-.63Zm4.73,57.44-.22.44.63.41v-.2Zm24.42,10.52V172l.63-.44v-.22Zm6.44-52.95-.44.85.44.85.63-.85Zm0,2.56V122l1.07-1.71Zm30-69.66-.44.85.44.85.63-.85Zm1.27,4.71v1.29h1.29V55.36Zm-31.28,65V122l1.07-1.71Zm0-2.56-.44.85.44.85.63-.85Zm-30.87,42.43-.22.44.63.41v-.2ZM271,102.74l.22.2.22-.63Zm66.88-47.38v1.29h1.29V55.36Zm-1.27-4.71-.44.85.44.85.63-.85Zm-36.45,120V172l.63-.44v-.22Zm-29.16-68,.22.2.22-.63Zm4.73,57.44-.22.44.63.41v-.2Zm24.42,10.52V172l.63-.44v-.22Zm6.44-52.95-.44.85.44.85.63-.85Zm0,2.56V122l1.07-1.71Zm30-69.66-.44.85.44.85.63-.85Zm1.27,4.71v1.29h1.29V55.36Zm-31.28,65V122l1.07-1.71Zm0-2.56-.44.85.44.85.63-.85Zm-30.87,42.43-.22.44.63.41v-.2ZM271,102.74l.22.2.22-.63Zm66.88-47.38v1.29h1.29V55.36Zm-1.27-4.71-.44.85.44.85.63-.85Zm-36.45,120V172l.63-.44v-.22Zm-29.16-68,.22.2.22-.63Zm4.73,57.44-.22.44.63.41v-.2Zm24.42,10.52V172l.63-.44v-.22Zm6.44-52.95-.44.85.44.85.63-.85Zm0,2.56V122l1.07-1.71Zm30-69.66-.44.85.44.85.63-.85Zm1.27,4.71v1.29h1.29V55.36Zm-31.28,65V122l1.07-1.71Zm0-2.56-.44.85.44.85.63-.85Zm-30.87,42.43-.22.44.63.41v-.2ZM271,102.74l.22.2.22-.63Zm66.88-47.38v1.29h1.29V55.36Zm-1.27-4.71-.44.85.44.85.63-.85Zm-36.45,120V172l.63-.44v-.22Zm-29.16-68,.22.2.22-.63Zm4.73,57.44-.22.44.63.41v-.2Zm24.42,10.52V172l.63-.44v-.22Zm6.44-52.95-.44.85.44.85.63-.85Zm0,2.56V122l1.07-1.71Zm30-69.66-.44.85.44.85.63-.85Zm1.27,4.71v1.29h1.29V55.36Zm-31.28,65V122l1.07-1.71Zm0-2.56-.44.85.44.85.63-.85Zm-30.87,42.43-.22.44.63.41v-.2ZM271,102.74l.22.2.22-.63Zm66.88-47.38v1.29h1.29V55.36Zm-1.27-4.71-.44.85.44.85.63-.85Zm-36.45,120V172l.63-.44v-.22Zm-29.16-68,.22.2.22-.63Zm4.73,57.44-.22.44.63.41v-.2Zm24.42,10.52V172l.63-.44v-.22Zm6.44-52.95-.44.85.44.85.63-.85Zm0,2.56V122l1.07-1.71Zm30-69.66-.44.85.44.85.63-.85Zm1.27,4.71v1.29h1.29V55.36Zm-31.28,65V122l1.07-1.71Zm0-2.56-.44.85.44.85.63-.85Zm-30.87,42.43-.22.44.63.41v-.2ZM271,102.74l.22.2.22-.63Zm66.88-47.38v1.29h1.29V55.36Zm-1.27-4.71-.44.85.44.85.63-.85Zm-36.45,120V172l.63-.44v-.22Zm-29.16-68,.22.2.22-.63Zm4.73,57.44-.22.44.63.41v-.2Zm24.42,10.52V172l.63-.44v-.22Zm6.44-52.95-.44.85.44.85.63-.85Zm0,2.56V122l1.07-1.71Zm30-69.66-.44.85.44.85.63-.85Zm1.27,4.71v1.29h1.29V55.36Zm-31.28,65V122l1.07-1.71Zm0-2.56-.44.85.44.85.63-.85Zm-30.87,42.43-.22.44.63.41v-.2ZM271,102.74l.22.2.22-.63Zm66.88-47.38v1.29h1.29V55.36Zm-1.27-4.71-.44.85.44.85.63-.85Zm-36.45,120V172l.63-.44v-.22Zm-29.16-68,.22.2.22-.63Zm4.73,57.44-.22.44.63.41v-.2Zm24.42,10.52V172l.63-.44v-.22Zm6.44-52.95-.44.85.44.85.63-.85Zm0,2.56V122l1.07-1.71Zm30-69.66-.44.85.44.85.63-.85Zm1.27,4.71v1.29h1.29V55.36Zm-31.28,65V122l1.07-1.71Zm0-2.56-.44.85.44.85.63-.85Zm-30.87,42.43-.22.44.63.41v-.2ZM271,102.74l.22.2.22-.63Zm66.88-47.38v1.29h1.29V55.36Zm-1.27-4.71-.44.85.44.85.63-.85Zm-36.45,120V172l.63-.44v-.22Zm-29.16-68,.22.2.22-.63Zm4.73,57.44-.22.44.63.41v-.2Zm24.42,10.52V172l.63-.44v-.22Zm6.44-52.95-.44.85.44.85.63-.85Zm0,2.56V122l1.07-1.71Zm30-69.66-.44.85.44.85.63-.85Zm1.27,4.71v1.29h1.29V55.36Zm-31.28,65V122l1.07-1.71Zm0-2.56-.44.85.44.85.63-.85Zm-30.87,42.43-.22.44.63.41v-.2ZM271,102.74l.22.2.22-.63Zm66.88-47.38v1.29h1.29V55.36Zm-1.27-4.71-.44.85.44.85.63-.85Zm-36.45,120V172l.63-.44v-.22Zm-29.16-68,.22.2.22-.63Zm4.73,57.44-.22.44.63.41v-.2Zm24.42,10.52V172l.63-.44v-.22Zm6.44-52.95-.44.85.44.85.63-.85Zm0,2.56V122l1.07-1.71Zm30-69.66-.44.85.44.85.63-.85Zm1.27,4.71v1.29h1.29V55.36Zm-31.28,65V122l1.07-1.71Zm0-2.56-.44.85.44.85.63-.85Zm-30.87,42.43-.22.44.63.41v-.2ZM271,102.74l.22.2.22-.63Zm66.88-47.38v1.29h1.29V55.36Zm-1.27-4.71-.44.85.44.85.63-.85Zm-36.45,120V172l.63-.44v-.22Zm-29.16-68,.22.2.22-.63Zm4.73,57.44-.22.44.63.41v-.2Zm24.42,10.52V172l.63-.44v-.22Zm6.44-52.95-.44.85.44.85.63-.85Zm0,2.56V122l1.07-1.71Zm30-69.66-.44.85.44.85.63-.85Zm1.27,4.71v1.29h1.29V55.36Zm-31.28,65V122l1.07-1.71Zm0-2.56-.44.85.44.85.63-.85Zm-30.87,42.43-.22.44.63.41v-.2ZM271,102.74l.22.2.22-.63Zm66.88-47.38v1.29h1.29V55.36Zm-1.27-4.71-.44.85.44.85.63-.85Zm-36.45,120V172l.63-.44v-.22Zm-29.16-68,.22.2.22-.63Zm4.73,57.44-.22.44.63.41v-.2Zm24.42,10.52V172l.63-.44v-.22Zm6.44-52.95-.44.85.44.85.63-.85Zm0,2.56V122l1.07-1.71Zm30-69.66-.44.85.44.85.63-.85Zm1.27,4.71v1.29h1.29V55.36Zm-31.28,65V122l1.07-1.71Zm0-2.56-.44.85.44.85.63-.85Zm-30.87,42.43-.22.44.63.41v-.2ZM271,102.74l.22.2.22-.63Zm66.88-47.38v1.29h1.29V55.36Zm-1.27-4.71-.44.85.44.85.63-.85Zm-36.45,120V172l.63-.44v-.22Zm-29.16-68,.22.2.22-.63Zm4.73,57.44-.22.44.63.41v-.2Zm24.42,10.52V172l.63-.44v-.22Zm6.44-52.95-.44.85.44.85.63-.85Zm0,2.56V122l1.07-1.71Zm30-69.66-.44.85.44.85.63-.85Zm1.27,4.71v1.29h1.29V55.36Zm-31.28,65V122l1.07-1.71Zm0-2.56-.44.85.44.85.63-.85Zm-30.87,42.43-.22.44.63.41v-.2ZM271,102.74l.22.2.22-.63Zm66.88-47.38v1.29h1.29V55.36Zm-1.27-4.71-.44.85.44.85.63-.85Zm-36.45,120V172l.63-.44v-.22Zm-29.16-68,.22.2.22-.63Zm4.73,57.44-.22.44.63.41v-.2Zm24.42,10.52V172l.63-.44v-.22Zm6.44-52.95-.44.85.44.85.63-.85Zm0,2.56V122l1.07-1.71Zm30-69.66-.44.85.44.85.63-.85Zm1.27,4.71v1.29h1.29V55.36Zm-31.28,65V122l1.07-1.71Zm0-2.56-.44.85.44.85.63-.85Zm-30.87,42.43-.22.44.63.41v-.2ZM271,102.74l.22.2.22-.63Zm66.88-47.38v1.29h1.29V55.36Zm-1.27-4.71-.44.85.44.85.63-.85Zm-36.45,120V172l.63-.44v-.22Zm-29.16-68,.22.2.22-.63Zm4.73,57.44-.22.44.63.41v-.2Zm24.42,10.52V172l.63-.44v-.22Zm6.44-52.95-.44.85.44.85.63-.85Zm0,2.56V122l1.07-1.71Zm30-69.66-.44.85.44.85.63-.85Zm1.27,4.71v1.29h1.29V55.36Zm-31.28,65V122l1.07-1.71Zm0-2.56-.44.85.44.85.63-.85Zm-30.87,42.43-.22.44.63.41v-.2ZM271,102.74l.22.2.22-.63Zm66.88-47.38v1.29h1.29V55.36Zm-1.27-4.71-.44.85.44.85.63-.85Zm-36.45,120V172l.63-.44v-.22Zm-29.16-68,.22.2.22-.63Zm4.73,57.44-.22.44.63.41v-.2Zm24.42,10.52V172l.63-.44v-.22Zm6.44-52.95-.44.85.44.85.63-.85Zm0,2.56V122l1.07-1.71Zm30-69.66-.44.85.44.85.63-.85Zm1.27,4.71v1.29h1.29V55.36Zm-31.28,65V122l1.07-1.71Zm0-2.56-.44.85.44.85.63-.85Zm-30.87,42.43-.22.44.63.41v-.2ZM271,102.74l.22.2.22-.63Zm66.88-47.38v1.29h1.29V55.36Zm-1.27-4.71-.44.85.44.85.63-.85Zm-36.45,120V172l.63-.44v-.22Zm-29.16-68,.22.2.22-.63Zm4.73,57.44-.22.44.63.41v-.2Zm24.42,10.52V172l.63-.44v-.22Zm6.44-52.95-.44.85.44.85.63-.85Zm0,2.56V122l1.07-1.71Zm30-69.66-.44.85.44.85.63-.85Zm1.27,4.71v1.29h1.29V55.36Zm-31.28,65V122l1.07-1.71Zm0-2.56-.44.85.44.85.63-.85Zm-30.87,42.43-.22.44.63.41v-.2ZM271,102.74l.22.2.22-.63Zm66.88-47.38v1.29h1.29V55.36Zm-1.27-4.71-.44.85.44.85.63-.85Zm-36.45,120V172l.63-.44v-.22Zm-29.16-68,.22.2.22-.63Zm4.73,57.44-.22.44.63.41v-.2Zm24.42,10.52V172l.63-.44v-.22Zm6.44-52.95-.44.85.44.85.63-.85Zm0,2.56V122l1.07-1.71Zm30-69.66-.44.85.44.85.63-.85Zm1.27,4.71v1.29h1.29V55.36Zm-31.28,65V122l1.07-1.71Zm0-2.56-.44.85.44.85.63-.85Zm-30.87,42.43-.22.44.63.41v-.2ZM271,102.74l.22.2.22-.63Zm66.88-47.38v1.29h1.29V55.36Zm-1.27-4.71-.44.85.44.85.63-.85Zm-36.45,120V172l.63-.44v-.22Zm-29.16-68,.22.2.22-.63Zm4.73,57.44-.22.44.63.41v-.2Zm24.42,10.52V172l.63-.44v-.22Zm6.44-52.95-.44.85.44.85.63-.85Zm0,2.56V122l1.07-1.71Zm30-69.66-.44.85.44.85.63-.85Zm1.27,4.71v1.29h1.29V55.36Zm-31.28,65V122l1.07-1.71Zm0-2.56-.44.85.44.85.63-.85Zm-30.87,42.43-.22.44.63.41v-.2ZM271,102.74l.22.2.22-.63Zm66.88-47.38v1.29h1.29V55.36Zm-1.27-4.71-.44.85.44.85.63-.85Zm-36.45,120V172l.63-.44v-.22Zm-29.16-68,.22.2.22-.63Zm4.73,57.44-.22.44.63.41v-.2Zm24.42,10.52V172l.63-.44v-.22Zm6.44-52.95-.44.85.44.85.63-.85Zm0,2.56V122l1.07-1.71Zm30-69.66-.44.85.44.85.63-.85Zm1.27,4.71v1.29h1.29V55.36Zm-31.28,65V122l1.07-1.71Zm0-2.56-.44.85.44.85.63-.85Zm-30.87,42.43-.22.44.63.41v-.2ZM271,102.74l.22.2.22-.63Zm66.88-47.38v1.29h1.29V55.36Zm-1.27-4.71-.44.85.44.85.63-.85Zm-36.45,120V172l.63-.44v-.22Zm-29.16-68,.22.2.22-.63Zm4.73,57.44-.22.44.63.41v-.2Zm24.42,10.52V172l.63-.44v-.22Zm6.44-52.95-.44.85.44.85.63-.85Zm0,2.56V122l1.07-1.71Zm30-69.66-.44.85.44.85.63-.85Zm1.27,4.71v1.29h1.29V55.36Zm-31.28,65V122l1.07-1.71Zm0-2.56-.44.85.44.85.63-.85Zm-30.87,42.43-.22.44.63.41v-.2ZM271,102.74l.22.2.22-.63Zm66.88-47.38v1.29h1.29V55.36Zm-1.27-4.71-.44.85.44.85.63-.85Zm-36.45,120V172l.63-.44v-.22Zm-29.16-68,.22.2.22-.63Zm4.73,57.44-.22.44.63.41v-.2Zm24.42,10.52V172l.63-.44v-.22Zm6.44-52.95-.44.85.44.85.63-.85Zm0,2.56V122l1.07-1.71Zm30-69.66-.44.85.44.85.63-.85Zm1.27,4.71v1.29h1.29V55.36Zm-31.28,65V122l1.07-1.71Zm0-2.56-.44.85.44.85.63-.85Zm-30.87,42.43-.22.44.63.41v-.2ZM271,102.74l.22.2.22-.63Zm66.88-47.38v1.29h1.29V55.36Zm-1.27-4.71-.44.85.44.85.63-.85Zm-36.45,120V172l.63-.44v-.22Zm-29.16-68,.22.2.22-.63Zm4.73,57.44-.22.44.63.41v-.2Zm24.42,10.52V172l.63-.44v-.22Zm6.44-52.95-.44.85.44.85.63-.85Zm0,2.56V122l1.07-1.71Zm30-69.66-.44.85.44.85.63-.85Zm1.27,4.71v1.29h1.29V55.36Zm-31.28,65V122l1.07-1.71Zm0-2.56-.44.85.44.85.63-.85Zm-30.87,42.43-.22.44.63.41v-.2ZM271,102.74l.22.2.22-.63Zm66.88-47.38v1.29h1.29V55.36Zm-1.27-4.71-.44.85.44.85.63-.85Zm-36.45,120V172l.63-.44v-.22Zm-29.16-68,.22.2.22-.63Zm4.73,57.44-.22.44.63.41v-.2Zm24.42,10.52V172l.63-.44v-.22Zm6.44-52.95-.44.85.44.85.63-.85Zm0,2.56V122l1.07-1.71Zm30-69.66-.44.85.44.85.63-.85Zm1.27,4.71v1.29h1.29V55.36Zm-31.28,65V122l1.07-1.71Zm0-2.56-.44.85.44.85.63-.85Zm-30.87,42.43-.22.44.63.41v-.2ZM271,102.74l.22.2.22-.63Zm66.88-47.38v1.29h1.29V55.36Zm-1.27-4.71-.44.85.44.85.63-.85Zm-36.45,120V172l.63-.44v-.22Zm-29.16-68,.22.2.22-.63Zm4.73,57.44-.22.44.63.41v-.2Zm24.42,10.52V172l.63-.44v-.22Zm6.44-52.95-.44.85.44.85.63-.85Zm0,2.56V122l1.07-1.71Zm30-69.66-.44.85.44.85.63-.85Zm1.27,4.71v1.29h1.29V55.36Zm-31.28,65V122l1.07-1.71Zm0-2.56-.44.85.44.85.63-.85Zm-30.87,42.43-.22.44.63.41v-.2ZM271,102.74l.22.2.22-.63Zm66.88-47.38v1.29h1.29V55.36Zm-1.27-4.71-.44.85.44.85.63-.85Zm-36.45,120V172l.63-.44v-.22Zm-29.16-68,.22.2.22-.63Zm4.73,57.44-.22.44.63.41v-.2Zm24.42,10.52V172l.63-.44v-.22Zm6.44-52.95-.44.85.44.85.63-.85Zm0,2.56V122l1.07-1.71Zm30-69.66-.44.85.44.85.63-.85Zm1.27,4.71v1.29h1.29V55.36Zm-31.28,65V122l1.07-1.71Zm0-2.56-.44.85.44.85.63-.85Zm-30.87,42.43-.22.44.63.41v-.2ZM271,102.74l.22.2.22-.63Zm66.88-47.38v1.29h1.29V55.36Zm-1.27-4.71-.44.85.44.85.63-.85Zm-36.45,120V172l.63-.44v-.22Zm-29.16-68,.22.2.22-.63Zm4.73,57.44-.22.44.63.41v-.2Zm24.42,10.52V172l.63-.44v-.22Zm6.44-52.95-.44.85.44.85.63-.85Zm0,2.56V122l1.07-1.71Zm30-69.66-.44.85.44.85.63-.85Zm1.27,4.71v1.29h1.29V55.36Zm-31.28,65V122l1.07-1.71Zm.63-1.71-.63-.85-.44.85.44.85Zm-31.5,41.58-.22.44.63.41v-.2ZM271,102.74l.22.2.22-.63Zm66.88-47.38v1.29h1.29V55.36Zm-1.71-3.86.44.85.63-.85-.63-.85Zm-36,119.19V172l.63-.44v-.22Zm59.15-16.1-.2-6.2,0-.32-.37-2-.66-.85-.63.44-.85,3L355,147.32l-.2-1.07h-4.07l-1.51,4.51-.63,1.07h-1.07l.22-2.59.85-1.93-4.29-1.71-.63-4.93-.15-3.49-.07-1.44.34-5.78.29-4.73L346,112.6l.29-1a3,3,0,0,1-.54-.44,3.7,3.7,0,0,1,0-5.22,3.51,3.51,0,0,1,2.32-1l.51-.83.41-2.12.22-2.81-.22-3V94.4a3.62,3.62,0,0,1-3.24-1,3.67,3.67,0,0,1,0-5.2,3.63,3.63,0,0,1,3.17-1l.07-.32,1.29.22,1.29,1.07,3-10.71,1.88-9.59a3.55,3.55,0,0,1-1.88-1,3.66,3.66,0,0,1,0-5.17l-1.27-6.1-.41-5.37.2-.63,1.51-.22,0-.17s0,0,0,0a3.31,3.31,0,0,1-1-2.22l-.49-.59.51-.51.34-.34V39.91l-.2-3-.44-2.34-1.07-1.29h-2.56l-2.59-.22H334.67l-4.93.44-2.15.41-2.59.22-7.08,1.51-2.56.85-.85.85-10.93,2.56-3,.88-1.73,1.27-.63.66.63,2.78-.2,1.49-1.73.85-2.56-.41H292l-.63,1.07v1.93l.63,6.64,1.07,2.37,1.51.85,2.15-1.93V53.21l.63.44.85,2.56,2.15,3.86,1.29.85.63.12h0a1.94,1.94,0,0,1,.61-.27V56.85l2.15-.2V60.7a3.25,3.25,0,0,1,1.66.93,3.54,3.54,0,0,1,.8,1.22h3.12l-1.07.88L307,70.78l-1.49,6-.68,1.51a3.62,3.62,0,0,1,1.9,1,3.69,3.69,0,1,1-5.37.17l-.37-.56-1.27.22V77.44l-1.51.22-1.07-.85H286.65l.41,2.34-.22,2.78L286,83.22l-1.49-1.07V76.81l-3.22-.22L278.7,77l-2.12.66-5.37,2.78-2.37,1.07.44-1.51-2.15-.2-2.78.85-2.59,1.07-4.07,3,2.59.63.85.85.22,1.07-1.51,2.15-1.71,1.93-.44.22V87.93l-2.56-.85-1.71.22-1.51,1.07-1.07,1.93-.63,2.78-.44,2.81-.2,3.42v3.44L250.64,116l-.22.66-.66,1.07L248.69,116l-.41-2.34-1.07,4.49-.44,3.22.66,2.15.85.63-1.93.85-.44,1.73-.85-4.29-.22-2.78.22-2.59.63-2.34L247.2,113h-1.93l-.22-2.12.85-1.51,2.59-3.44.85-2.34-.22-2.78-1.49-3V95.45l-.44-2.37L244,96.74l-.41.63.41,1.29-.41.2-.88-.63-.42.44-3.44,4.93v1.49L237.76,107,232,114.75l-.85,2.56v2.15l.22.85,1.29.63v10.93l-.88.22-.63-.63-.85-2.56-.44-3.44v-2.78l-1.07,1.93-.85,2.15-1.49,7.71v7.71l.22,2.37-.22,2.15-1.29,1.93-.22,3.22.22,5.78.85,4.93.66,2.37,1.71,4.27,2.15,3.66,3.85,5.78,4.93,6.42,1.29-1.93,1.27-.63V184l1.29,1.27,2.78-.22.85-.63.44-.41,1.07,2.56h3.86v-1.93l.44-3,1.27-2.37.66-.63v7.93h2.56l4.07-1.07v-1.93l.22-1.07v1.71l.63.85,1.29.22h1.29l1.49-1.71v-6.44h1.07l1.93,4.07,1.07-.41V182l.63.44L274,181l2.15-1.29,1.07-1.07-.44-.85.44-.66.63.44-.63,1.07,5.15-4.93,1.29-.85.2,1.27,1.07.44,2.59-1.51.32-1.17.32-1.17H295v12l.44,2.56.85.44,2.56-.44,1.29-1.27,1.07,2.56h3.64l6.42-.9,2.81-.39,8.37-1.71,1.29-.85-.44-.85,1.93-.66.85-.63-.63-1.29,1.29.22.41,1.07-.63,1.29,2.56-.44L331,179.7l.07-.12.59-1,1.27,1.29h1.93l2-1.07L338,178l1.2-.88,4.12-4.47,0,0,.56-.63,2.9-3.71,1-1.24,2.12-3.42,2,.22.63.85-.85,1.93v1.07l2.15-2.59,1.07-2.12.12-.63s0,0,0,0l.29-1.49L355,158s0,0,0,0l-.15-1.39.2-2.37,1.51-3.86.63.93v0l.85,1.2-.22.88v0l-.85,3.61v1.27l.88.44,1.07-.85.41-2.59ZM300.15,53.21l-.85-.22-.63-.63h1.49Zm-74,99.26.44-.63.41,2.34-.41-.63Zm1.71,4.07V158l-1.07-.63Zm3.22,12.64L230,169l-.41-.88-1.07-.41-.22-1.07h1.29l-1.73-2.15,1.07-2.15.85-.85.85,2.15.44,2.78Zm12.44-35.79v1.71h-1.07l-.66-1.71Zm-1.07,4.93.85,1.71h-.85l-.44-.85Zm-.66,0v-1.71h.66Zm0-9.64.44,1.71h-.44l-.63-.85Zm-1.07,19.93-.41.63.41.85-.41.88-.85-.88.85-.85-.85-.63.85-.85Zm-.41,3.22v1.71h-1.07Zm-.22-16.3-.85.63-.44-.63.44-.85ZM238,133.83l.85-.88.22,1.73h-.22Zm.85-27,.22,1.49h-.22l-.85-.63Zm-1.49,10.93h.41v1.71l-.41-1.29Zm-1.71,22.94.63,2.56-.63-.85Zm-1.07,12.86.85,1.49h-.85l-.44-.63Zm0,8.37-.44-.88.44-.85.85.85Zm1.07-1.73-.88-.63.88-.85-.44-1.51.44-.63v2.15l.41,1.93Zm.63-9.86-.44-.85.44-.85.85,1.49Zm1.07-23.57.63-.44.66,2.59-.44,3-.85-.2.41-1.73Zm1.93,42.43-.44-1.49-1.07-1.07h1.51Zm0-10.93.41-1.07.66-.63H241Zm4.29,22.52h-1.07l-.66-1.51-.85-3.86h2.59l.41,4.29Zm1.71-18.86h.63v2.56h-.63Zm.63,7.27.44.85-.44.66-.41-.66Zm0-62.37.66.63-.88.85H244.2Zm.44,70.52-.85.44-1.29-.22,1.07-.44.63-1.07-.63-2.12h.85l.44,2.34Zm.22-9.64-.66-1.07h.66ZM246.12,155l.44-.85.42,1.73Zm1.07,14.15-.44-.63.44-.85.85.85Zm0-5.78-.44-.85.44-.63.85.63Zm1.71-9.86-1.71-1.07-.63-.63.85-.44-1.93-4.49.2-.88,3.22-.41Zm12.22-56.39v1.71L260.06,98Zm-1.29,23.16.85-.22.88.85.85,2.81L262.2,125l-.85.66-1.51-1.51Zm-.41-27.65v1.71l-1.07-.85Zm0,22.08-1.29,1.49-.44-.85Zm-4.93-20.37.63-1.71v2.15l-.63.85Zm-1.29,31.31v3.22l-.85-2.37Zm-1.29,8.15-.41.85-.85-.85.85-.88Zm-1.49-9.66.85.85-.85.66L250,125Zm0,21.45-.44-.85.44-.85.85.85Zm1.71,3-.44-.66.44-.63.85.63Zm-.63-7.3V135.1l1.71-1.71-.22,4.93Zm2.15-1.93-.44-.85.44-.85.63.63Zm.2,31.09.66-.63.42,1.71-.42-.22Zm.66,4.07v-.63h.63Zm0-77.4.63-1.07L256.2,101v1.07l-.85-1.07-.22-.63Zm1.71,43.53-.85-.66.85-.63Zm.44-38.16.85.85-.85.85-.44-.85Zm1,18,.44.41h-1.49Zm0,20.15-.85-.66.85-.63Zm2-14.59,1.49,2.15,1.29-1.07-1.07,4.71h-.22V130l-3.44-4.27Zm-1.51,19.52,1.51-1.93,1.71-1.51,1.07.22.22,1.29-.44,1.07-4.08,2.56Zm1.29,2.15v1.49l-1.07-.63Zm.41,30.87v-1.07l1.51.63Zm0-3.22v-1.49l.85.85Zm1.51.63h-.22v-.63h.22Zm.85-11.79-.85.66.85,3.42-.85,3.44v1.07h-.22V170.7l-.44-1.71-.85-6.44.85-2.15.66-.63.85,1.93Zm-2.78-6,.41-1.07,2.59-1.71Zm3.86-4.93-.85.85-1.29-2.34h-1.29l.22.85-.63.85-.44-2.78.44-1.29,1.93-1.71,1.07.63,1.07,2.37Zm63.88,12.86-.32-.63-.1-.22.41-.85.85.85-.54.54Zm1.51-11.79-.44.63-.85-.63.85-.85,0,.1ZM325.45,163l-.44-1.07H323.3l1.51-1.73,2.34-1.49Zm1.49,1.49-.41.44-.85-.66.85-.85Zm-4.46-11.18.83-.83.44.85-.44.85-.73-.73Zm-.25.88.85.85-.85.44-.44-.44Zm3.44,3.86.85-.85.41.85-.41.66Zm1.07-17.35.41-.66.85.66-.85.63Zm.41,6.64.32.88a0,0,0,0,1,0,0l.29.81.22,2.81-.85.63Zm-3.86-4.93.44.85-.44.66-.85-.66Zm-.85-2.37.85-.63.44.63-.44.66Zm5.78,17.15v-1.71l1.07-.22.85-1.29.44-2.56V136l.63-1.27V128l.22,2.59.22,9.22v.41l.29,5,.12,2v3l.66,6.22h-1.51V155h-1.29v.88Zm.63,1.51v.85l-.63.22Zm-3.64-36.45,1.93-1.29.22,2.59.41,1.71-.63,3.44h-.63l-1.07-1.07-.44-.85-.41-2.37Zm-1.07-1.07.85-.85V122Zm3-1.49-.63-.22v-.07a3.66,3.66,0,0,1-3.68-.9,3.7,3.7,0,0,1,0-5.22,3.51,3.51,0,0,1,2-1l-1-1.78,1.29-.22,1.07.44,1.27,2.17v0l.22.37.44,3.44-.37,2-.07.37Zm-27.43,33.87.63-.22.85.85-1.07.85Zm.41,3,.85.85-.85.85-.41-.85.37-.76Zm.85,15-.85.63V172l-.22.2h-1.27l1.49-2.34,1.07-.66-.44,2.15Zm-2.34-6.64h1.07v1.27Zm1.49,4.27V167.7l.85.41Zm-1.49-9.42.63.85-.63.85-.44-.85Zm.2,19.72.88-.85v1.49Zm2.37-3.44v1.07L299.73,176Zm.63-29.57,1.07-.85v1.49Zm1.07,2.78V151l-1.07-.88Zm-1.07-4.49,1.07-.85v.85Zm9-20.15.44-.85.85.41-.85.85Zm-.41,13.93-.85.85-.44-.85.44-.85v-1.51l.34.34.51.51-.85.66Zm-1.29,28.08-1.07.85.22-.63Zm-1.39-1.34h0l-.07,0-.07,0h0l-1-.39,1.07-1.51,1.49,1.07Zm-1.61,3.9V170h-.85Zm1.51-34.94.41-.85.85,1.71h-.85Zm-1.07,18.23V151l.63.85Zm2.34-10.93-.85.85-.41-.85.41-.85ZM306.15,140v2.37l-1.29.22-1-.85-.44-1.07Zm-1.07,5.59.85.85-.85.85-.41-.85ZM306.59,163l-.44-1.51-.22-1.71.66-1.07,1.49,1.07Zm1.07-8,0-.1.39-2.46.22,1.49-.59,1Zm.41-4.05,1.07-1.73,1.51,2.59-1.07.63-.85-.63Zm-4.71-21-.44-.85.44-.85.85.85Zm0,.44L301.66,133v-2.56Zm0,17.37.85.85-.85.63Zm3.22,22.94,1.49,1.29-1,.59-.46.27Zm-.44,9.42v.66l-.85.22Zm.44,1.73h1.49l-1.49.63Zm0-4.29,2.34.85.22.85ZM310.66,155h-1.07v2.15l-.44,1.07-1.07-1.71.22-1.29.61-.51s0,0,0,0l.41-.32.46-.07s0,0,0,0l.81-.15Zm0-7.71-.88-.85.88-.85.41.85Zm-1.07-6.64V140l1.49-2.34,1.29-1.51,1.07-.22.85.66-3.64,4.29Zm4.71-38.16-.44,1.07-.85-1.07Zm-.22-1.29.22-.85.85.85-.85.85Zm5.12,20.89a3.68,3.68,0,1,1-5.22,5.2,3.32,3.32,0,0,1-.51-.68l-.46.12v-1.07l.07.07a3.58,3.58,0,0,1,.9-3.64A3.7,3.7,0,0,1,319.2,122.12Zm-5.12-1.81.22-.85.85.85-.85.63Zm4.51,44.6-.85-.66-.42-.54-.24-.32.44-.63,1.07.22Zm-4.73,4.27.88.22.41.85-.85,1.07-.44-.63Zm.44-38.8V130l1.07.44Zm1.93,28.3v2.78L316,163h-.63l-.88-5.86v0l-.2-1.2v-1.73l1.49,1.73.1.61Zm-2.37-6.22.22.63-.22,1.07-.63-.85Zm3.22,1.71v1.29l-.85-.44Zm-1.07,12,1.51,1.51H316ZM313.86,130l-.63-.85.63-.85.22.85Zm.22,2.59-.22.85-.63-.85.63-.66ZM313,116.68v-1.29l.66.85Zm.22-5.37.63-.85H313V110l.85.44.22.85-.22.85ZM313,100.38h-.63V98.86H313ZM314.08,176l.34-1.15v0l.1-.32.85-.63v6.2H314.3l-.44-1.49Zm2.15-58.1-1.71.88-.66-1.07v-1.07l1.07.22.85-.88,1.73-5.12.63-.22,1.07.85.22,1.29.85.85Zm3.64-40.28.22-3,1.51-1.07-.66-2.37,2.37,1.07.63,1.07-.2,2.78-.63,2.37a3.18,3.18,0,0,1,1.32.83,3.68,3.68,0,1,1-5.2,0,3.89,3.89,0,0,1,.81-.61Zm6.66-7.08.63-1.07h1.07l-.85,1.07-2.37.63ZM325,69.51V68h.44Zm8.27,1a3.7,3.7,0,0,1,0,5.22,3.63,3.63,0,0,1-3.76.88v1.93l-.66-1.07V76.29a3.08,3.08,0,0,1-.81-.59,3.58,3.58,0,0,1-1-3.29v0l-.32-.32.41-.85.22.22a3.6,3.6,0,0,1,.68-1A3.7,3.7,0,0,1,333.28,70.49Zm-2-8.91h.44v1.27Zm4.93,15.23-.22-4.51.66-1.07.63,1.07.85,2.78.44,2.78-.15.61a3.63,3.63,0,0,1,3.76.88,3.68,3.68,0,1,1-5.56.44Zm1.71-7.3V68l.88.85Zm4.27,32.74a3.53,3.53,0,0,1-3,1v.32h-1.71l.81-.51a3.53,3.53,0,0,1-1.34-.83A3.69,3.69,0,0,1,342.14,97a3.1,3.1,0,0,1,.63.88l0-.1,0,.15A3.65,3.65,0,0,1,342.14,102.26Zm-10.47,29.62v-1.49l.85.85Zm6-11.37-.24-4.9v-1.93h.42v-6.22l3.22-1.71-1.49,2.56,2.56-1.49.22,1.07-2.15,1.71-.63.85.85,2.56.17.85.46,2.15-1.2,5-.51,2.12-.63.66h-.88l-.17-3.22Zm3.39-16.27,1.07-1.71-.22,1.93Zm-1.93,22.52v1.07L337,128.9l-.41-.66,1.27-1.49Zm-1.29,3.86.66-1.51,1.07-.41v4.71l-.1,0-1.63-.41Zm5-21.67-.44-.63.44-.85.85.85ZM336.6,97.16V94.81h.85Zm-.44-9.42.44-.88.63,2.59.22,3.64-1.29-.41-.41-2.37Zm0,19.08v1.49l-1.07-.63Zm-1.29-9.66V95.67l.88.85Zm2,25a3.69,3.69,0,1,1-5.22,0A3.7,3.7,0,0,1,336.92,122.12Zm-8.83-11A3.67,3.67,0,0,1,328,106l-.41-1.54.85-2.37,1.49-1.71h2.81v3.86h-1.51v.63a3.5,3.5,0,0,1,2.07,1,2.18,2.18,0,0,1,.37.46l.78-.61v1.71l-.32-.24a3.65,3.65,0,0,1-4.2,4.88v.07h-.42l0-.17A3.11,3.11,0,0,1,328.08,111.11Zm1.44-15,.63-1.07,1.07-.2.44,2.34-1.51-.22Zm3.22,18.45-.88.22-.63-1.07V113h1.93Zm.41.85v2.78h-1.49v-1.49l1.07-.44Zm-3.22,0,.88.63-.88.66Zm4.51-25.94-.49-.29a3.65,3.65,0,0,1-.68,4.25l-.22.2.1.15-.41,1.07v-1a3.61,3.61,0,0,1-3.22.44v.1l-.07-.12a3.23,3.23,0,0,1-1.37-.85.59.59,0,0,1-.15-.2l-.78-.12.51-.2a3.67,3.67,0,0,1,.42-4.71l0,0-.73-.41-.85-.88.41-1.93.66-.85,1.07-.22.41.44.34,3.05a3.54,3.54,0,0,1,3.73.73V86.86l.85.66-.81.61s0,0,.07,0,.24.27.37.41l.81-.66Zm-8.37-15.23.44-.63.41.63-.41,1.07ZM325,89.45v.44l-1.71-.44Zm-4.07-1.51-.85,2.15-.85,1.07V87.93Zm-2.34-12-.85-.85.85-.85.41.85Zm-.85,33.23.85-.85.41.85-.41.85Zm1.49-6.91a3.69,3.69,0,1,1,5.22,0A3.7,3.7,0,0,1,319.23,102.26Zm18.23,34.36,2.15-1.51v1.07l-2.15,1.51Zm2.15,1.07,1.07-1.07v2.78l-1.07,1.93ZM340,145l1.07.63-.41,1.29-1.07.85v-1.51l-.44-.63Zm.66,13.27v1.51l-.44-1.07Zm3.42-5.78h-.22l-.85-.63.85-.85Zm-4.49,0,.07,0,1-.59-.46,1.66-.2.68h-.85Zm0,4.07.85.63-.85,1.07-.44-.85Zm0,4.93,1.07,2.15v1.49l-1.07,1.07-.44-1.71V163Zm4.27-66.66h-2.78V91.59L343,89.89l.85-.44Zm.44-10.08-.22-.66.22-.85.63.85Zm2.78-39.45.44-.85.85.85-.85.63.85.88-.85.85-.44-.85.44-.88ZM351,52.8a3.67,3.67,0,0,1,0,5.2,3.57,3.57,0,0,1-2.37,1v.61L348,59a3.54,3.54,0,0,1-2-.83l-.17.17-.39-.76,0-.1a3.61,3.61,0,0,1,.39-4.71A3.67,3.67,0,0,1,351,52.8Zm.63,13.27-.85,1.29V66.29Zm-6.44-3.22v.44h-.85ZM349,81.52V80l.85.44Zm2-5.81a3.54,3.54,0,0,1-2.22,1l1.32,1.78L348.6,80l-.22-.85-.85-.63-2.37.63.66-2.56.27-.61v0a1,1,0,0,1-.32-.24,3.69,3.69,0,1,1,5.22,0Zm1.24-16.06h.85l-.85.41Zm-.63,4.71V63.29h.63Zm-5.86-29.28a3.71,3.71,0,0,1,4-.81l.34-.37.37.73a4.1,4.1,0,0,1,.51.44,3.69,3.69,0,1,1-5.22,0Zm-1.44,26.06h-.44l.44-1.07Zm-.44-3.22.22.85-.22.88-.85-.88Zm-1-4.27V52.36l.85,1.29ZM328.06,35.08a3.69,3.69,0,1,1,0,5.22A3.7,3.7,0,0,1,328.06,35.08Zm0,17.69a3.7,3.7,0,0,1,5.22,0,3.32,3.32,0,0,1,1,1.73v-.66l.63-7.49L336,47.62a3.66,3.66,0,0,1,5.81-3.93l1.42-1.42.63-1.07-.41,2.37-.63,1.27-.07,0a2.28,2.28,0,0,1,.32.85l.81-.83.22,1.07-.22.44-.78-.59a3.66,3.66,0,0,1-5,4.17l.44.49,2.56,4.49.66,2.59v3.22l-.12.44v0a4.13,4.13,0,0,1,.51.44,3.65,3.65,0,0,1,.66,4.29l.44.81.63,2.34-.41,2.59-.63.85-1.73-.22-.63-2.15-.17-2.32A3.66,3.66,0,0,1,336.6,62v-.88l.56.29a3.49,3.49,0,0,1,2.56-.85l-.12-.51,1.07-1.71-1.07-.44V56.85l-1.93,1.73-2.59,2.15-.63.41-.22-2.37V56.26a3.23,3.23,0,0,1-1,1.73,3.69,3.69,0,1,1-5.22-5.22Zm10,6.44,1.07-.85v1.71ZM325,38.65h.44v2.56l-.44.63Zm-7.49,7.27.61.63a3.7,3.7,0,0,1,1.07-2.61,2.83,2.83,0,0,1,.61-.49l.49-.73.63-1.51V43a3.61,3.61,0,0,1,3.49,1,2.9,2.9,0,0,1,.63.9h.39l1.07,1.07-.85.66-1.51,5.15h-.85V49.89a3.27,3.27,0,0,1-1.73.29l0,.46.42,2.56.85.63,2.59-.63-1.07,1.93-1.07.22-.85,1.29.41,2.34,1.73,2.15.85.44-.85.27a3.67,3.67,0,0,1-5,5.32l-.37.2v-.51a3.31,3.31,0,0,1-.93-1.68l-1.22.49.85-2.37.88-4.93.85-7.52.29-1.12a2.87,2.87,0,0,1-.76-.59,3.62,3.62,0,0,1-1-2.15l-.66.66-.44-.85Zm-.44,16.93h-2.56l-.66-.41-.85-.85.22-.66.85-.63h1.29l1.29.63Zm-1.93,1.29-.85.63-.22-.63.22-.85ZM307.22,44l-.63.85-.44-.85.44-.85Zm.44,4.51v1.27l-1.07-.2-.44-.44V46.8l.44-.88Zm-1.51-8.15v1.49l-.85-.63Zm-1.49,15-1.07-.63-.66-1.07-.2-1.07.63-1.07,1.29.22-1.07,1,1.49,2.15Zm.41-1.71V52.36l.85.63Zm1.51,0,.63.85-.63.85-.44-.85Zm1.07,6.42-1.07-.85,1.07-.85Zm-.22-2.56-.85-.66.85-.2.63.2Zm.22-15.66V39.72h1.49ZM310.37,58a3.7,3.7,0,0,1,0-5.22A3.59,3.59,0,0,1,313,51.7V41.84h1.29l.22,2.37v7.86a3.32,3.32,0,0,1,1,.71,3.7,3.7,0,0,1,0,5.22,1.09,1.09,0,0,1-.27.2v0l.07.15h-.27A3.64,3.64,0,0,1,310.37,58Zm0,12.49a3.68,3.68,0,0,1,5.22,5.2,3,3,0,0,1-1,.71v0l0,.39-.66.63v-.81a3.61,3.61,0,0,1-3.49-1A3.67,3.67,0,0,1,310.37,70.49Zm0,17.69a3.69,3.69,0,1,1,0,5.22A3.7,3.7,0,0,1,310.37,88.18Zm-1.22,10.69v1.51l-.85-.63Zm-1.07,6.88.85.85-.85.85-.41-.85Zm-1.49-11.37v1.29l-.44-.85Zm-5.37-4.49.44-.66,1.27.22-1.71,1.71Zm-4.49-4.73h.41v1.29h-.41Zm-1.07-7.71v1.71l-.44-.63Zm-4.29,9,.63.85.44-.44.63.66-.63.63-1.07-.41v.2l-.44-.63Zm-6.22,1.49.63.88-.63.63-.41-.63Zm-.63,15.66.41.85-.41.63-.66-.63ZM283,100.38l.44.63-.44,1.07-.85-.85Zm-1.71-4.29.44,1.07-.44.66-.63-.88Zm.63,2.78-.63,1.51-.85-.85Zm-2.15,14.81.44.85-.44.85-.85-.85Zm-2.56-4.73-1.49,1.51V110l-.88-2.12.88-3.66Zm-1.49,15.23h.85l-.44,4.73-.41,1Zm-.44-8.56.44-.85.63,1.93-.63-.44Zm-.22-13.52.44.66-.44.85-.85-.85Zm-3.64-20.35,1.07,1.49h-1.07l-.85-.63-.44-1.07Zm1.07,6.42h-.66l-1.07-1.29.66-1,1.07-.66-.66.85Zm0,3.44-.66-.44V89.89Zm-2.37,1.49.44-.41-.44,2.15-.63-.88Zm-3-6.22.44,2-.44-.66-.85-.63Zm-1.07,2.59h1.07v2.15l-1.07-.44Zm-.41,67.1-.88-.22.88-.85Zm0-63,.41-.85.85.85-.85.85Zm1.49.85v4.49l-1.07.66V96.08Zm0,80.18v-2.37l.63,1.29Zm.22-6.22-1.29-.22v-1.49l1.07-.44.63,1.51ZM267.13,151l-.85-.88.85-.85.44.85Zm.63,0,.88.85-.88.63-.41-.63Zm1.07,26.13-.85-.85.85-.85.22.85Zm0-21.64-1.71-.44.85-.63,1.29-.22Zm.44-12.44-.63.66-1.51.22V143l2.15-.63Zm.22-36.87-2.37,1.51-1.07-.22v-1.71l2.37-1.51h2.34Zm1.71-3.22v.22l-1.07-.63.63-.85,1.07-.66-.41,1.29.41-.22.44.66-.44.85Zm1.29,64.76-.44-.66.44-.85.63,1.51Zm0-48.24-.44-.85.44-.85.63.85Zm0-15.23-.44-.85.44-.85.63.85ZM274,122.68v1.49h-.63Zm-.41,24.42.41-.85.85,1.07-.85.44Zm1.49,3.22.44,1.51h-.44l-.85-.66Zm.66,9,.85-.63-.44,2.15.22.2-.63.88-.44-.88.22-.41-.44-.44Zm.2-4.29.66-.85.41.85-.41.44Zm-.63,8.81.44-.85.63,1.27-.63.22Zm1.29,13.71-.66-.63.66-.88.41.88Zm0-2.15v-.85h.63Zm1.49-4.71v-.85l.63.63Zm3.85-4.07,1.07-2.15V163l-.39.54-.68,1-.85-.63v-.07l-.22-2.29,1.29-3,.85.22.44-.66-.44-.63.32-.32.34-.32h.41l.44.85v3l-.17,1.44-.68,5.64-.88-.22Zm3.22,4.71-1.29.22-.85-.85.85-.66,1.29.22Zm4.51-13.08-.44-.85.44-.85.85.85.41-.22v1.51l-1.07-.66Zm1.71-5.78L289.65,151l.63-1.29,1.07-.44Zm-1,2.44.56.56h-1.27v-1.29Zm-1.15,14.27v-1.07l.44,1.07Zm2-21.42-2,1.93-2.76,2.22-2.81,2.27-1.73-1.71-1.49-2.15L278.5,149l-1.29.22V147.1l-2.56-8.34v-2.37l1.07-1.71.63-2.37v-.63l-.63.2-.44-.63.44-.85.63,1.29,5.56-21.23-.19-1.07,1.93-1.07-.66-1.07v-1.49h2.15l5.78-5.37.44-1.07-.85-3.86.41-1.07,2.37,4.49,1.71.22,3.22-.85,1.07-.85.44-1.29L301.44,98l1.93,1.29,1.71,1.71.66-2.78.85-1.07.63.66v2.34l-.44,3,.88,2.59-1.29.63-.85-.85-.44-1.93v2.15l-1.93,8.56-.41,2.78v2.15l.63,1.71,1.29,1.07.41-2.34v-4.93h1.07v1.93l1.07.22,1.51,2.12.85,2.81v.85l-3.44,3v-1.93h-1.07v1.93l-.41,1.07-1.73-1.07h-1.27l-1.29,4.71-.22,3-.66,5.39a3.52,3.52,0,0,1,2,1,3.69,3.69,0,0,1,.83,3.93l.17.17-.39.29a3.3,3.3,0,0,1-.61.83,3.58,3.58,0,0,1-2.9,1l-.39,4.25V151h1.93v.85l-1.07-.22-1,4.93,0,.22-1.27.41v-7.93l-1.07-.63,1.07-.66.41-1.93,0-.39v0l-.37-2.37v-.85l-1.29,1.24Zm4.47,1.49.85.85-.85.88-.44-.88Zm5.17,31.7-.68-.17v-1.51l.81,1.61,0,.12Zm1.64-2.29-.81.61-.44-.85.44-.85.83,1,0,0Zm.9,6.83-.44-.63.44-.85.85.41Zm7.93-17.79-.29-.44-.15-.22,0,0,.41-.83.85.85Zm0-25.3-.44-.85.44-.85.85.85Zm9.64,6.86-.41-.63.41-.85.66.85Zm1.9-18.3a3.69,3.69,0,0,1,5.22,5.22,2.58,2.58,0,0,1-.73.54l-.17,1-.32-.71a3.69,3.69,0,0,1-4-6ZM325,179.26l-.85-.85.85-.85Zm1.29-5.34-.22,3.2H325V170.7l.44-.85v1.49l1.71-.63-.63,1.07.34.59.29.49Zm2.56-1.73-.44-1-.2-.44.39.15.24.07Zm0-3v-4.27l.22-2.15.44-2.59h.85l.29.39,1,1.34.2,1,.44,2-.44,3-.63,1.07-1.07.41-1-.17Zm3.66,3-.85.66v-1.51Zm-1.29-1.49v1.49l-1.07-.63Zm6.86-26.79,1.07-.88v1.51ZM339.16,169l.44-.88.85.88-.85.85Zm13.08-14,.66.44-.61,1,0,.07,0-.07-.37-.56Zm-3.64,3.22,1.49-6.42.66,2.34.1,2.46.1,2.46-.2,2.37-1.51-.44-.63-.85ZM339.16,55.36h-1.29v1.29h1.29Zm-1.93-3.86-.63-.85-.44.85.44.85ZM306.59,122l1.07-1.71h-1.07Zm.63-3.42-.63-.85-.44.85.44.85ZM300.15,172l.63-.44v-.22l-.63-.63ZM275.5,160.62l.63.41v-.2l-.41-.66ZM271,102.74l.22.2.22-.63Zm29.16,68V172l.63-.44v-.22Zm36.45-120-.44.85.44.85.63-.85Zm1.27,4.71v1.29h1.29V55.36ZM271,102.74l.22.2.22-.63Zm4.73,57.44-.22.44.63.41v-.2Zm30.87-42.43-.44.85.44.85.63-.85Zm0,2.56V122l1.07-1.71Zm31.28-65v1.29h1.29V55.36Zm-1.27-4.71-.44.85.44.85.63-.85Zm-30,69.66V122l1.07-1.71Zm0-2.56-.44.85.44.85.63-.85Zm-6.44,52.95V172l.63-.44v-.22Zm-24.42-10.52-.22.44.63.41v-.2ZM271,102.74l.22.2.22-.63Zm29.16,68V172l.63-.44v-.22Zm36.45-120-.44.85.44.85.63-.85Zm1.27,4.71v1.29h1.29V55.36ZM271,102.74l.22.2.22-.63Zm4.73,57.44-.22.44.63.41v-.2Zm30.87-42.43-.44.85.44.85.63-.85Zm0,2.56V122l1.07-1.71Zm31.28-65v1.29h1.29V55.36Zm-1.27-4.71-.44.85.44.85.63-.85Zm-30,69.66V122l1.07-1.71Zm0-2.56-.44.85.44.85.63-.85Zm-6.44,52.95V172l.63-.44v-.22Zm-24.42-10.52-.22.44.63.41v-.2ZM271,102.74l.22.2.22-.63Zm29.16,68V172l.63-.44v-.22Zm36.45-120-.44.85.44.85.63-.85Zm1.27,4.71v1.29h1.29V55.36ZM271,102.74l.22.2.22-.63Zm4.73,57.44-.22.44.63.41v-.2Zm30.87-42.43-.44.85.44.85.63-.85Zm0,2.56V122l1.07-1.71Zm31.28-65v1.29h1.29V55.36Zm-1.27-4.71-.44.85.44.85.63-.85Zm-30,69.66V122l1.07-1.71Zm0-2.56-.44.85.44.85.63-.85Zm-6.44,52.95V172l.63-.44v-.22Zm-24.42-10.52-.22.44.63.41v-.2ZM271,102.74l.22.2.22-.63Zm29.16,68V172l.63-.44v-.22Zm36.45-120-.44.85.44.85.63-.85Zm1.27,4.71v1.29h1.29V55.36ZM271,102.74l.22.2.22-.63Zm4.73,57.44-.22.44.63.41v-.2Zm30.87-42.43-.44.85.44.85.63-.85Zm0,2.56V122l1.07-1.71Zm31.28-65v1.29h1.29V55.36Zm-1.27-4.71-.44.85.44.85.63-.85Zm-30,69.66V122l1.07-1.71Zm0-2.56-.44.85.44.85.63-.85Zm-6.44,52.95V172l.63-.44v-.22Zm-24.42-10.52-.22.44.63.41v-.2ZM271,102.74l.22.2.22-.63Zm29.16,68V172l.63-.44v-.22Zm36.45-120-.44.85.44.85.63-.85Zm1.27,4.71v1.29h1.29V55.36ZM271,102.74l.22.2.22-.63Zm4.73,57.44-.22.44.63.41v-.2Zm30.87-42.43-.44.85.44.85.63-.85Zm0,2.56V122l1.07-1.71Zm31.28-65v1.29h1.29V55.36Zm-1.27-4.71-.44.85.44.85.63-.85Zm-30,69.66V122l1.07-1.71Zm0-2.56-.44.85.44.85.63-.85Zm-6.44,52.95V172l.63-.44v-.22Zm-24.42-10.52-.22.44.63.41v-.2ZM271,102.74l.22.2.22-.63Zm29.16,68V172l.63-.44v-.22Zm36.45-120-.44.85.44.85.63-.85Zm1.27,4.71v1.29h1.29V55.36ZM271,102.74l.22.2.22-.63Zm4.73,57.44-.22.44.63.41v-.2Zm30.87-42.43-.44.85.44.85.63-.85Zm0,2.56V122l1.07-1.71Zm31.28-65v1.29h1.29V55.36Zm-1.27-4.71-.44.85.44.85.63-.85Zm-30,69.66V122l1.07-1.71Zm0-2.56-.44.85.44.85.63-.85Zm-6.44,52.95V172l.63-.44v-.22Zm-24.42-10.52-.22.44.63.41v-.2ZM271,102.74l.22.2.22-.63Zm29.16,68V172l.63-.44v-.22Zm36.45-120-.44.85.44.85.63-.85Zm1.27,4.71v1.29h1.29V55.36ZM271,102.74l.22.2.22-.63Zm4.73,57.44-.22.44.63.41v-.2Zm30.87-42.43-.44.85.44.85.63-.85Zm0,2.56V122l1.07-1.71Zm31.28-65v1.29h1.29V55.36Zm-1.27-4.71-.44.85.44.85.63-.85Zm-30,69.66V122l1.07-1.71Zm0-2.56-.44.85.44.85.63-.85Zm-6.44,52.95V172l.63-.44v-.22Zm-24.42-10.52-.22.44.63.41v-.2ZM271,102.74l.22.2.22-.63Zm29.16,68V172l.63-.44v-.22Zm36.45-120-.44.85.44.85.63-.85Zm1.27,4.71v1.29h1.29V55.36ZM271,102.74l.22.2.22-.63Zm4.73,57.44-.22.44.63.41v-.2Zm30.87-42.43-.44.85.44.85.63-.85Zm0,2.56V122l1.07-1.71Zm31.28-65v1.29h1.29V55.36Zm-1.27-4.71-.44.85.44.85.63-.85Zm-30,69.66V122l1.07-1.71Zm0-2.56-.44.85.44.85.63-.85Zm-6.44,52.95V172l.63-.44v-.22Zm-24.42-10.52-.22.44.63.41v-.2ZM271,102.74l.22.2.22-.63Zm29.16,68V172l.63-.44v-.22Zm36.45-120-.44.85.44.85.63-.85Zm1.27,4.71v1.29h1.29V55.36ZM271,102.74l.22.2.22-.63Zm4.73,57.44-.22.44.63.41v-.2Zm30.87-42.43-.44.85.44.85.63-.85Zm0,2.56V122l1.07-1.71Zm31.28-65v1.29h1.29V55.36Zm-1.27-4.71-.44.85.44.85.63-.85Zm-30,69.66V122l1.07-1.71Zm0-2.56-.44.85.44.85.63-.85Zm-6.44,52.95V172l.63-.44v-.22Zm-24.42-10.52-.22.44.63.41v-.2ZM271,102.74l.22.2.22-.63Zm29.16,68V172l.63-.44v-.22Zm36.45-120-.44.85.44.85.63-.85Zm1.27,4.71v1.29h1.29V55.36ZM271,102.74l.22.2.22-.63Zm4.73,57.44-.22.44.63.41v-.2Zm30.87-42.43-.44.85.44.85.63-.85Zm0,2.56V122l1.07-1.71Zm31.28-65v1.29h1.29V55.36Zm-1.27-4.71-.44.85.44.85.63-.85Zm-30,69.66V122l1.07-1.71Zm0-2.56-.44.85.44.85.63-.85Zm-6.44,52.95V172l.63-.44v-.22Zm-24.42-10.52-.22.44.63.41v-.2ZM271,102.74l.22.2.22-.63Zm29.16,68V172l.63-.44v-.22Zm36.45-120-.44.85.44.85.63-.85Zm1.27,4.71v1.29h1.29V55.36ZM271,102.74l.22.2.22-.63Zm4.73,57.44-.22.44.63.41v-.2Zm30.87-42.43-.44.85.44.85.63-.85Zm0,2.56V122l1.07-1.71Zm31.28-65v1.29h1.29V55.36Zm-1.27-4.71-.44.85.44.85.63-.85Zm-30,69.66V122l1.07-1.71Zm0-2.56-.44.85.44.85.63-.85Zm-6.44,52.95V172l.63-.44v-.22Zm-24.42-10.52-.22.44.63.41v-.2ZM271,102.74l.22.2.22-.63Zm29.16,68V172l.63-.44v-.22Zm36.45-120-.44.85.44.85.63-.85Zm1.27,4.71v1.29h1.29V55.36ZM271,102.74l.22.2.22-.63Zm4.73,57.44-.22.44.63.41v-.2Zm30.87-42.43-.44.85.44.85.63-.85Zm0,2.56V122l1.07-1.71Zm31.28-65v1.29h1.29V55.36Zm-1.27-4.71-.44.85.44.85.63-.85Zm-30,69.66V122l1.07-1.71Zm0-2.56-.44.85.44.85.63-.85Zm-6.44,52.95V172l.63-.44v-.22Zm-24.42-10.52-.22.44.63.41v-.2ZM271,102.74l.22.2.22-.63Zm29.16,68V172l.63-.44v-.22Zm36.45-120-.44.85.44.85.63-.85Zm1.27,4.71v1.29h1.29V55.36ZM271,102.74l.22.2.22-.63Zm4.73,57.44-.22.44.63.41v-.2Zm30.87-42.43-.44.85.44.85.63-.85Zm0,2.56V122l1.07-1.71Zm31.28-65v1.29h1.29V55.36Zm-1.27-4.71-.44.85.44.85.63-.85Zm-30,69.66V122l1.07-1.71Zm0-2.56-.44.85.44.85.63-.85Zm-6.44,52.95V172l.63-.44v-.22Zm-24.42-10.52-.22.44.63.41v-.2ZM271,102.74l.22.2.22-.63Zm29.16,68V172l.63-.44v-.22Zm36.45-120-.44.85.44.85.63-.85Zm1.27,4.71v1.29h1.29V55.36ZM271,102.74l.22.2.22-.63Zm4.73,57.44-.22.44.63.41v-.2Zm30.87-42.43-.44.85.44.85.63-.85Zm0,2.56V122l1.07-1.71Zm31.28-65v1.29h1.29V55.36Zm-1.27-4.71-.44.85.44.85.63-.85Zm-30,69.66V122l1.07-1.71Zm0-2.56-.44.85.44.85.63-.85Zm-6.44,52.95V172l.63-.44v-.22Zm-24.42-10.52-.22.44.63.41v-.2ZM271,102.74l.22.2.22-.63Zm29.16,68V172l.63-.44v-.22Zm36.45-120-.44.85.44.85.63-.85Zm1.27,4.71v1.29h1.29V55.36ZM271,102.74l.22.2.22-.63Zm4.73,57.44-.22.44.63.41v-.2Zm30.87-42.43-.44.85.44.85.63-.85Zm0,2.56V122l1.07-1.71Zm31.28-65v1.29h1.29V55.36Zm-1.27-4.71-.44.85.44.85.63-.85Zm-30,69.66V122l1.07-1.71Zm0-2.56-.44.85.44.85.63-.85Zm-6.44,52.95V172l.63-.44v-.22Zm-24.42-10.52-.22.44.63.41v-.2ZM271,102.74l.22.2.22-.63Zm29.16,68V172l.63-.44v-.22Zm36.45-120-.44.85.44.85.63-.85Zm1.27,4.71v1.29h1.29V55.36ZM271,102.74l.22.2.22-.63Zm4.73,57.44-.22.44.63.41v-.2Zm30.87-42.43-.44.85.44.85.63-.85Zm0,2.56V122l1.07-1.71Zm31.28-65v1.29h1.29V55.36Zm-1.27-4.71-.44.85.44.85.63-.85Zm-30,69.66V122l1.07-1.71Zm0-2.56-.44.85.44.85.63-.85Zm-6.44,52.95V172l.63-.44v-.22Zm-24.42-10.52-.22.44.63.41v-.2ZM271,102.74l.22.2.22-.63Zm29.16,68V172l.63-.44v-.22Zm36.45-120-.44.85.44.85.63-.85Zm1.27,4.71v1.29h1.29V55.36ZM271,102.74l.22.2.22-.63Zm4.73,57.44-.22.44.63.41v-.2Zm30.87-42.43-.44.85.44.85.63-.85Zm0,2.56V122l1.07-1.71Zm31.28-65v1.29h1.29V55.36Zm-1.27-4.71-.44.85.44.85.63-.85Zm-30,69.66V122l1.07-1.71Zm0-2.56-.44.85.44.85.63-.85Zm-6.44,52.95V172l.63-.44v-.22Zm-24.42-10.52-.22.44.63.41v-.2ZM271,102.74l.22.2.22-.63Zm29.16,68V172l.63-.44v-.22Zm36.45-120-.44.85.44.85.63-.85Zm1.27,4.71v1.29h1.29V55.36ZM271,102.74l.22.2.22-.63Zm4.73,57.44-.22.44.63.41v-.2Zm30.87-42.43-.44.85.44.85.63-.85Zm0,2.56V122l1.07-1.71Zm31.28-65v1.29h1.29V55.36Zm-1.27-4.71-.44.85.44.85.63-.85Zm-30,69.66V122l1.07-1.71Zm0-2.56-.44.85.44.85.63-.85Zm-6.44,52.95V172l.63-.44v-.22Zm-24.42-10.52-.22.44.63.41v-.2ZM271,102.74l.22.2.22-.63Zm29.16,68V172l.63-.44v-.22Zm36.45-120-.44.85.44.85.63-.85Zm1.27,4.71v1.29h1.29V55.36ZM271,102.74l.22.2.22-.63Zm4.73,57.44-.22.44.63.41v-.2Zm30.87-42.43-.44.85.44.85.63-.85Zm0,2.56V122l1.07-1.71Zm31.28-65v1.29h1.29V55.36Zm-1.27-4.71-.44.85.44.85.63-.85Zm-30,69.66V122l1.07-1.71Zm0-2.56-.44.85.44.85.63-.85Zm-6.44,52.95V172l.63-.44v-.22Zm-24.42-10.52-.22.44.63.41v-.2ZM271,102.74l.22.2.22-.63Zm29.16,68V172l.63-.44v-.22Zm36.45-120-.44.85.44.85.63-.85Zm1.27,4.71v1.29h1.29V55.36ZM271,102.74l.22.2.22-.63Zm4.73,57.44-.22.44.63.41v-.2Zm30.87-42.43-.44.85.44.85.63-.85Zm0,2.56V122l1.07-1.71Zm31.28-65v1.29h1.29V55.36Zm-1.27-4.71-.44.85.44.85.63-.85Zm-30,69.66V122l1.07-1.71Zm0-2.56-.44.85.44.85.63-.85Zm-6.44,52.95V172l.63-.44v-.22Zm-24.42-10.52-.22.44.63.41v-.2ZM271,102.74l.22.2.22-.63Zm29.16,68V172l.63-.44v-.22Zm36.45-120-.44.85.44.85.63-.85Zm1.27,4.71v1.29h1.29V55.36ZM271,102.74l.22.2.22-.63Zm4.73,57.44-.22.44.63.41v-.2Zm30.87-42.43-.44.85.44.85.63-.85Zm0,2.56V122l1.07-1.71Zm31.28-65v1.29h1.29V55.36Zm-1.27-4.71-.44.85.44.85.63-.85Zm-30,69.66V122l1.07-1.71Zm0-2.56-.44.85.44.85.63-.85Zm-6.44,52.95V172l.63-.44v-.22Zm-24.42-10.52-.22.44.63.41v-.2ZM271,102.74l.22.2.22-.63Zm29.16,68V172l.63-.44v-.22Zm36.45-120-.44.85.44.85.63-.85Zm1.27,4.71v1.29h1.29V55.36ZM271,102.74l.22.2.22-.63Zm4.73,57.44-.22.44.63.41v-.2Zm30.87-42.43-.44.85.44.85.63-.85Zm0,2.56V122l1.07-1.71Zm31.28-65v1.29h1.29V55.36Zm-1.27-4.71-.44.85.44.85.63-.85Zm-30,69.66V122l1.07-1.71Zm0-2.56-.44.85.44.85.63-.85Zm-6.44,52.95V172l.63-.44v-.22Zm-24.42-10.52-.22.44.63.41v-.2ZM271,102.74l.22.2.22-.63Zm29.16,68V172l.63-.44v-.22Zm36.45-120-.44.85.44.85.63-.85Zm1.27,4.71v1.29h1.29V55.36ZM271,102.74l.22.2.22-.63Zm4.73,57.44-.22.44.63.41v-.2Zm30.87-42.43-.44.85.44.85.63-.85Zm0,2.56V122l1.07-1.71Zm31.28-65v1.29h1.29V55.36Zm-1.27-4.71-.44.85.44.85.63-.85Zm-30,69.66V122l1.07-1.71Zm0-2.56-.44.85.44.85.63-.85Zm-6.44,52.95V172l.63-.44v-.22Zm-24.42-10.52-.22.44.63.41v-.2ZM271,102.74l.22.2.22-.63Zm29.16,68V172l.63-.44v-.22Zm36.45-120-.44.85.44.85.63-.85Zm1.27,4.71v1.29h1.29V55.36ZM271,102.74l.22.2.22-.63Zm4.73,57.44-.22.44.63.41v-.2Zm30.87-42.43-.44.85.44.85.63-.85Zm0,2.56V122l1.07-1.71Zm31.28-65v1.29h1.29V55.36Zm-1.27-4.71-.44.85.44.85.63-.85Zm-30,69.66V122l1.07-1.71Zm0-2.56-.44.85.44.85.63-.85Zm-6.44,52.95V172l.63-.44v-.22Zm-24.42-10.52-.22.44.63.41v-.2ZM271,102.74l.22.2.22-.63Zm29.16,68V172l.63-.44v-.22Zm36.45-120-.44.85.44.85.63-.85Zm1.27,4.71v1.29h1.29V55.36ZM271,102.74l.22.2.22-.63Zm4.73,57.44-.22.44.63.41v-.2Zm30.87-42.43-.44.85.44.85.63-.85Zm0,2.56V122l1.07-1.71Zm31.28-65v1.29h1.29V55.36Zm-1.27-4.71-.44.85.44.85.63-.85Zm-30,69.66V122l1.07-1.71Zm0-2.56-.44.85.44.85.63-.85Zm-6.44,52.95V172l.63-.44v-.22Zm-24.42-10.52-.22.44.63.41v-.2ZM271,102.74l.22.2.22-.63Zm29.16,68V172l.63-.44v-.22Zm36.45-120-.44.85.44.85.63-.85Zm1.27,4.71v1.29h1.29V55.36ZM271,102.74l.22.2.22-.63Zm4.73,57.44-.22.44.63.41v-.2Zm30.87-42.43-.44.85.44.85.63-.85Zm0,2.56V122l1.07-1.71Zm31.28-65v1.29h1.29V55.36Zm-1.27-4.71-.44.85.44.85.63-.85Zm-30,69.66V122l1.07-1.71Zm0-2.56-.44.85.44.85.63-.85Zm-6.44,52.95V172l.63-.44v-.22Zm-24.42-10.52-.22.44.63.41v-.2ZM271,102.74l.22.2.22-.63Zm29.16,68V172l.63-.44v-.22Zm36.45-120-.44.85.44.85.63-.85Zm1.27,4.71v1.29h1.29V55.36ZM271,102.74l.22.2.22-.63Zm4.73,57.44-.22.44.63.41v-.2Zm30.87-42.43-.44.85.44.85.63-.85Zm0,2.56V122l1.07-1.71Zm31.28-65v1.29h1.29V55.36Zm-1.27-4.71-.44.85.44.85.63-.85Zm-30,69.66V122l1.07-1.71Zm0-2.56-.44.85.44.85.63-.85Zm-6.44,52.95V172l.63-.44v-.22Zm-24.42-10.52-.22.44.63.41v-.2ZM271,102.74l.22.2.22-.63Zm29.16,68V172l.63-.44v-.22Zm36.45-120-.44.85.44.85.63-.85Zm1.27,4.71v1.29h1.29V55.36ZM271,102.74l.22.2.22-.63Zm4.73,57.44-.22.44.63.41v-.2Zm30.87-42.43-.44.85.44.85.63-.85Zm0,2.56V122l1.07-1.71Zm31.28-65v1.29h1.29V55.36Zm-1.27-4.71-.44.85.44.85.63-.85Zm-30,69.66V122l1.07-1.71Zm0-2.56-.44.85.44.85.63-.85Zm-6.44,52.95V172l.63-.44v-.22Zm-24.42-10.52-.22.44.63.41v-.2ZM271,102.74l.22.2.22-.63Zm29.16,68V172l.63-.44v-.22Zm36.45-120-.44.85.44.85.63-.85Zm1.27,4.71v1.29h1.29V55.36ZM271,102.74l.22.2.22-.63Zm4.73,57.44-.22.44.63.41v-.2Zm30.87-42.43-.44.85.44.85.63-.85Zm0,2.56V122l1.07-1.71Zm31.28-65v1.29h1.29V55.36Zm-1.27-4.71-.44.85.44.85.63-.85Zm-30,69.66V122l1.07-1.71Zm0-2.56-.44.85.44.85.63-.85Zm-6.44,52.95V172l.63-.44v-.22Zm-24.42-10.52-.22.44.63.41v-.2ZM271,102.74l.22.2.22-.63Zm29.16,68V172l.63-.44v-.22Zm36.45-120-.44.85.44.85.63-.85Zm1.27,4.71v1.29h1.29V55.36ZM271,102.74l.22.2.22-.63Zm4.73,57.44-.22.44.63.41v-.2Zm30.87-42.43-.44.85.44.85.63-.85Zm0,2.56V122l1.07-1.71Zm31.28-65v1.29h1.29V55.36Zm-1.27-4.71-.44.85.44.85.63-.85Zm-30,69.66V122l1.07-1.71Zm0-2.56-.44.85.44.85.63-.85Zm-6.44,52.95V172l.63-.44v-.22Zm-24.42-10.52-.22.44.63.41v-.2ZM271,102.74l.22.2.22-.63Zm29.16,68V172l.63-.44v-.22Zm36.45-120-.44.85.44.85.63-.85Zm1.27,4.71v1.29h1.29V55.36ZM271,102.74l.22.2.22-.63Zm4.73,57.44-.22.44.63.41v-.2Zm30.87-42.43-.44.85.44.85.63-.85Zm0,2.56V122l1.07-1.71Zm31.28-65v1.29h1.29V55.36Zm-1.27-4.71-.44.85.44.85.63-.85Zm-30,69.66V122l1.07-1.71Zm0-2.56-.44.85.44.85.63-.85Zm-6.44,52.95V172l.63-.44v-.22Zm-24.42-10.52-.22.44.63.41v-.2ZM271,102.74l.22.2.22-.63Zm29.16,68V172l.63-.44v-.22Zm36.45-120-.44.85.44.85.63-.85Zm1.27,4.71v1.29h1.29V55.36ZM271,102.74l.22.2.22-.63Zm4.73,57.44-.22.44.63.41v-.2Zm30.87-42.43-.44.85.44.85.63-.85Zm0,2.56V122l1.07-1.71Zm31.28-65v1.29h1.29V55.36Zm-1.27-4.71-.44.85.44.85.63-.85Zm-30,69.66V122l1.07-1.71Zm0-2.56-.44.85.44.85.63-.85Zm-6.44,52.95V172l.63-.44v-.22Zm-24.42-10.52-.22.44.63.41v-.2ZM271,102.74l.22.2.22-.63Zm29.16,68V172l.63-.44v-.22Zm36.45-120-.44.85.44.85.63-.85Zm1.27,4.71v1.29h1.29V55.36ZM271,102.74l.22.2.22-.63Zm4.73,57.44-.22.44.63.41v-.2Zm30.87-42.43-.44.85.44.85.63-.85Zm0,2.56V122l1.07-1.71Zm31.28-65v1.29h1.29V55.36Zm-1.27-4.71-.44.85.44.85.63-.85Zm-30,69.66V122l1.07-1.71Zm0-2.56-.44.85.44.85.63-.85Zm-6.44,52.95V172l.63-.44v-.22Zm-24.42-10.52-.22.44.63.41v-.2ZM271,102.74l.22.2.22-.63Zm29.16,68V172l.63-.44v-.22Zm36.45-120-.44.85.44.85.63-.85Zm1.27,4.71v1.29h1.29V55.36ZM271,102.74l.22.2.22-.63Zm4.73,57.44-.22.44.63.41v-.2Zm30.87-42.43-.44.85.44.85.63-.85Zm0,2.56V122l1.07-1.71Zm31.28-65v1.29h1.29V55.36Zm-1.27-4.71-.44.85.44.85.63-.85Zm-30,69.66V122l1.07-1.71Zm0-2.56-.44.85.44.85.63-.85Zm-6.44,52.95V172l.63-.44v-.22Zm-24.42-10.52-.22.44.63.41v-.2ZM271,102.74l.22.2.22-.63Zm29.16,68V172l.63-.44v-.22Zm36.45-120-.44.85.44.85.63-.85Zm1.27,4.71v1.29h1.29V55.36ZM271,102.74l.22.2.22-.63Zm4.73,57.44-.22.44.63.41v-.2Zm30.87-42.43-.44.85.44.85.63-.85Zm0,2.56V122l1.07-1.71Zm31.28-65v1.29h1.29V55.36Zm-1.27-4.71-.44.85.44.85.63-.85Zm-30,69.66V122l1.07-1.71Zm0-2.56-.44.85.44.85.63-.85Zm-6.44,52.95V172l.63-.44v-.22Zm-24.42-10.52-.22.44.63.41v-.2ZM271,102.74l.22.2.22-.63Zm29.16,68V172l.63-.44v-.22Zm36.45-120-.44.85.44.85.63-.85Zm1.27,4.71v1.29h1.29V55.36ZM271,102.74l.22.2.22-.63Zm4.73,57.44-.22.44.63.41v-.2Zm30.87-42.43-.44.85.44.85.63-.85Zm0,2.56V122l1.07-1.71Zm31.28-65v1.29h1.29V55.36Zm-1.27-4.71-.44.85.44.85.63-.85Zm-30,69.66V122l1.07-1.71Zm0-2.56-.44.85.44.85.63-.85Zm-6.44,52.95V172l.63-.44v-.22Zm-24.42-10.52-.22.44.63.41v-.2ZM271,102.74l.22.2.22-.63Zm29.16,68V172l.63-.44v-.22Zm36.45-120-.44.85.44.85.63-.85Zm1.27,4.71v1.29h1.29V55.36ZM271,102.74l.22.2.22-.63Zm4.73,57.44-.22.44.63.41v-.2Zm30.87-42.43-.44.85.44.85.63-.85Zm0,2.56V122l1.07-1.71Zm31.28-65v1.29h1.29V55.36Zm-1.27-4.71-.44.85.44.85.63-.85Zm-30,69.66V122l1.07-1.71Zm0-2.56-.44.85.44.85.63-.85Zm-6.44,52.95V172l.63-.44v-.22Zm-24.42-10.52-.22.44.63.41v-.2ZM271,102.74l.22.2.22-.63Zm29.16,68V172l.63-.44v-.22Zm36.45-120-.44.85.44.85.63-.85Zm1.27,4.71v1.29h1.29V55.36ZM271,102.74l.22.2.22-.63Zm4.73,57.44-.22.44.63.41v-.2Zm30.87-42.43-.44.85.44.85.63-.85Zm0,2.56V122l1.07-1.71Zm31.28-65v1.29h1.29V55.36Zm-1.27-4.71-.44.85.44.85.63-.85Zm-30,69.66V122l1.07-1.71Zm0-2.56-.44.85.44.85.63-.85Zm-6.44,52.95V172l.63-.44v-.22Zm-24.42-10.52-.22.44.63.41v-.2ZM271,102.74l.22.2.22-.63Zm0,0,.22.2.22-.63Zm4.73,57.44-.22.44.63.41v-.2Zm30.87-42.43-.44.85.44.85.63-.85Zm0,2.56V122l1.07-1.71Zm-6.44,50.39V172l.63-.44v-.22Zm36.45-120-.44.85.44.85.63-.85Zm1.27,4.71v1.29h1.29V55.36Zm0,0v1.29h1.29V55.36Zm-1.27-4.71-.44.85.44.85.63-.85Zm-30,69.66V122l1.07-1.71Zm0-2.56-.44.85.44.85.63-.85Zm-6.44,52.95V172l.63-.44v-.22Zm-24.42-10.52-.22.44.63.41v-.2ZM271,102.74l.22.2.22-.63Zm0,0,.22.2.22-.63Zm4.73,57.44-.22.44.63.41v-.2Zm30.87-42.43-.44.85.44.85.63-.85Zm0,2.56V122l1.07-1.71Zm-6.44,50.39V172l.63-.44v-.22Zm36.45-120-.44.85.44.85.63-.85Zm1.27,4.71v1.29h1.29V55.36Zm0,0v1.29h1.29V55.36Zm-1.27-4.71-.44.85.44.85.63-.85Zm-30,69.66V122l1.07-1.71Zm0-2.56-.44.85.44.85.63-.85Zm-6.44,52.95V172l.63-.44v-.22Zm-24.42-10.52-.22.44.63.41v-.2ZM271,102.74l.22.2.22-.63Zm0,0,.22.2.22-.63Zm4.73,57.44-.22.44.63.41v-.2Zm30.87-42.43-.44.85.44.85.63-.85Zm0,2.56V122l1.07-1.71Zm-6.44,50.39V172l.63-.44v-.22Zm36.45-120-.44.85.44.85.63-.85Zm1.27,4.71v1.29h1.29V55.36Zm0,0v1.29h1.29V55.36Zm-1.27-4.71-.44.85.44.85.63-.85Zm-30,69.66V122l1.07-1.71Zm0-2.56-.44.85.44.85.63-.85Zm-6.44,52.95V172l.63-.44v-.22Zm-24.42-10.52-.22.44.63.41v-.2ZM271,102.74l.22.2.22-.63Zm0,0,.22.2.22-.63Zm4.73,57.44-.22.44.63.41v-.2Zm30.87-42.43-.44.85.44.85.63-.85Zm0,2.56V122l1.07-1.71Zm-6.44,50.39V172l.63-.44v-.22Zm36.45-120-.44.85.44.85.63-.85Zm1.27,4.71v1.29h1.29V55.36Zm0,0v1.29h1.29V55.36Zm-1.27-4.71-.44.85.44.85.63-.85Zm-30,69.66V122l1.07-1.71Zm0-2.56-.44.85.44.85.63-.85Zm-6.44,52.95V172l.63-.44v-.22Zm-24.42-10.52-.22.44.63.41v-.2ZM271,102.74l.22.2.22-.63Zm0,0,.22.2.22-.63Zm4.73,57.44-.22.44.63.41v-.2Zm30.87-42.43-.44.85.44.85.63-.85Zm0,2.56V122l1.07-1.71Zm-6.44,50.39V172l.63-.44v-.22Zm36.45-120-.44.85.44.85.63-.85Zm1.27,4.71v1.29h1.29V55.36Zm0,0v1.29h1.29V55.36Zm-1.27-4.71-.44.85.44.85.63-.85Zm-30,69.66V122l1.07-1.71Zm0-2.56-.44.85.44.85.63-.85Zm-6.44,52.95V172l.63-.44v-.22Zm-24.42-10.52-.22.44.63.41v-.2ZM271,102.74l.22.2.22-.63Zm0,0,.22.2.22-.63Zm4.73,57.44-.22.44.63.41v-.2Zm30.87-42.43-.44.85.44.85.63-.85Zm0,2.56V122l1.07-1.71Zm-6.44,50.39V172l.63-.44v-.22Zm36.45-120-.44.85.44.85.63-.85Zm1.27,4.71v1.29h1.29V55.36Zm0,0v1.29h1.29V55.36Zm-1.27-4.71-.44.85.44.85.63-.85Zm-30,69.66V122l1.07-1.71Zm0-2.56-.44.85.44.85.63-.85Zm-6.44,52.95V172l.63-.44v-.22Zm-24.42-10.52-.22.44.63.41v-.2ZM271,102.74l.22.2.22-.63Zm0,0,.22.2.22-.63Zm4.73,57.44-.22.44.63.41v-.2Zm30.87-42.43-.44.85.44.85.63-.85Zm0,2.56V122l1.07-1.71Zm-6.44,50.39V172l.63-.44v-.22Zm36.45-120-.44.85.44.85.63-.85Zm1.27,4.71v1.29h1.29V55.36Zm0,0v1.29h1.29V55.36Zm-1.27-4.71-.44.85.44.85.63-.85Zm-30,69.66V122l1.07-1.71Zm0-2.56-.44.85.44.85.63-.85Zm-6.44,52.95V172l.63-.44v-.22Zm-24.42-10.52-.22.44.63.41v-.2ZM271,102.74l.22.2.22-.63Z"/><path class="cls-6" d="M80.77,229v16.3H94.82V229ZM88,242.95H83.16v-3H88Zm-7.61-44.07v16.54h6.78c.2-.44.44-.81,1-.54-.1-.41.37-1.1.46-1.49a.38.38,0,0,0,.2,0c-.22-.76,1-.81,1.24-1.22.1-.34-.17-.37-.41-.41.81-.12.71-1.66,1-1.68.34-.32.46.17.76.27.34-.59-.9-.66,0-1,0,.1-.12.29,0,.27.32-.2,1.76.27,1.78-.17l-.32,0c.2-.68,1.73-.46,1.2-1.07l-.32-.22c.68-.29.59-.39.66-.56v-8.78Zm7.25,14.18H82.79v-3.22h4.88Zm6.66-.85c-.22.29-.34.59-.63.34,0,.37-.22.51-.39.56v0c-.27.07-.49,0-.27.44.17,0,.22-.17.24-.34,0,.39.83.29,1.2.29v-1.17ZM93.19,214l.22-.46c-1.17.37-.12,1.22-1.24.88.27-.24.34-.76,0-.78l-.15.56c-.15,0,.12-.27-.15-.2a4.42,4.42,0,0,0,0,.81l0,0-.49.63c0-.07-.1-.1-.17,0l0,.07h3.32v-1.85C93.92,213.74,93.8,214.11,93.19,214ZM80.77,229v16.3H94.82V229ZM88,242.95H83.16v-3H88Zm-7.61-44.07v16.54h6.78c.2-.44.44-.81,1-.54-.1-.41.37-1.1.46-1.49a.38.38,0,0,0,.2,0c-.22-.76,1-.81,1.24-1.22.1-.34-.17-.37-.41-.41.81-.12.71-1.66,1-1.68.34-.32.46.17.76.27.34-.59-.9-.66,0-1,0,.1-.12.29,0,.27.32-.2,1.76.27,1.78-.17l-.32,0c.2-.68,1.73-.46,1.2-1.07l-.32-.22c.68-.29.59-.39.66-.56v-8.78Zm7.25,14.18H82.79v-3.22h4.88Zm6.66-.85c-.22.29-.34.59-.63.34,0,.37-.22.51-.39.56v0c-.27.07-.49,0-.27.44.17,0,.22-.17.24-.34,0,.39.83.29,1.2.29v-1.17ZM93.19,214l.22-.46c-1.17.37-.12,1.22-1.24.88.27-.24.34-.76,0-.78l-.15.56c-.15,0,.12-.27-.15-.2a4.42,4.42,0,0,0,0,.81l0,0-.49.63c0-.07-.1-.1-.17,0l0,.07h3.32v-1.85C93.92,213.74,93.8,214.11,93.19,214ZM80.42,198.88v16.54h6.78c.2-.44.44-.81,1-.54-.1-.41.37-1.1.46-1.49a.38.38,0,0,0,.2,0c-.22-.76,1-.81,1.24-1.22.1-.34-.17-.37-.41-.41.81-.12.71-1.66,1-1.68.34-.32.46.17.76.27.34-.59-.9-.66,0-1,0,.1-.12.29,0,.27.32-.2,1.76.27,1.78-.17l-.32,0c.2-.68,1.73-.46,1.2-1.07l-.32-.22c.68-.29.59-.39.66-.56v-8.78Zm7.25,14.18H82.79v-3.22h4.88Zm6.66-.85c-.22.29-.34.59-.63.34,0,.37-.22.51-.39.56v0c-.27.07-.49,0-.27.44.17,0,.22-.17.24-.34,0,.39.83.29,1.2.29v-1.17ZM93.19,214l.22-.46c-1.17.37-.12,1.22-1.24.88.27-.24.34-.76,0-.78l-.15.56c-.15,0,.12-.27-.15-.2a4.42,4.42,0,0,0,0,.81l0,0-.49.63c0-.07-.1-.1-.17,0l0,.07h3.32v-1.85C93.92,213.74,93.8,214.11,93.19,214ZM80.77,229v16.3H94.82V229ZM88,242.95H83.16v-3H88Zm20.5-18.84.59-1c1.78-1.81,2.85-4.54,2.85-8.1V194.59a8.25,8.25,0,0,0-.12-1.56l-.73.63c.1-.12.32-.56,0-.59-.32.39-.22.15-.61.27a15.58,15.58,0,0,0-.66-3.34l-.2.68-.29-.07c-.27.85.56,2.54.76,3a.49.49,0,0,1-.56-.07c0,.34,0,.68,0,1V215c0,5.47-3.1,8.32-7.27,8.56,4.51.49,7.61,4.64,7.61,10.13v17.28a9.76,9.76,0,0,1-10.13,9.88H65.42V244.58c-.76,0-1.39,1.54-2.17,1.39.24.66.68-.66.88,0a1,1,0,0,0-.56.24l.37.15a14,14,0,0,0-2.59,2.24l0-.1c-.44.27-.56.51-.44.88-.2,0,0-.37-.29-.32.17,1.27-1.63.78-1.46,1.61a1.18,1.18,0,0,0-.51-.29v21.37H95.06a11.81,11.81,0,0,0,10.71-6.2l3.22-6.08a12.38,12.38,0,0,0,3.34-8.56V233.65A13.2,13.2,0,0,0,108.53,224.11Zm2.85-33.31a1.61,1.61,0,0,0,0,2.1l.27-.85A6.63,6.63,0,0,0,111.39,190.8Zm-1.88-1.29a5.18,5.18,0,0,1,1-.78,12.24,12.24,0,0,0-2.56-3.25,10.85,10.85,0,0,0-1.9-1.44,10.55,10.55,0,0,0-1.64-.88,14,14,0,0,0-5.32-1.1H63v1.07l-4.42,8.22v55.95c2.22-1.22,3.07-3.71,5.1-5,.07-.17-.12-.2-.24-.22.66,0,.1-.51.22-.76l1,0c0-.34-.27-.32-.37-.44a5.2,5.2,0,0,1,1.12-1.07V184.46h33.7a3,3,0,0,1,.46,0,7.16,7.16,0,0,1,1.24.12,9.63,9.63,0,0,1,2.88.88,10.19,10.19,0,0,1,5,4.93c.2-.51.37-1,1-1.15C109.56,189.32,109.46,189.41,109.51,189.51Zm-29.08,9.37v16.54h6.78c.2-.44.44-.81,1-.54-.1-.41.37-1.1.46-1.49a.38.38,0,0,0,.2,0c-.22-.76,1-.81,1.24-1.22.1-.34-.17-.37-.41-.41.81-.12.71-1.66,1-1.68.34-.32.46.17.76.27.34-.59-.9-.66,0-1,0,.1-.12.29,0,.27.32-.2,1.76.27,1.78-.17l-.32,0c.2-.68,1.73-.46,1.2-1.07l-.32-.22c.68-.29.59-.39.66-.56v-8.78Zm7.25,14.18H82.79v-3.22h4.88Zm-6.91,16v16.3H94.82V229ZM88,242.95H83.16v-3H88Zm-7.61-44.07v16.54h6.78c.2-.44.44-.81,1-.54-.1-.41.37-1.1.46-1.49a.38.38,0,0,0,.2,0c-.22-.76,1-.81,1.24-1.22.1-.34-.17-.37-.41-.41.81-.12.71-1.66,1-1.68.34-.32.46.17.76.27.34-.59-.9-.66,0-1,0,.1-.12.29,0,.27.32-.2,1.76.27,1.78-.17l-.32,0c.2-.68,1.73-.46,1.2-1.07l-.32-.22c.68-.29.59-.39.66-.56v-8.78Zm7.25,14.18H82.79v-3.22h4.88Zm6.66-.85c-.22.29-.34.59-.63.34,0,.37-.22.51-.39.56v0c-.27.07-.49,0-.27.44.17,0,.22-.17.24-.34,0,.39.83.29,1.2.29v-1.17ZM93.19,214l.22-.46c-1.17.37-.12,1.22-1.24.88.27-.24.34-.76,0-.78l-.15.56c-.15,0,.12-.27-.15-.2a4.42,4.42,0,0,0,0,.81l0,0-.49.63c0-.07-.1-.1-.17,0l0,.07h3.32v-1.85C93.92,213.74,93.8,214.11,93.19,214Z"/><path class="cls-6" d="M170.57,263.19,166,271.76H146.87V242.7H142v20.49h-.6l-4.53,8.58H117.45v-80.4l4.41-8.22v-1.07h36.09c7,0,12.86,6.19,12.86,13.22v21.2a12.38,12.38,0,0,1-2.86,8.34l-.71,1.31c2.62,2.74,3.93,7.27,3.93,12.15v24.89Zm-1.79-2.38V238.29c0-6.43-2-12.15-7.5-12.51,4.17-.24,7.15-3.69,7.15-9.29V195.3c0-5.72-4.76-10.84-10.48-10.84h-33.7v76.35H139.6V231.74h14.05v29.06ZM153.3,217.69H139.25V198.28H153.3Zm-11.67-8.46v6.07h4.88v-6.07Z"/><path class="cls-6" d="M212.25,271.76H187.71c-6.91,0-11.79-5-11.79-11.91V203.52a12.48,12.48,0,0,1,1.31-5.6l3.45-6.55a12.73,12.73,0,0,1,12.51-9.29H216.3a12.58,12.58,0,0,1,12.86,12.51v56.34a12.58,12.58,0,0,1-3.22,8.69L223,265h.12l-.12.12V265l-.36.83A11.5,11.5,0,0,1,212.25,271.76Zm14.53-77.18a10.27,10.27,0,0,0-10.48-10.12H193.19a10.27,10.27,0,0,0-10.48,10.12v56.34a9.48,9.48,0,0,0,9.77,9.88H217a9.48,9.48,0,0,0,9.77-9.88ZM211.65,245H197.84V198.87h13.82Zm-11.43-35.13v32.75h4.64V209.83Z"/><path class="cls-6" d="M288.11,250.68a11.39,11.39,0,0,1-1.67,5.6l-1.43,2.5-3.34,6.43a12.77,12.77,0,0,1-11.19,6.55H246.54a12.38,12.38,0,0,1-12.62-12.15V245.56l4.29-8.1a10.46,10.46,0,0,1-4.29-8.1V203.28a12.79,12.79,0,0,1,1.43-5.84l3.21-6.2c1.43-5.84,6.67-9.17,12.74-9.17h24.3c7.15,0,12.51,5.12,12.51,12.27v14.29h-.6l-3.81,7.15a11.71,11.71,0,0,1,4.41,9.41Zm-2.38-25.49a9.77,9.77,0,0,0-10.12-9.89H256.07V198.39H271v7.86h14.77V194.35a9.77,9.77,0,0,0-10.12-9.89H251.3c-5.72,0-10.6,3.57-10.6,9.89v26.08c0,4.64,4.88,8.81,10.6,8.81H271v17.63H255.83v-8.22H240.71v12a10.37,10.37,0,0,0,10.6,10.12h23.94a10.27,10.27,0,0,0,10.48-10.12ZM257.5,208.64v5h6v-5Zm.36,30.13v6.31h6v-6.31Z"/><path class="cls-6" d="M347.53,250.68a11.39,11.39,0,0,1-1.67,5.6l-1.43,2.5-3.34,6.43a12.77,12.77,0,0,1-11.19,6.55H306a12.38,12.38,0,0,1-12.62-12.15V245.56l4.29-8.1a10.46,10.46,0,0,1-4.29-8.1V203.28a12.79,12.79,0,0,1,1.43-5.84l3.21-6.2c1.43-5.84,6.67-9.17,12.74-9.17H335c7.15,0,12.51,5.12,12.51,12.27v14.29h-.6l-3.81,7.15a11.71,11.71,0,0,1,4.41,9.41Zm-2.38-25.49A9.77,9.77,0,0,0,335,215.31H315.5V198.39h14.89v7.86h14.77V194.35A9.77,9.77,0,0,0,335,184.46h-24.3c-5.72,0-10.6,3.57-10.6,9.89v26.08c0,4.64,4.88,8.81,10.6,8.81h19.65v17.63H315.26v-8.22H300.13v12a10.37,10.37,0,0,0,10.6,10.12h23.94a10.27,10.27,0,0,0,10.48-10.12Zm-28.23-16.56v5h6v-5Zm.36,30.13v6.31h6v-6.31Z"/><path class="cls-1" d="M327.38,71.44a2.58,2.58,0,0,0-.32,1v0"/><path class="cls-1" d="M100.8,112.21v.34a.45.45,0,0,1,.17,0C101.36,112.24,101.07,112.26,100.8,112.21ZM70.05,145.44l-.15.34a.69.69,0,0,1,.32,0C70.18,145.59,70.13,145.47,70.05,145.44Zm42-48a.85.85,0,0,1,.12-.32C112,97.21,112,97.25,112,97.4ZM73.23,142.49l-.1-.1-.12,0"/></svg>