<svg id="Layer_1" data-name="Layer 1" xmlns="http://www.w3.org/2000/svg" xmlns:xlink="http://www.w3.org/1999/xlink" viewBox="0 0 241.61 241.08"><defs><style>.cls-1,.cls-2{fill:none;}.cls-2{stroke:#231f20;stroke-miterlimit:10;stroke-width:2px;}.cls-3{fill:#ff5950;}.cls-4{fill:url(#CROSSES);}</style><pattern id="CROSSES" data-name="CROSSES" width="45.97" height="49.93" patternTransform="translate(19.42 -309.91) rotate(-14.22)" patternUnits="userSpaceOnUse" viewBox="0 0 45.97 49.93"><rect class="cls-1" width="45.97" height="49.93"/><line class="cls-2" x1="45.97" y1="41.95" x2="45.97" y2="57.91"/><line class="cls-2" x1="53.95" y1="49.93" x2="37.98" y2="49.93"/><line class="cls-2" y1="41.95" y2="57.91"/><line class="cls-2" x1="7.98" y1="49.93" x2="-7.98" y2="49.93"/><line class="cls-2" x1="22.98" y1="16.98" x2="22.98" y2="32.95"/><line class="cls-2" x1="30.97" y1="24.97" x2="15" y2="24.97"/><line class="cls-2" x1="45.97" y1="-7.98" x2="45.97" y2="7.98"/><line class="cls-2" x1="53.95" x2="37.98"/><line class="cls-2" y1="-7.98" y2="7.98"/><line class="cls-2" x1="7.98" x2="-7.98"/></pattern></defs><title>right</title><polyline class="cls-3" points="241.92 206.83 194.37 218.55 0 13.29 52.23 0.41 229.17 0.41 240.8 47.58"/><polyline class="cls-4" points="237.86 227.16 182.95 241.08 -12.74 37.07 131.93 0.41 210.41 -0.7 241.92 123.64"/></svg>